<svg width="30" height="30" viewBox="0 0 30 30" fill="none" xmlns="http://www.w3.org/2000/svg">
<g id="Group 2612605">
<path id="Vector" d="M28.1253 3.32657L26.3288 3.26567C24.7455 3.20477 23.1621 2.99163 21.6092 2.59579C19.7823 2.13905 18.0467 1.43872 16.4024 0.555696L15.5194 0.0685105C15.3672 -0.0228368 15.2149 -0.0228368 15.0627 0.0685105L14.1797 0.555696C12.5354 1.46917 10.7693 2.13905 8.97285 2.59579C7.45039 2.99163 5.86704 3.20477 4.25324 3.26567L2.45674 3.32657C2.21314 3.32657 2 3.53971 2 3.81375V12.7962C2 18.5207 4.77087 23.9102 9.42959 27.2596C11.0129 28.3862 12.7485 29.2692 14.6059 29.8173L15.154 29.9695C15.1845 29.9695 15.2454 30 15.3063 30C15.3672 30 15.3976 30 15.4585 29.9695L16.0066 29.8173C17.864 29.2692 19.5996 28.3862 21.1829 27.2596C25.8417 23.9406 28.6125 18.5207 28.6125 12.7962V3.7833C28.5821 3.53971 28.3994 3.32657 28.1253 3.32657ZM27.6382 12.7962C27.6382 18.2162 25.0195 23.3316 20.6044 26.4679C19.1124 27.5336 17.4682 28.3557 15.7021 28.8734L15.3063 28.9952L14.9104 28.8734C13.1444 28.3557 11.5001 27.5336 10.0081 26.4375C5.593 23.3012 2.97437 18.2162 2.97437 12.7962V4.27049L4.31413 4.20959C5.95839 4.14869 7.63309 3.9051 9.21644 3.50926C11.1043 3.02208 12.9312 2.32175 14.6364 1.37782L15.3063 1.01243L15.9761 1.37782C17.6813 2.32175 19.5082 3.02208 21.3961 3.50926C23.0099 3.9051 24.6541 4.14869 26.2984 4.20959L27.6382 4.27049V12.7962ZM21.1829 4.36184C19.2342 3.87465 17.3159 3.11342 15.5499 2.13905C15.3976 2.0477 15.2454 2.0477 15.0931 2.13905C13.2966 3.11342 11.4088 3.8442 9.46004 4.36184C7.78533 4.78813 6.08018 5.03172 4.37503 5.09262C4.13144 5.09262 3.91829 5.30576 3.91829 5.5798V12.7962C3.91829 17.9117 6.41512 22.7531 10.5867 25.7371C11.9873 26.7419 13.5707 27.5336 15.2149 28.0208C15.2454 28.0208 15.3063 28.0513 15.3672 28.0513C15.4281 28.0513 15.4585 28.0513 15.5194 28.0208C17.1941 27.5032 18.747 26.7419 20.1477 25.7371C24.3192 22.7531 26.816 17.9117 26.816 12.7962V5.5798C26.816 5.33621 26.6029 5.12307 26.3593 5.09262C24.5628 5.03172 22.8577 4.78813 21.1829 4.36184ZM25.7808 12.7962C25.7808 17.6072 23.4362 22.1746 19.5082 24.9759C18.2294 25.8894 16.7983 26.6201 15.3063 27.0769C13.7838 26.5897 12.3832 25.8894 11.1043 24.9759C7.17635 22.1746 4.83177 17.6072 4.83177 12.7962V6.03654C6.47602 5.94519 8.08983 5.7016 9.67318 5.30576C11.6219 4.81857 13.5098 4.0878 15.3063 3.11342C17.1028 4.05735 18.9906 4.78813 20.9394 5.30576C22.5227 5.7016 24.1365 5.94519 25.7808 6.03654V12.7962ZM23.0099 12.9789C23.1926 13.6184 23.2535 14.3187 23.2535 14.9886C23.2535 19.3733 19.6909 22.9358 15.3063 22.9358C10.9216 22.9358 7.35905 19.3733 7.35905 14.9886C7.35905 10.6039 10.9216 7.04136 15.3063 7.04136C16.5851 7.04136 17.864 7.34585 18.9906 7.95483C19.2342 8.07663 19.3256 8.38112 19.2038 8.59427C19.082 8.83786 18.7775 8.92921 18.5643 8.80741C17.5595 8.28977 16.4633 8.01573 15.3063 8.01573C11.4392 8.01573 8.33342 11.152 8.33342 14.9886C8.33342 18.8252 11.4392 21.9614 15.3063 21.9614C19.1733 21.9614 22.2791 18.8556 22.2791 14.9886C22.2791 14.3796 22.2182 13.8011 22.066 13.2225C22.0051 12.9789 22.1573 12.7049 22.4009 12.644C22.675 12.5831 22.9185 12.7353 23.0099 12.9789ZM14.9104 14.3492L12.9008 12.3395C12.2918 11.7305 11.3174 11.7305 10.678 12.3395C10.3735 12.644 10.2213 13.0398 10.2213 13.4357C10.2213 13.862 10.3735 14.2578 10.678 14.5318L13.7838 17.6377C14.0883 17.9421 14.4841 18.0944 14.88 18.0944C15.3063 18.0944 15.7021 17.9421 15.9761 17.6377L23.1012 10.5126C23.7102 9.90358 23.7102 8.89876 23.1012 8.32022C22.7968 8.01573 22.4009 7.86349 22.0051 7.86349C21.6092 7.86349 21.1829 8.01573 20.9089 8.32022L14.9104 14.3492ZM22.4314 9.02055C22.675 9.26415 22.675 9.62954 22.4314 9.87313L15.3367 16.9982C15.1236 17.2114 14.7277 17.2114 14.4841 16.9982L11.3479 13.8924C11.2261 13.7706 11.1652 13.6184 11.1652 13.4661C11.1652 13.3139 11.2261 13.1616 11.3479 13.0398C11.4697 12.918 11.6219 12.8571 11.7742 12.8571C11.9264 12.8571 12.0787 12.918 12.2005 13.0398L14.545 15.3844C14.6364 15.4758 14.7582 15.5367 14.88 15.5367C15.0018 15.5367 15.1236 15.4758 15.2149 15.3844L21.5788 9.02055C21.8224 8.80741 22.2182 8.80741 22.4314 9.02055Z" fill="currentColor"/>
</g>
</svg>
