<svg width="12" height="10" viewBox="0 0 12 10" fill="none" xmlns="http://www.w3.org/2000/svg">
<g id="Group">
<path id="Vector" d="M6.89517 10C7.04031 10 7.06461 9.92502 6.96774 9.82492L3.31441 6.05005C3.2177 5.95012 3.24184 5.87497 3.38697 5.87497H11.758C11.9031 5.87497 12 5.77504 12 5.6249V4.37493C12 4.22496 11.9033 4.12486 11.758 4.12486L3.38697 4.12504C3.24184 4.12504 3.21754 4.05005 3.31441 3.94995L6.96761 0.175081C7.06431 0.0751593 7.04018 0 6.89504 0H4.98383C4.83869 0 4.66926 0.0749852 4.57256 0.175081L0.072526 4.82498C-0.0241753 4.9249 -0.0241753 5.07505 0.072526 5.17496L4.57256 9.82486C4.66926 9.92478 4.86283 9.99994 4.98383 9.99994L6.89517 10Z" fill="#3A3A3A"/>
</g>
</svg>
