<svg width="16" height="15" viewBox="0 0 16 15" fill="none" xmlns="http://www.w3.org/2000/svg">
<g id="Group 2612729">
<g id="Layer 2">
<g id="Group">
<path id="Vector" d="M7.10584 2.85972C7.14577 2.89334 7.192 2.92276 7.24244 2.95218C7.27396 2.969 7.30548 2.98371 7.337 2.99632C7.37063 3.00892 7.40215 3.02153 7.43157 3.03204V3.61836C7.37903 3.60365 7.3307 3.58053 7.28657 3.54691C7.24243 3.51539 7.20671 3.47756 7.17939 3.43343C7.16048 3.3998 7.13105 3.37669 7.09323 3.36828C7.0554 3.35777 7.01968 3.36618 6.98605 3.3893C6.95453 3.41241 6.93562 3.44394 6.92721 3.48386C6.9188 3.52169 6.92511 3.55952 6.94612 3.59314C6.99656 3.6772 7.06381 3.74865 7.14997 3.80539C7.23613 3.86424 7.3286 3.90206 7.43157 3.92098V3.99453C7.43157 4.02605 7.44208 4.05547 7.46519 4.07859C7.48621 4.10171 7.51353 4.11431 7.54505 4.11431C7.57657 4.11431 7.60179 4.10171 7.62281 4.07859C7.64382 4.05547 7.65643 4.02605 7.65643 3.99453V3.92308C7.68795 3.92098 7.72158 3.91257 7.76151 3.89786C7.87078 3.86634 7.96325 3.8075 8.0368 3.72344C8.07463 3.6772 8.10405 3.62887 8.12717 3.57633C8.15028 3.52379 8.16289 3.46915 8.1692 3.41031C8.1734 3.35147 8.1671 3.29473 8.15239 3.23589C8.13767 3.17704 8.11246 3.12451 8.07673 3.07407C8.01999 2.99421 7.94013 2.92697 7.83716 2.87443C7.80564 2.85762 7.77622 2.84291 7.7468 2.8324C7.71737 2.82189 7.68795 2.81138 7.65643 2.80088V2.21666C7.70897 2.23137 7.7573 2.25448 7.80143 2.28601C7.84557 2.31753 7.88129 2.35536 7.91071 2.39739C7.93173 2.43101 7.96115 2.45203 7.99898 2.46043C8.0368 2.46884 8.07043 2.46043 8.10405 2.43942C8.13768 2.4163 8.15659 2.38478 8.16499 2.34485C8.1734 2.30492 8.16499 2.26709 8.14398 2.23347C8.09144 2.15151 8.02209 2.08216 7.93593 2.02542C7.84977 1.96868 7.7573 1.93085 7.65853 1.91404V1.83629C7.65853 1.80476 7.64803 1.77744 7.62491 1.75433C7.60389 1.73121 7.57657 1.7207 7.54715 1.7207C7.51563 1.7207 7.49041 1.73121 7.4673 1.75433C7.44628 1.77744 7.43367 1.80476 7.43367 1.83629V1.90984C7.41686 1.91404 7.39795 1.91824 7.38113 1.92035C7.36432 1.92245 7.34541 1.92665 7.3286 1.93296C7.21932 1.96448 7.12685 2.02332 7.0533 2.10738C7.01547 2.15151 6.98605 2.19774 6.96083 2.25028C6.93562 2.30282 6.92301 2.35746 6.9188 2.4142C6.9125 2.53819 6.94192 2.64957 7.00707 2.74624C7.03228 2.78827 7.06591 2.82609 7.10584 2.85972ZM7.65433 3.1119L7.71107 3.14132C7.77412 3.17074 7.82245 3.20857 7.85187 3.2548C7.88339 3.29683 7.8939 3.34306 7.8876 3.3893C7.8876 3.43973 7.86868 3.48386 7.83086 3.52379C7.81404 3.54481 7.79093 3.56372 7.76571 3.57843C7.73839 3.59314 7.71107 3.60575 7.67955 3.61626L7.65433 3.62677V3.1119ZM7.1962 2.44362C7.1983 2.4205 7.20461 2.39529 7.21512 2.37217C7.22562 2.34905 7.23823 2.32594 7.25715 2.30702C7.29497 2.26499 7.34541 2.23347 7.40845 2.21666L7.43577 2.20615V2.71682L7.37273 2.68739C7.31178 2.65377 7.26555 2.61594 7.23403 2.57391C7.22142 2.555 7.21091 2.53398 7.20251 2.51087C7.1941 2.48985 7.192 2.46674 7.1962 2.44362Z" fill="currentColor"/>
<path id="Vector_2" d="M0.197464 5.45077H14.8071C14.8933 5.45077 14.9689 5.39403 14.9941 5.30997C15.0194 5.22591 14.9899 5.13555 14.9185 5.08511L7.96252 0.14658C7.68512 -0.0488599 7.31946 -0.0488599 7.04416 0.14658L0.0881865 5.08511C0.0188369 5.13555 -0.0126858 5.22591 0.0125323 5.30997C0.0356488 5.39403 0.111303 5.45077 0.197464 5.45077ZM7.54432 1.17421C8.51731 1.17421 9.30538 1.95387 9.30538 2.91636C9.30538 3.87885 8.51731 4.66061 7.54432 4.66061C6.57132 4.66061 5.78326 3.88095 5.78326 2.91636C5.78116 1.95597 6.57132 1.17421 7.54432 1.17421Z" fill="currentColor"/>
<path id="Vector_3" d="M14.9333 14.1006H14.4962V12.7494C14.4962 12.7116 14.4646 12.6821 14.4289 12.6821H0.65777C0.619943 12.6821 0.588421 12.7116 0.588421 12.7494V14.1006H0.0693493C0.0315223 14.1006 0 14.1301 0 14.1679V14.9328C0 14.9707 0.0315223 15.0001 0.0693493 15.0001H14.9333C14.9711 15.0001 15.0005 14.9707 15.0005 14.9328V14.1679C15.0026 14.1322 14.9711 14.1006 14.9333 14.1006Z" fill="currentColor"/>
<path id="Vector_4" d="M4.10129 6.57299C4.10129 6.40066 3.96049 6.26196 3.78817 6.26196H1.735C1.56268 6.26196 1.42188 6.40066 1.42188 6.57299C1.42188 6.74531 1.56268 6.88401 1.735 6.88401V11.2593C1.56268 11.2593 1.42188 11.398 1.42188 11.5704C1.42188 11.7427 1.56268 11.8814 1.735 11.8814H3.78817C3.96049 11.8814 4.10129 11.7427 4.10129 11.5704C4.10129 11.398 3.96049 11.2593 3.78817 11.2593V6.88191C3.96259 6.88191 4.10129 6.74321 4.10129 6.57299Z" fill="currentColor"/>
<path id="Vector_5" d="M8.84348 6.57299C8.84348 6.40066 8.70268 6.26196 8.53036 6.26196H6.47719C6.30486 6.26196 6.16406 6.40066 6.16406 6.57299C6.16406 6.74531 6.30486 6.88401 6.47719 6.88401V11.2593C6.30486 11.2593 6.16406 11.398 6.16406 11.5704C6.16406 11.7427 6.30486 11.8814 6.47719 11.8814H8.53036C8.70268 11.8814 8.84348 11.7427 8.84348 11.5704C8.84348 11.398 8.70268 11.2593 8.53036 11.2593V6.88191C8.70268 6.88191 8.84348 6.74321 8.84348 6.57299Z" fill="currentColor"/>
<path id="Vector_6" d="M13.5818 6.57299C13.5818 6.40066 13.441 6.26196 13.2686 6.26196H11.2155C11.0431 6.26196 10.9023 6.40066 10.9023 6.57299C10.9023 6.74531 11.0431 6.88401 11.2155 6.88401V11.2593C11.0431 11.2593 10.9023 11.398 10.9023 11.5704C10.9023 11.7427 11.0431 11.8814 11.2155 11.8814H13.2686C13.441 11.8814 13.5818 11.7427 13.5818 11.5704C13.5818 11.398 13.441 11.2593 13.2686 11.2593V6.88191C13.4431 6.88191 13.5818 6.74321 13.5818 6.57299Z" fill="currentColor"/>
</g>
</g>
</g>
</svg>
