<svg width="90" height="88" viewBox="0 0 90 88" fill="none" xmlns="http://www.w3.org/2000/svg">
<path d="M85.8693 44.1416C85.7218 44.1416 85.5742 43.9983 85.5742 43.855C85.5742 43.7117 85.7218 43.5684 85.8693 43.5684H88.8201C88.9677 43.5684 89.1152 43.7117 89.1152 43.855C89.1152 43.9983 88.9677 44.1416 88.8201 44.1416H85.8693Z" fill="#FFE0A1"/>
<path d="M1.32633 44.1416C1.17879 44.1416 1.03125 43.9983 1.03125 43.855C1.03125 43.7117 1.17879 43.5684 1.32633 43.5684H4.27716C4.4247 43.5684 4.57224 43.7117 4.57224 43.855C4.57224 43.9983 4.4247 44.1416 4.27716 44.1416H1.32633Z" fill="#FFE0A1"/>
<path d="M45.0015 84.6973C68.3061 84.6973 87.1982 66.3466 87.1982 43.71C87.1982 21.0733 68.3061 2.72266 45.0015 2.72266C21.6968 2.72266 2.80469 21.0733 2.80469 43.71C2.80469 66.3466 21.6968 84.6973 45.0015 84.6973Z" fill="#C9C8C8"/>
<path d="M74.8019 14.7617C91.3265 30.8127 91.3265 56.7522 74.8019 72.6599C58.2773 88.7109 31.7199 88.7109 15.1953 72.6599" fill="#D9D9D9"/>
<path d="M45.0001 87.4205C20.2131 87.4205 0 67.7867 0 43.7103C0 19.6338 20.2131 0 45.0001 0C69.787 0 90.0001 19.6338 90.0001 43.7103C90.0001 67.7867 69.787 87.4205 45.0001 87.4205ZM45.0001 5.58918C23.3115 5.58918 5.60656 22.7867 5.60656 43.8536C5.60656 64.9205 23.3115 82.1179 45.0001 82.1179C66.6886 82.1179 84.3935 64.9205 84.3935 43.8536C84.3935 22.6433 66.6886 5.58918 45.0001 5.58918Z" fill="#79B901"/>
<path d="M31.6233 42.988C32.1739 43.0907 32.6266 43.366 32.9813 43.814C33.3359 44.262 33.5133 44.7753 33.5133 45.354C33.5133 45.8767 33.3826 46.3387 33.1213 46.74C32.8693 47.132 32.5006 47.44 32.0153 47.664C31.5299 47.888 30.9559 48 30.2933 48H26.0793V38.228H30.1113C30.7739 38.228 31.3433 38.3353 31.8193 38.55C32.3046 38.7647 32.6686 39.0633 32.9113 39.446C33.1633 39.8287 33.2893 40.2627 33.2893 40.748C33.2893 41.3173 33.1353 41.7933 32.8273 42.176C32.5286 42.5587 32.1273 42.8293 31.6233 42.988ZM28.0393 42.26H29.8313C30.2979 42.26 30.6573 42.1573 30.9093 41.952C31.1613 41.7373 31.2873 41.434 31.2873 41.042C31.2873 40.65 31.1613 40.3467 30.9093 40.132C30.6573 39.9173 30.2979 39.81 29.8313 39.81H28.0393V42.26ZM30.0133 46.404C30.4893 46.404 30.8579 46.292 31.1193 46.068C31.3899 45.844 31.5253 45.5267 31.5253 45.116C31.5253 44.696 31.3853 44.3693 31.1053 44.136C30.8253 43.8933 30.4473 43.772 29.9713 43.772H28.0393V46.404H30.0133ZM34.5994 43.1C34.5994 42.1387 34.814 41.28 35.2434 40.524C35.682 39.7587 36.2747 39.166 37.0214 38.746C37.7774 38.3167 38.622 38.102 39.5554 38.102C40.6474 38.102 41.604 38.382 42.4254 38.942C43.2467 39.502 43.8207 40.2767 44.1474 41.266H41.8934C41.6694 40.7993 41.352 40.4493 40.9414 40.216C40.54 39.9827 40.0734 39.866 39.5414 39.866C38.972 39.866 38.4634 40.0013 38.0154 40.272C37.5767 40.5333 37.2314 40.9067 36.9794 41.392C36.7367 41.8773 36.6154 42.4467 36.6154 43.1C36.6154 43.744 36.7367 44.3133 36.9794 44.808C37.2314 45.2933 37.5767 45.6713 38.0154 45.942C38.4634 46.2033 38.972 46.334 39.5414 46.334C40.0734 46.334 40.54 46.2173 40.9414 45.984C41.352 45.7413 41.6694 45.3867 41.8934 44.92H44.1474C43.8207 45.9187 43.2467 46.698 42.4254 47.258C41.6134 47.8087 40.6567 48.084 39.5554 48.084C38.622 48.084 37.7774 47.874 37.0214 47.454C36.2747 47.0247 35.682 46.432 35.2434 45.676C34.814 44.92 34.5994 44.0613 34.5994 43.1ZM50.3575 48.098C49.4428 48.098 48.6028 47.8833 47.8375 47.454C47.0721 47.0247 46.4655 46.432 46.0175 45.676C45.5695 44.9107 45.3455 44.0473 45.3455 43.086C45.3455 42.134 45.5695 41.28 46.0175 40.524C46.4655 39.7587 47.0721 39.1613 47.8375 38.732C48.6028 38.3027 49.4428 38.088 50.3575 38.088C51.2815 38.088 52.1215 38.3027 52.8775 38.732C53.6428 39.1613 54.2448 39.7587 54.6835 40.524C55.1315 41.28 55.3555 42.134 55.3555 43.086C55.3555 44.0473 55.1315 44.9107 54.6835 45.676C54.2448 46.432 53.6428 47.0247 52.8775 47.454C52.1121 47.8833 51.2721 48.098 50.3575 48.098ZM50.3575 46.348C50.9455 46.348 51.4635 46.2173 51.9115 45.956C52.3595 45.6853 52.7095 45.3027 52.9615 44.808C53.2135 44.3133 53.3395 43.7393 53.3395 43.086C53.3395 42.4327 53.2135 41.8633 52.9615 41.378C52.7095 40.8833 52.3595 40.5053 51.9115 40.244C51.4635 39.9827 50.9455 39.852 50.3575 39.852C49.7695 39.852 49.2468 39.9827 48.7895 40.244C48.3415 40.5053 47.9915 40.8833 47.7395 41.378C47.4875 41.8633 47.3615 42.4327 47.3615 43.086C47.3615 43.7393 47.4875 44.3133 47.7395 44.808C47.9915 45.3027 48.3415 45.6853 48.7895 45.956C49.2468 46.2173 49.7695 46.348 50.3575 46.348ZM57.2057 45.788C58.1017 45.0413 58.8157 44.4207 59.3477 43.926C59.8797 43.422 60.323 42.8993 60.6777 42.358C61.0323 41.8167 61.2097 41.2847 61.2097 40.762C61.2097 40.286 61.0977 39.9127 60.8737 39.642C60.6497 39.3713 60.3043 39.236 59.8377 39.236C59.371 39.236 59.0117 39.3947 58.7597 39.712C58.5077 40.02 58.377 40.4447 58.3677 40.986H56.4637C56.501 39.866 56.8323 39.0167 57.4577 38.438C58.0923 37.8593 58.895 37.57 59.8657 37.57C60.9297 37.57 61.7463 37.8547 62.3157 38.424C62.885 38.984 63.1697 39.726 63.1697 40.65C63.1697 41.378 62.9737 42.0733 62.5817 42.736C62.1897 43.3987 61.7417 43.9773 61.2377 44.472C60.7337 44.9573 60.0757 45.5453 59.2637 46.236H63.3937V47.86H56.4777V46.404L57.2057 45.788Z" fill="#2E7800"/>
</svg>
