<svg width="11" height="12" viewBox="0 0 11 12" fill="none" xmlns="http://www.w3.org/2000/svg">
<g id="Group 2612897">
<g id="Group">
<g id="Group_2">
<g id="Group_3">
<path id="Vector" d="M7.74904 4.13602L6.82527 4.10156L6.625 9.6629L7.54876 9.69722L7.74904 4.13602Z" fill="#3A3A3A"/>
<path id="Vector_2" d="M5.95952 4.11914H5.03516V9.68051H5.95952V4.11914Z" fill="#3A3A3A"/>
<path id="Vector_3" d="M4.37404 9.66293L4.17376 4.10156L3.25 4.13604L3.4503 9.69738L4.37404 9.66293Z" fill="#3A3A3A"/>
<path id="Vector_4" d="M0 1.80078V2.74072H0.963199L1.72732 11.5704C1.74827 11.8131 1.94811 11.9992 2.18766 11.9992H8.79676C9.03633 11.9992 9.23631 11.813 9.2571 11.5703L10.0212 2.74072H11V1.80078H0ZM8.37342 11.0593H2.61089L1.89111 2.74072H9.09336L8.37342 11.0593Z" fill="#3A3A3A"/>
</g>
</g>
</g>
<g id="Group_4">
<g id="Group_5">
<path id="Vector_5" d="M7.01257 0H3.99296C3.56821 0 3.22266 0.351375 3.22266 0.783281V2.27154H4.14702V0.939937H6.85851V2.27154H7.78288V0.783281C7.78288 0.351375 7.43732 0 7.01257 0Z" fill="#3A3A3A"/>
</g>
</g>
</g>
</svg>
