<svg width="104" height="63" viewBox="0 0 104 63" fill="none" xmlns="http://www.w3.org/2000/svg">
<g id="Vector">
<path d="M64.3351 54.3364C64.3351 53.6301 63.8213 53.277 62.7937 53.277H61.8539C61.3276 53.277 60.8389 53.4158 60.3877 53.6932C59.9617 53.9706 59.7487 54.3111 59.7487 54.7147V63H56.1397V51.1584H59.7487V51.8772C60.3251 51.398 61.1396 51.1584 62.1922 51.1584H63.508C64.7361 51.1584 65.7762 51.4106 66.6283 51.9151C67.5055 52.4195 67.9441 53.1005 67.9441 53.958V63H64.3351V54.3364Z" fill="#6B88B0"/>
<path d="M76.5935 60.8814C77.596 60.8814 78.0972 60.5283 78.0972 59.8221V54.2985C78.0972 53.5923 77.596 53.2392 76.5935 53.2392H75.5033C74.4757 53.2392 73.9619 53.5923 73.9619 54.2985V59.8221C73.9619 60.5283 74.4757 60.8814 75.5033 60.8814H76.5935ZM70.3529 53.958C70.3529 53.1005 70.779 52.4195 71.6311 51.9151C72.5083 51.3854 73.5609 51.1206 74.789 51.1206H77.3078C78.5108 51.1206 79.5258 51.3728 80.3528 51.8772C81.2551 52.3817 81.7062 53.0753 81.7062 53.958V60.1626C81.7062 61.0453 81.2551 61.7389 80.3528 62.2434C79.5258 62.7478 78.5108 63 77.3078 63H74.789C72.8592 63 71.5058 62.4577 70.7289 61.3732C70.4782 61.0201 70.3529 60.6166 70.3529 60.1626V53.958Z" fill="#6B88B0"/>
<path d="M95.6094 63L93.3914 56.4928L91.1734 63H87.5268L83.4667 51.1206H87.0756L89.3313 57.7035L91.5869 51.1206H95.1959L97.4139 57.7035L99.6695 51.1206H103.316L99.256 63H95.6094Z" fill="#6B88B0"/>
<path d="M12.1933 37.3247C12.0949 37.3467 11.994 37.3559 11.8933 37.3521C11.741 37.3462 11.5915 37.3102 11.4531 37.2462C11.3148 37.1821 11.1903 37.0913 11.0869 36.9789C10.9835 36.8665 10.9031 36.7347 10.8503 36.591C10.7975 36.4474 10.7735 36.2947 10.7794 36.1416C10.9122 32.7366 12.3268 29.4719 14.874 26.7016C16.7757 24.6289 18.6408 23.5558 18.7193 23.5112C18.9862 23.3656 19.2993 23.331 19.5912 23.4149C19.8832 23.4987 20.1307 23.6944 20.2807 23.9597C20.4307 24.2251 20.4712 24.5391 20.3935 24.8343C20.3158 25.1295 20.1261 25.3823 19.8651 25.5385C19.8487 25.5481 18.1893 26.5143 16.5292 28.3374C14.3631 30.717 13.209 33.3739 13.0983 36.2345C13.0878 36.491 12.9934 36.7368 12.8297 36.9339C12.6661 37.1311 12.4424 37.2684 12.1933 37.3247Z" fill="url(#paint0_linear_5076_1926)"/>
<path fill-rule="evenodd" clip-rule="evenodd" d="M24.1306 18.9516L23.8245 16.9714C21.4276 18.0536 19.7547 18.0366 18.3528 18.0223C17.744 18.0161 17.1864 18.0104 16.6428 18.0955C11.6847 18.8716 8.35065 23.9333 9.19579 29.4015C9.48684 31.2847 9.80248 32.8196 10.1416 34.0062L10.138 34.0883C9.86436 34.5255 7.81319 34.8863 5.31944 34.9152C2.67734 34.9458 0.523389 34.5924 0.451781 34.122L0.446876 34.1235C0.148959 32.9355 0 31.5896 0 30.0857C0 27.2057 1.10725 19.8 3.32175 7.86857L0.459935 3.75429C2.57223 2.48572 4.34383 1.54286 5.77474 0.925715C7.23972 0.308572 8.68766 0 10.1186 0C11.5835 0 12.6567 0.291429 13.3381 0.874287C14.0195 1.45714 14.3602 2.38286 14.3602 3.65143C14.3602 5.45168 13.913 8.6712 13.0187 13.31C13.6333 12.7949 14.5466 12.1792 15.6069 11.5893C15.7368 11.517 15.8659 11.4468 15.9938 11.3788C16.5304 11.0479 17.2971 10.6918 18.1726 10.3863C18.233 10.3652 18.2931 10.3446 18.353 10.3246C18.4001 10.3086 18.4464 10.2933 18.4917 10.2788C18.6605 10.224 18.8266 10.1735 18.9888 10.1272C19.4271 9.98723 19.9267 9.85788 20.4612 9.75102C21.2818 9.58697 22.0466 9.50352 22.6506 9.49804C22.965 9.47459 23.2848 9.46286 23.61 9.46286C26.2674 9.46286 28.3456 10.6114 29.8447 12.9086C31.3437 15.1714 32.0932 17.9314 32.0932 21.1886C32.0932 24.4114 31.4459 27.3257 30.1513 29.9314C28.8907 32.5029 27.2384 34.5943 25.1942 36.2057C23.1841 37.7829 20.9867 39 18.6018 39.8571C16.217 40.7143 13.8492 41.1429 11.4984 41.1429C11.2597 41.1429 11.0247 41.1394 10.7935 41.1326L10.7898 41.1265C10.1659 41.0293 9.84124 39.6213 10.0644 37.9715C10.2693 36.456 10.8655 35.2615 11.4473 35.1345V35.1254L11.4595 35.12C11.5896 35.1086 11.7188 35.0955 11.8471 35.0808C12.2323 35.0435 12.6827 34.9832 13.1619 34.9015C13.503 34.8434 13.8269 34.78 14.1209 34.7149L15.5002 34.499C21.4494 33.5678 25.6037 28.4832 24.1306 18.9516ZM0.446876 34.1235C0.455139 34.1565 0.463517 34.1893 0.47201 34.222L0.471754 34.222L0.446281 34.1237L0.446876 34.1235Z" fill="url(#paint1_linear_5076_1926)"/>
<path d="M10.1706 34.1066C10.1745 34.1016 10.1787 34.0967 10.1831 34.0918L10.166 34.091L10.1706 34.1066Z" fill="url(#paint2_linear_5076_1926)"/>
<path d="M10.1423 33.8972L10.1424 33.892C10.1437 33.8951 10.1449 33.8982 10.1462 33.9011L10.1461 33.9039C10.1448 33.9016 10.1436 33.8994 10.1423 33.8972Z" fill="url(#paint3_linear_5076_1926)"/>
<path d="M10.2414 42.6318C10.2595 42.6257 10.2774 42.619 10.295 42.6119C10.281 42.648 10.2669 42.684 10.2527 42.7198L10.2492 42.6923L10.2455 42.6632L10.2414 42.6318Z" fill="url(#paint4_linear_5076_1926)"/>
<path d="M38.6477 39.5486C39.6016 40.6114 41.0837 41.1429 43.0937 41.1429C45.1038 41.1429 47.0117 40.3029 48.8174 38.6229C48.1019 37.6286 47.7442 36.0171 47.7442 33.7886C47.7442 31.5257 48.136 29.3143 48.9196 27.1543C49.7032 24.96 50.6571 23.16 51.7814 21.7543C52.9398 20.3143 54.1322 19.1829 55.3587 18.36C56.5852 17.5029 57.6754 17.0743 58.6293 17.0743C59.7877 17.0743 60.3669 17.8457 60.3669 19.3886C60.3669 20.52 59.8558 22.9714 58.8337 26.7429C57.8117 30.5143 57.3006 33.1886 57.3006 34.7657C57.3006 39.0171 59.2596 41.1429 63.1776 41.1429C65.1877 41.1429 67.0955 40.3029 68.9012 38.6229C68.1858 37.6286 67.828 36.0514 67.828 33.8914C67.828 31.7314 68.322 28.5257 69.31 24.2743C70.3321 20.0229 70.8432 17.0057 70.8432 15.2229C70.8432 11.0743 68.782 9 64.6596 9C59.0382 9 54.4047 12.1371 50.7593 18.4114L50.2483 18.1543C51.0319 16.3714 51.4237 14.6229 51.4237 12.9086C51.4237 10.3029 49.9928 9 47.131 9C44.2691 9 41.1518 9.96 37.7789 11.88L40.4363 15.9943C39.6868 19.2514 38.9543 22.8514 38.2389 26.7943C37.5575 30.7371 37.2168 33.5829 37.2168 35.3314C37.2168 37.08 37.6938 38.4857 38.6477 39.5486Z" fill="url(#paint5_linear_5076_1926)"/>
<path d="M79.0102 40.7829C80.7137 40.7829 82.5023 40.0457 84.3761 38.5714C85.9092 39.1543 87.1016 39.5829 87.9534 39.8571C90.4064 40.7143 92.7401 41.1429 94.9546 41.1429C97.1691 41.1429 99.06 40.5429 100.627 39.3429C102.194 38.1429 102.978 36.72 102.978 35.0743C102.978 33.3943 102.62 31.6286 101.905 29.7771L94.9546 32.5029C93.66 32.4686 91.9054 32.1086 89.6909 31.4229L100.269 19.2343C102.756 18.1371 104 16.3371 104 13.8343C104 12.3943 103.54 11.2286 102.62 10.3371C101.7 9.44572 100.491 9 98.9918 9C97.5268 9 96.2492 9.34286 95.159 10.0286C94.1029 10.68 93.3022 11.5371 92.7571 12.6C91.0537 12.5314 88.7029 12.12 85.7048 11.3657C82.7067 10.5771 80.0663 9.70286 77.7837 8.74286C77.4089 10.9371 77.2216 12.4971 77.2216 13.4229C77.2216 15.7543 78.0222 17.4857 79.6234 18.6171C81.2247 19.7486 84.1376 20.3829 88.3622 20.52L79.9812 29.4686C78.0392 29.7086 76.5402 30.4457 75.484 31.68C74.4279 32.9143 73.8998 34.2686 73.8998 35.7429C73.8998 37.1829 74.3257 38.3829 75.1774 39.3429C76.0291 40.3029 77.3067 40.7829 79.0102 40.7829Z" fill="url(#paint6_linear_5076_1926)"/>
</g>
<defs>
<linearGradient id="paint0_linear_5076_1926" x1="52" y1="0" x2="52" y2="63" gradientUnits="userSpaceOnUse">
<stop stop-color="#A0CA02"/>
<stop offset="0.532199" stop-color="#79B901"/>
<stop offset="1" stop-color="#41A603"/>
</linearGradient>
<linearGradient id="paint1_linear_5076_1926" x1="52" y1="0" x2="52" y2="42.7198" gradientUnits="userSpaceOnUse">
<stop stop-color="#A0CA02"/>
<stop offset="0.532199" stop-color="#79B901"/>
<stop offset="1" stop-color="#41A603"/>
</linearGradient>
<linearGradient id="paint2_linear_5076_1926" x1="52" y1="0" x2="52" y2="42.7198" gradientUnits="userSpaceOnUse">
<stop stop-color="#A0CA02"/>
<stop offset="0.532199" stop-color="#79B901"/>
<stop offset="1" stop-color="#41A603"/>
</linearGradient>
<linearGradient id="paint3_linear_5076_1926" x1="52" y1="0" x2="52" y2="42.7198" gradientUnits="userSpaceOnUse">
<stop stop-color="#A0CA02"/>
<stop offset="0.532199" stop-color="#79B901"/>
<stop offset="1" stop-color="#41A603"/>
</linearGradient>
<linearGradient id="paint4_linear_5076_1926" x1="52" y1="0" x2="52" y2="42.7198" gradientUnits="userSpaceOnUse">
<stop stop-color="#A0CA02"/>
<stop offset="0.532199" stop-color="#79B901"/>
<stop offset="1" stop-color="#41A603"/>
</linearGradient>
<linearGradient id="paint5_linear_5076_1926" x1="52" y1="0" x2="52" y2="42.7198" gradientUnits="userSpaceOnUse">
<stop stop-color="#A0CA02"/>
<stop offset="0.532199" stop-color="#79B901"/>
<stop offset="1" stop-color="#41A603"/>
</linearGradient>
<linearGradient id="paint6_linear_5076_1926" x1="52" y1="0" x2="52" y2="42.7198" gradientUnits="userSpaceOnUse">
<stop stop-color="#A0CA02"/>
<stop offset="0.532199" stop-color="#79B901"/>
<stop offset="1" stop-color="#41A603"/>
</linearGradient>
</defs>
</svg>
