<svg width="14" height="14" viewBox="0 0 14 14" fill="none" xmlns="http://www.w3.org/2000/svg">
<g id="Group">
<path id="Vector" d="M7 0C5.14348 0 3.36301 0.737538 2.05025 2.05029C0.737498 3.36305 0 5.14348 0 7C0 8.85652 0.737498 10.637 2.05025 11.9497C3.36301 13.2625 5.14348 14 7 14C8.85652 14 10.637 13.2625 11.9497 11.9497C13.2625 10.637 14 8.85652 14 7C14 5.14348 13.2625 3.36305 11.9497 2.05029C10.637 0.737538 8.85652 0 7 0ZM4.40039 3.59961L7 6.19922L9.59961 3.59961L10.4004 4.40234L7.80078 7L10.4004 9.59961L9.59961 10.4004L7 7.80078L4.40039 10.4004L3.59961 9.59961L6.19922 7L3.59961 4.40234L4.40039 3.59961Z" fill="currentColor"/>
</g>
</svg>
