<svg width="50" height="50" viewBox="0 0 50 50" fill="none" xmlns="http://www.w3.org/2000/svg">
<g id="Group 2612500">
<g id="Group">
<g id="Group 2612516">
<path id="Vector" fill-rule="evenodd" clip-rule="evenodd" d="M35.4152 47.3336H41.098V29.9352L36.6585 27.1863C36.6237 27.1686 36.5904 27.148 36.5591 27.1246L35.4152 26.4163V47.3336ZM37.4124 32.2924H38.7458V33.4807H37.4124V32.2924ZM37.4124 35.9485H38.7458V37.1369H37.4124V35.9485ZM37.4124 39.6047H38.7458V40.793H37.4124V39.6047ZM37.4124 43.2608H38.7458V44.4491H37.4124V43.2608ZM4.6028 5.31614H1.74334L5.32058 0.982784V4.59891C5.31941 4.78892 5.24342 4.97082 5.10906 5.10518C4.9747 5.23953 4.79281 5.31498 4.6028 5.31614ZM11.3006 11.4728C11.6068 12.1828 11.64 12.9808 11.3938 13.7138C11.1477 14.4467 10.6396 15.0629 9.967 15.4443C9.29441 15.8256 8.5047 15.9451 7.74939 15.7798C6.99409 15.6146 6.3264 15.1763 5.87443 14.549C5.42245 13.9217 5.21804 13.1496 5.3004 12.3809C5.38277 11.6121 5.74611 10.9008 6.32071 10.3835C6.89532 9.86621 7.64071 9.5793 8.41387 9.57784C9.18703 9.57638 9.9335 9.86048 10.5101 10.3756L8.48782 12.5812L7.23559 11.7901C7.16188 11.7393 7.07867 11.704 6.99096 11.6863C6.90325 11.6686 6.81286 11.6688 6.72523 11.6869C6.63761 11.705 6.55455 11.7407 6.48106 11.7917C6.40757 11.8428 6.34517 11.9081 6.29761 11.9839C6.25005 12.0597 6.21833 12.1444 6.20433 12.2328C6.19034 12.3211 6.19437 12.4114 6.21619 12.4982C6.23801 12.585 6.27716 12.6665 6.33128 12.7377C6.38541 12.809 6.45339 12.8686 6.53114 12.9128L8.24837 14.0001C8.38566 14.0855 8.54931 14.1181 8.70885 14.0918C8.86839 14.0656 9.01294 13.9822 9.1156 13.8573L11.3006 11.4728ZM28.4907 47.3336V42.9863H30.8579V47.3336H28.4907ZM34.0846 47.3336V20.8657H25.2646V47.3336H27.1601V42.3208C27.1601 42.144 27.2304 41.9744 27.3554 41.8494C27.4804 41.7244 27.65 41.6541 27.8268 41.6541H31.5246C31.7014 41.6541 31.871 41.7244 31.996 41.8494C32.121 41.9744 32.1913 42.144 32.1913 42.3208V47.3336H34.0846ZM28.8646 37.4763H27.5313V35.9263H28.8646V37.4763ZM28.8646 33.5319H27.5313V31.9818H28.8646V33.5319ZM28.8646 29.5874H27.5313V28.0352H28.8646V29.5874ZM28.8646 25.6429H27.5313V24.089H28.8646V25.6429ZM31.8118 37.4802H30.4785V35.9302H31.8118V37.4802ZM31.8118 33.5357H30.4785V31.9857H31.8118V33.5357ZM31.8118 29.5913H30.4785V28.0352H31.8118V29.5913ZM31.8118 25.6468H30.4785V24.089H31.8118V25.6468ZM18.7007 35.1435V47.3336H23.9312V28.5557L18.7007 30.7046V35.1435ZM20.4557 32.2996H21.7862V33.488H20.4579L20.4557 32.2996ZM20.4557 35.9558H21.7862V37.1441H20.4579L20.4557 35.9558ZM20.4557 39.6119H21.7862V40.8002H20.4579L20.4557 39.6119ZM20.4557 43.268H21.7862V44.4564H20.4579L20.4557 43.268ZM11.3006 36.248C11.6066 36.9577 11.6397 37.7554 11.3936 38.4881C11.1476 39.2207 10.6396 39.8367 9.96727 40.2178C9.29492 40.5989 8.50551 40.7184 7.75049 40.5532C6.99548 40.3881 6.32805 39.9499 5.87625 39.3228C5.42445 38.6958 5.22011 37.924 5.30243 37.1555C5.38474 36.387 5.74793 35.676 6.32229 35.1589C6.89665 34.6418 7.64175 34.3549 8.41461 34.3534C9.18748 34.3519 9.93368 34.6359 10.5101 35.1508L8.48782 37.3569L7.23559 36.5658C7.1619 36.5165 7.0791 36.4826 6.99207 36.4659C6.90504 36.4492 6.81554 36.4501 6.72887 36.4686C6.64219 36.487 6.5601 36.5227 6.48743 36.5734C6.41476 36.6241 6.353 36.6889 6.30578 36.7639C6.25855 36.8388 6.22684 36.9225 6.2125 37.01C6.19816 37.0974 6.20149 37.1869 6.22229 37.273C6.24309 37.3592 6.28094 37.4403 6.3336 37.5115C6.38627 37.5828 6.45268 37.6428 6.52892 37.688L8.24837 38.7741C8.38535 38.8604 8.54918 38.8936 8.70895 38.8674C8.86871 38.8412 9.01336 38.7574 9.1156 38.6319L11.3006 36.248ZM11.3006 23.859C11.6068 24.569 11.64 25.367 11.3938 26.0999C11.1477 26.8329 10.6396 27.4491 9.967 27.8304C9.29441 28.2117 8.5047 28.3312 7.74939 28.166C6.99409 28.0008 6.3264 27.5625 5.87443 26.9352C5.42245 26.3079 5.21804 25.5358 5.3004 24.767C5.38277 23.9983 5.74611 23.287 6.32071 22.7697C6.89532 22.2524 7.64071 21.9655 8.41387 21.964C9.18703 21.9626 9.9335 22.2467 10.5101 22.7618L8.48782 24.9674L7.23559 24.1779C7.16188 24.1272 7.07867 24.0919 6.99096 24.0742C6.90325 24.0564 6.81286 24.0566 6.72523 24.0747C6.63761 24.0928 6.55455 24.1285 6.48106 24.1796C6.40757 24.2306 6.34517 24.296 6.29761 24.3718C6.25005 24.4476 6.21833 24.5322 6.20433 24.6206C6.19034 24.709 6.19437 24.7993 6.21619 24.8861C6.23801 24.9729 6.27716 25.0543 6.33128 25.1256C6.38541 25.1968 6.45339 25.2564 6.53114 25.3007L8.24837 26.389C8.38535 26.4753 8.54918 26.5085 8.70895 26.4823C8.86871 26.4561 9.01336 26.3723 9.1156 26.2468L11.3006 23.859ZM17.3723 39.7813H15.9312C15.8402 39.7872 15.749 39.7744 15.6632 39.7436C15.5773 39.7128 15.4988 39.6648 15.4322 39.6024C15.3657 39.5401 15.3127 39.4647 15.2765 39.3811C15.2402 39.2974 15.2215 39.2072 15.2215 39.1161C15.2215 39.0249 15.2402 38.9347 15.2765 38.851C15.3127 38.7674 15.3657 38.692 15.4322 38.6297C15.4988 38.5673 15.5773 38.5193 15.6632 38.4885C15.749 38.4577 15.8402 38.4449 15.9312 38.4508H17.3723V35.8013H15.9312C15.8402 35.8072 15.749 35.7943 15.6632 35.7636C15.5773 35.7328 15.4988 35.6848 15.4322 35.6224C15.3657 35.5601 15.3127 35.4847 15.2765 35.4011C15.2402 35.3174 15.2215 35.2272 15.2215 35.136C15.2215 35.0449 15.2402 34.9547 15.2765 34.871C15.3127 34.7873 15.3657 34.712 15.4322 34.6497C15.4988 34.5873 15.5773 34.5392 15.6632 34.5085C15.749 34.4777 15.8402 34.4649 15.9312 34.4707H17.3723V30.2591C17.3725 30.1174 17.4177 29.9795 17.5016 29.8654C17.5854 29.7512 17.7034 29.6667 17.8384 29.6241L23.264 27.3952H15.9312C15.8436 27.3952 15.757 27.3779 15.6761 27.3444C15.5952 27.3109 15.5217 27.2618 15.4598 27.1999C15.3979 27.138 15.3488 27.0645 15.3153 26.9836C15.2818 26.9027 15.2645 26.816 15.2645 26.7285C15.2645 26.6409 15.2818 26.5542 15.3153 26.4734C15.3488 26.3925 15.3979 26.319 15.4598 26.2571C15.5217 26.1952 15.5952 26.1461 15.6761 26.1126C15.757 26.0791 15.8436 26.0618 15.9312 26.0618H23.9312V23.4135H15.9312C15.8402 23.4193 15.749 23.4065 15.6632 23.3757C15.5773 23.345 15.4988 23.2969 15.4322 23.2346C15.3657 23.1722 15.3127 23.0969 15.2765 23.0132C15.2402 22.9296 15.2215 22.8394 15.2215 22.7482C15.2215 22.657 15.2402 22.5668 15.2765 22.4832C15.3127 22.3995 15.3657 22.3242 15.4322 22.2618C15.4988 22.1995 15.5773 22.1514 15.6632 22.1206C15.749 22.0899 15.8402 22.077 15.9312 22.0829H23.9312V20.2001C23.9312 20.0233 24.0015 19.8537 24.1265 19.7287C24.2515 19.6037 24.4211 19.5334 24.5979 19.5334H34.7502C34.927 19.5334 35.0966 19.6037 35.2216 19.7287C35.3466 19.8537 35.4169 20.0233 35.4169 20.2001V24.8568L36.2935 25.3996V0.717782C36.2937 0.539835 36.2278 0.36816 36.1085 0.236113L36.0819 0.211668C36.0154 0.144531 35.9364 0.0912499 35.8492 0.0549148C35.762 0.0185796 35.6685 -8.61811e-05 35.5741 2.99131e-07H6.65114V4.59725C6.65012 5.14019 6.43398 5.66059 6.05006 6.04451C5.66614 6.42843 5.14574 6.64456 4.6028 6.64559H1V44.2808C1.00073 44.4712 1.07661 44.6536 1.21114 44.7883C1.34566 44.9231 1.52795 44.9992 1.71834 45.0002H17.3723V39.7813ZM15.9312 9.69505H32.6724C32.8492 9.69505 33.0188 9.76529 33.1438 9.89032C33.2688 10.0153 33.3391 10.1849 33.3391 10.3617C33.3391 10.5385 33.2688 10.7081 33.1438 10.8331C33.0188 10.9582 32.8492 11.0284 32.6724 11.0284H15.9312C15.7544 11.0284 15.5848 10.9582 15.4598 10.8331C15.3348 10.7081 15.2645 10.5385 15.2645 10.3617C15.2645 10.1849 15.3348 10.0153 15.4598 9.89032C15.5848 9.76529 15.7544 9.69505 15.9312 9.69505ZM15.9312 13.6767H32.6724C32.8492 13.6767 33.0188 13.747 33.1438 13.872C33.2688 13.997 33.3391 14.1666 33.3391 14.3434C33.3391 14.5202 33.2688 14.6898 33.1438 14.8148C33.0188 14.9398 32.8492 15.0101 32.6724 15.0101H15.9312C15.7544 15.0101 15.5848 14.9398 15.4598 14.8148C15.3348 14.6898 15.2645 14.5202 15.2645 14.3434C15.2645 14.1666 15.3348 13.997 15.4598 13.872C15.5848 13.747 15.7544 13.6767 15.9312 13.6767ZM13.0717 34.3163L12.2584 35.2052C12.8365 36.1741 13.027 37.3256 12.7919 38.429C12.5568 39.5325 11.9134 40.5063 10.9906 41.1554C10.0678 41.8044 8.93379 42.0808 7.81583 41.9291C6.69787 41.7774 5.67854 41.2088 4.9621 40.3372C4.24566 39.4657 3.88504 38.3556 3.95251 37.2294C4.01998 36.1033 4.51054 35.0442 5.32591 34.2644C6.14127 33.4846 7.22119 33.0418 8.34927 33.0246C9.47735 33.0075 10.5702 33.4173 11.4089 34.1719L12.0945 33.4235C12.2131 33.2939 12.3783 33.2168 12.5539 33.209C12.7294 33.2012 12.9008 33.2635 13.0303 33.3821C13.1599 33.5007 13.2371 33.666 13.2449 33.8415C13.2526 34.017 13.1903 34.1884 13.0717 34.318V34.3163ZM13.0717 21.9273L12.2584 22.8162C12.8356 23.7846 13.0255 24.9353 12.7902 26.0377C12.5548 27.1402 11.9116 28.113 10.9893 28.7612C10.067 29.4095 8.93384 29.6852 7.81682 29.5333C6.6998 29.3814 5.68145 28.813 4.96581 27.9419C4.25018 27.0709 3.89012 25.9616 3.95779 24.8364C4.02545 23.7111 4.51584 22.6529 5.33069 21.8739C6.14555 21.095 7.22467 20.6527 8.35185 20.6357C9.47902 20.6187 10.571 21.0283 11.4089 21.7823L12.0945 21.0346C12.2135 20.9069 12.3781 20.8313 12.5526 20.8244C12.727 20.8174 12.8971 20.8796 13.0259 20.9974C13.1547 21.1152 13.2318 21.2792 13.2404 21.4535C13.249 21.6279 13.1883 21.7986 13.0717 21.9285V21.9273ZM13.0717 9.53839L12.2578 10.4273C12.8352 11.3957 13.0252 12.5466 12.7898 13.6493C12.5545 14.7519 11.9111 15.7249 10.9887 16.3732C10.0662 17.0216 8.93288 17.2974 7.81569 17.1454C6.69849 16.9934 5.68 16.4248 4.9643 15.5536C4.2486 14.6824 3.88857 13.5729 3.95634 12.4475C4.02411 11.322 4.51468 10.2637 5.32975 9.48472C6.14482 8.70569 7.22418 8.26345 8.35154 8.24662C9.4789 8.22978 10.571 8.6396 11.4089 9.39394L12.0945 8.6456C12.2135 8.5179 12.3781 8.44236 12.5526 8.43541C12.727 8.42845 12.8971 8.49065 13.0259 8.60847C13.1547 8.72629 13.2318 8.89021 13.2404 9.06456C13.249 9.23891 13.1883 9.4096 13.0717 9.5395V9.53839ZM47.7303 48.6697H45.8091V46.4475C46.0007 46.3445 46.1828 46.225 46.3536 46.0903C46.8676 45.704 47.213 45.1345 47.318 44.5002C47.4018 43.8328 47.2927 43.1554 47.0036 42.548C46.6529 41.7819 46.2027 41.0653 45.6647 40.4169L45.1425 39.7647L44.623 40.4174C44.0846 41.0659 43.6343 41.7827 43.2836 42.5491C42.9945 43.1563 42.8854 43.8336 42.9691 44.5008C43.0744 45.1341 43.4194 45.7027 43.9325 46.0886C44.1032 46.2233 44.2854 46.3428 44.4769 46.4458V48.668H14.6156C14.5246 48.6622 14.4334 48.675 14.3476 48.7058C14.2618 48.7365 14.1832 48.7846 14.1167 48.847C14.0502 48.9093 13.9971 48.9846 13.9609 49.0683C13.9246 49.152 13.9059 49.2422 13.9059 49.3333C13.9059 49.4245 13.9246 49.5147 13.9609 49.5984C13.9971 49.682 14.0502 49.7574 14.1167 49.8197C14.1832 49.8821 14.2618 49.9301 14.3476 49.9609C14.4334 49.9916 14.5246 50.0045 14.6156 49.9986H47.7303C47.8212 50.0045 47.9125 49.9916 47.9983 49.9609C48.0841 49.9301 48.1627 49.8821 48.2292 49.8197C48.2957 49.7574 48.3488 49.682 48.385 49.5984C48.4212 49.5147 48.4399 49.4245 48.4399 49.3333C48.4399 49.2422 48.4212 49.152 48.385 49.0683C48.3488 48.9846 48.2957 48.9093 48.2292 48.847C48.1627 48.7846 48.0841 48.7365 47.9983 48.7058C47.9125 48.675 47.8212 48.6622 47.7303 48.668V48.6697ZM45.528 45.0491C45.4082 45.1432 45.2798 45.226 45.1447 45.2964C45.0096 45.2258 44.8813 45.1431 44.7614 45.0491C44.5097 44.8661 44.3379 44.5935 44.2813 44.2875C44.2415 43.868 44.3198 43.4458 44.5075 43.0686C44.6823 42.6743 44.895 42.2979 45.1425 41.9447C45.3909 42.2981 45.6043 42.6749 45.7797 43.0697C45.9673 43.4469 46.0457 43.8691 46.0058 44.2886C45.9497 44.5939 45.7788 44.8661 45.528 45.0491Z" fill="currentColor"/>
</g>
</g>
</g>
</svg>
