<svg width="16" height="16" viewBox="0 0 16 16" fill="none" xmlns="http://www.w3.org/2000/svg">
<g id="Group">
<g id="Group_2">
<path id="Vector" d="M12.5122 9.44584L14.7652 7.19251C16.4088 5.54932 16.4088 2.87502 14.7652 1.23182C13.1218 -0.411909 10.4477 -0.411909 8.80434 1.23182L5.55298 4.48319C3.90942 6.12638 3.90942 8.80069 5.55298 10.4439C5.79564 10.6867 6.06124 10.8926 6.34231 11.0636L8.08292 9.32282C7.75137 9.24353 7.43688 9.07624 7.17875 8.81829C6.43173 8.07127 6.43173 6.85563 7.17875 6.10878L10.4301 2.85742C11.1771 2.1104 12.3928 2.1104 13.1396 2.85742C13.8866 3.60444 13.8866 4.8199 13.1396 5.56692L12.1844 6.52229C12.578 7.44869 12.6868 8.46753 12.5122 9.44584Z" fill="#3A3A3A"/>
</g>
<g id="Group_3">
<path id="Vector_2" d="M3.48577 6.55234L1.2328 8.80549C-0.410932 10.4489 -0.410932 13.123 1.2328 14.7664C2.87599 16.4099 5.5503 16.4099 7.19367 14.7664L10.4449 11.515C12.0884 9.87162 12.0882 7.1975 10.4449 5.5543C10.2024 5.31146 9.93677 5.10559 9.65571 4.93457L7.91509 6.67537C8.24647 6.75483 8.56095 6.92176 8.81926 7.1799C9.56628 7.92692 9.56628 9.14238 8.81926 9.8894L5.56772 13.1408C4.8207 13.8878 3.60523 13.8878 2.85821 13.1408C2.11119 12.3937 2.11119 11.1783 2.85821 10.4313L3.81359 9.47607C3.41981 8.54967 3.31101 7.53065 3.48577 6.55234Z" fill="#3A3A3A"/>
</g>
</g>
</svg>
