<svg width="15" height="15" viewBox="0 0 15 15" fill="none" xmlns="http://www.w3.org/2000/svg">
<g id="Group 2611305">
<circle id="Ellipse 21" opacity="0.5" cx="7.5" cy="7.5" r="7.125" stroke="#B3B3B3" stroke-width="0.75"/>
<path id="Vector" d="M10.9635 4.03663C10.5813 3.65446 9.95938 3.65446 9.57727 4.03663L3.81864 9.79512C3.77469 9.83907 3.75 9.89871 3.75 9.96086V11.0156C3.75 11.1451 3.85495 11.25 3.98438 11.25H5.03914C5.10129 11.25 5.16093 11.2253 5.20488 11.1814L10.9634 5.42287C11.3456 5.0407 11.3456 4.4188 10.9634 4.03668L10.9635 4.03663ZM5.6251 10.0982L4.90182 9.37493L8.90662 5.37013L9.6299 6.09341L5.6251 10.0982ZM4.94205 10.7813H4.21877V10.058L4.57034 9.70641L5.29362 10.4297L4.94205 10.7813ZM10.632 5.09133L9.96138 5.76193L9.2381 5.03865L9.90869 4.36805C10.0053 4.27148 10.1337 4.21827 10.2704 4.21827C10.407 4.21827 10.5354 4.27147 10.632 4.36805C10.7285 4.46463 10.7818 4.59307 10.7818 4.72972C10.7818 4.86632 10.7286 4.99476 10.632 5.09133Z" fill="#B3B3B3"/>
</g>
</svg>
