<svg width="15" height="15" viewBox="0 0 15 15" fill="none" xmlns="http://www.w3.org/2000/svg">
<g id="Group 2612562">
<g id="Group">
<g id="Group_2">
<path id="Vector" d="M8.82565 13.6111C8.53912 14.4203 7.76636 15 6.86111 15C5.95436 15 5.18291 14.4193 4.89665 13.6111H2.69444C2.31091 13.6111 2 13.3002 2 12.9167C2 12.5331 2.31091 12.2222 2.69444 12.2222H4.89657C5.1831 11.4131 5.95586 10.8333 6.86111 10.8333C7.76786 10.8333 8.53931 11.4141 8.82557 12.2222H13.8056C14.1891 12.2222 14.5 12.5331 14.5 12.9167C14.5 13.3002 14.1891 13.6111 13.8056 13.6111H8.82565ZM11.5833 9.58333C10.6916 9.58333 9.9097 9.01669 9.61887 8.19444H2.69444C2.31091 8.19444 2 7.88353 2 7.5C2 7.11647 2.31091 6.80556 2.69444 6.80556L9.61879 6.80556C9.90962 5.98319 10.6922 5.41667 11.5833 5.41667C12.475 5.41667 13.257 5.98331 13.5478 6.80556H13.8056C14.1891 6.80556 14.5 7.11647 14.5 7.5C14.5 7.88353 14.1891 8.19444 13.8056 8.19444H13.5479C13.2571 9.01682 12.4745 9.58333 11.5833 9.58333ZM13.8056 2.77778C14.1891 2.77778 14.5 2.46686 14.5 2.08333C14.5 1.6998 14.1891 1.38889 13.8056 1.38889L6.88113 1.38889C6.59487 0.58074 5.82342 0 4.91667 0C4.01142 0 3.23866 0.579728 2.95213 1.38889H2.69444C2.31091 1.38889 2 1.6998 2 2.08333C2 2.46686 2.31091 2.77778 2.69444 2.77778H2.9522C3.23846 3.58593 4.00992 4.16667 4.91667 4.16667C5.82192 4.16667 6.59468 3.58694 6.88121 2.77778L13.8056 2.77778Z" fill="#3A3A3A"/>
</g>
</g>
</g>
</svg>
