<svg width="15" height="8" viewBox="0 0 15 8" fill="none" xmlns="http://www.w3.org/2000/svg">
<g id="Group">
<path id="Vector" d="M14.9808 3.89649C14.9751 3.88005 14.9745 3.86285 14.9674 3.84773C14.8892 3.69054 12.9983 0 7.34977 0C2.94614 0 0.239927 3.55968 0.0697836 3.78984C0.0697836 3.78984 0.0694696 3.7905 0.0691556 3.7905C0.0675856 3.79315 0.0641316 3.79745 0.0628755 3.79877C0.0537698 3.81124 0.0512579 3.82613 0.0438265 3.83926C0.0316855 3.86231 0.0181837 3.88405 0.011277 3.90909C0.00531097 3.9295 0.00625295 3.9499 0.00468308 3.97075C0.0027991 3.99216 -0.00159684 4.01289 0.000601355 4.0343C0.00311331 4.05934 0.0124285 4.08239 0.0202783 4.10644C0.0253023 4.12155 0.0256164 4.13777 0.0327335 4.15255C0.110603 4.30975 2.00149 8 7.65006 8C12.0537 8 14.7604 4.44004 14.93 4.21016C14.93 4.21016 14.9307 4.20983 14.9307 4.2095C14.9326 4.20718 14.9357 4.20288 14.937 4.20156C14.9461 4.18909 14.9491 4.17387 14.956 4.16041C14.9681 4.13802 14.9816 4.11628 14.9886 4.09124C14.9948 4.07117 14.9936 4.05076 14.9951 4.02991C14.997 4.00851 15.0014 3.98744 14.9995 3.96571C14.997 3.94133 14.988 3.91927 14.9808 3.89654L14.9808 3.89649ZM7.50035 7.64397C5.5944 7.64397 4.04363 6.00945 4.04363 3.99985C4.04363 1.99025 5.59445 0.355449 7.50035 0.355449C9.40692 0.355449 10.9584 1.9903 10.9584 3.99985C10.9584 6.0094 9.40727 7.64397 7.50035 7.64397Z" fill="#3A3A3A"/>
<path id="Vector_2" d="M7.50257 2.22266C6.57262 2.22266 5.81641 3.01999 5.81641 4.00012C5.81641 4.97992 6.57262 5.77728 7.50257 5.77728C8.43157 5.77728 9.18808 4.97995 9.18808 4.00012C9.1884 3.01999 8.43187 2.22266 7.50257 2.22266Z" fill="#3A3A3A"/>
</g>
</svg>
