<svg width="13" height="10" viewBox="0 0 13 10" fill="none" xmlns="http://www.w3.org/2000/svg">
<g id="Group 2612457">
<path id="Vector" d="M13.0007 8.88672H3.37109V9.84776H13.0007V8.88672Z" fill="#3A3A3A"/>
<path id="Vector_2" d="M0.641973 5.67583C0.96296 5.67583 1.28395 5.43742 1.28395 5.04007C1.28395 4.72218 1.04321 4.4043 0.641973 4.4043C0.320987 4.4043 0 4.64271 0 5.04007C0 5.35795 0.320987 5.67583 0.641973 5.67583Z" fill="#3A3A3A"/>
<path id="Vector_3" d="M13.0007 0.158203H3.37109V1.11925H13.0007V0.158203Z" fill="#3A3A3A"/>
<path id="Vector_4" d="M0.641973 1.27154C0.96296 1.27154 1.28395 1.03313 1.28395 0.635769C1.28395 0.317885 1.04321 0 0.641973 0C0.320987 0 0 0.238414 0 0.635769C0 1.03313 0.320987 1.27154 0.641973 1.27154Z" fill="#3A3A3A"/>
<path id="Vector_5" d="M0.641973 10.0001C0.96296 10.0001 1.28395 9.76164 1.28395 9.36429C1.28395 9.0464 1.04321 8.72852 0.641973 8.72852C0.320987 8.72852 0 8.96693 0 9.36429C0 9.76164 0.320987 10.0001 0.641973 10.0001Z" fill="#3A3A3A"/>
<path id="Vector_6" d="M13.0007 4.48242H3.37109V5.44347H13.0007V4.48242Z" fill="#3A3A3A"/>
</g>
</svg>
