<svg width="18" height="18" viewBox="0 0 18 18" fill="none" xmlns="http://www.w3.org/2000/svg">
<g id="Group 2611197">
<path id="Vector" d="M17.9982 9.20652C17.9982 8.5945 17.9473 7.97991 17.8404 7.37817H9.17969V10.8433H14.1387C14.0364 11.3978 13.821 11.9261 13.5056 12.3962C13.1901 12.8662 12.7812 13.2683 12.3035 13.5781V15.8282H15.2631C17.0004 14.2595 17.9982 11.9452 17.9982 9.20652Z" fill="#4285F4"/>
<path id="Vector_2" d="M9.18466 18.0004C11.6603 18.0004 13.7485 17.2032 15.2693 15.8275L12.3111 13.5787C11.4881 14.1277 10.4251 14.4389 9.18727 14.4389C6.79253 14.4389 4.7617 12.8548 4.03258 10.7256H0.980469V13.0438C1.7495 14.5369 2.92337 15.7905 4.37167 16.6655C5.81997 17.5405 7.48599 18.0026 9.18466 18.0004Z" fill="#34A853"/>
<path id="Vector_3" d="M4.02628 10.7257C3.64165 9.6084 3.64165 8.39721 4.02628 7.27989V4.96167H0.976769C0.334578 6.2147 0 7.59894 0 9.0028C0 10.4067 0.334578 11.7909 0.976769 13.0439L4.02628 10.7257Z" fill="#FBBC04"/>
<path id="Vector_4" d="M9.18466 3.56094C10.4924 3.54004 11.7565 4.02463 12.7063 4.91099L15.328 2.34076C13.6618 0.810785 11.4616 -0.0273201 9.18466 0.000679627C7.48553 -0.00144242 5.81909 0.461083 4.3707 1.33682C2.92231 2.21255 1.74872 3.46717 0.980469 4.96113L4.02737 7.27678C4.75257 5.14499 6.78731 3.56094 9.18205 3.56094H9.18466Z" fill="#EA4335"/>
</g>
</svg>
