<svg width="30" height="30" viewBox="0 0 30 30" fill="none" xmlns="http://www.w3.org/2000/svg">
<g id="Group 2612605">
<g id="Group 2612607">
<path id="Vector" d="M26.3333 1H11C10.2927 1 9.61447 1.28095 9.11437 1.78105C8.61427 2.28114 8.33332 2.95942 8.33332 3.66666V8.33332H3.66666C2.95942 8.33332 2.28114 8.61427 1.78105 9.11437C1.28095 9.61447 1 10.2927 1 11V21.9686C1 22.6759 1.28095 23.3542 1.78105 23.8543C2.28114 24.3543 2.95942 24.6353 3.66666 24.6353H7.25666C7.37607 24.6358 7.49382 24.6634 7.601 24.7161C7.70817 24.7687 7.80198 24.8451 7.87532 24.9393L10.0087 27.6986C10.1599 27.8965 10.3549 28.0567 10.5783 28.1668C10.8017 28.2769 11.0476 28.3339 11.2967 28.3333H11.324C11.5782 28.3303 11.8281 28.2675 12.0535 28.1499C12.2789 28.0324 12.4734 27.8634 12.6213 27.6566L14.5693 24.9593C14.642 24.8591 14.7373 24.7776 14.8475 24.7213C14.9576 24.6649 15.0796 24.6355 15.2033 24.6353H18.9813C19.6886 24.6353 20.3668 24.3543 20.8669 23.8543C21.367 23.3542 21.648 22.6759 21.648 21.9686V18.28H22.52C22.8385 18.2824 23.1458 18.3982 23.3866 18.6066L25.6993 20.586C26.0589 20.8973 26.5183 21.069 26.994 21.07C27.2851 21.0695 27.5726 21.0058 27.8366 20.8833C28.1854 20.7253 28.4809 20.4697 28.6873 20.1472C28.8938 19.8248 29.0024 19.4495 29 19.0666V3.66666C29 2.95942 28.719 2.28114 28.2189 1.78105C27.7188 1.28095 27.0405 1 26.3333 1ZM18.9813 23.302H15.2033C14.8685 23.3024 14.5386 23.3821 14.2406 23.5346C13.9425 23.6871 13.6848 23.908 13.4886 24.1793L11.5407 26.876C11.5137 26.9141 11.4781 26.9452 11.4367 26.9668C11.3953 26.9883 11.3493 26.9997 11.3027 27C11.256 27.0016 11.2098 26.9918 11.1677 26.9716C11.1257 26.9514 11.0892 26.9214 11.0613 26.884L8.92799 24.1246C8.72968 23.8695 8.47589 23.6628 8.18586 23.5203C7.89583 23.3777 7.57715 23.3031 7.25399 23.302H3.66666C3.31304 23.302 2.9739 23.1615 2.72386 22.9114C2.47381 22.6614 2.33333 22.3223 2.33333 21.9686V11C2.33333 10.6464 2.47381 10.3072 2.72386 10.0572C2.9739 9.80713 3.31304 9.66666 3.66666 9.66666H18.9813C19.3349 9.66666 19.6741 9.80713 19.9241 10.0572C20.1742 10.3072 20.3146 10.6464 20.3146 11V17.6066V17.6133V17.62V21.9686C20.3146 22.3223 20.1742 22.6614 19.9241 22.9114C19.6741 23.1615 19.3349 23.302 18.9813 23.302ZM27.6666 19.0666C27.6666 19.1941 27.6301 19.3189 27.5614 19.4262C27.4927 19.5335 27.3946 19.6189 27.2789 19.6722C27.1631 19.7255 27.0345 19.7445 26.9083 19.727C26.782 19.7095 26.6635 19.6561 26.5666 19.5733L24.2526 17.5926C23.7701 17.1781 23.1555 16.949 22.5193 16.9466H21.648V11C21.648 10.2927 21.367 9.61447 20.8669 9.11437C20.3668 8.61427 19.6886 8.33332 18.9813 8.33332H9.66665V3.66666C9.66665 3.31304 9.80713 2.9739 10.0572 2.72386C10.3072 2.47381 10.6464 2.33333 11 2.33333H26.3333C26.6869 2.33333 27.0261 2.47381 27.2761 2.72386C27.5262 2.9739 27.6666 3.31304 27.6666 3.66666V19.0666Z" fill="#3A3A3A"/>
<path id="Vector_2" d="M11.6654 18.3333C12.4017 18.3333 12.9987 17.7363 12.9987 17C12.9987 16.2636 12.4017 15.6666 11.6654 15.6666C10.929 15.6666 10.332 16.2636 10.332 17C10.332 17.7363 10.929 18.3333 11.6654 18.3333Z" fill="#3A3A3A"/>
<path id="Vector_3" d="M7.66536 18.3333C8.40174 18.3333 8.99869 17.7363 8.99869 17C8.99869 16.2636 8.40174 15.6666 7.66536 15.6666C6.92898 15.6666 6.33203 16.2636 6.33203 17C6.33203 17.7363 6.92898 18.3333 7.66536 18.3333Z" fill="#3A3A3A"/>
<path id="Vector_4" d="M15.6693 18.3333C16.4056 18.3333 17.0026 17.7363 17.0026 17C17.0026 16.2636 16.4056 15.6666 15.6693 15.6666C14.9329 15.6666 14.3359 16.2636 14.3359 17C14.3359 17.7363 14.9329 18.3333 15.6693 18.3333Z" fill="#3A3A3A"/>
</g>
</g>
</svg>
