<svg width="15" height="15" viewBox="0 0 15 15" fill="none" xmlns="http://www.w3.org/2000/svg">
<g id="Group">
<path id="Vector" d="M3.34351 5.77545C3.45142 5.68298 3.58764 5.63008 3.72968 5.62547C3.87172 5.62087 4.01108 5.66484 4.12476 5.75012L8.75 9.21875L10.8752 7.62512C10.9813 7.54539 11.1101 7.50155 11.2428 7.49996C11.3754 7.49837 11.5052 7.53911 11.6132 7.61628L15 10.0354V0.625C15 0.45924 14.9342 0.300269 14.8169 0.183058C14.6997 0.0658481 14.5408 0 14.375 0H0.625C0.45924 0 0.300269 0.0658481 0.183058 0.183058C0.0658481 0.300269 0 0.45924 0 0.625V8.64132L3.34351 5.77545ZM10.3125 1.875C10.6215 1.875 10.9236 1.96664 11.1806 2.13833C11.4375 2.31002 11.6378 2.55405 11.7561 2.83956C11.8743 3.12507 11.9053 3.43923 11.845 3.74233C11.7847 4.04542 11.6359 4.32383 11.4174 4.54235C11.1988 4.76087 10.9204 4.90969 10.6173 4.96998C10.3142 5.03027 10.0001 4.99932 9.71456 4.88106C9.42905 4.7628 9.18502 4.56253 9.01333 4.30558C8.84164 4.04863 8.75 3.74653 8.75 3.4375C8.75 3.0231 8.91462 2.62567 9.20765 2.33265C9.50067 2.03962 9.8981 1.875 10.3125 1.875Z" fill="#398501"/>
<path id="Vector_2" d="M11.2592 8.89954L9.12478 10.4999C9.01668 10.581 8.88518 10.6248 8.75002 10.6248C8.61487 10.6248 8.48337 10.581 8.37527 10.4999L3.77625 7.05078L0 10.2873V14.375C0 14.5408 0.0658481 14.6997 0.183058 14.8169C0.300269 14.9342 0.45924 15 0.625 15H14.375C14.5408 15 14.6997 14.9342 14.8169 14.8169C14.9342 14.6997 15 14.5408 15 14.375V11.5717L11.2592 8.89954Z" fill="#398501"/>
</g>
</svg>
