<svg width="50" height="50" viewBox="0 0 50 50" fill="none" xmlns="http://www.w3.org/2000/svg">
<g id="Group 2612500">
<g id="Group">
<path id="Vector" d="M32.8137 26.1431C31.9787 25.9236 31.091 26.0417 30.3423 26.4716C28.6736 27.2673 26.8483 27.6801 24.9996 27.6801C23.1509 27.6801 21.3255 27.2673 19.6568 26.4716C18.9082 26.0417 18.0204 25.9236 17.1855 26.1431C9.78561 28.2001 5 32.9858 5 38.3285V41.9713C5.02615 42.7961 5.37711 43.5771 5.97645 44.1444C6.57578 44.7116 7.37496 45.019 8.19993 44.9998H41.7992C42.6242 45.019 43.4234 44.7116 44.0227 44.1444C44.622 43.5771 44.973 42.7961 44.9991 41.9713V38.3285C44.9991 32.9858 40.2135 28.2001 32.8137 26.1431Z" fill="currentColor"/>
<path id="Vector_2" d="M24.9998 24.9996C30.5225 24.9996 34.9996 20.5225 34.9996 14.9998C34.9996 9.47706 30.5225 5 24.9998 5C19.4771 5 15 9.47706 15 14.9998C15 20.5225 19.4771 24.9996 24.9998 24.9996Z" fill="currentColor"/>
</g>
</g>
</svg>
