<svg width="430" height="322" viewBox="0 0 430 322" fill="none" xmlns="http://www.w3.org/2000/svg">
<path d="M430 275.62H0V276.62H430V275.62Z" fill="#EBEBEB"/>
<path d="M415.901 292.11H382.781V292.36H415.901V292.11Z" fill="#EBEBEB"/>
<path d="M297.221 294.83H288.531V295.08H297.221V294.83Z" fill="#EBEBEB"/>
<path d="M381.78 282.83H362.59V283.08H381.78V282.83Z" fill="#EBEBEB"/>
<path d="M61.6509 284.51H18.4609V284.76H61.6509V284.51Z" fill="#EBEBEB"/>
<path d="M76.8886 284.51H70.5586V284.76H76.8886V284.51Z" fill="#EBEBEB"/>
<path d="M191.149 288.73H97.4688V288.98H191.149V288.73Z" fill="#EBEBEB"/>
<path d="M84.9414 212.01V226.21L78.9414 230.57H106.941L98.0014 227.25V213L84.9414 212.01Z" fill="#E0E0E0"/>
<path d="M35.4688 230.16V274.89H160.469V230.16H35.4688ZM158.219 247.68H60.3787V233.06H158.219V247.68Z" fill="#E0E0E0"/>
<path d="M57.3711 230.16V274.89H160.471V230.16H57.3711ZM158.221 247.68H60.3811V233.06H158.221V247.68Z" fill="#EBEBEB"/>
<path d="M158.221 233.06H138.051V247.68H158.221V233.06Z" fill="#E0E0E0"/>
<path d="M85.3289 240.37H60.3789V247.68H85.3289V240.37Z" fill="#E0E0E0"/>
<path d="M105.952 243.33H87.1719V247.67H105.952V243.33Z" fill="#E0E0E0"/>
<path d="M128.179 238.8H110.289V247.68H128.179V238.8Z" fill="#E0E0E0"/>
<path d="M78.1089 250.86L77.5789 252.61H70.3989L69.8589 250.86H60.3789V270.27H91.8489V250.86H78.1089Z" fill="#E0E0E0"/>
<path d="M115.51 250.86L114.97 252.61H107.79L107.25 250.86H93.5195V270.27H124.99V250.86H115.51Z" fill="#E0E0E0"/>
<path d="M144.39 250.86L143.86 252.61H136.68L136.14 250.86H126.66V270.27H158.13V250.86H144.39Z" fill="#E0E0E0"/>
<path d="M142.192 160.04H49.2019C47.2523 160.04 45.6719 161.62 45.6719 163.57V216.96C45.6719 218.91 47.2523 220.49 49.2019 220.49H142.192C144.141 220.49 145.722 218.91 145.722 216.96V163.57C145.722 161.62 144.141 160.04 142.192 160.04Z" fill="#E0E0E0"/>
<path d="M144.54 160.04H51.5495C49.6 160.04 48.0195 161.62 48.0195 163.57V216.96C48.0195 218.91 49.6 220.49 51.5495 220.49H144.54C146.489 220.49 148.07 218.91 148.07 216.96V163.57C148.07 161.62 146.489 160.04 144.54 160.04Z" fill="#E6E6E6"/>
<path d="M145.129 217.56V162.98H50.9589V217.56H145.129Z" fill="#F0F0F0"/>
<path d="M276.869 154.8H366.409C368.719 154.799 371.006 155.252 373.14 156.135C375.274 157.018 377.213 158.313 378.846 159.946C380.48 161.578 381.776 163.517 382.66 165.65C383.544 167.784 383.999 170.071 383.999 172.38V242.3H259.289V172.38C259.289 167.718 261.141 163.246 264.438 159.949C267.735 156.652 272.207 154.8 276.869 154.8Z" fill="#E6E6E6"/>
<path d="M232.821 206.62H248.821C251.593 206.62 254.251 207.721 256.21 209.681C258.17 211.64 259.271 214.298 259.271 217.07V274.89H222.371V217.07C222.371 214.298 223.472 211.64 225.432 209.681C227.392 207.721 230.05 206.62 232.821 206.62Z" fill="#E0E0E0"/>
<path d="M232.821 206.62H233.151C235.923 206.62 238.581 207.721 240.54 209.681C242.5 211.64 243.601 214.298 243.601 217.07V274.89H222.371V217.07C222.371 214.298 223.472 211.64 225.432 209.681C227.392 207.721 230.05 206.62 232.821 206.62Z" fill="#EBEBEB"/>
<path d="M370.95 248.33H248.07V274.89H370.95V248.33Z" fill="#E6E6E6"/>
<path d="M366.411 224.04H247.901C242.036 224.04 237.281 228.795 237.281 234.66V241.29C237.281 247.155 242.036 251.91 247.901 251.91H366.411C372.277 251.91 377.031 247.155 377.031 241.29V234.66C377.031 228.795 372.277 224.04 366.411 224.04Z" fill="#F5F5F5"/>
<path d="M366.221 224.04H351.511C345.645 224.04 340.891 228.795 340.891 234.66V241.29C340.891 247.155 345.645 251.91 351.511 251.91H366.221C372.086 251.91 376.841 247.155 376.841 241.29V234.66C376.841 228.795 372.086 224.04 366.221 224.04Z" fill="#E0E0E0"/>
<path d="M367.79 206.62H383.79C386.561 206.62 389.219 207.721 391.179 209.681C393.139 211.64 394.24 214.298 394.24 217.07V274.89H357.34V217.07C357.34 215.698 357.61 214.339 358.135 213.071C358.66 211.803 359.43 210.651 360.401 209.681C361.371 208.71 362.523 207.941 363.791 207.415C365.059 206.89 366.418 206.62 367.79 206.62Z" fill="#E0E0E0"/>
<path d="M367.79 206.62H368.13C370.901 206.62 373.559 207.721 375.519 209.681C377.479 211.64 378.58 214.298 378.58 217.07V274.89H357.34V217.07C357.34 215.698 357.61 214.339 358.135 213.071C358.66 211.803 359.43 210.651 360.401 209.681C361.371 208.71 362.523 207.941 363.791 207.415C365.059 206.89 366.418 206.62 367.79 206.62Z" fill="#F0F0F0"/>
<path d="M272.069 122.58L390.699 122.58V0L272.069 0V122.58Z" fill="#EBEBEB"/>
<path d="M267.921 122.58L386.551 122.58V0L267.921 0V122.58Z" fill="#F0F0F0"/>
<path d="M383.559 2.89999H271.059V119.73H383.559V2.89999Z" fill="#E0E0E0"/>
<path d="M383.561 2.89999H273.871V119.73H383.561V2.89999Z" fill="#F5F5F5"/>
<path d="M327.579 119.74H329.809V2.91H327.579V119.74Z" fill="#EBEBEB"/>
<path d="M314.799 2.89999L283.539 119.73H280.539L311.799 2.89999H314.799Z" fill="white"/>
<path d="M326.629 121.97H328.539V1.09999H326.629V121.97Z" fill="#F0F0F0"/>
<path d="M303.451 2.89999L273.871 113.46V52.69L287.191 2.89999H303.451Z" fill="white"/>
<path d="M383.559 13.5V24.72L358.129 119.73H355.129L383.559 13.5Z" fill="white"/>
<path d="M383.559 36.15V96.92L377.459 119.73H361.199L383.559 36.15Z" fill="white"/>
<path d="M63.6583 94.39L135.488 94.39V6.99001L63.6583 6.99001L63.6583 94.39Z" fill="#E6E6E6"/>
<path d="M80.1017 72.74L117.842 35.64L77.0117 28.9L80.1017 72.74Z" fill="#E0E0E0"/>
<path d="M116.93 63.94L118.8 35.49L90.3803 42.47L88.3203 64.24L116.93 63.94Z" fill="#F0F0F0"/>
<path d="M87.8628 32.0261C92.3421 27.5468 92.3421 20.2843 87.8628 15.805C83.3835 11.3257 76.1211 11.3257 71.6418 15.805C67.1625 20.2844 67.1624 27.5468 71.6418 32.0261C76.1211 36.5054 83.3835 36.5054 87.8628 32.0261Z" fill="#FAFAFA"/>
<path d="M113.219 74.08C113.219 72.9779 113.546 71.9006 114.158 70.9845C114.771 70.0683 115.641 69.3543 116.66 68.933C117.678 68.5118 118.798 68.4021 119.879 68.6178C120.96 68.8335 121.952 69.365 122.731 70.145C123.509 70.925 124.039 71.9184 124.253 72.9995C124.467 74.0806 124.355 75.2009 123.932 76.2185C123.509 77.2361 122.793 78.1053 121.876 78.7162C120.959 79.327 119.881 79.652 118.779 79.65C118.048 79.65 117.324 79.5059 116.649 79.2258C115.973 78.9458 115.36 78.5353 114.844 78.018C114.327 77.5006 113.918 76.8865 113.639 76.2108C113.36 75.5351 113.217 74.811 113.219 74.08Z" fill="#E0E0E0"/>
<path d="M117.458 83.86L101.398 74.08L114.898 62.96L117.458 83.86Z" fill="#F5F5F5"/>
<path d="M98.4881 18.1H95.3281V87.89H98.4881V18.1Z" fill="#E0E0E0"/>
<path d="M128.75 18.1H124.66V84.8H128.75V18.1Z" fill="#EBEBEB"/>
<path d="M91.7511 64.24H70.8711V85.12H91.7511V64.24Z" fill="#EBEBEB"/>
<path d="M215.999 321.18C323.082 321.18 409.889 316.112 409.889 309.86C409.889 303.608 323.082 298.54 215.999 298.54C108.917 298.54 22.1094 303.608 22.1094 309.86C22.1094 316.112 108.917 321.18 215.999 321.18Z" fill="#F5F5F5"/>
<path d="M165.36 129.62H373.72C374.281 129.62 374.836 129.73 375.354 129.945C375.872 130.16 376.343 130.474 376.739 130.871C377.136 131.267 377.45 131.738 377.665 132.256C377.88 132.774 377.99 133.329 377.99 133.89V284.62H161.09V133.93C161.085 133.366 161.191 132.806 161.404 132.284C161.616 131.761 161.929 131.286 162.326 130.885C162.723 130.484 163.196 130.166 163.717 129.949C164.237 129.732 164.796 129.62 165.36 129.62Z" fill="#263238"/>
<path d="M373.719 139.23H165.359V272.4H373.719V139.23Z" fill="#B5B5B5"/>
<path opacity="0.2" d="M267.639 136.9C268.787 136.9 269.719 135.969 269.719 134.82C269.719 133.671 268.787 132.74 267.639 132.74C266.49 132.74 265.559 133.671 265.559 134.82C265.559 135.969 266.49 136.9 267.639 136.9Z" fill="white"/>
<path opacity="0.2" d="M271.951 136.38C272.812 136.38 273.511 135.682 273.511 134.82C273.511 133.958 272.812 133.26 271.951 133.26C271.089 133.26 270.391 133.958 270.391 134.82C270.391 135.682 271.089 136.38 271.951 136.38Z" fill="white"/>
<path opacity="0.2" d="M270.389 275.13C270.115 275.034 269.828 274.983 269.539 274.98C268.999 274.98 268.471 275.14 268.022 275.44C267.573 275.74 267.223 276.166 267.016 276.665C266.81 277.164 266.756 277.713 266.861 278.243C266.966 278.772 267.226 279.259 267.608 279.64C267.99 280.022 268.476 280.282 269.006 280.388C269.536 280.493 270.084 280.439 270.583 280.232C271.082 280.026 271.509 279.676 271.808 279.227C272.108 278.778 272.269 278.25 272.269 277.71C272.274 277.66 272.274 277.61 272.269 277.56C271.747 277.392 271.288 277.069 270.953 276.636C270.617 276.202 270.421 275.677 270.389 275.13Z" fill="white"/>
<path d="M394.16 282.5V284.5C394.156 285.12 393.954 285.722 393.584 286.219C393.213 286.716 392.693 287.08 392.1 287.26L377 291.68C375.124 292.239 373.177 292.522 371.22 292.52H167.88C165.926 292.521 163.982 292.238 162.11 291.68L147 287.22C146.405 287.042 145.882 286.678 145.51 286.181C145.137 285.684 144.934 285.081 144.93 284.46V282.46L394.16 282.5Z" fill="#263238"/>
<path opacity="0.2" d="M394.16 282.5V284.5C394.156 285.12 393.954 285.722 393.584 286.219C393.213 286.716 392.693 287.08 392.1 287.26L377 291.68C375.124 292.239 373.177 292.522 371.22 292.52H167.88C165.926 292.521 163.982 292.238 162.11 291.68L147 287.22C146.405 287.042 145.882 286.678 145.51 286.181C145.137 285.684 144.934 285.081 144.93 284.46V282.46L394.16 282.5Z" fill="white"/>
<path opacity="0.2" d="M394.16 282.5V284.5C394.159 285.018 394.017 285.526 393.75 285.97H145.34C145.072 285.526 144.93 285.018 144.93 284.5V282.5H394.16Z" fill="white"/>
<path opacity="0.2" d="M287.078 282.5V283.36C287.078 283.472 287.056 283.582 287.013 283.685C286.97 283.788 286.908 283.882 286.829 283.961C286.75 284.04 286.656 284.103 286.553 284.145C286.45 284.188 286.339 284.21 286.228 284.21H252.868C252.755 284.211 252.644 284.19 252.539 284.148C252.435 284.106 252.34 284.044 252.26 283.965C252.18 283.886 252.117 283.791 252.073 283.688C252.03 283.584 252.008 283.472 252.008 283.36V282.5H287.078Z" fill="black"/>
<path opacity="0.1" d="M373.719 139.23C373.719 139.23 344.909 253.62 165.359 272.4V139.23H373.719Z" fill="white"/>
<path d="M353.999 87.09V212.35L333.139 233.21H250.659C249.807 233.207 248.99 232.867 248.389 232.263C247.787 231.66 247.449 230.842 247.449 229.99V87.09C247.449 86.2377 247.787 85.4202 248.389 84.8166C248.99 84.2131 249.807 83.8727 250.659 83.87H350.759C351.184 83.8674 351.605 83.9487 351.998 84.1094C352.391 84.27 352.748 84.5068 353.049 84.806C353.35 85.1053 353.589 85.4611 353.752 85.8531C353.915 86.2451 353.999 86.6655 353.999 87.09Z" fill="#A1DC5F"/>
<path opacity="0.6" d="M353.999 92.56V212.35L333.139 233.21H250.659C249.807 233.207 248.99 232.867 248.389 232.263C247.787 231.66 247.449 230.842 247.449 229.99V92.56H353.999Z" fill="white"/>
<path opacity="0.6" d="M351.198 87.85C351.2 88.159 351.11 88.4615 350.94 88.7194C350.77 88.9773 350.527 89.1788 350.242 89.2984C349.957 89.418 349.643 89.4503 349.34 89.3912C349.037 89.3322 348.758 89.1844 348.539 88.9666C348.319 88.7489 348.17 88.4709 348.109 88.168C348.048 87.8652 348.078 87.551 348.196 87.2653C348.314 86.9797 348.514 86.7355 348.77 86.5636C349.027 86.3918 349.329 86.3 349.638 86.3C349.842 86.2987 350.045 86.3378 350.234 86.4151C350.424 86.4924 350.596 86.6064 350.741 86.7504C350.886 86.8945 351.001 87.0658 351.079 87.2545C351.158 87.4432 351.198 87.6456 351.198 87.85Z" fill="white"/>
<path opacity="0.6" d="M345.26 87.85C345.26 88.1566 345.169 88.4562 344.999 88.7111C344.829 88.966 344.587 89.1647 344.303 89.282C344.02 89.3993 343.708 89.43 343.408 89.3702C343.107 89.3104 342.831 89.1628 342.614 88.946C342.397 88.7293 342.25 88.4531 342.19 88.1524C342.13 87.8517 342.161 87.5401 342.278 87.2568C342.395 86.9736 342.594 86.7315 342.849 86.5612C343.104 86.3909 343.404 86.3 343.71 86.3C343.914 86.2987 344.116 86.3379 344.305 86.4153C344.494 86.4927 344.665 86.6068 344.809 86.751C344.953 86.8952 345.067 87.0666 345.145 87.2553C345.222 87.4439 345.261 87.6461 345.26 87.85Z" fill="white"/>
<path opacity="0.6" d="M339.331 87.85C339.333 88.1594 339.243 88.4624 339.072 88.7204C338.902 88.9785 338.658 89.18 338.373 89.2993C338.087 89.4186 337.773 89.4504 337.469 89.3905C337.166 89.3306 336.887 89.1818 336.668 88.9631C336.449 88.7443 336.3 88.4654 336.24 88.1619C336.181 87.8583 336.212 87.5438 336.332 87.2584C336.451 86.9729 336.652 86.7294 336.91 86.5587C337.169 86.3881 337.472 86.298 337.781 86.3C338.192 86.3 338.586 86.4633 338.877 86.754C339.168 87.0447 339.331 87.4389 339.331 87.85Z" fill="white"/>
<path d="M312.198 102.21H255.098C254.832 102.21 254.578 102.105 254.391 101.917C254.203 101.73 254.098 101.475 254.098 101.21C254.098 100.945 254.203 100.69 254.391 100.503C254.578 100.315 254.832 100.21 255.098 100.21H312.198C312.463 100.21 312.717 100.315 312.905 100.503C313.092 100.69 313.198 100.945 313.198 101.21C313.198 101.475 313.092 101.73 312.905 101.917C312.717 102.105 312.463 102.21 312.198 102.21Z" fill="#A1DC5F"/>
<path d="M296.059 107.68H255.059C254.793 107.68 254.539 107.575 254.352 107.387C254.164 107.2 254.059 106.945 254.059 106.68C254.059 106.415 254.164 106.16 254.352 105.973C254.539 105.785 254.793 105.68 255.059 105.68H296.059C296.324 105.68 296.578 105.785 296.766 105.973C296.953 106.16 297.059 106.415 297.059 106.68C297.059 106.945 296.953 107.2 296.766 107.387C296.578 107.575 296.324 107.68 296.059 107.68Z" fill="#A1DC5F"/>
<path d="M340.328 192.14H267.328C267.063 192.14 266.809 192.035 266.621 191.847C266.433 191.66 266.328 191.405 266.328 191.14C266.328 190.875 266.433 190.62 266.621 190.433C266.809 190.245 267.063 190.14 267.328 190.14H340.328C340.593 190.14 340.848 190.245 341.035 190.433C341.223 190.62 341.328 190.875 341.328 191.14C341.328 191.405 341.223 191.66 341.035 191.847C340.848 192.035 340.593 192.14 340.328 192.14Z" fill="#A1DC5F"/>
<path d="M328.121 213.99H255.121C254.856 213.99 254.602 213.885 254.414 213.697C254.226 213.51 254.121 213.255 254.121 212.99C254.121 212.725 254.226 212.47 254.414 212.283C254.602 212.095 254.856 211.99 255.121 211.99H328.121C328.386 211.99 328.641 212.095 328.828 212.283C329.016 212.47 329.121 212.725 329.121 212.99C329.121 213.255 329.016 213.51 328.828 213.697C328.641 213.885 328.386 213.99 328.121 213.99Z" fill="#A1DC5F"/>
<path d="M340.328 197.62H255.098C254.832 197.62 254.578 197.515 254.391 197.327C254.203 197.14 254.098 196.885 254.098 196.62C254.098 196.355 254.203 196.1 254.391 195.913C254.578 195.725 254.832 195.62 255.098 195.62H340.328C340.593 195.62 340.847 195.725 341.035 195.913C341.222 196.1 341.328 196.355 341.328 196.62C341.328 196.885 341.222 197.14 341.035 197.327C340.847 197.515 340.593 197.62 340.328 197.62Z" fill="#A1DC5F"/>
<path d="M340.328 203.07H255.098C254.832 203.07 254.578 202.965 254.391 202.777C254.203 202.59 254.098 202.335 254.098 202.07C254.098 201.805 254.203 201.55 254.391 201.363C254.578 201.175 254.832 201.07 255.098 201.07H340.328C340.593 201.07 340.847 201.175 341.035 201.363C341.222 201.55 341.328 201.805 341.328 202.07C341.328 202.335 341.222 202.59 341.035 202.777C340.847 202.965 340.593 203.07 340.328 203.07Z" fill="#A1DC5F"/>
<path d="M340.328 208.53H255.098C254.832 208.53 254.578 208.425 254.391 208.237C254.203 208.05 254.098 207.795 254.098 207.53C254.098 207.265 254.203 207.01 254.391 206.823C254.578 206.635 254.832 206.53 255.098 206.53H340.328C340.593 206.53 340.847 206.635 341.035 206.823C341.222 207.01 341.328 207.265 341.328 207.53C341.328 207.795 341.222 208.05 341.035 208.237C340.847 208.425 340.593 208.53 340.328 208.53Z" fill="#A1DC5F"/>
<path opacity="0.5" d="M353.981 212.35L333.121 233.21V212.35H353.981Z" fill="#A1DC5F"/>
<path opacity="0.4" d="M353.98 92.56H348.09V212.35H353.98V92.56Z" fill="black"/>
<path d="M350.998 155.15C350.423 155.15 349.871 154.921 349.464 154.514C349.057 154.107 348.828 153.556 348.828 152.98V140.74C348.841 140.173 349.076 139.634 349.481 139.238C349.887 138.842 350.431 138.62 350.998 138.62C351.283 138.62 351.565 138.676 351.829 138.785C352.092 138.894 352.331 139.054 352.533 139.256C352.734 139.457 352.894 139.696 353.003 139.96C353.112 140.223 353.168 140.505 353.168 140.79V153.03C353.155 153.597 352.921 154.136 352.515 154.532C352.11 154.928 351.565 155.15 350.998 155.15Z" fill="#A1DC5F"/>
<path d="M340.328 162.14H267.328C267.063 162.14 266.809 162.035 266.621 161.847C266.433 161.66 266.328 161.405 266.328 161.14C266.328 160.875 266.433 160.62 266.621 160.433C266.809 160.245 267.063 160.14 267.328 160.14H340.328C340.593 160.14 340.848 160.245 341.035 160.433C341.223 160.62 341.328 160.875 341.328 161.14C341.328 161.405 341.223 161.66 341.035 161.847C340.848 162.035 340.593 162.14 340.328 162.14Z" fill="#A1DC5F"/>
<path d="M328.121 183.99H255.121C254.856 183.99 254.602 183.885 254.414 183.697C254.226 183.51 254.121 183.255 254.121 182.99C254.121 182.725 254.226 182.47 254.414 182.283C254.602 182.095 254.856 181.99 255.121 181.99H328.121C328.386 181.99 328.641 182.095 328.828 182.283C329.016 182.47 329.121 182.725 329.121 182.99C329.121 183.255 329.016 183.51 328.828 183.697C328.641 183.885 328.386 183.99 328.121 183.99Z" fill="#A1DC5F"/>
<path d="M340.328 167.62H255.098C254.832 167.62 254.578 167.515 254.391 167.327C254.203 167.14 254.098 166.885 254.098 166.62C254.098 166.355 254.203 166.1 254.391 165.913C254.578 165.725 254.832 165.62 255.098 165.62H340.328C340.593 165.62 340.847 165.725 341.035 165.913C341.222 166.1 341.328 166.355 341.328 166.62C341.328 166.885 341.222 167.14 341.035 167.327C340.847 167.515 340.593 167.62 340.328 167.62Z" fill="#A1DC5F"/>
<path d="M340.328 173.07H255.098C254.832 173.07 254.578 172.965 254.391 172.777C254.203 172.59 254.098 172.335 254.098 172.07C254.098 171.805 254.203 171.55 254.391 171.363C254.578 171.175 254.832 171.07 255.098 171.07H340.328C340.593 171.07 340.847 171.175 341.035 171.363C341.222 171.55 341.328 171.805 341.328 172.07C341.328 172.335 341.222 172.59 341.035 172.777C340.847 172.965 340.593 173.07 340.328 173.07Z" fill="#A1DC5F"/>
<path d="M340.328 178.53H255.098C254.832 178.53 254.578 178.425 254.391 178.237C254.203 178.05 254.098 177.795 254.098 177.53C254.098 177.265 254.203 177.01 254.391 176.823C254.578 176.635 254.832 176.53 255.098 176.53H340.328C340.593 176.53 340.847 176.635 341.035 176.823C341.222 177.01 341.328 177.265 341.328 177.53C341.328 177.795 341.222 178.05 341.035 178.237C340.847 178.425 340.593 178.53 340.328 178.53Z" fill="#A1DC5F"/>
<path d="M340.32 114.19H254.84V146.09H340.32V114.19Z" fill="#A1DC5F"/>
<path opacity="0.2" d="M254.84 140.97H257.17V135.17H259.85V123.72H263.59V130.77H268.73V140.14H274.86V133.61H279.93L283.28 130.25V122.48H285.33V133.61H290.49V137.57H295.83V117.37L297.31 115.89V121.43H300.72V123.92L303.99 127.2V133.11H308.69V128.43H320.95V124.94H323.72V118.84H324.71V128.43H326.27L329.8 124.9H333.12V121.71H334.8V124.94H336.97V138.16H339.33V131.56L340.33 131.62V114.19H254.84V140.97Z" fill="black"/>
<path d="M340.328 151.14H317.328C317.063 151.14 316.809 151.035 316.621 150.847C316.433 150.66 316.328 150.405 316.328 150.14C316.328 149.875 316.433 149.62 316.621 149.433C316.809 149.245 317.063 149.14 317.328 149.14H340.328C340.593 149.14 340.848 149.245 341.035 149.433C341.223 149.62 341.328 149.875 341.328 150.14C341.328 150.405 341.223 150.66 341.035 150.847C340.848 151.035 340.593 151.14 340.328 151.14Z" fill="#A1DC5F"/>
<path opacity="0.2" d="M288.699 83.87V187.39L272.999 203.13H247.449V87.13C247.449 86.2777 247.787 85.4602 248.389 84.8567C248.99 84.2531 249.807 83.9126 250.659 83.91L288.699 83.87Z" fill="black"/>
<path opacity="0.4" d="M350.998 155.15C350.423 155.15 349.871 154.921 349.464 154.514C349.057 154.107 348.828 153.556 348.828 152.98V140.74C348.841 140.173 349.076 139.634 349.481 139.238C349.887 138.842 350.431 138.62 350.998 138.62C351.283 138.62 351.565 138.676 351.829 138.785C352.092 138.894 352.331 139.054 352.533 139.256C352.734 139.457 352.894 139.696 353.003 139.96C353.112 140.223 353.168 140.505 353.168 140.79V153.03C353.155 153.597 352.921 154.136 352.515 154.532C352.11 154.928 351.565 155.15 350.998 155.15Z" fill="white"/>
<path d="M227.741 102.7V227.96L206.881 248.82H124.421C123.569 248.817 122.752 248.477 122.151 247.873C121.549 247.27 121.211 246.452 121.211 245.6V102.7C121.211 101.848 121.549 101.03 122.151 100.427C122.752 99.823 123.569 99.4826 124.421 99.48H224.521C225.375 99.48 226.194 99.8192 226.798 100.423C227.402 101.027 227.741 101.846 227.741 102.7Z" fill="#A1DC5F"/>
<path opacity="0.6" d="M227.741 108.18V227.97L206.881 248.83H124.421C123.569 248.827 122.752 248.487 122.151 247.883C121.549 247.28 121.211 246.462 121.211 245.61V108.18H227.741Z" fill="white"/>
<path opacity="0.6" d="M225.003 103.47C225.005 103.779 224.915 104.082 224.745 104.339C224.575 104.597 224.332 104.799 224.047 104.918C223.762 105.038 223.448 105.07 223.145 105.011C222.841 104.952 222.562 104.804 222.343 104.587C222.124 104.369 221.975 104.091 221.914 103.788C221.853 103.485 221.883 103.171 222.001 102.885C222.118 102.6 222.318 102.355 222.575 102.184C222.832 102.012 223.134 101.92 223.443 101.92C223.647 101.919 223.85 101.958 224.039 102.035C224.228 102.112 224.4 102.226 224.545 102.37C224.69 102.514 224.805 102.686 224.884 102.875C224.962 103.063 225.003 103.266 225.003 103.47Z" fill="white"/>
<path opacity="0.6" d="M219.003 103.47C219.005 103.779 218.915 104.082 218.744 104.34C218.573 104.598 218.33 104.8 218.044 104.919C217.759 105.039 217.444 105.07 217.141 105.01C216.837 104.951 216.558 104.802 216.34 104.583C216.121 104.364 215.972 104.085 215.912 103.782C215.852 103.478 215.884 103.164 216.003 102.878C216.123 102.593 216.324 102.349 216.582 102.179C216.84 102.008 217.143 101.918 217.453 101.92C217.657 101.919 217.859 101.958 218.048 102.035C218.236 102.113 218.408 102.227 218.552 102.371C218.696 102.515 218.81 102.687 218.888 102.875C218.965 103.064 219.004 103.266 219.003 103.47Z" fill="white"/>
<path opacity="0.6" d="M213.093 103.47C213.095 103.779 213.005 104.082 212.835 104.339C212.664 104.597 212.421 104.799 212.137 104.918C211.852 105.038 211.538 105.07 211.234 105.011C210.931 104.952 210.652 104.804 210.433 104.587C210.214 104.369 210.064 104.091 210.003 103.788C209.942 103.485 209.973 103.171 210.09 102.885C210.208 102.6 210.408 102.355 210.665 102.184C210.922 102.012 211.224 101.92 211.533 101.92C211.737 101.919 211.94 101.958 212.129 102.035C212.318 102.112 212.49 102.226 212.635 102.37C212.78 102.514 212.895 102.686 212.974 102.875C213.052 103.063 213.093 103.266 213.093 103.47Z" fill="white"/>
<path d="M146.599 118.37H128.859C128.594 118.37 128.34 118.265 128.152 118.077C127.965 117.89 127.859 117.635 127.859 117.37C127.859 117.105 127.965 116.85 128.152 116.663C128.34 116.475 128.594 116.37 128.859 116.37H146.599C146.865 116.37 147.119 116.475 147.306 116.663C147.494 116.85 147.599 117.105 147.599 117.37C147.599 117.635 147.494 117.89 147.306 118.077C147.119 118.265 146.865 118.37 146.599 118.37Z" fill="#A1DC5F"/>
<path d="M155.002 123.83H128.902C128.637 123.83 128.383 123.725 128.195 123.537C128.008 123.35 127.902 123.095 127.902 122.83C127.902 122.565 128.008 122.31 128.195 122.123C128.383 121.935 128.637 121.83 128.902 121.83H155.002C155.268 121.83 155.522 121.935 155.709 122.123C155.897 122.31 156.002 122.565 156.002 122.83C156.002 123.095 155.897 123.35 155.709 123.537C155.522 123.725 155.268 123.83 155.002 123.83Z" fill="#A1DC5F"/>
<path d="M146.891 129.29H128.891C128.625 129.29 128.371 129.185 128.184 128.997C127.996 128.81 127.891 128.555 127.891 128.29C127.891 128.025 127.996 127.77 128.184 127.583C128.371 127.395 128.625 127.29 128.891 127.29H146.891C147.156 127.29 147.41 127.395 147.598 127.583C147.785 127.77 147.891 128.025 147.891 128.29C147.891 128.555 147.785 128.81 147.598 128.997C147.41 129.185 147.156 129.29 146.891 129.29Z" fill="#A1DC5F"/>
<path d="M214.082 218.76H141.082C140.817 218.76 140.562 218.655 140.375 218.467C140.187 218.28 140.082 218.025 140.082 217.76C140.082 217.495 140.187 217.24 140.375 217.053C140.562 216.865 140.817 216.76 141.082 216.76H214.082C214.347 216.76 214.602 216.865 214.789 217.053C214.977 217.24 215.082 217.495 215.082 217.76C215.082 218.025 214.977 218.28 214.789 218.467C214.602 218.655 214.347 218.76 214.082 218.76Z" fill="#A1DC5F"/>
<path d="M174.079 224.22H128.859C128.594 224.22 128.34 224.115 128.152 223.927C127.965 223.74 127.859 223.485 127.859 223.22C127.859 222.955 127.965 222.7 128.152 222.513C128.34 222.325 128.594 222.22 128.859 222.22H174.079C174.345 222.22 174.599 222.325 174.786 222.513C174.974 222.7 175.079 222.955 175.079 223.22C175.079 223.485 174.974 223.74 174.786 223.927C174.599 224.115 174.345 224.22 174.079 224.22Z" fill="#A1DC5F"/>
<path opacity="0.5" d="M227.743 227.97L206.883 248.83V227.97H227.743Z" fill="#A1DC5F"/>
<path opacity="0.4" d="M227.742 108.18H221.852V227.97H227.742V108.18Z" fill="black"/>
<path d="M224.791 219.77C224.216 219.77 223.664 219.541 223.257 219.134C222.85 218.727 222.621 218.176 222.621 217.6V205.36C222.621 204.784 222.85 204.233 223.257 203.826C223.664 203.419 224.216 203.19 224.791 203.19C225.076 203.19 225.358 203.246 225.622 203.355C225.885 203.464 226.124 203.624 226.326 203.826C226.527 204.027 226.687 204.266 226.796 204.53C226.905 204.793 226.961 205.075 226.961 205.36V217.62C226.956 218.192 226.725 218.739 226.318 219.142C225.912 219.544 225.363 219.77 224.791 219.77Z" fill="#A1DC5F"/>
<path d="M214.082 118.37H200.352C200.086 118.37 199.832 118.265 199.644 118.077C199.457 117.89 199.352 117.635 199.352 117.37C199.352 117.105 199.457 116.85 199.644 116.663C199.832 116.475 200.086 116.37 200.352 116.37H214.082C214.347 116.37 214.601 116.475 214.789 116.663C214.976 116.85 215.082 117.105 215.082 117.37C215.082 117.635 214.976 117.89 214.789 118.077C214.601 118.265 214.347 118.37 214.082 118.37Z" fill="#A1DC5F"/>
<path d="M214.08 123.83H207C206.735 123.83 206.48 123.725 206.293 123.537C206.105 123.35 206 123.095 206 122.83C206 122.565 206.105 122.31 206.293 122.123C206.48 121.935 206.735 121.83 207 121.83H214.1C214.365 121.83 214.62 121.935 214.807 122.123C214.995 122.31 215.1 122.565 215.1 122.83C215.1 123.095 214.995 123.35 214.807 123.537C214.62 123.725 214.365 123.83 214.1 123.83H214.08Z" fill="#A1DC5F"/>
<path d="M214.082 143.76H141.082C140.817 143.76 140.562 143.655 140.375 143.467C140.187 143.28 140.082 143.025 140.082 142.76C140.082 142.495 140.187 142.24 140.375 142.053C140.562 141.865 140.817 141.76 141.082 141.76H214.082C214.347 141.76 214.602 141.865 214.789 142.053C214.977 142.24 215.082 142.495 215.082 142.76C215.082 143.025 214.977 143.28 214.789 143.467C214.602 143.655 214.347 143.76 214.082 143.76Z" fill="#A1DC5F"/>
<path d="M214.079 149.22H128.859C128.594 149.22 128.34 149.115 128.152 148.927C127.965 148.74 127.859 148.485 127.859 148.22C127.859 147.955 127.965 147.7 128.152 147.513C128.34 147.325 128.594 147.22 128.859 147.22H214.079C214.345 147.22 214.599 147.325 214.786 147.513C214.974 147.7 215.079 147.955 215.079 148.22C215.079 148.485 214.974 148.74 214.786 148.927C214.599 149.115 214.345 149.22 214.079 149.22Z" fill="#A1DC5F"/>
<path d="M164.079 154.68H128.859C128.594 154.68 128.34 154.575 128.152 154.387C127.965 154.2 127.859 153.945 127.859 153.68C127.859 153.415 127.965 153.16 128.152 152.973C128.34 152.785 128.594 152.68 128.859 152.68H164.079C164.345 152.68 164.599 152.785 164.786 152.973C164.974 153.16 165.079 153.415 165.079 153.68C165.079 153.945 164.974 154.2 164.786 154.387C164.599 154.575 164.345 154.68 164.079 154.68Z" fill="#A1DC5F"/>
<path opacity="0.7" d="M176.58 161.93H143V170.93H176.58V161.93Z" fill="#A1DC5F"/>
<path opacity="0.3" d="M158.21 172.93H143V206.16H158.21V172.93Z" fill="#A1DC5F"/>
<path opacity="0.3" d="M196.04 172.93H178.57V206.16H196.04V172.93Z" fill="#A1DC5F"/>
<path opacity="0.7" d="M214.08 161.93H178.57V170.93H214.08V161.93Z" fill="#A1DC5F"/>
<path opacity="0.3" d="M214.091 172.93H198.051V206.16H214.091V172.93Z" fill="#A1DC5F"/>
<path opacity="0.5" d="M140.999 172.93H128.859V206.16H140.999V172.93Z" fill="#A1DC5F"/>
<path d="M140.999 161.93H128.859V170.93H140.999V161.93Z" fill="#A1DC5F"/>
<path opacity="0.3" d="M176.571 172.93H160.211V206.16H176.571V172.93Z" fill="#A1DC5F"/>
<path opacity="0.4" d="M224.791 219.77C224.216 219.77 223.664 219.541 223.257 219.134C222.85 218.727 222.621 218.176 222.621 217.6V205.36C222.621 204.784 222.85 204.233 223.257 203.826C223.664 203.419 224.216 203.19 224.791 203.19C225.076 203.19 225.358 203.246 225.622 203.355C225.885 203.464 226.124 203.624 226.326 203.826C226.527 204.027 226.687 204.266 226.796 204.53C226.905 204.793 226.961 205.075 226.961 205.36V217.62C226.956 218.192 226.725 218.739 226.318 219.142C225.912 219.544 225.363 219.77 224.791 219.77Z" fill="white"/>
<path opacity="0.2" d="M227.739 102.7V206.9H167.409C166.557 206.897 165.74 206.557 165.139 205.953C164.537 205.35 164.199 204.532 164.199 203.68V99.48H224.519C225.373 99.48 226.192 99.8192 226.796 100.423C227.4 101.027 227.739 101.846 227.739 102.7Z" fill="black"/>
<path d="M280.71 45.92V171.18L259.85 192.04H177.39C176.537 192.037 175.721 191.697 175.119 191.093C174.518 190.49 174.18 189.672 174.18 188.82V45.92C174.18 45.0677 174.518 44.2502 175.119 43.6467C175.721 43.0431 176.537 42.7027 177.39 42.7H277.49C278.344 42.7 279.163 43.0393 279.767 43.6431C280.37 44.247 280.71 45.066 280.71 45.92Z" fill="#A1DC5F"/>
<path opacity="0.6" d="M280.71 51.39V171.18L259.85 192.04H177.39C176.537 192.037 175.721 191.697 175.119 191.093C174.518 190.49 174.18 189.672 174.18 188.82V51.39H280.71Z" fill="white"/>
<path opacity="0.6" d="M276.37 48.23C277.226 48.23 277.92 47.536 277.92 46.68C277.92 45.824 277.226 45.13 276.37 45.13C275.514 45.13 274.82 45.824 274.82 46.68C274.82 47.536 275.514 48.23 276.37 48.23Z" fill="white"/>
<path opacity="0.6" d="M270.429 48.23C271.285 48.23 271.979 47.536 271.979 46.68C271.979 45.824 271.285 45.13 270.429 45.13C269.573 45.13 268.879 45.824 268.879 46.68C268.879 47.536 269.573 48.23 270.429 48.23Z" fill="white"/>
<path opacity="0.6" d="M266.05 46.68C266.052 46.9894 265.962 47.2924 265.791 47.5504C265.62 47.8085 265.377 48.01 265.091 48.1293C264.806 48.2486 264.491 48.2804 264.188 48.2205C263.884 48.1606 263.605 48.0118 263.387 47.7931C263.168 47.5743 263.019 47.2954 262.959 46.9919C262.899 46.6883 262.931 46.3739 263.05 46.0884C263.17 45.8029 263.371 45.5594 263.629 45.3888C263.887 45.2181 264.19 45.128 264.5 45.13C264.704 45.1287 264.906 45.1679 265.094 45.2453C265.283 45.3227 265.454 45.4368 265.599 45.581C265.743 45.7252 265.857 45.8966 265.934 46.0853C266.012 46.2739 266.051 46.4761 266.05 46.68Z" fill="white"/>
<path d="M234.62 61.62H214.25C213.985 61.62 213.73 61.5147 213.543 61.3271C213.355 61.1396 213.25 60.8852 213.25 60.62C213.25 60.3548 213.355 60.1004 213.543 59.9129C213.73 59.7254 213.985 59.62 214.25 59.62H234.62C234.885 59.62 235.14 59.7254 235.327 59.9129C235.515 60.1004 235.62 60.3548 235.62 60.62C235.62 60.8852 235.515 61.1396 235.327 61.3271C235.14 61.5147 234.885 61.62 234.62 61.62Z" fill="#A1DC5F"/>
<path d="M242.998 67.04H205.898C205.633 67.04 205.379 66.9347 205.191 66.7471C205.004 66.5596 204.898 66.3052 204.898 66.04C204.898 65.7748 205.004 65.5204 205.191 65.3329C205.379 65.1454 205.633 65.04 205.898 65.04H242.998C243.264 65.04 243.518 65.1454 243.706 65.3329C243.893 65.5204 243.998 65.7748 243.998 66.04C243.998 66.3052 243.893 66.5596 243.706 66.7471C243.518 66.9347 243.264 67.04 242.998 67.04Z" fill="#A1DC5F"/>
<path d="M234.92 72.51H214C213.735 72.51 213.48 72.4047 213.293 72.2171C213.105 72.0296 213 71.7752 213 71.51C213 71.2448 213.105 70.9904 213.293 70.8029C213.48 70.6154 213.735 70.51 214 70.51H235C235.265 70.51 235.52 70.6154 235.707 70.8029C235.895 70.9904 236 71.2448 236 71.51C236 71.7752 235.895 72.0296 235.707 72.2171C235.52 72.4047 235.265 72.51 235 72.51H234.92Z" fill="#A1DC5F"/>
<path d="M267.05 86.97H194C193.735 86.97 193.48 86.8647 193.293 86.6771C193.105 86.4896 193 86.2352 193 85.97C193 85.7048 193.105 85.4504 193.293 85.2629C193.48 85.0754 193.735 84.97 194 84.97H267C267.265 84.97 267.52 85.0754 267.707 85.2629C267.895 85.4504 268 85.7048 268 85.97C268 86.2352 267.895 86.4896 267.707 86.6771C267.52 86.8647 267.265 86.97 267 86.97H267.05Z" fill="#A1DC5F"/>
<path d="M254.84 108.82H181.84C181.575 108.82 181.32 108.715 181.133 108.527C180.945 108.34 180.84 108.085 180.84 107.82C180.84 107.555 180.945 107.3 181.133 107.113C181.32 106.925 181.575 106.82 181.84 106.82H254.84C255.105 106.82 255.359 106.925 255.547 107.113C255.735 107.3 255.84 107.555 255.84 107.82C255.84 108.085 255.735 108.34 255.547 108.527C255.359 108.715 255.105 108.82 254.84 108.82Z" fill="#A1DC5F"/>
<path d="M267.05 92.43H181.82C181.555 92.43 181.301 92.3247 181.113 92.1371C180.926 91.9496 180.82 91.6952 180.82 91.43C180.82 91.1648 180.926 90.9104 181.113 90.7229C181.301 90.5354 181.555 90.43 181.82 90.43H267.05C267.316 90.43 267.57 90.5354 267.757 90.7229C267.945 90.9104 268.05 91.1648 268.05 91.43C268.05 91.6952 267.945 91.9496 267.757 92.1371C267.57 92.3247 267.316 92.43 267.05 92.43Z" fill="#A1DC5F"/>
<path d="M267.05 97.9H181.82C181.555 97.9 181.301 97.7947 181.113 97.6071C180.926 97.4196 180.82 97.1652 180.82 96.9C180.82 96.6348 180.926 96.3804 181.113 96.1929C181.301 96.0054 181.555 95.9 181.82 95.9H267.05C267.316 95.9 267.57 96.0054 267.757 96.1929C267.945 96.3804 268.05 96.6348 268.05 96.9C268.05 97.1652 267.945 97.4196 267.757 97.6071C267.57 97.7947 267.316 97.9 267.05 97.9Z" fill="#A1DC5F"/>
<path d="M267.05 103.36H181.82C181.555 103.36 181.301 103.255 181.113 103.067C180.926 102.88 180.82 102.625 180.82 102.36C180.82 102.095 180.926 101.84 181.113 101.653C181.301 101.465 181.555 101.36 181.82 101.36H267.05C267.316 101.36 267.57 101.465 267.757 101.653C267.945 101.84 268.05 102.095 268.05 102.36C268.05 102.625 267.945 102.88 267.757 103.067C267.57 103.255 267.316 103.36 267.05 103.36Z" fill="#A1DC5F"/>
<path d="M267.05 141.97H194C193.735 141.97 193.48 141.865 193.293 141.677C193.105 141.49 193 141.235 193 140.97C193 140.705 193.105 140.45 193.293 140.263C193.48 140.075 193.735 139.97 194 139.97H267C267.265 139.97 267.52 140.075 267.707 140.263C267.895 140.45 268 140.705 268 140.97C268 141.235 267.895 141.49 267.707 141.677C267.52 141.865 267.265 141.97 267 141.97H267.05Z" fill="#A1DC5F"/>
<path d="M254.84 163.82H181.84C181.575 163.82 181.32 163.715 181.133 163.527C180.945 163.34 180.84 163.085 180.84 162.82C180.84 162.555 180.945 162.3 181.133 162.113C181.32 161.925 181.575 161.82 181.84 161.82H254.84C255.105 161.82 255.359 161.925 255.547 162.113C255.735 162.3 255.84 162.555 255.84 162.82C255.84 163.085 255.735 163.34 255.547 163.527C255.359 163.715 255.105 163.82 254.84 163.82Z" fill="#A1DC5F"/>
<path d="M267.05 147.43H181.82C181.555 147.43 181.301 147.325 181.113 147.137C180.926 146.95 180.82 146.695 180.82 146.43C180.82 146.165 180.926 145.91 181.113 145.723C181.301 145.535 181.555 145.43 181.82 145.43H267.05C267.316 145.43 267.57 145.535 267.757 145.723C267.945 145.91 268.05 146.165 268.05 146.43C268.05 146.695 267.945 146.95 267.757 147.137C267.57 147.325 267.316 147.43 267.05 147.43Z" fill="#A1DC5F"/>
<path d="M267.05 152.9H181.82C181.555 152.9 181.301 152.795 181.113 152.607C180.926 152.42 180.82 152.165 180.82 151.9C180.82 151.635 180.926 151.38 181.113 151.193C181.301 151.005 181.555 150.9 181.82 150.9H267.05C267.316 150.9 267.57 151.005 267.757 151.193C267.945 151.38 268.05 151.635 268.05 151.9C268.05 152.165 267.945 152.42 267.757 152.607C267.57 152.795 267.316 152.9 267.05 152.9Z" fill="#A1DC5F"/>
<path d="M267.05 158.36H181.82C181.555 158.36 181.301 158.255 181.113 158.067C180.926 157.88 180.82 157.625 180.82 157.36C180.82 157.095 180.926 156.84 181.113 156.653C181.301 156.465 181.555 156.36 181.82 156.36H267.05C267.316 156.36 267.57 156.465 267.757 156.653C267.945 156.84 268.05 157.095 268.05 157.36C268.05 157.625 267.945 157.88 267.757 158.067C267.57 158.255 267.316 158.36 267.05 158.36Z" fill="#A1DC5F"/>
<path d="M267.05 59.38H256.82V73H267.05V59.38Z" fill="#A1DC5F"/>
<path d="M187.498 70.72C190.63 70.72 193.168 68.1815 193.168 65.05C193.168 61.9185 190.63 59.38 187.498 59.38C184.367 59.38 181.828 61.9185 181.828 65.05C181.828 68.1815 184.367 70.72 187.498 70.72Z" fill="#A1DC5F"/>
<path d="M181.501 115.97C181.528 116.268 181.666 116.545 181.887 116.747C182.108 116.949 182.397 117.061 182.696 117.061C182.995 117.061 183.284 116.949 183.505 116.747C183.726 116.545 183.864 116.268 183.891 115.97C183.906 115.804 183.887 115.636 183.834 115.478C183.78 115.32 183.695 115.175 183.582 115.052C183.47 114.928 183.333 114.83 183.181 114.763C183.028 114.695 182.863 114.661 182.696 114.661C182.529 114.661 182.364 114.695 182.212 114.763C182.059 114.83 181.922 114.928 181.81 115.052C181.697 115.175 181.612 115.32 181.559 115.478C181.505 115.636 181.486 115.804 181.501 115.97Z" fill="#A1DC5F"/>
<path d="M181.5 121.43C181.498 121.668 181.567 121.902 181.698 122.1C181.829 122.299 182.017 122.455 182.236 122.547C182.456 122.639 182.698 122.663 182.932 122.617C183.165 122.571 183.38 122.457 183.549 122.288C183.717 122.12 183.831 121.905 183.877 121.672C183.923 121.438 183.899 121.196 183.807 120.976C183.715 120.756 183.559 120.569 183.36 120.438C183.162 120.307 182.928 120.238 182.69 120.24C182.374 120.24 182.072 120.365 181.849 120.589C181.625 120.812 181.5 121.114 181.5 121.43Z" fill="#A1DC5F"/>
<path d="M181.501 126.9C181.528 127.198 181.666 127.475 181.887 127.677C182.108 127.879 182.397 127.991 182.696 127.991C182.995 127.991 183.284 127.879 183.505 127.677C183.726 127.475 183.864 127.198 183.891 126.9C183.906 126.734 183.887 126.566 183.834 126.408C183.78 126.25 183.695 126.105 183.582 125.982C183.47 125.858 183.333 125.76 183.181 125.693C183.028 125.625 182.863 125.591 182.696 125.591C182.529 125.591 182.364 125.625 182.212 125.693C182.059 125.76 181.922 125.858 181.81 125.982C181.697 126.105 181.612 126.25 181.559 126.408C181.505 126.566 181.486 126.734 181.501 126.9Z" fill="#A1DC5F"/>
<path d="M181.501 132.36C181.528 132.658 181.666 132.935 181.887 133.137C182.108 133.339 182.397 133.451 182.696 133.451C182.995 133.451 183.284 133.339 183.505 133.137C183.726 132.935 183.864 132.658 183.891 132.36C183.906 132.194 183.887 132.026 183.834 131.868C183.78 131.71 183.695 131.565 183.582 131.442C183.47 131.318 183.333 131.22 183.181 131.153C183.028 131.085 182.863 131.051 182.696 131.051C182.529 131.051 182.364 131.085 182.212 131.153C182.059 131.22 181.922 131.318 181.81 131.442C181.697 131.565 181.612 131.71 181.559 131.868C181.505 132.026 181.486 132.194 181.501 132.36Z" fill="#A1DC5F"/>
<path d="M199.84 116.97H186.84C186.575 116.97 186.32 116.865 186.133 116.677C185.945 116.49 185.84 116.235 185.84 115.97C185.84 115.705 185.945 115.45 186.133 115.263C186.32 115.075 186.575 114.97 186.84 114.97H199.84C200.105 114.97 200.359 115.075 200.547 115.263C200.734 115.45 200.84 115.705 200.84 115.97C200.84 116.235 200.734 116.49 200.547 116.677C200.359 116.865 200.105 116.97 199.84 116.97Z" fill="#A1DC5F"/>
<path d="M212.05 122.43H186.82C186.555 122.43 186.301 122.325 186.113 122.137C185.926 121.95 185.82 121.695 185.82 121.43C185.82 121.165 185.926 120.91 186.113 120.723C186.301 120.535 186.555 120.43 186.82 120.43H212.05C212.316 120.43 212.57 120.535 212.757 120.723C212.945 120.91 213.05 121.165 213.05 121.43C213.05 121.695 212.945 121.95 212.757 122.137C212.57 122.325 212.316 122.43 212.05 122.43Z" fill="#A1DC5F"/>
<path d="M197.05 127.9H186.82C186.555 127.9 186.301 127.795 186.113 127.607C185.926 127.42 185.82 127.165 185.82 126.9C185.82 126.635 185.926 126.38 186.113 126.193C186.301 126.005 186.555 125.9 186.82 125.9H197.05C197.316 125.9 197.57 126.005 197.757 126.193C197.945 126.38 198.05 126.635 198.05 126.9C198.05 127.165 197.945 127.42 197.757 127.607C197.57 127.795 197.316 127.9 197.05 127.9Z" fill="#A1DC5F"/>
<path d="M208.05 133.36H186.82C186.555 133.36 186.301 133.255 186.113 133.067C185.926 132.88 185.82 132.625 185.82 132.36C185.82 132.095 185.926 131.84 186.113 131.653C186.301 131.465 186.555 131.36 186.82 131.36H208.05C208.316 131.36 208.57 131.465 208.757 131.653C208.945 131.84 209.05 132.095 209.05 132.36C209.05 132.625 208.945 132.88 208.757 133.067C208.57 133.255 208.316 133.36 208.05 133.36Z" fill="#A1DC5F"/>
<path opacity="0.5" d="M280.712 171.18L259.852 192.04V171.18H280.712Z" fill="#A1DC5F"/>
<path opacity="0.2" d="M267.05 59.38L256.82 73H267.05V59.38Z" fill="black"/>
<path opacity="0.2" d="M190.81 61.74H184.18V68.37H190.81V61.74Z" fill="black"/>
<path opacity="0.4" d="M280.699 51.39H274.809V171.18H280.699V51.39Z" fill="black"/>
<path d="M277.76 73.98C277.184 73.98 276.632 73.7514 276.225 73.3444C275.818 72.9375 275.59 72.3855 275.59 71.81V59.62C275.59 59.0445 275.818 58.4925 276.225 58.0856C276.632 57.6786 277.184 57.45 277.76 57.45C278.335 57.45 278.887 57.6786 279.294 58.0856C279.701 58.4925 279.93 59.0445 279.93 59.62V71.86C279.917 72.4268 279.682 72.966 279.277 73.3622C278.871 73.7584 278.327 73.9802 277.76 73.98Z" fill="#A1DC5F"/>
<path opacity="0.4" d="M277.76 73.98C277.184 73.98 276.632 73.7514 276.225 73.3444C275.818 72.9375 275.59 72.3855 275.59 71.81V59.62C275.59 59.0445 275.818 58.4925 276.225 58.0856C276.632 57.6786 277.184 57.45 277.76 57.45C278.335 57.45 278.887 57.6786 279.294 58.0856C279.701 58.4925 279.93 59.0445 279.93 59.62V71.86C279.917 72.4268 279.682 72.966 279.277 73.3622C278.871 73.7584 278.327 73.9802 277.76 73.98Z" fill="white"/>
<path d="M49.8295 102.55H84.7495C86.0925 102.553 87.3795 103.088 88.3281 104.038C89.2768 104.989 89.8095 106.277 89.8095 107.62V141.56C89.8095 142.902 89.2764 144.189 88.3275 145.138C87.3786 146.087 86.0915 146.62 84.7495 146.62H70.5695L72.0995 156.85L65.0995 146.62H49.8295C49.1647 146.621 48.5061 146.491 47.8916 146.237C47.2771 145.984 46.7188 145.611 46.2486 145.141C45.7785 144.671 45.4059 144.112 45.152 143.498C44.8982 142.883 44.7682 142.225 44.7695 141.56V107.62C44.7682 106.955 44.8981 106.296 45.1518 105.68C45.4055 105.065 45.778 104.506 46.248 104.036C46.718 103.565 47.2763 103.191 47.8909 102.936C48.5054 102.681 49.1642 102.55 49.8295 102.55Z" fill="#A1DC5F"/>
<path opacity="0.6" d="M49.8295 102.55H84.7495C86.0925 102.553 87.3795 103.088 88.3281 104.038C89.2768 104.989 89.8095 106.277 89.8095 107.62V141.56C89.8095 142.902 89.2764 144.189 88.3275 145.138C87.3786 146.087 86.0915 146.62 84.7495 146.62H70.5695L72.0995 156.85L65.0995 146.62H49.8295C49.1647 146.621 48.5061 146.491 47.8916 146.237C47.2771 145.984 46.7188 145.611 46.2486 145.141C45.7785 144.671 45.4059 144.112 45.152 143.498C44.8982 142.883 44.7682 142.225 44.7695 141.56V107.62C44.7682 106.955 44.8981 106.296 45.1518 105.68C45.4055 105.065 45.778 104.506 46.248 104.036C46.718 103.565 47.2763 103.191 47.8909 102.936C48.5054 102.681 49.1642 102.55 49.8295 102.55Z" fill="white"/>
<path d="M64.4102 117.53V120.24L65.8102 120.37C65.9805 121.26 66.32 122.108 66.8102 122.87L65.9202 123.95L67.8302 125.86L68.9202 124.97C69.6832 125.458 70.5313 125.797 71.4202 125.97L71.5502 127.36H74.2502L74.3902 125.97C75.2778 125.793 76.1253 125.454 76.8902 124.97L77.9702 125.86L79.8801 123.95L78.9902 122.87C79.476 122.106 79.8152 121.258 79.9902 120.37L81.3801 120.24V117.53L79.9902 117.4C79.8152 116.512 79.476 115.664 78.9902 114.9L79.8801 113.82L78.0002 111.9L76.9202 112.8C76.1553 112.316 75.3078 111.977 74.4202 111.8L74.2802 110.4H71.5802L71.4501 111.8C70.5613 111.973 69.7132 112.312 68.9501 112.8L67.8602 111.9L66.0002 113.82L66.8902 114.9C66.4 115.662 66.0605 116.51 65.8902 117.4L64.4102 117.53ZM72.9302 115.22C73.6569 115.218 74.3678 115.432 74.9728 115.834C75.5779 116.237 76.0499 116.81 76.3289 117.481C76.6079 118.152 76.6814 118.891 76.5401 119.603C76.3988 120.316 76.0491 120.971 75.5352 121.485C75.0214 121.999 74.3665 122.349 73.6537 122.49C72.9408 122.631 72.2021 122.558 71.5311 122.279C70.8601 122 70.287 121.528 69.8845 120.923C69.482 120.318 69.2682 119.607 69.2701 118.88C69.2728 117.91 69.6592 116.981 70.3451 116.295C71.0309 115.609 71.9603 115.223 72.9302 115.22Z" fill="#F5F5F5"/>
<path d="M66.1613 137.28C66.8724 137.136 67.5506 136.862 68.1613 136.47L69.0113 137.17L70.5113 135.67L69.8112 134.82C70.2029 134.209 70.4776 133.531 70.6213 132.82L71.7113 132.72V130.62L70.6213 130.52C70.4815 129.808 70.2066 129.129 69.8112 128.52L70.5113 127.67L69.0113 126.17L68.1613 126.87C67.555 126.47 66.8751 126.194 66.1613 126.06L66.0612 124.96H63.9413L63.8313 126.06C63.1174 126.194 62.4375 126.47 61.8313 126.87L60.9912 126.17L59.4912 127.67L60.1913 128.52C59.7886 129.126 59.5099 129.806 59.3713 130.52L58.2812 130.62V132.74L59.3713 132.84C59.5138 133.553 59.7922 134.232 60.1913 134.84L59.4912 135.69L60.9912 137.19L61.8313 136.49C62.4419 136.882 63.1201 137.156 63.8313 137.3L63.9413 138.39H66.0612L66.1613 137.28ZM62.1613 131.7C62.1692 131.13 62.3459 130.576 62.6689 130.107C62.9919 129.638 63.4468 129.275 63.976 129.064C64.5052 128.854 65.085 128.805 65.6421 128.924C66.1991 129.043 66.7084 129.324 67.1055 129.732C67.5026 130.141 67.7698 130.657 67.8731 131.218C67.9765 131.778 67.9115 132.356 67.6862 132.879C67.461 133.402 67.0857 133.847 66.6078 134.157C66.1299 134.467 65.5708 134.628 65.0013 134.62C64.6193 134.621 64.2409 134.546 63.8882 134.4C63.5355 134.253 63.2157 134.037 62.9475 133.765C62.6792 133.493 62.468 133.171 62.3261 132.816C62.1842 132.461 62.1146 132.082 62.1213 131.7H62.1613Z" fill="#F5F5F5"/>
<path d="M60.6389 125.32L61.2289 126.03L62.6989 125.03L62.2489 124.22C62.6768 123.794 63.0166 123.287 63.2489 122.73L64.1689 122.82L64.4989 121.07L63.6089 120.81C63.5975 120.213 63.4755 119.623 63.2489 119.07L63.9589 118.48L62.9589 117.01L62.1489 117.45C61.7232 117.021 61.2168 116.682 60.6589 116.45L60.7489 115.53L58.9989 115.22L58.7389 116.1C58.1404 116.11 57.5495 116.235 56.9989 116.47L56.4089 115.76L54.9389 116.76L55.3789 117.57C54.9547 117.999 54.6154 118.505 54.3789 119.06L53.4589 118.98L53.1289 120.73L54.0089 120.98C54.0198 121.581 54.1454 122.175 54.3789 122.73L53.6689 123.32L54.6689 124.79L55.4789 124.34C55.9086 124.764 56.414 125.103 56.9689 125.34L56.8889 126.26L58.6389 126.59L58.8889 125.7C59.4905 125.681 60.0837 125.552 60.6389 125.32ZM56.4289 120.45C56.5469 119.821 56.9098 119.265 57.4377 118.904C57.9656 118.543 58.6153 118.407 59.2439 118.525C59.8725 118.643 60.4284 119.006 60.7894 119.534C61.1504 120.062 61.2869 120.711 61.1689 121.34C61.1105 121.651 60.9913 121.948 60.8182 122.213C60.6451 122.478 60.4215 122.707 60.1601 122.885C59.8987 123.064 59.6046 123.19 59.2947 123.255C58.9848 123.32 58.6651 123.323 58.3539 123.265C58.0427 123.207 57.746 123.087 57.4808 122.914C57.2156 122.741 56.9872 122.518 56.8084 122.256C56.6297 121.995 56.5041 121.701 56.439 121.391C56.3739 121.081 56.3705 120.761 56.4289 120.45Z" fill="#F5F5F5"/>
<path d="M107.36 226.74C107.36 226.74 109.82 248.88 110.62 251.52C111.42 254.16 122.69 268.26 122.69 268.26L119.5 269.93C119.5 269.93 107.5 257.59 105.59 253.93C103.68 250.27 100.82 231.17 100.82 231.17L107.36 226.74Z" fill="#EBB376"/>
<path d="M105.113 216.88C109.263 219.08 110.622 249.81 110.622 249.81L112.723 253.04L106.342 257.62C104.807 255.087 103.469 252.439 102.342 249.7C101.072 246.28 98.0625 229.4 98.0625 229.4L105.113 216.88Z" fill="#263238"/>
<path opacity="0.1" d="M105.113 216.88C109.263 219.08 110.622 249.81 110.622 249.81L112.723 253.04L106.342 257.62C104.807 255.087 103.469 252.439 102.342 249.7C101.072 246.28 98.0625 229.4 98.0625 229.4L105.113 216.88Z" fill="white"/>
<path d="M105.402 257.59L112.722 251.79L114.292 255.08L107.542 259.89L105.402 257.59Z" fill="#A1DC5F"/>
<path opacity="0.4" d="M105.402 257.59L112.722 251.79L114.292 255.08L107.542 259.89L105.402 257.59Z" fill="white"/>
<path d="M88.7508 256.5L96.2308 268.33C111.061 264.88 158.591 257.63 164.421 273.94C171.681 294.2 119.251 310.36 90.2408 311.35C61.2308 312.34 37.9408 295.82 56.2908 253.52L88.7508 256.5Z" fill="#A1DC5F"/>
<path opacity="0.2" d="M88.7508 256.5L96.2308 268.33C111.061 264.88 158.591 257.63 164.421 273.94C171.681 294.2 119.251 310.36 90.2408 311.35C61.2308 312.34 37.9408 295.82 56.2908 253.52L88.7508 256.5Z" fill="black"/>
<path d="M156.002 302.62C155.971 302.639 155.934 302.65 155.897 302.65C155.86 302.65 155.824 302.639 155.792 302.62C155.765 302.6 155.745 302.571 155.736 302.539C155.727 302.506 155.729 302.471 155.742 302.44C155.832 302.11 156.792 299.32 157.742 299.03C157.845 299.004 157.953 299.007 158.055 299.037C158.157 299.066 158.249 299.123 158.322 299.2C158.458 299.312 158.562 299.458 158.624 299.623C158.685 299.788 158.702 299.966 158.672 300.14C158.512 300.66 158.194 301.118 157.762 301.45C157.214 301.895 156.625 302.286 156.002 302.62ZM156.252 302.08C157.157 301.679 157.891 300.971 158.322 300.08C158.346 299.961 158.335 299.837 158.291 299.724C158.246 299.61 158.171 299.512 158.072 299.44C158.045 299.407 158.009 299.383 157.968 299.371C157.927 299.358 157.883 299.358 157.842 299.37C157.764 299.404 157.69 299.447 157.622 299.5C157.025 300.263 156.568 301.127 156.272 302.05L156.252 302.08Z" fill="#A1DC5F"/>
<path d="M156 302.62C155.969 302.635 155.934 302.639 155.901 302.629C155.868 302.62 155.839 302.599 155.82 302.57C155.73 302.49 154.39 300.8 154.61 299.66C154.635 299.518 154.689 299.383 154.768 299.263C154.847 299.142 154.95 299.039 155.07 298.96C155.172 298.863 155.303 298.803 155.443 298.79C155.583 298.778 155.723 298.813 155.84 298.89C156.55 299.38 156.46 301.65 156.12 302.5V302.59L156 302.62ZM155.24 299.31C155.121 299.414 155.04 299.555 155.01 299.71C155.046 300.563 155.359 301.381 155.9 302.04C156.12 301.04 156.05 299.49 155.64 299.2C155.64 299.2 155.51 299.11 155.3 299.26L155.24 299.31Z" fill="#A1DC5F"/>
<path d="M105 307.34C105.018 307.307 105.047 307.28 105.081 307.264C105.115 307.248 105.153 307.243 105.19 307.25C105.223 307.254 105.254 307.269 105.277 307.293C105.301 307.316 105.316 307.347 105.32 307.38C105.39 307.71 105.9 310.62 105.19 311.38C105.116 311.454 105.021 311.505 104.919 311.528C104.816 311.551 104.709 311.545 104.61 311.51C104.438 311.478 104.277 311.401 104.143 311.287C104.01 311.173 103.909 311.025 103.85 310.86C103.737 310.33 103.793 309.777 104.01 309.28C104.276 308.602 104.607 307.952 105 307.34ZM105 307.93C104.403 308.714 104.101 309.685 104.15 310.67C104.187 310.786 104.257 310.889 104.351 310.967C104.445 311.045 104.559 311.095 104.68 311.11C104.719 311.129 104.762 311.134 104.804 311.125C104.846 311.116 104.883 311.093 104.91 311.06C104.969 310.997 105.013 310.922 105.04 310.84C105.222 309.879 105.229 308.893 105.06 307.93H105Z" fill="#A1DC5F"/>
<path d="M124.01 292.66L112.07 296.91L106.34 298.95L107.81 305.23L113.36 304.04L126.92 301.15L124.01 292.66Z" fill="#EBB376"/>
<path d="M109.371 305.52L108.371 298.12C108.357 298.021 108.324 297.926 108.274 297.841C108.223 297.755 108.155 297.681 108.075 297.622C107.995 297.563 107.903 297.521 107.806 297.499C107.709 297.476 107.609 297.473 107.511 297.49L103.861 298.1C103.861 298.1 98.8608 298.57 97.8608 299.84C94.9708 303.57 96.7708 319.99 98.7008 320.57C99.4008 320.78 100.141 319.82 100.451 319.15C101.451 317.03 103.141 311.5 103.971 309.74C104.971 307.69 107.611 306.69 108.811 306.33C108.987 306.287 109.142 306.181 109.245 306.032C109.348 305.882 109.393 305.7 109.371 305.52Z" fill="#263238"/>
<path d="M105.051 307.28C105.078 307.263 105.11 307.254 105.141 307.254C105.173 307.254 105.204 307.263 105.231 307.28C105.351 307.28 107.341 308.14 107.701 309.28C107.789 309.558 107.764 309.86 107.631 310.12C107.589 310.254 107.503 310.371 107.387 310.45C107.271 310.53 107.132 310.569 106.991 310.56C106.141 310.47 105.111 308.44 104.991 307.56V307.47C104.982 307.436 104.982 307.4 104.993 307.366C105.003 307.332 105.024 307.302 105.051 307.28ZM107.321 309.82C107.371 309.667 107.371 309.503 107.321 309.35C107.091 308.65 105.981 308.03 105.411 307.75C105.691 308.7 106.521 310.06 107.021 310.11C107.021 310.11 107.171 310.11 107.281 309.9V309.82H107.321Z" fill="#A1DC5F"/>
<path opacity="0.2" d="M124.01 292.66L112.07 296.91L113.36 304.04L126.92 301.15L124.01 292.66Z" fill="black"/>
<path d="M115.473 305.12L118.913 305.36L116.613 293.55L112.723 295.71L115.473 305.12Z" fill="#A1DC5F"/>
<path opacity="0.6" d="M115.473 305.12L118.913 305.36L116.613 293.55L112.723 295.71L115.473 305.12Z" fill="white"/>
<path opacity="0.2" d="M65.6797 259.22L83.5597 279.05C83.5597 279.05 103.33 278.61 127.33 290.34C127.33 290.34 153.08 279.7 155.45 270.86C158.55 259.28 96.2297 268.33 96.2297 268.33L65.6797 259.22Z" fill="black"/>
<path d="M149.539 273.22V276.16C149.539 276.91 148.649 277.22 147.909 277.22H89.1991C88.4491 277.22 87.5391 276.91 87.5391 276.16V273.22H149.539Z" fill="#263238"/>
<path opacity="0.4" d="M149.539 273.22V276.16C149.539 276.91 148.649 277.22 147.909 277.22H89.1991C88.4491 277.22 87.5391 276.91 87.5391 276.16V273.22H149.539Z" fill="white"/>
<path opacity="0.2" d="M149.539 273.22V276.16C149.539 276.91 148.649 277.22 147.909 277.22H109.189C108.439 277.22 107.539 276.91 107.539 276.16V273.22H149.539Z" fill="black"/>
<path d="M159.36 242.72L152.36 274.42C152.231 274.927 151.939 275.378 151.529 275.703C151.119 276.028 150.613 276.21 150.09 276.22H111.93C111.691 276.216 111.456 276.156 111.244 276.045C111.033 275.934 110.85 275.775 110.711 275.58C110.572 275.386 110.481 275.161 110.444 274.925C110.407 274.689 110.426 274.447 110.5 274.22L117.5 242.76C117.641 242.281 117.943 241.865 118.354 241.583C118.766 241.301 119.262 241.169 119.76 241.21H157.94C159 241.22 159.59 241.69 159.36 242.72Z" fill="#263238"/>
<path opacity="0.4" d="M159.362 242.72L152.362 274.42C152.233 274.927 151.941 275.378 151.531 275.703C151.12 276.028 150.615 276.21 150.092 276.22H113.232C112.992 276.215 112.758 276.154 112.546 276.043C112.334 275.932 112.15 275.774 112.01 275.58C111.87 275.386 111.776 275.163 111.736 274.927C111.697 274.691 111.712 274.449 111.782 274.22L118.782 242.76C118.926 242.292 119.223 241.886 119.626 241.607C120.028 241.328 120.513 241.191 121.002 241.22H157.882C159.002 241.22 159.592 241.69 159.362 242.72Z" fill="white"/>
<path opacity="0.2" d="M140.542 258.83C140.542 261.55 137.632 263.75 135.542 263.75C133.452 263.75 132.142 261.55 132.752 258.83C133.362 256.11 135.482 254 137.572 253.92C136.962 256.64 138.262 258.83 140.392 258.83C140.442 258.834 140.492 258.834 140.542 258.83Z" fill="black"/>
<path d="M132.301 306.24L144.801 308.3L150.801 309.29L152.551 303.09L147.121 301.43L133.861 297.4L132.301 306.24Z" fill="#EBB376"/>
<path d="M151.329 302.07L148.629 309.07C148.586 309.164 148.563 309.266 148.563 309.369C148.562 309.472 148.583 309.574 148.624 309.669C148.666 309.763 148.727 309.848 148.804 309.917C148.88 309.986 148.971 310.038 149.069 310.07L152.559 311.3C152.559 311.3 157.129 313.3 158.609 312.66C162.939 310.8 169.309 295.55 167.909 294.12C167.399 293.59 166.279 294.12 165.689 294.51C163.809 295.89 159.629 299.91 158.059 301.04C156.209 302.36 153.389 301.95 152.169 301.69C152.007 301.645 151.834 301.658 151.68 301.728C151.527 301.797 151.403 301.918 151.329 302.07Z" fill="#263238"/>
<path opacity="0.2" d="M132.301 306.24L144.801 308.3L147.121 301.43L133.861 297.4L132.301 306.24Z" fill="black"/>
<path d="M145.001 300.14C145.001 300.14 94.0007 271.48 76.4407 272.3C58.8807 273.12 56.3107 288.62 63.5707 298.3C70.8307 307.98 84.2307 310.36 84.2307 310.36C84.2307 310.36 75.1007 297.47 76.4207 293.84C77.7407 290.21 82.9007 295.28 82.9007 295.28C82.9007 295.28 114.941 305.62 143.001 308.04L145.001 300.14Z" fill="#A1DC5F"/>
<path d="M145.789 299.35L142.909 297.41L139.199 308.8H143.649L145.789 299.35Z" fill="#A1DC5F"/>
<path opacity="0.6" d="M145.789 299.35L142.909 297.41L139.199 308.8H143.649L145.789 299.35Z" fill="white"/>
<path d="M56.2891 253.52L88.7591 256.52C88.7591 256.52 93.8491 245.98 97.7591 241.87C101.669 237.76 105.119 216.87 105.119 216.87C102.479 215.592 99.7599 214.483 96.9791 213.55C88.969 210.865 80.5868 209.454 72.1391 209.37H71.9991C69.5791 209.37 68.1791 209.49 68.1791 209.49C67.1958 210.153 66.4002 211.059 65.8691 212.12C62.3891 218.12 59.6191 232.12 57.9791 242.17C56.8691 248.67 56.2891 253.52 56.2891 253.52Z" fill="#263238"/>
<path opacity="0.2" d="M57.9297 242.18C65.0897 238.9 74.8597 233.35 74.3497 227.72C73.7997 221.54 68.7897 215.32 65.8197 212.13C62.3397 218.13 59.5697 232.13 57.9297 242.18Z" fill="black"/>
<path d="M73.7227 209.41C73.7227 209.41 77.4227 221.59 87.5427 222.91C97.6627 224.23 99.3427 214.41 99.3427 214.41C99.3427 214.41 86.3127 207.26 73.7227 209.41Z" fill="#263238"/>
<path opacity="0.1" d="M73.7227 209.41C73.7227 209.41 77.4227 221.59 87.5427 222.91C97.6627 224.23 99.3427 214.41 99.3427 214.41C99.3427 214.41 86.3127 207.26 73.7227 209.41Z" fill="white"/>
<path d="M75.8398 209.75C75.8398 209.75 80.6098 221.03 89.2098 221.03C97.8098 221.03 98.0798 214.7 98.0798 214.7C98.0798 214.7 89.4798 209.06 75.8398 209.75Z" fill="#A1DC5F"/>
<path opacity="0.4" d="M75.8398 209.75C75.8398 209.75 80.6098 221.03 89.2098 221.03C97.8098 221.03 98.0798 214.7 98.0798 214.7C98.0798 214.7 89.4798 209.06 75.8398 209.75Z" fill="white"/>
<path d="M91.4091 211.51C91.4691 213.51 92.6191 214.01 92.6191 214.01C92.7185 214.629 92.6744 215.263 92.4903 215.863C92.3062 216.463 91.9869 217.012 91.557 217.469C91.1272 217.926 90.5982 218.278 90.0108 218.499C89.4235 218.719 88.7934 218.801 88.1691 218.74C81.7991 218.09 79.7891 210.42 79.7891 210.42C84.4191 208.58 85.4591 203.47 85.6591 200.42C85.7153 199.628 85.7153 198.832 85.6591 198.04L94.3191 203.49C93.5878 204.707 92.9429 205.973 92.3891 207.28C91.7805 208.609 91.4471 210.048 91.4091 211.51Z" fill="#EBB376"/>
<path opacity="0.2" d="M93.7902 202.82C93.1864 204.117 92.6719 205.453 92.2502 206.82C91.7812 208.199 91.5975 209.658 91.7102 211.11C86.8402 211.49 84.9002 200.74 84.9002 200.74V200.67C84.8782 199.875 84.798 199.083 84.6602 198.3L93.7902 202.82Z" fill="black"/>
<path d="M99.3326 178.8C99.3326 178.8 105.693 171.48 98.0826 165.35C90.4726 159.22 75.4426 161.98 72.6726 175.83C69.9026 189.68 73.6726 195.53 73.6726 195.53C73.6726 195.53 73.6726 186.71 76.2126 184.14C76.2126 184.14 75.4526 188.36 76.2126 190.89C76.9726 193.42 76.2126 191.82 76.2126 191.82C76.2126 191.82 78.5526 180.77 89.8326 183.94C101.113 187.11 99.3326 178.8 99.3326 178.8Z" fill="#263238"/>
<path d="M100.851 181.18C109.231 183.74 110.561 189.04 108.541 197.86C106.021 208.86 101.291 215.86 91.5414 210.32C78.2414 202.85 86.9414 176.94 100.851 181.18Z" fill="#EBB376"/>
<path d="M103.272 195.74C103.558 197.197 104.018 198.613 104.642 199.96C104.293 200.231 103.876 200.401 103.437 200.451C102.997 200.5 102.553 200.427 102.152 200.24L103.272 195.74Z" fill="#D58745"/>
<path d="M98.3499 193.5C98.1499 194.19 97.6199 194.65 97.1599 194.5C96.6999 194.35 96.4799 193.7 96.6699 193.01C96.8599 192.32 97.3999 191.86 97.8599 192.01C98.3199 192.16 98.5399 192.8 98.3499 193.5Z" fill="#263238"/>
<path d="M97.6602 191.99L99.3302 191.82C99.3302 191.82 98.2302 192.88 97.6602 191.99Z" fill="#263238"/>
<path d="M107 195.76C106.81 196.45 106.28 196.91 105.82 196.76C105.36 196.61 105.14 195.96 105.33 195.27C105.52 194.58 106.06 194.12 106.52 194.27C106.98 194.42 107.2 195.07 107 195.76Z" fill="#263238"/>
<path d="M106.32 194.25L107.99 194.08C107.99 194.08 106.88 195.14 106.32 194.25Z" fill="#263238"/>
<path d="M96.0024 188.21C95.9255 188.207 95.8516 188.179 95.791 188.132C95.7303 188.085 95.6859 188.02 95.6639 187.946C95.6419 187.872 95.6434 187.794 95.6682 187.721C95.693 187.648 95.7399 187.585 95.8024 187.54C96.4658 187.17 97.2069 186.961 97.9659 186.929C98.725 186.898 99.4807 187.046 100.172 187.36C100.258 187.399 100.324 187.47 100.358 187.558C100.392 187.646 100.39 187.744 100.352 187.83C100.334 187.874 100.307 187.915 100.272 187.948C100.238 187.982 100.197 188.009 100.152 188.026C100.108 188.044 100.06 188.053 100.012 188.052C99.9637 188.05 99.9162 188.04 99.8724 188.02C99.2911 187.762 98.6591 187.639 98.0236 187.66C97.3881 187.681 96.7655 187.845 96.2024 188.14C96.146 188.186 96.0752 188.211 96.0024 188.21Z" fill="#263238"/>
<path d="M109.35 191.26C109.297 191.259 109.245 191.246 109.197 191.224C109.148 191.201 109.105 191.17 109.07 191.13C108.75 190.669 108.328 190.286 107.838 190.013C107.347 189.739 106.801 189.581 106.24 189.55C106.145 189.553 106.053 189.519 105.982 189.456C105.911 189.393 105.868 189.305 105.86 189.21C105.857 189.163 105.864 189.115 105.88 189.071C105.895 189.026 105.92 188.985 105.951 188.949C105.983 188.914 106.021 188.885 106.064 188.865C106.106 188.844 106.153 188.833 106.2 188.83C106.874 188.849 107.535 189.024 108.13 189.341C108.725 189.659 109.239 190.11 109.63 190.66C109.698 190.729 109.737 190.823 109.737 190.92C109.737 191.017 109.698 191.111 109.63 191.18C109.591 191.211 109.546 191.234 109.498 191.248C109.45 191.262 109.4 191.266 109.35 191.26Z" fill="#263238"/>
<path d="M87.3892 192.51C87.3892 192.51 93.3892 186.82 94.3892 181.33C94.3892 181.33 113.059 179.61 108.739 196.71C108.739 196.71 114.929 182.24 100.629 177.52C86.3292 172.8 79.9992 193.88 85.5292 202.42C85.5292 202.42 83.6592 196.07 87.3892 192.51Z" fill="#263238"/>
<path d="M100.221 204.01C99.1062 204.021 98.0244 203.629 97.1742 202.908C96.3239 202.186 95.762 201.182 95.5914 200.08C95.5826 199.984 95.6108 199.888 95.6703 199.812C95.7297 199.735 95.816 199.685 95.9114 199.67C96.0065 199.661 96.1012 199.69 96.1758 199.75C96.2503 199.809 96.2989 199.895 96.3114 199.99C96.4503 200.925 96.9268 201.777 97.6508 202.385C98.3748 202.993 99.2963 203.315 100.241 203.29C100.337 203.29 100.428 203.328 100.496 203.395C100.563 203.463 100.601 203.554 100.601 203.65C100.601 203.745 100.563 203.837 100.496 203.905C100.428 203.972 100.337 204.01 100.241 204.01H100.221Z" fill="#263238"/>
<path d="M85.9402 190.83C85.9274 190.884 85.9333 190.942 85.9568 190.992C85.9804 191.043 86.0203 191.085 86.0702 191.11H86.1302L94.6602 193.11C94.5231 193.921 94.66 194.754 95.0494 195.479C95.4387 196.203 96.0583 196.777 96.8102 197.11C97.788 197.597 98.9106 197.708 99.9649 197.422C101.019 197.137 101.932 196.474 102.53 195.56C102.635 195.382 102.722 195.195 102.79 195C102.943 194.875 103.118 194.783 103.308 194.728C103.497 194.673 103.695 194.656 103.89 194.68C103.997 194.727 104.091 194.798 104.167 194.886C104.243 194.974 104.299 195.078 104.33 195.19C104.214 195.991 104.362 196.808 104.751 197.517C105.141 198.226 105.752 198.789 106.49 199.12C107.47 199.604 108.592 199.712 109.646 199.425C110.7 199.137 111.612 198.474 112.21 197.56C112.468 197.115 112.628 196.62 112.681 196.109C112.733 195.597 112.676 195.08 112.513 194.592C112.35 194.105 112.086 193.657 111.737 193.279C111.388 192.901 110.963 192.601 110.49 192.4C109.512 191.913 108.39 191.802 107.336 192.088C106.281 192.373 105.368 193.036 104.77 193.95C104.665 194.128 104.578 194.315 104.51 194.51C104.39 194.385 104.243 194.29 104.08 194.23C103.708 194.134 103.314 194.177 102.97 194.35C103.105 193.538 102.966 192.705 102.575 191.98C102.184 191.256 101.563 190.683 100.81 190.35C99.8324 189.863 98.7099 189.752 97.6556 190.038C96.6012 190.323 95.6884 190.986 95.0902 191.9C94.9537 192.134 94.843 192.382 94.7602 192.64L86.2702 190.64C86.2013 190.622 86.1279 190.631 86.066 190.667C86.0042 190.702 85.959 190.761 85.9402 190.83ZM105.24 194.14C105.764 193.342 106.562 192.763 107.483 192.513C108.404 192.262 109.384 192.357 110.24 192.78C110.654 192.957 111.026 193.22 111.331 193.551C111.635 193.883 111.866 194.275 112.008 194.702C112.15 195.13 112.199 195.582 112.153 196.03C112.107 196.478 111.966 196.911 111.74 197.3C111.216 198.098 110.418 198.676 109.497 198.925C108.575 199.174 107.594 199.076 106.74 198.65C106.327 198.474 105.955 198.212 105.65 197.882C105.346 197.551 105.115 197.16 104.973 196.733C104.831 196.307 104.782 195.855 104.828 195.408C104.874 194.961 105.014 194.529 105.24 194.14ZM95.5602 192.14C96.084 191.342 96.8816 190.763 97.8026 190.513C98.7236 190.262 99.7044 190.357 100.56 190.78C100.974 190.957 101.346 191.22 101.651 191.551C101.955 191.883 102.186 192.275 102.328 192.702C102.47 193.13 102.519 193.582 102.473 194.03C102.427 194.478 102.286 194.911 102.06 195.3C101.538 196.1 100.74 196.68 99.8187 196.93C98.8971 197.181 97.9156 197.085 97.0602 196.66C96.646 196.482 96.2742 196.218 95.9694 195.886C95.6646 195.553 95.4337 195.16 95.292 194.732C95.1502 194.304 95.1009 193.851 95.1471 193.402C95.1933 192.954 95.3341 192.52 95.5602 192.13V192.14Z" fill="#263238"/>
<g opacity="0.3">
<path d="M85.9402 190.83C85.9274 190.884 85.9333 190.942 85.9568 190.992C85.9804 191.043 86.0203 191.085 86.0702 191.11H86.1302L94.6602 193.11C94.5231 193.921 94.66 194.754 95.0494 195.479C95.4387 196.203 96.0583 196.777 96.8102 197.11C97.788 197.597 98.9106 197.708 99.9649 197.422C101.019 197.137 101.932 196.474 102.53 195.56C102.635 195.382 102.722 195.195 102.79 195C102.943 194.875 103.118 194.783 103.308 194.728C103.497 194.673 103.695 194.656 103.89 194.68C103.997 194.727 104.091 194.798 104.167 194.886C104.243 194.974 104.299 195.078 104.33 195.19C104.214 195.991 104.362 196.808 104.751 197.517C105.141 198.226 105.752 198.789 106.49 199.12C107.47 199.604 108.592 199.712 109.646 199.425C110.7 199.137 111.612 198.474 112.21 197.56C112.468 197.115 112.628 196.62 112.681 196.109C112.733 195.597 112.676 195.08 112.513 194.592C112.35 194.105 112.086 193.657 111.737 193.279C111.388 192.901 110.963 192.601 110.49 192.4C109.512 191.913 108.39 191.802 107.336 192.088C106.281 192.373 105.368 193.036 104.77 193.95C104.665 194.128 104.578 194.315 104.51 194.51C104.39 194.385 104.243 194.29 104.08 194.23C103.708 194.134 103.314 194.177 102.97 194.35C103.105 193.538 102.966 192.705 102.575 191.98C102.184 191.256 101.563 190.683 100.81 190.35C99.8324 189.863 98.7099 189.752 97.6556 190.038C96.6012 190.323 95.6884 190.986 95.0902 191.9C94.9537 192.134 94.843 192.382 94.7602 192.64L86.2702 190.64C86.2013 190.622 86.1279 190.631 86.066 190.667C86.0042 190.702 85.959 190.761 85.9402 190.83ZM105.24 194.14C105.764 193.342 106.562 192.763 107.483 192.513C108.404 192.262 109.384 192.357 110.24 192.78C110.654 192.957 111.026 193.22 111.331 193.551C111.635 193.883 111.866 194.275 112.008 194.702C112.15 195.13 112.199 195.582 112.153 196.03C112.107 196.478 111.966 196.911 111.74 197.3C111.216 198.098 110.418 198.676 109.497 198.925C108.575 199.174 107.594 199.076 106.74 198.65C106.327 198.474 105.955 198.212 105.65 197.882C105.346 197.551 105.115 197.16 104.973 196.733C104.831 196.307 104.782 195.855 104.828 195.408C104.874 194.961 105.014 194.529 105.24 194.14ZM95.5602 192.14C96.084 191.342 96.8816 190.763 97.8026 190.513C98.7236 190.262 99.7044 190.357 100.56 190.78C100.974 190.957 101.346 191.22 101.651 191.551C101.955 191.883 102.186 192.275 102.328 192.702C102.47 193.13 102.519 193.582 102.473 194.03C102.427 194.478 102.286 194.911 102.06 195.3C101.538 196.1 100.74 196.68 99.8187 196.93C98.8971 197.181 97.9156 197.085 97.0602 196.66C96.646 196.482 96.2742 196.218 95.9694 195.886C95.6646 195.553 95.4337 195.16 95.292 194.732C95.1502 194.304 95.1009 193.851 95.1471 193.402C95.1933 192.954 95.3341 192.52 95.5602 192.13V192.14Z" fill="white"/>
</g>
<path d="M88.2228 194.69C88.4369 193.697 88.2488 192.659 87.6996 191.805C87.1504 190.95 86.285 190.348 85.2928 190.13C82.6128 189.62 79.7428 194.57 85.8128 197.82C86.6828 198.29 87.4828 197.54 88.2228 194.69Z" fill="#EBB376"/>
<path d="M71.9998 220.44C71.9998 220.44 72.9998 241.82 74.8098 246.62C76.6198 251.42 95.4998 269.1 95.4998 269.1C95.4998 269.1 100.77 267.93 101.64 268.27C102.51 268.61 107.54 273.27 107.54 273.27H92.9998L91.7299 271.03C91.7299 271.03 72.1898 256.55 70.0398 253.1C68.4498 250.55 63.3398 224.58 63.3398 224.58L71.9998 220.44Z" fill="#EBB376"/>
<path d="M68.1294 209.5C71.5194 207.74 73.1294 213.41 75.1994 224.88C76.4306 232.13 76.9963 239.477 76.8894 246.83L79.7894 251.98L72.4694 258.72C69.0275 255.395 66.3904 251.329 64.7594 246.83C62.4994 239.93 56.2694 215.69 68.1294 209.5Z" fill="#263238"/>
<path opacity="0.1" d="M68.1294 209.5C71.5194 207.74 73.1294 213.41 75.1994 224.88C76.4306 232.13 76.9963 239.477 76.8894 246.83L79.7894 251.98L72.4694 258.72C69.0275 255.395 66.3904 251.329 64.7594 246.83C62.4994 239.93 56.2694 215.69 68.1294 209.5Z" fill="white"/>
<path d="M70.5625 258.72L79.7925 250.47L81.9725 253.52L73.7225 261.62L70.5625 258.72Z" fill="#A1DC5F"/>
<path opacity="0.4" d="M70.5625 258.72L79.7925 250.47L81.9725 253.52L73.7225 261.62L70.5625 258.72Z" fill="white"/>
</svg>
