<svg width="390" height="379" viewBox="0 0 390 379" fill="none" xmlns="http://www.w3.org/2000/svg">
<path d="M368.247 148.088C351.434 129.491 323.263 127.412 301.358 115.221C263.657 94.2397 249.044 46.4644 214.744 20.2891C193.117 3.76325 163.827 -2.64192 137.661 0.981206C100.514 6.12013 65.5678 31.0199 55.0774 67.5284C52.0657 78.1593 50.9888 89.2449 51.8979 100.257C53.5708 122.023 58.2569 144.067 53.8389 165.445C48.968 189.005 33.6437 208.886 24.4842 231.151C13.0787 258.879 11.5444 289.935 16.3784 319.493C19.7057 339.66 26.342 360.022 40.1875 375.05C41.2411 376.187 42.3225 377.269 43.4409 378.332H194.651C204.134 366.233 211.288 351.916 219.671 339.207C240.67 307.246 274.295 284.454 311.016 273.76C327.468 268.972 345.288 266.126 358.505 255.219C372.11 244.008 378.358 226.114 381.057 208.692C384.338 187.563 382.591 163.92 368.247 148.088Z" fill="#C5F391"/>
<path opacity="0.7" d="M368.247 148.088C351.434 129.491 323.263 127.412 301.358 115.221C263.657 94.2397 249.044 46.4644 214.744 20.2891C193.117 3.76325 163.827 -2.64192 137.661 0.981206C100.514 6.12013 65.5678 31.0199 55.0774 67.5284C52.0657 78.1593 50.9888 89.2449 51.8979 100.257C53.5708 122.023 58.2569 144.067 53.8389 165.445C48.968 189.005 33.6437 208.886 24.4842 231.151C13.0787 258.879 11.5444 289.935 16.3784 319.493C19.7057 339.66 26.342 360.022 40.1875 375.05C41.2411 376.187 42.3225 377.269 43.4409 378.332H194.651C204.134 366.233 211.288 351.916 219.671 339.207C240.67 307.246 274.295 284.454 311.016 273.76C327.468 268.972 345.288 266.126 358.505 255.219C372.11 244.008 378.358 226.114 381.057 208.692C384.338 187.563 382.591 163.92 368.247 148.088Z" fill="white"/>
<path d="M21.0898 326.157L21.2747 329.521V330.057L21.6999 337.941L21.7738 339.438L22.1527 346.38L22.2821 348.838L22.6056 354.809L22.7813 358.22L23.0585 363.238L23.2896 367.61L23.5114 371.677C23.5114 371.677 23.5114 372.601 23.6131 373.627" stroke="#263238" stroke-linecap="round" stroke-linejoin="round"/>
<path d="M23.7305 375.217C23.7767 376.197 23.8229 377.001 23.8229 377.001V377.768H67.1803L67.2727 376.076L67.4853 372.093L67.7256 367.638L67.9844 362.721L68.1785 359.208L68.4927 353.321L68.6314 350.779L68.7885 347.923" stroke="#263238" stroke-linecap="round" stroke-linejoin="round"/>
<path d="M68.9297 346.084C68.9851 344.892 69.0406 343.94 69.0406 343.94L69.1238 342.35L69.5397 334.549V333.921C69.5397 333.921 69.6506 331.85 69.7615 329.854" stroke="#263238" stroke-linecap="round" stroke-linejoin="round"/>
<path d="M69.8828 328.153C69.9475 327.016 69.9937 326.157 69.9937 326.157" stroke="#263238" stroke-linecap="round" stroke-linejoin="round"/>
<path d="M24.5914 377.768L23.8242 377.001" stroke="#263238" stroke-linecap="round" stroke-linejoin="round"/>
<path d="M33.4741 377.768L29.8972 374.191L25.4607 369.754L23.3164 367.61" stroke="#263238" stroke-linecap="round" stroke-linejoin="round"/>
<path d="M42.3661 377.768L38.7892 374.191L34.3434 369.745L29.907 365.318L25.4612 360.872L22.8086 358.229" stroke="#263238" stroke-linecap="round" stroke-linejoin="round"/>
<path d="M51.238 377.768L47.6611 374.191L43.2246 369.754L42.0508 368.581" stroke="#263238" stroke-linecap="round" stroke-linejoin="round"/>
<path d="M40.7684 367.305L38.7627 365.309L34.3262 360.872L29.899 356.445L25.4533 351.999L24.3164 350.862" stroke="#263238" stroke-linecap="round" stroke-linejoin="round"/>
<path d="M60.1301 377.768L56.5532 374.191L52.1075 369.745L47.671 365.318L43.2253 360.872L38.7888 356.436L34.3431 351.99L29.8974 347.544L25.4609 343.099L21.8008 339.448" stroke="#263238" stroke-linecap="round" stroke-linejoin="round"/>
<path d="M67.3137 376.076L65.4652 374.228L61.0287 369.791L59.707 368.46" stroke="#263238" stroke-linecap="round" stroke-linejoin="round"/>
<path d="M57.8767 366.612L56.5457 365.272L52.1093 360.835L47.6635 356.445L43.227 351.999L38.7628 347.544L34.3264 343.099L32.293 341.047" stroke="#263238" stroke-linecap="round" stroke-linejoin="round"/>
<path d="M29.8996 338.662L25.4539 334.263L23.0508 331.85" stroke="#263238" stroke-linecap="round" stroke-linejoin="round"/>
<path d="M26.2852 326.166L29.899 329.771L34.3448 334.216L38.7812 338.653L43.227 343.099L47.6727 347.554L52.1092 351.99L56.5549 356.436L60.9914 360.872L65.4371 365.318L67.7662 367.647" stroke="#263238" stroke-linecap="round" stroke-linejoin="round"/>
<path d="M35.168 326.166L38.7911 329.78L43.2276 334.216L47.6733 338.662L52.1098 343.099L56.5555 347.554L61.0012 351.999L65.4377 356.436L68.2197 359.218" stroke="#263238" stroke-linecap="round" stroke-linejoin="round"/>
<path d="M44.0469 326.166L47.6608 329.771L52.1065 334.216L56.5522 338.662L60.9887 343.099L65.4344 347.554L68.6693 350.788" stroke="#263238" stroke-linecap="round" stroke-linejoin="round"/>
<path d="M52.9336 326.166L56.5567 329.78L60.9932 334.216L65.4389 338.662L69.1267 342.35" stroke="#263238" stroke-linecap="round" stroke-linejoin="round"/>
<path d="M61.8164 326.166L65.4395 329.78L69.5802 333.921" stroke="#263238" stroke-linecap="round" stroke-linejoin="round"/>
<path d="M67.5266 372.102L65.4285 374.191L61.8516 377.768" stroke="#263238" stroke-linecap="round" stroke-linejoin="round"/>
<path d="M68.0236 362.73L65.4357 365.318L60.99 369.754L56.5535 374.191L52.9766 377.768" stroke="#263238" stroke-linecap="round" stroke-linejoin="round"/>
<path d="M68.5328 353.33L65.4365 356.436L60.9908 360.872L56.545 365.318L52.1086 369.745L47.6628 374.191L44.0859 377.768" stroke="#263238" stroke-linecap="round" stroke-linejoin="round"/>
<path d="M69.0387 343.94L65.434 347.544L60.9975 351.99L56.5518 356.426L55.9141 357.073" stroke="#263238" stroke-linecap="round" stroke-linejoin="round"/>
<path d="M53.6606 359.319L52.1079 360.872L47.6714 365.309L43.2257 369.754L38.7614 374.191C38.7614 374.191 37.8372 375.115 36.9961 375.956" stroke="#263238" stroke-linecap="round" stroke-linejoin="round"/>
<path d="M69.539 334.549L65.4353 338.662L60.9896 343.099L56.5531 347.553L52.1074 351.99L47.6616 356.436L43.2252 360.872L38.7794 365.318L34.3429 369.745L29.8972 374.191L26.3203 377.768" stroke="#263238" stroke-linecap="round" stroke-linejoin="round"/>
<path d="M23.5391 371.677L25.4615 369.754L29.9073 365.309L34.3437 360.872L38.7617 356.445L40.1204 355.086" stroke="#263238" stroke-linecap="round" stroke-linejoin="round"/>
<path d="M42.0977 353.118L43.2253 351.981L47.671 347.544L52.1075 343.099L56.5532 338.662L60.9897 334.216L65.4354 329.78L67.2007 328.014" stroke="#263238" stroke-linecap="round" stroke-linejoin="round"/>
<path d="M23.0859 363.248L25.4613 360.872L29.8978 356.436L34.3435 351.99L38.78 347.554L43.2257 343.099L47.6714 338.662L52.1079 334.216L56.5536 329.78L60.1675 326.166" stroke="#263238" stroke-linecap="round" stroke-linejoin="round"/>
<path d="M22.6328 354.809L25.4056 351.981L29.8513 347.535L31.515 345.881" stroke="#263238" stroke-linecap="round" stroke-linejoin="round"/>
<path d="M32.7852 344.661L34.3472 343.099L38.7836 338.653L43.2294 334.216L47.6658 329.771L49.0522 328.393" stroke="#263238" stroke-linecap="round" stroke-linejoin="round"/>
<path d="M22.1797 346.38L25.4608 343.099L29.8973 338.662L34.343 334.263L38.7888 329.826L40.9608 327.654" stroke="#263238" stroke-linecap="round" stroke-linejoin="round"/>
<path d="M21.7266 337.95L25.4514 334.216L29.8971 329.771L33.5202 326.166" stroke="#263238" stroke-linecap="round" stroke-linejoin="round"/>
<path d="M24.6417 326.157L21.2773 329.521" stroke="#263238" stroke-linecap="round" stroke-linejoin="round"/>
<path d="M34.8164 320.5H66.491" stroke="#263238" stroke-linecap="round" stroke-linejoin="round"/>
<path d="M68.3367 320.5H71.8119V326.166H59.5469" stroke="#263238" stroke-linecap="round" stroke-linejoin="round"/>
<path d="M56.5072 326.166H31.3672" stroke="#263238" stroke-linecap="round" stroke-linejoin="round"/>
<path d="M30.3053 326.166H19.2695V323.772" stroke="#263238" stroke-linecap="round" stroke-linejoin="round"/>
<path d="M19.2695 323.292V320.519H31.7656" stroke="#263238" stroke-linecap="round" stroke-linejoin="round"/>
<path d="M53.0156 276.598V315.463" stroke="#263238" stroke-linecap="round" stroke-linejoin="round"/>
<path d="M53.0156 263.954V272.235" stroke="#263238" stroke-linecap="round" stroke-linejoin="round"/>
<path d="M229.486 377.62V243.463H53.0156V259.268" stroke="#263238" stroke-linecap="round" stroke-linejoin="round"/>
<path d="M205.777 251.328H219.9V371.021" stroke="#263238" stroke-linecap="round" stroke-linejoin="round"/>
<path d="M62.5977 315.472V251.328H197.587" stroke="#263238" stroke-linecap="round" stroke-linejoin="round"/>
<path d="M69.3633 236.004H73.846" stroke="#263238" stroke-linecap="round" stroke-linejoin="round"/>
<path d="M80.2815 236.004H233.525V243.407H48.9766V236.004H66.5099" stroke="#263238" stroke-linecap="round" stroke-linejoin="round"/>
<path d="M270.053 232.344L267.844 246.633" stroke="#263238" stroke-linecap="round" stroke-linejoin="round"/>
<path d="M256.547 173.699H267.204C268.676 173.694 270.132 174.009 271.47 174.622C272.809 175.236 273.998 176.132 274.956 177.25C275.915 178.368 276.618 179.681 277.019 181.098C277.42 182.514 277.508 184.001 277.278 185.456L271.252 224.534" stroke="#263238" stroke-linecap="round" stroke-linejoin="round"/>
<path d="M245.703 173.699H253.495" stroke="#263238" stroke-linecap="round" stroke-linejoin="round"/>
<path d="M200.859 227.269L207.782 182.341C208.148 179.932 209.366 177.735 211.215 176.149C213.064 174.563 215.421 173.693 217.857 173.699H240.159" stroke="#263238" stroke-linecap="round" stroke-linejoin="round"/>
<path d="M193.133 277.392L196.599 254.886" stroke="#263238" stroke-linecap="round" stroke-linejoin="round"/>
<path d="M232.555 306.1H243.156C248.21 306.107 253.069 304.148 256.706 300.638" stroke="#263238" stroke-linecap="round" stroke-linejoin="round"/>
<path d="M174.121 306.1H211.064" stroke="#263238" stroke-linecap="round" stroke-linejoin="round"/>
<path d="M158.852 302.764C162.073 304.945 165.876 306.107 169.767 306.1" stroke="#263238" stroke-linecap="round" stroke-linejoin="round"/>
<path d="M216.795 277.392H157.522C155.59 277.392 153.737 278.16 152.371 279.526C151.006 280.891 150.238 282.744 150.238 284.676V286.524C150.234 290.926 151.719 295.2 154.453 298.651" stroke="#263238" stroke-linecap="round" stroke-linejoin="round"/>
<path d="M262.15 281.931C261.604 280.589 260.67 279.441 259.468 278.632C258.266 277.824 256.851 277.392 255.402 277.392H244.875" stroke="#263238" stroke-linecap="round" stroke-linejoin="round"/>
<path d="M216.925 311.47H191.563L186.23 306.1" stroke="#263238" stroke-linecap="round" stroke-linejoin="round"/>
<path d="M198.856 311.47H214.079V329.253C214.079 329.699 213.901 330.127 213.586 330.442C213.27 330.758 212.842 330.935 212.396 330.935H200.51C200.064 330.935 199.636 330.758 199.321 330.442C199.005 330.127 198.828 329.699 198.828 329.253V311.47H198.856Z" stroke="#263238" stroke-linecap="round" stroke-linejoin="round"/>
<path d="M211.219 330.926H201.699V352.85H211.219V330.926Z" stroke="#263238" stroke-linecap="round" stroke-linejoin="round"/>
<path d="M162.816 366.353C178.686 355.789 201.7 352.85 201.7 352.85" stroke="#263238" stroke-linecap="round" stroke-linejoin="round"/>
<path d="M216.888 363.201C200.833 360.844 184.853 364.394 169.75 368.285" stroke="#263238" stroke-linecap="round" stroke-linejoin="round"/>
<path d="M243.138 368.285C239.441 367.361 235.744 366.519 232.047 365.762" stroke="#263238" stroke-linecap="round" stroke-linejoin="round"/>
<path d="M232.555 358.007C238.74 360.018 244.642 362.813 250.116 366.325" stroke="#263238" stroke-linecap="round" stroke-linejoin="round"/>
<path d="M211.223 352.85C213.228 353.127 215.225 353.487 217.203 353.885" stroke="#263238" stroke-linecap="round" stroke-linejoin="round"/>
<path d="M164.686 378.295C167.983 378.295 170.656 375.621 170.656 372.324C170.656 369.026 167.983 366.353 164.686 366.353C161.388 366.353 158.715 369.026 158.715 372.324C158.715 375.621 161.388 378.295 164.686 378.295Z" stroke="#263238" stroke-linecap="round" stroke-linejoin="round"/>
<path d="M255.043 372.324C255.043 373.505 254.693 374.659 254.037 375.641C253.381 376.623 252.448 377.388 251.357 377.84C250.266 378.292 249.066 378.41 247.907 378.18C246.749 377.95 245.685 377.381 244.85 376.546C244.015 375.711 243.447 374.647 243.216 373.489C242.986 372.33 243.104 371.13 243.556 370.039C244.008 368.948 244.773 368.015 245.755 367.359C246.737 366.703 247.891 366.353 249.072 366.353C250.656 366.353 252.175 366.982 253.294 368.102C254.414 369.222 255.043 370.74 255.043 372.324Z" stroke="#263238" stroke-linecap="round" stroke-linejoin="round"/>
<path d="M241.797 293.918L246.483 262.17C246.7 260.688 247.392 259.318 248.456 258.264C249.519 257.21 250.897 256.531 252.38 256.328L274.156 253.334C274.965 253.224 275.707 252.825 276.244 252.209C276.781 251.594 277.077 250.805 277.076 249.988C277.076 249.091 276.72 248.23 276.086 247.596C275.451 246.961 274.591 246.605 273.694 246.605H270.921L249.348 249.932C246.779 250.345 244.412 251.581 242.605 253.455C240.798 255.328 239.649 257.738 239.329 260.321L234.819 294.741C234.779 295.041 234.804 295.346 234.892 295.635C234.98 295.925 235.129 296.192 235.328 296.42C235.528 296.647 235.774 296.83 236.049 296.954C236.325 297.079 236.624 297.144 236.926 297.144" stroke="#263238" stroke-linecap="round" stroke-linejoin="round"/>
<path d="M274.156 253.361L268.49 283.502C269.241 283.502 269.961 283.799 270.493 284.33C271.025 284.86 271.325 285.579 271.327 286.33V292.088C271.327 293.032 271.141 293.967 270.78 294.839C270.418 295.711 269.888 296.503 269.221 297.17C268.553 297.837 267.76 298.365 266.888 298.726C266.015 299.086 265.08 299.271 264.136 299.27H237.656" stroke="#263238" stroke-linecap="round" stroke-linejoin="round"/>
<path d="M270.4 253.879L264.513 282.855H249.031" stroke="#263238" stroke-linecap="round" stroke-linejoin="round"/>
<path d="M157.596 260.275L156.016 272.374" stroke="#263238" stroke-linecap="round" stroke-linejoin="round"/>
<path d="M163.113 273.575L164.795 262.17C165.012 260.688 165.704 259.318 166.768 258.264C167.832 257.21 169.209 256.531 170.692 256.328L192.468 253.334" stroke="#263238" stroke-linecap="round" stroke-linejoin="round"/>
<path d="M114.173 190.715L122.658 230.292C122.837 231.115 123.292 231.853 123.948 232.382C124.603 232.912 125.42 233.201 126.263 233.203H189.344C189.719 233.204 190.088 233.12 190.426 232.959C190.764 232.797 191.061 232.562 191.295 232.27C191.53 231.977 191.695 231.636 191.78 231.272C191.864 230.907 191.866 230.528 191.784 230.162L182.948 190.576C182.764 189.758 182.306 189.026 181.651 188.502C180.996 187.978 180.182 187.693 179.343 187.692H116.613C116.241 187.692 115.873 187.775 115.537 187.936C115.201 188.097 114.905 188.33 114.671 188.62C114.437 188.91 114.271 189.249 114.185 189.611C114.099 189.973 114.095 190.351 114.173 190.715Z" stroke="#263238" stroke-linecap="round" stroke-linejoin="round"/>
<path d="M150.56 205.937H145.679L144.293 210.309L147.796 214.681H152.676L154.062 210.309L150.56 205.937Z" stroke="#263238" stroke-linecap="round" stroke-linejoin="round"/>
<path d="M194.871 230.514H219.919V231.872C219.916 232.523 219.656 233.146 219.195 233.605C218.735 234.064 218.111 234.322 217.46 234.322H216.813" stroke="#263238" stroke-linecap="round" stroke-linejoin="round"/>
<path d="M331.488 328.375C331.488 328.375 345.399 329.475 345.981 339.744C345.981 339.744 331.895 346.223 331.488 328.375Z" stroke="#263238" stroke-linecap="round" stroke-linejoin="round"/>
<path d="M359.016 330.926C359.016 330.926 366.789 320.417 379.349 325.806C379.349 325.806 371.678 338.514 359.016 330.926Z" stroke="#263238" stroke-linecap="round" stroke-linejoin="round"/>
<path d="M378.284 297.745C378.284 297.745 380.512 317.968 362.109 312.394C362.109 312.394 367.96 297.532 378.284 297.745Z" stroke="#263238" stroke-linecap="round" stroke-linejoin="round"/>
<path d="M355.683 286.497C355.683 286.497 370.24 294.344 359.537 306.248C359.537 306.248 349.315 297.745 355.683 286.497Z" stroke="#263238" stroke-linecap="round" stroke-linejoin="round"/>
<path d="M337.781 304.557C337.781 304.557 353.605 302.967 353.605 317.607C353.605 317.626 337.781 318.236 337.781 304.557Z" stroke="#263238" stroke-linecap="round" stroke-linejoin="round"/>
<path d="M349.64 348.006C349.409 343.099 349.409 336.777 352.413 330.085C359.336 314.668 361.656 301.682 358.06 292.532" stroke="#263238" stroke-linecap="round" stroke-linejoin="round"/>
<path d="M342.977 308.494C342.977 308.494 352.46 312.265 355.685 322.035" stroke="#263238" stroke-linecap="round" stroke-linejoin="round"/>
<path d="M373.277 305.832C373.277 305.832 367.796 313.3 358.488 312.496" stroke="#263238" stroke-linecap="round" stroke-linejoin="round"/>
<path d="M373.274 327.95C373.274 327.95 358.098 332.331 352.062 330.898" stroke="#263238" stroke-linecap="round" stroke-linejoin="round"/>
<path d="M336.027 332.996C336.027 332.996 342.811 340.446 349.642 340.326" stroke="#263238" stroke-linecap="round" stroke-linejoin="round"/>
<path d="M367.686 348.006H334.699C334.485 348.006 334.281 348.091 334.13 348.242C333.979 348.393 333.895 348.597 333.895 348.811V351.315C333.895 351.529 333.979 351.733 334.13 351.884C334.281 352.035 334.485 352.119 334.699 352.119H335.623L338.562 377.768H363.748L366.688 352.119H367.612C367.825 352.119 368.03 352.035 368.18 351.884C368.331 351.733 368.416 351.529 368.416 351.315V348.811C368.417 348.61 368.342 348.415 368.207 348.267C368.072 348.118 367.886 348.025 367.686 348.006Z" stroke="#263238" stroke-linecap="round" stroke-linejoin="round"/>
<path d="M337.781 352.119H356.96" stroke="#263238" stroke-linecap="round" stroke-linejoin="round"/>
<path d="M360.586 352.119H363.47" stroke="#263238" stroke-linecap="round" stroke-linejoin="round"/>
<path d="M174.805 32.2676V289.14C174.805 289.731 174.57 290.297 174.152 290.715C173.734 291.133 173.168 291.367 172.577 291.367H20.415C19.8242 291.367 19.2576 291.133 18.8399 290.715C18.4222 290.297 18.1875 289.731 18.1875 289.14V32.2676C18.1875 31.6769 18.4222 31.1103 18.8399 30.6925C19.2576 30.2748 19.8242 30.0401 20.415 30.0401H68.5231C69.1482 30.0401 69.7476 30.2884 70.1896 30.7304C70.6316 31.1724 70.88 31.7719 70.88 32.397V37.7947C70.88 38.4198 71.1283 39.0193 71.5703 39.4613C72.0123 39.9033 72.6117 40.1516 73.2368 40.1516H119.764C120.39 40.1516 120.989 39.9033 121.431 39.4613C121.873 39.0193 122.121 38.4198 122.121 37.7947V32.397C122.121 31.7719 122.37 31.1724 122.812 30.7304C123.254 30.2884 123.853 30.0401 124.478 30.0401H172.54C172.836 30.0352 173.129 30.0892 173.404 30.199C173.678 30.3087 173.928 30.472 174.139 30.6793C174.35 30.8867 174.517 31.1339 174.631 31.4066C174.746 31.6793 174.805 31.972 174.805 32.2676Z" fill="white" stroke="#263238" stroke-linecap="round" stroke-linejoin="round"/>
<path d="M174.805 55.3835H18.1875V78.9801H174.805V55.3835Z" fill="#BFBFBF" stroke="#263238" stroke-linecap="round" stroke-linejoin="round"/>
<path d="M38.668 126.256H102.415" stroke="#263238" stroke-width="3" stroke-linecap="round" stroke-linejoin="round"/>
<path d="M54.4102 137.32H154.323" stroke="#263238" stroke-width="3" stroke-linecap="round" stroke-linejoin="round"/>
<path d="M38.668 145.583H154.321" stroke="#263238" stroke-width="3" stroke-linecap="round" stroke-linejoin="round"/>
<path d="M38.668 153.846H154.321" stroke="#263238" stroke-width="3" stroke-linecap="round" stroke-linejoin="round"/>
<path d="M38.668 162.099H154.321" stroke="#263238" stroke-width="3" stroke-linecap="round" stroke-linejoin="round"/>
<path d="M38.668 170.362H154.321" stroke="#263238" stroke-width="3" stroke-linecap="round" stroke-linejoin="round"/>
<path d="M38.668 178.625H154.321" stroke="#263238" stroke-width="3" stroke-linecap="round" stroke-linejoin="round"/>
<path d="M38.668 186.879H92.3679" stroke="#263238" stroke-width="3" stroke-linecap="round" stroke-linejoin="round"/>
<path d="M157.18 64.275H163.086" stroke="#263238" stroke-linecap="round" stroke-linejoin="round"/>
<path d="M157.18 67.0016H163.086" stroke="#263238" stroke-linecap="round" stroke-linejoin="round"/>
<path d="M157.18 69.7189H163.086" stroke="#263238" stroke-linecap="round" stroke-linejoin="round"/>
<path d="M34.6004 67.0016H29.6094" stroke="#263238" stroke-linecap="round" stroke-linejoin="round"/>
<path d="M31.9052 70.0147L28.8828 66.9923L31.9052 63.97" stroke="#263238" stroke-linecap="round" stroke-linejoin="round"/>
<path d="M148.472 64.275H141.031V69.7096H148.472V64.275Z" stroke="#263238" stroke-linecap="round" stroke-linejoin="round"/>
<path d="M141.031 64.275L144.747 66.9923L148.472 64.275" stroke="#263238" stroke-linecap="round" stroke-linejoin="round"/>
<path d="M131.421 70.7633H126.412L125.746 64.275H132.087L131.421 70.7633Z" stroke="#263238" stroke-linecap="round" stroke-linejoin="round"/>
<path d="M127.668 64.275V63.2306H130.173V64.275" stroke="#263238" stroke-linecap="round" stroke-linejoin="round"/>
<path d="M174.805 272.623V289.14C174.806 289.432 174.749 289.721 174.638 289.992C174.527 290.262 174.364 290.507 174.158 290.714C173.952 290.921 173.707 291.086 173.437 291.198C173.168 291.31 172.878 291.367 172.586 291.367H20.415C19.8242 291.367 19.2576 291.133 18.8399 290.715C18.4222 290.297 18.1875 289.731 18.1875 289.14V272.623H174.805Z" fill="#C5F391" stroke="#263238" stroke-linecap="round" stroke-linejoin="round"/>
<path d="M57.9297 98.861H121.686" stroke="#263238" stroke-width="3" stroke-linecap="round" stroke-linejoin="round"/>
<path d="M46.2102 106.617C50.4981 105.921 53.4098 101.88 52.7138 97.5926C52.0178 93.3047 47.9776 90.3929 43.6897 91.089C39.4018 91.785 36.49 95.8252 37.186 100.113C37.8821 104.401 41.9223 107.313 46.2102 106.617Z" fill="#C5F391" stroke="#263238" stroke-linecap="round" stroke-linejoin="round"/>
<path d="M48.1622 103.778C47.6816 103.778 46.3137 102.724 46.7758 101.865C47.2379 101.005 48.1622 99.582 48.1622 99.582C48.5687 98.7809 48.7958 97.901 48.8277 97.0033C49.0218 95.6631 48.2546 93.3801 44.9457 93.3801C41.6369 93.3801 40.8605 95.6631 41.0546 97.0033C41.0865 97.901 41.3136 98.7809 41.72 99.582C41.72 99.582 42.6443 101.005 43.1157 101.865C43.5871 102.724 42.1914 103.778 41.72 103.778C40.9471 103.951 40.1921 104.195 39.4648 104.508C39.4648 104.508 42.6351 106.736 44.9457 106.736C47.2564 106.736 50.4266 104.508 50.4266 104.508C49.6967 104.194 48.9384 103.949 48.1622 103.778Z" fill="#263238"/>
<path d="M18.1875 203.192H174.805" stroke="#263238" stroke-linecap="round" stroke-linejoin="round"/>
<path d="M174.805 246.189H18.1875V272.623H174.805V246.189Z" fill="#BFBFBF" stroke="#263238" stroke-linecap="round" stroke-linejoin="round"/>
<path d="M140.433 213.11H153.373C154.586 213.11 155.75 213.592 156.608 214.45C157.466 215.308 157.948 216.471 157.948 217.685V230.625C157.948 231.838 157.466 233.002 156.608 233.86C155.75 234.718 154.586 235.2 153.373 235.2H140.433C139.222 235.2 138.061 234.719 137.205 233.862C136.348 233.006 135.867 231.845 135.867 230.634V217.694C135.865 217.093 135.981 216.497 136.209 215.941C136.438 215.385 136.774 214.879 137.198 214.454C137.622 214.028 138.126 213.69 138.682 213.459C139.237 213.228 139.832 213.11 140.433 213.11Z" fill="#C5F391" stroke="#263238" stroke-linecap="round" stroke-linejoin="round"/>
<path d="M143.518 222.426L146.623 219.321C146.942 219.002 147.32 218.749 147.736 218.576C148.153 218.404 148.599 218.315 149.05 218.315C149.5 218.315 149.947 218.404 150.363 218.576C150.779 218.749 151.157 219.002 151.476 219.321C152.12 219.966 152.483 220.84 152.483 221.752C152.483 222.663 152.12 223.538 151.476 224.182L146.42 229.238C146.207 229.451 145.954 229.62 145.676 229.736C145.398 229.851 145.099 229.911 144.798 229.911C144.497 229.911 144.198 229.851 143.92 229.736C143.642 229.62 143.389 229.451 143.176 229.238C142.75 228.807 142.512 228.226 142.512 227.621C142.512 227.015 142.75 226.434 143.176 226.003L147.982 221.197C148.183 220.996 148.456 220.883 148.74 220.883C149.024 220.883 149.297 220.996 149.498 221.197C149.599 221.296 149.678 221.414 149.733 221.544C149.788 221.674 149.816 221.814 149.816 221.955C149.816 222.096 149.788 222.236 149.733 222.366C149.678 222.496 149.599 222.614 149.498 222.713L146.901 225.301" stroke="#263238" stroke-width="1.5" stroke-linecap="round" stroke-linejoin="round"/>
<path d="M38.668 219.995H125.392" stroke="#263238" stroke-width="3" stroke-linecap="round" stroke-linejoin="round"/>
<path d="M38.668 228.258H110.927" stroke="#263238" stroke-width="3" stroke-linecap="round" stroke-linejoin="round"/>
<path d="M57.7491 252.724H41.0568C39.3621 252.724 37.9883 254.098 37.9883 255.792V262.872C37.9883 264.567 39.3621 265.941 41.0568 265.941H57.7491C59.4438 265.941 60.8177 264.567 60.8177 262.872V255.792C60.8177 254.098 59.4438 252.724 57.7491 252.724Z" stroke="#263238" stroke-linecap="round" stroke-linejoin="round"/>
<path d="M52.8386 262.022V261.098C52.8386 260.79 52.7781 260.486 52.6606 260.203C52.543 259.919 52.3708 259.661 52.1537 259.444C51.9365 259.227 51.6787 259.055 51.395 258.937C51.1113 258.82 50.8072 258.759 50.5002 258.759H46.6367" stroke="#263238" stroke-linecap="round" stroke-linejoin="round"/>
<path d="M48.0576 260.83L45.9688 258.741L48.0576 256.652" stroke="#263238" stroke-linecap="round" stroke-linejoin="round"/>
<path d="M105.409 252.724H88.717C87.0223 252.724 85.6484 254.098 85.6484 255.792V262.872C85.6484 264.567 87.0223 265.941 88.717 265.941H105.409C107.104 265.941 108.478 264.567 108.478 262.872V255.792C108.478 254.098 107.104 252.724 105.409 252.724Z" stroke="#263238" stroke-linecap="round" stroke-linejoin="round"/>
<path d="M101.612 262.022V261.098C101.612 260.477 101.366 259.883 100.927 259.444C100.489 259.006 99.8938 258.759 99.2736 258.759H95.4102" stroke="#263238" stroke-linecap="round" stroke-linejoin="round"/>
<path d="M96.8076 260.83L94.7188 258.741L96.8076 256.652" stroke="#263238" stroke-linecap="round" stroke-linejoin="round"/>
<path d="M94.6411 260.83L92.543 258.741L94.6411 256.652" stroke="#263238" stroke-linecap="round" stroke-linejoin="round"/>
<path d="M137.474 265.95H154.166C155.861 265.95 157.234 264.576 157.234 262.881V255.802C157.234 254.107 155.861 252.733 154.166 252.733H137.474C135.779 252.733 134.405 254.107 134.405 255.802V262.881C134.405 264.576 135.779 265.95 137.474 265.95Z" stroke="#263238" stroke-linecap="round" stroke-linejoin="round"/>
<path d="M142.383 262.022V261.098C142.383 260.477 142.629 259.883 143.068 259.444C143.506 259.006 144.101 258.759 144.721 258.759H148.585" stroke="#263238" stroke-linecap="round" stroke-linejoin="round"/>
<path d="M147.16 260.83L149.249 258.741L147.16 256.652" stroke="#263238" stroke-linecap="round" stroke-linejoin="round"/>
<path d="M174.805 32.2584V55.365H18.1875V32.2584C18.1875 31.6676 18.4222 31.101 18.8399 30.6833C19.2576 30.2656 19.8242 30.0309 20.415 30.0309H68.5231C69.1482 30.0309 69.7476 30.2792 70.1896 30.7212C70.6316 31.1632 70.88 31.7627 70.88 32.3878V37.7855C70.88 38.4106 71.1283 39.01 71.5703 39.452C72.0123 39.894 72.6117 40.1424 73.2368 40.1424H119.764C120.39 40.1424 120.989 39.894 121.431 39.452C121.873 39.01 122.121 38.4106 122.121 37.7855V32.397C122.121 31.7719 122.37 31.1724 122.812 30.7304C123.254 30.2884 123.853 30.0401 124.478 30.0401H172.54C172.836 30.0327 173.13 30.0847 173.405 30.1929C173.68 30.3012 173.93 30.4636 174.141 30.6704C174.353 30.8773 174.52 31.1244 174.634 31.3972C174.748 31.6699 174.806 31.9628 174.805 32.2584Z" fill="#C5F391" stroke="#263238" stroke-linecap="round" stroke-linejoin="round"/>
<path d="M221.52 133.632V135.943" stroke="#263238" stroke-linecap="round" stroke-linejoin="round"/>
<path d="M221.52 140.435V219.043" stroke="#263238" stroke-linecap="round" stroke-linejoin="round" stroke-dasharray="4.86 4.86"/>
<path d="M221.522 221.289V223.6H219.211" stroke="#263238" stroke-linecap="round" stroke-linejoin="round"/>
<path d="M214.859 223.6H164.801" stroke="#263238" stroke-linecap="round" stroke-linejoin="round" stroke-dasharray="4.71 4.71"/>
<path d="M162.627 223.6H160.316" stroke="#263238" stroke-linecap="round" stroke-linejoin="round"/>
<path d="M331.185 359.985C331.185 359.985 331.435 367.083 328.995 369.514C326.554 371.945 327.534 378.295 327.534 378.295H349.596L350.206 371.64L346.509 358.358L331.185 359.985Z" fill="#757575" stroke="#263238" stroke-linecap="round" stroke-linejoin="round"/>
<path d="M277.081 358.358C277.081 358.358 279.512 364.773 270.491 367.878C261.47 370.984 256.109 370.984 255.379 376.095V378.295H274.65L280.732 376.344L282.682 378.295H293.413L294.623 374.394L292.941 361.621L277.081 358.358Z" fill="#757575" stroke="#263238" stroke-linecap="round" stroke-linejoin="round"/>
<path d="M278.663 183.385L274.097 208.636C274.097 208.636 271.454 246.309 271.768 262.022C272.082 277.734 277.563 348.838 277.203 351.676C276.842 354.513 273.922 357.619 274.097 358.081C274.273 358.543 275.206 362.166 275.206 362.166L293.331 364.763L295.845 360.003C295.845 360.003 292.647 355.927 293.331 354.689C294.381 352.235 295.222 349.696 295.845 347.101C296.215 345.4 299.764 248.98 299.764 248.98C299.764 248.98 324.719 344.402 324.719 348.016C324.719 351.629 328.74 355.678 328.74 355.678L327.344 362.915L330.588 366.445C330.588 366.445 339.97 362.185 349.231 366.445L348.741 359.245L345.968 355.641L346.698 350.604C346.698 350.604 342.937 311.507 338.787 292.966C334.637 274.425 331.966 212.555 330.829 208.1C329.692 203.645 325.902 180.954 325.902 180.954L278.663 183.385Z" fill="#263238"/>
<path d="M251.589 50.1152H191.456C188.419 50.1152 185.957 52.5773 185.957 55.6146V125.517C185.957 128.554 188.419 131.016 191.456 131.016H251.589C254.626 131.016 257.089 128.554 257.089 125.517V55.6146C257.089 52.5773 254.626 50.1152 251.589 50.1152Z" fill="#C5F391" stroke="#263238" stroke-linecap="round" stroke-linejoin="round"/>
<path d="M236.976 67.8703H201.512V118.64H236.976V67.8703Z" fill="white"/>
<mask id="mask0_5385_20360" style="mask-type:luminance" maskUnits="userSpaceOnUse" x="201" y="67" width="36" height="52">
<path d="M236.976 67.8703H201.512V118.64H236.976V67.8703Z" fill="white"/>
</mask>
<g mask="url(#mask0_5385_20360)">
<path opacity="0.4" d="M236.976 67.8703H201.512V118.64H236.976V67.8703Z" fill="#C5F391"/>
</g>
<path d="M236.976 67.8703H201.512V118.64H236.976V67.8703Z" stroke="#263238" stroke-linecap="round" stroke-linejoin="round"/>
<path d="M235.817 60.6995L201.039 67.6425L210.979 117.43L245.756 110.487L235.817 60.6995Z" fill="white" stroke="#263238" stroke-linecap="round" stroke-linejoin="round"/>
<path d="M203.637 66.8721C203.898 66.2435 204.339 65.7062 204.905 65.3279C205.47 64.9496 206.136 64.7472 206.816 64.7463C207.726 64.7463 208.598 65.1076 209.241 65.7507C209.884 66.3937 210.245 67.2659 210.245 68.1754V75.3292C210.245 75.9355 210.005 76.5171 209.577 76.9467C209.149 77.3763 208.569 77.6189 207.962 77.6214C207.354 77.6214 206.771 77.3799 206.341 76.95C205.912 76.5201 205.67 75.9371 205.67 75.3292V68.5358C205.67 68.2515 205.783 67.9788 205.984 67.7777C206.185 67.5766 206.458 67.4637 206.742 67.4637C206.883 67.4637 207.022 67.4914 207.153 67.5453C207.283 67.5992 207.401 67.6781 207.5 67.7777C207.6 67.8772 207.679 67.9954 207.733 68.1255C207.787 68.2556 207.814 68.395 207.814 68.5358V72.1867" stroke="#263238" stroke-width="1.5" stroke-linecap="round" stroke-linejoin="round"/>
<path d="M258.519 144.279C258.519 149.252 251.125 150.749 251.125 150.749C237.594 138.336 234.544 123.086 227.963 120.664C227.368 120.437 226.819 120.102 226.345 119.675C225.02 118.352 224.015 116.743 223.406 114.971L232.159 113.224C232.553 110.944 233.351 108.753 234.516 106.754C235.154 105.83 234.229 103.76 233.148 101.412C232.959 100.93 232.901 100.407 232.98 99.895C233.06 99.3834 233.274 98.9021 233.601 98.5005C235.65 100.174 237.27 102.313 238.324 104.739C239.664 108.316 238.324 116.755 242.271 120.896C249.341 128.345 250.404 127.92 257.059 133.65C257.891 137.137 258.38 140.697 258.519 144.279Z" fill="white"/>
<mask id="mask1_5385_20360" style="mask-type:luminance" maskUnits="userSpaceOnUse" x="223" y="98" width="36" height="53">
<path d="M258.519 144.279C258.519 149.252 251.125 150.749 251.125 150.749C237.594 138.336 234.544 123.086 227.963 120.664C227.368 120.437 226.819 120.102 226.345 119.675C225.02 118.352 224.015 116.743 223.406 114.971L232.159 113.224C232.553 110.944 233.351 108.753 234.516 106.754C235.154 105.83 234.229 103.76 233.148 101.412C232.959 100.93 232.901 100.407 232.98 99.895C233.06 99.3834 233.274 98.9021 233.601 98.5005C235.65 100.174 237.27 102.313 238.324 104.739C239.664 108.316 238.324 116.755 242.271 120.896C249.341 128.345 250.404 127.92 257.059 133.65C257.891 137.137 258.38 140.697 258.519 144.279Z" fill="white"/>
</mask>
<g mask="url(#mask1_5385_20360)">
<path opacity="0.4" d="M226.334 119.648C225.008 118.324 224.003 116.715 223.395 114.943L232.147 113.196C231.903 114.575 231.903 115.986 232.147 117.365C232.425 118.446 228.996 118.455 226.334 119.648Z" fill="#C5F391"/>
</g>
<path d="M258.519 144.279C258.519 149.252 251.125 150.749 251.125 150.749C237.594 138.336 234.544 123.086 227.963 120.664C227.368 120.437 226.819 120.102 226.345 119.675C225.02 118.352 224.015 116.743 223.406 114.971L232.159 113.224C232.553 110.944 233.351 108.753 234.516 106.754C235.154 105.83 234.229 103.76 233.148 101.412C232.959 100.93 232.901 100.407 232.98 99.895C233.06 99.3834 233.274 98.9021 233.601 98.5005C235.65 100.174 237.27 102.313 238.324 104.739C239.664 108.316 238.324 116.755 242.271 120.896C249.341 128.345 250.404 127.92 257.059 133.65C257.891 137.137 258.38 140.697 258.519 144.279Z" stroke="#263238" stroke-linecap="round" stroke-linejoin="round"/>
<path d="M282.923 106.736V139.159C282.923 139.159 278.709 143.318 274.134 147.699C269.244 152.385 263.967 157.321 262.941 157.718C260.991 158.476 257.09 155.491 257.09 155.491C254.9 156.951 252.7 153.846 252.7 153.846C250.509 156.092 248.31 152.321 250.999 148.42C253.689 144.52 257.09 133.632 257.09 133.632C257.248 133.468 257.437 133.337 257.647 133.247C257.857 133.158 258.082 133.112 258.31 133.112C258.538 133.112 258.764 133.158 258.973 133.247C259.183 133.337 259.372 133.468 259.53 133.632C259.53 133.632 276.306 109.906 282.923 106.736Z" fill="#C5F391"/>
<mask id="mask2_5385_20360" style="mask-type:luminance" maskUnits="userSpaceOnUse" x="249" y="106" width="34" height="52">
<path d="M282.923 106.736V139.159C282.923 139.159 278.709 143.318 274.134 147.699C269.244 152.385 263.967 157.321 262.941 157.718C260.991 158.476 257.09 155.491 257.09 155.491C254.9 156.951 252.7 153.846 252.7 153.846C250.509 156.092 248.31 152.321 250.999 148.42C253.689 144.52 257.09 133.632 257.09 133.632C257.248 133.468 257.437 133.337 257.647 133.247C257.857 133.158 258.082 133.112 258.31 133.112C258.538 133.112 258.764 133.158 258.973 133.247C259.183 133.337 259.372 133.468 259.53 133.632C259.53 133.632 276.306 109.906 282.923 106.736Z" fill="white"/>
</mask>
<g mask="url(#mask2_5385_20360)">
<path opacity="0.2" d="M282.924 120.609V139.159C282.924 139.159 278.709 143.318 274.134 147.699C272.208 145.666 270.866 143.149 270.252 140.416C269.707 136.553 274.273 139.344 274.273 139.344C270.982 136.035 274.827 120.859 275.021 123.437C275.188 125.517 275.724 130.037 275.946 131.672C275.502 125.85 281.343 121.265 282.924 120.609Z" fill="black" fill-opacity="0.7"/>
</g>
<path d="M282.923 106.736V139.159C282.923 139.159 278.709 143.318 274.134 147.699C269.244 152.385 263.967 157.321 262.941 157.718C260.991 158.476 257.09 155.491 257.09 155.491C254.9 156.951 252.7 153.846 252.7 153.846C250.509 156.092 248.31 152.321 250.999 148.42C253.689 144.52 257.09 133.632 257.09 133.632C257.248 133.468 257.437 133.337 257.647 133.247C257.857 133.158 258.082 133.112 258.31 133.112C258.538 133.112 258.764 133.158 258.973 133.247C259.183 133.337 259.372 133.468 259.53 133.632C259.53 133.632 276.306 109.906 282.923 106.736Z" stroke="#263238" stroke-linecap="round" stroke-linejoin="round"/>
<path d="M327.776 183.302C329.579 186.232 279.955 187.489 276.535 185.151C276.124 184.88 275.777 184.524 275.518 184.106C273.965 181.583 276.535 177.83 276.535 177.83C276.535 177.83 276.1 126.229 282.922 106.736C289.504 106.014 296.126 105.706 302.747 105.811C307.174 105.876 312.073 106.126 317.138 106.736C320.835 107.142 325.327 107.9 329.791 108.732C337.25 110.137 344.579 111.782 347.435 112.429L348.739 112.734C348.739 112.734 325.974 180.381 327.776 183.302Z" fill="#C5F391"/>
<mask id="mask3_5385_20360" style="mask-type:luminance" maskUnits="userSpaceOnUse" x="275" y="105" width="74" height="82">
<path d="M327.776 183.302C329.579 186.232 279.955 187.489 276.535 185.151C276.124 184.88 275.777 184.524 275.518 184.106C273.965 181.583 276.535 177.83 276.535 177.83C276.535 177.83 276.1 126.229 282.922 106.736C289.504 106.014 296.126 105.706 302.747 105.811C307.174 105.876 312.073 106.126 317.138 106.736C320.835 107.142 325.327 107.9 329.791 108.732C337.25 110.137 344.579 111.782 347.435 112.429L348.739 112.734C348.739 112.734 325.974 180.381 327.776 183.302Z" fill="white"/>
</mask>
<g mask="url(#mask3_5385_20360)">
<path opacity="0.2" d="M299.296 117.365C299.296 117.365 295.978 111.755 301.505 106.736C301.886 106.386 302.301 106.077 302.744 105.811C307.171 105.876 312.07 106.126 317.135 106.736C320.832 107.142 325.324 107.9 329.788 108.732L309.925 119.232L305.803 115.026L299.296 117.365Z" fill="black" fill-opacity="0.7"/>
<path opacity="0.2" d="M327.774 183.302C329.576 186.232 279.952 187.489 276.532 185.151C276.122 184.88 275.775 184.524 275.516 184.106C285.368 185.899 309.713 183.644 316.322 180.973C324.178 177.812 328.753 163.477 326.249 164.937C323.744 166.397 315.407 165.491 321.71 162.377C328.014 159.262 335.02 149.058 335.02 149.058C335.02 149.058 330.583 136.238 332.044 133.632C333.107 131.719 334.475 135.259 335.131 137.329C334.012 132.061 338.005 126.802 338.005 126.802L347.47 112.438L348.773 112.743C348.773 112.743 325.971 180.381 327.774 183.302Z" fill="black" fill-opacity="0.7"/>
</g>
<path d="M327.776 183.302C329.579 186.232 279.955 187.489 276.535 185.151C276.124 184.88 275.777 184.524 275.518 184.106C273.965 181.583 276.535 177.83 276.535 177.83C276.535 177.83 276.1 126.229 282.922 106.736C289.504 106.014 296.126 105.706 302.747 105.811C307.174 105.876 312.073 106.126 317.138 106.736C320.835 107.142 325.327 107.9 329.791 108.732C337.25 110.137 344.579 111.782 347.435 112.429L348.739 112.734C348.739 112.734 325.974 180.381 327.776 183.302Z" stroke="#263238" stroke-linecap="round" stroke-linejoin="round"/>
<path d="M325.005 107.595C325.005 107.595 306.52 114.989 300.484 107.263C301.514 107.321 302.542 107.119 303.472 106.675C304.403 106.23 305.206 105.558 305.808 104.721C306.757 103.251 307.273 101.544 307.296 99.7945C307.379 98.1581 307.273 96.5176 306.982 94.9051C306.27 90.5703 324.469 93.3708 324.469 93.3708C324.469 93.3708 320.559 105.414 325.005 107.595Z" fill="white" stroke="#263238" stroke-linecap="round" stroke-linejoin="round"/>
<path d="M314.062 98.0754C314.062 98.0754 310.883 103.556 305.809 104.721C306.758 103.251 307.273 101.544 307.297 99.7945C310.735 98.7963 314.062 98.0754 314.062 98.0754Z" fill="#263238"/>
<path d="M324.469 92.3726C329.617 84.7474 337.464 54.6533 312.148 60.5317C299.56 63.4523 301.186 79.9413 301.186 79.9413L296.852 85.3112L300.438 88.3521L300.29 91.929L301.51 92.3634C301.51 92.3634 300.438 101.061 301.51 101.606C303.469 102.604 316.344 101.033 316.344 97.909" fill="white"/>
<path d="M324.469 92.3726C329.617 84.7474 337.464 54.6533 312.148 60.5317C299.56 63.4523 301.186 79.9413 301.186 79.9413L296.852 85.3112L300.438 88.3521L300.29 91.929L301.51 92.3634C301.51 92.3634 300.438 101.061 301.51 101.606C303.469 102.604 316.344 101.033 316.344 97.909" stroke="#263238" stroke-linecap="round" stroke-linejoin="round"/>
<path d="M301.508 92.3726C303.62 92.6372 305.755 92.6744 307.876 92.4836C307.402 93.3201 306.648 93.9634 305.748 94.3013C304.848 94.6391 303.857 94.65 302.95 94.3321" stroke="#263238" stroke-linecap="round" stroke-linejoin="round"/>
<path d="M303.328 73.342C303.328 73.342 307.626 72.9168 309.659 75.8098" stroke="#263238" stroke-linecap="round" stroke-linejoin="round"/>
<path d="M305.881 79.9413C305.881 80.8008 305.53 81.494 305.105 81.494C304.679 81.494 304.328 80.8008 304.328 79.9413C304.328 79.0817 304.67 78.3792 305.105 78.3792C305.539 78.3792 305.881 79.0817 305.881 79.9413Z" fill="#263238"/>
<path d="M332.299 65.116C328.223 60.9106 310.773 54.7458 305.81 57.2875C298.526 60.0603 300.486 68.0182 300.486 68.0182L301.512 65.2454C301.512 65.2454 302.048 67.5931 305.81 69.0072V67.2511C308.188 68.2246 310.762 68.6266 313.324 68.4249L312.529 67.2418C313.512 67.4654 314.479 67.7557 315.422 68.1107C312.649 73.2866 315.783 76.9467 315.783 76.9467V83.9526C315.783 83.9526 319.48 87.5665 320.524 91.2081C320.739 92.1941 321.225 93.1005 321.927 93.8254C322.629 94.5504 323.52 95.0651 324.498 95.3118C332.521 90.3947 336.588 69.5433 332.299 65.116Z" fill="#263238"/>
<path d="M314.922 84.9878C314.922 84.9878 318.887 79.6455 320.93 80.4958C322.972 81.3462 323.499 86.2725 322.427 88.5277C321.355 90.7829 317.491 95.3858 316.641 93.6759" fill="white"/>
<path d="M314.922 84.9878C314.922 84.9878 318.887 79.6455 320.93 80.4958C322.972 81.3462 323.499 86.2725 322.427 88.5277C321.355 90.7829 317.491 95.3858 316.641 93.6759" stroke="#263238" stroke-linecap="round" stroke-linejoin="round"/>
<path d="M259.531 133.632C261.282 139.738 261.282 146.214 259.531 152.321" stroke="#263238" stroke-linecap="round" stroke-linejoin="round"/>
<path d="M252.699 153.846C252.699 153.846 256.396 148.18 257.089 144.279" stroke="#263238" stroke-linecap="round" stroke-linejoin="round"/>
<path d="M301.511 110.784L303.359 117.365C303.359 117.365 292.462 153.79 291.242 164.271L293.682 167.968L298.304 164.484C298.304 164.484 302.869 128.622 305.827 118.613L311.437 111.015L307.897 110.664L301.511 110.784Z" fill="#263238"/>
<path d="M304.357 104.721L306.502 109.176L324.987 104.721L329.775 108.732L309.644 117.365L306.483 111.043L300.466 115.276C300.466 115.276 296.039 105.377 304.357 104.721Z" fill="#C5F391" stroke="#263238" stroke-linecap="round" stroke-linejoin="round"/>
<path d="M347.221 166.397C342.334 170.849 338.088 175.956 334.604 181.574C329.669 189.984 322.173 198.395 318.328 200.586C318.328 200.586 318.698 208.082 323.449 212.287C323.449 212.287 354.707 184.559 358.571 175.908C362.434 167.257 347.221 166.397 347.221 166.397Z" fill="white" stroke="#263238" stroke-linecap="round" stroke-linejoin="round"/>
<path d="M348.74 112.743C354.591 115.516 362.604 164.974 362.845 171.823C362.909 174.013 358.491 178.755 358.491 178.755C358.491 178.755 358.565 183.006 355.848 183.376C355.848 183.376 347.77 175.058 340.94 171.86C340.79 171.486 340.74 171.079 340.796 170.68C340.851 170.281 341.01 169.904 341.257 169.585C341.504 169.266 341.829 169.018 342.202 168.864C342.574 168.71 342.98 168.656 343.38 168.708L338.084 145.601C332.409 126.561 344.359 116.949 344.359 116.949" fill="#C5F391"/>
<path d="M348.74 112.743C354.591 115.516 362.604 164.974 362.845 171.823C362.909 174.013 358.491 178.755 358.491 178.755C358.491 178.755 358.565 183.006 355.848 183.376C355.848 183.376 347.77 175.058 340.94 171.86C340.79 171.486 340.74 171.079 340.796 170.68C340.851 170.281 341.01 169.904 341.257 169.585C341.504 169.266 341.829 169.018 342.202 168.864C342.574 168.71 342.98 168.656 343.38 168.708L338.084 145.601C332.409 126.561 344.359 116.949 344.359 116.949" stroke="#263238" stroke-linecap="round" stroke-linejoin="round"/>
<path d="M343.379 168.717C343.379 168.717 351.42 169.327 355.81 175.908" stroke="#263238" stroke-linecap="round" stroke-linejoin="round"/>
<path d="M306.934 191.925C311.896 191.749 316.839 191.208 321.722 190.308L321.334 185.862C316.403 186.606 311.435 187.087 306.453 187.304C306.592 188.561 306.804 190.558 306.934 191.925Z" fill="#757575" stroke="#263238" stroke-linecap="round" stroke-linejoin="round"/>
<path d="M323.525 189.966C324.449 189.772 325.373 189.559 326.298 189.337L325.632 185.132C325.632 185.132 324.763 185.326 323.137 185.603L323.525 189.966Z" fill="#757575" stroke="#263238" stroke-linecap="round" stroke-linejoin="round"/>
<path d="M304.375 187.378C297.122 187.607 289.862 187.388 282.636 186.722L282.109 190.724C289.561 191.735 297.079 192.171 304.597 192.027L304.375 187.378Z" fill="#757575" stroke="#263238" stroke-linecap="round" stroke-linejoin="round"/>
<path d="M281.155 186.574L279.306 186.38L278.816 190.216C278.816 190.216 279.482 190.336 280.665 190.511L281.155 186.574Z" fill="#757575" stroke="#263238" stroke-linecap="round" stroke-linejoin="round"/>
<path d="M295.658 192.351L287.617 192.073L288.227 186.962L296.268 187.239L295.658 192.351Z" fill="#BFBFBF" stroke="#263238" stroke-linecap="round" stroke-linejoin="round"/>
<path d="M256.359 376.344H273.541L281.583 374.634L285.002 376.344H292.073" stroke="#263238" stroke-linecap="round" stroke-linejoin="round"/>
<path d="M328.508 376.344H347.89" stroke="#263238" stroke-linecap="round" stroke-linejoin="round"/>
<path d="M330.949 368.331C330.949 368.331 339.342 364.92 344.48 367.203" stroke="#263238" stroke-linecap="round" stroke-linejoin="round"/>
<path d="M312.749 129.639L326.252 131.016L323.091 145.195L315.956 146.1L309.93 142.274L311.418 131.016" stroke="#263238" stroke-linecap="round" stroke-linejoin="round"/>
<path d="M346.308 131.016C346.308 131.016 340.512 133.281 339.902 142.107" stroke="#263238" stroke-linecap="round" stroke-linejoin="round"/>
<path d="M274.27 125.997C274.27 125.997 274.926 135.397 277.708 140.481" stroke="#263238" stroke-linecap="round" stroke-linejoin="round"/>
<path d="M280 178.616C280 178.616 303.587 176.823 310.501 170.427" stroke="#263238" stroke-linecap="round" stroke-linejoin="round"/>
<path d="M333.324 136.553C333.324 136.553 334.803 142.449 337.724 144.279" stroke="#263238" stroke-linecap="round" stroke-linejoin="round"/>
<g opacity="0.2">
<path d="M290.167 198.497C290.167 198.497 289.862 215.661 291.202 217.814C292.542 219.968 293.337 220.374 293.337 220.374" stroke="white" stroke-linecap="round" stroke-linejoin="round"/>
<path d="M293.348 197.471C293.348 197.471 293.412 223.267 296.268 231.863" stroke="white" stroke-linecap="round" stroke-linejoin="round"/>
<path d="M316.324 195.622C316.324 195.622 316.629 209.255 326.251 215.235" stroke="white" stroke-linecap="round" stroke-linejoin="round"/>
<path d="M329.117 210.91C329.117 210.91 329.487 225.088 329.117 228.009C328.747 230.929 331.132 244.72 331.132 250.441C331.132 256.162 333.138 265.127 333.138 267.133" stroke="white" stroke-linecap="round" stroke-linejoin="round"/>
<path d="M297.129 236.29C297.129 236.29 311.122 240.81 314.089 240.274" stroke="white" stroke-linecap="round" stroke-linejoin="round"/>
<path d="M297.127 239.322C295.667 238.065 284.511 243.657 283.051 243.019" stroke="white" stroke-linecap="round" stroke-linejoin="round"/>
<path d="M297.125 243.102C296.756 243.731 285.785 258.981 284.324 257.299" stroke="white" stroke-linecap="round" stroke-linejoin="round"/>
<path d="M298.957 241.124C298.957 241.124 310.566 252.696 314.087 253.971" stroke="white" stroke-linecap="round" stroke-linejoin="round"/>
<path d="M330.945 354.125C330.945 354.125 339.356 346.407 340.271 344.799C341.186 343.191 332.23 341.361 332.23 341.361" stroke="white" stroke-linecap="round" stroke-linejoin="round"/>
<path d="M333.137 358.358C333.137 358.358 339.357 356.158 343.378 358.09" stroke="white" stroke-linecap="round" stroke-linejoin="round"/>
<path d="M281.035 350.206C281.035 350.206 289.076 345.252 288.901 342.304" stroke="white" stroke-linecap="round" stroke-linejoin="round"/>
<path d="M292.062 352.147C292.062 352.147 282.681 357.323 279.936 357.295C277.191 357.268 287.432 361.103 289.992 360.558" stroke="white" stroke-linecap="round" stroke-linejoin="round"/>
</g>
<path d="M213.77 101.486L227.597 98.7316" stroke="#263238" stroke-linecap="round" stroke-linejoin="round"/>
<path d="M213.109 97.9645L237.187 93.1583" stroke="#263238" stroke-linecap="round" stroke-linejoin="round"/>
<path d="M212.465 94.443L236.533 89.6368" stroke="#263238" stroke-linecap="round" stroke-linejoin="round"/>
<path d="M211.809 90.9216L235.877 86.1154" stroke="#263238" stroke-linecap="round" stroke-linejoin="round"/>
<path d="M211.152 87.3908L235.22 82.5847" stroke="#263238" stroke-linecap="round" stroke-linejoin="round"/>
<path d="M210.496 83.8694L234.564 79.0632" stroke="#263238" stroke-linecap="round" stroke-linejoin="round"/>
<path d="M209.84 80.3479L233.908 75.5418" stroke="#263238" stroke-linecap="round" stroke-linejoin="round"/>
<path d="M215.605 75.5417L233.25 72.0203" stroke="#263238" stroke-linecap="round" stroke-linejoin="round"/>
<path d="M1 378.295H388.73" stroke="#263238" stroke-linecap="round" stroke-linejoin="round"/>
</svg>
