<svg width="12" height="12" viewBox="0 0 12 12" fill="none" xmlns="http://www.w3.org/2000/svg">
<path id="Vector" fill-rule="evenodd" clip-rule="evenodd" d="M5.82484 11.5433L4.97248 11.925C4.60171 12.0911 4.16541 11.9741 3.9274 11.6451L3.38008 10.8882C3.30851 10.7893 3.19818 10.7255 3.07663 10.713L2.14757 10.6175C1.7435 10.5759 1.42412 10.2565 1.38252 9.85246L1.287 8.9234C1.27453 8.80185 1.21074 8.69152 1.11179 8.61994L0.35495 8.07263C0.0258838 7.83464 -0.0910628 7.39832 0.0749384 7.02755L0.456745 6.17519C0.506638 6.06377 0.506638 5.93628 0.456745 5.82484L0.0749384 4.97248C-0.091065 4.60171 0.0258817 4.16541 0.35495 3.9274L1.11179 3.38008C1.21074 3.30851 1.27453 3.19818 1.287 3.07663L1.38252 2.14757C1.42413 1.7435 1.7435 1.42412 2.14757 1.38252L3.07663 1.287C3.19818 1.27453 3.30851 1.21074 3.38008 1.11179L3.9274 0.35495C4.16539 0.0258838 4.60171 -0.0910628 4.97248 0.0749384L5.82484 0.456745C5.93626 0.506638 6.06375 0.506638 6.17519 0.456745L7.02755 0.0749384C7.39832 -0.091065 7.83462 0.0258817 8.07263 0.35495L8.61995 1.11179C8.69152 1.21074 8.80185 1.27453 8.9234 1.287L9.85246 1.38252C10.2565 1.42413 10.5759 1.7435 10.6175 2.14757L10.713 3.07663C10.7255 3.19818 10.7893 3.30851 10.8882 3.38008L11.6451 3.9274C11.9741 4.16539 12.0911 4.60171 11.925 4.97248L11.5433 5.82484C11.4934 5.93626 11.4934 6.06375 11.5433 6.17519L11.925 7.02755C12.0911 7.39832 11.9741 7.83462 11.6451 8.07263L10.8882 8.61994C10.7893 8.69152 10.7255 8.80185 10.713 8.9234L10.6175 9.85246C10.5759 10.2565 10.2565 10.5759 9.85246 10.6175L8.9234 10.713C8.80185 10.7255 8.69152 10.7893 8.61995 10.8882L8.07263 11.6451C7.83464 11.9741 7.39832 12.0911 7.02755 11.925L6.17519 11.5433C6.06377 11.4934 5.93628 11.4934 5.82484 11.5433ZM3.68421 5.18912L2.95683 5.9165L5.39863 8.35829L9.14705 4.60987L8.41974 3.8825L5.39867 6.90335L3.68421 5.18912Z" fill="#398501"/>
</svg>
