<svg width="30" height="30" viewBox="0 0 30 30" fill="none" xmlns="http://www.w3.org/2000/svg">
<g id="Group 2612605">
<g id="Group 2612594">
<path id="Vector" fill-rule="evenodd" clip-rule="evenodd" d="M26.5966 16.1088C26.5526 16.0711 26.5016 16.0424 26.4465 16.0244C26.3914 16.0065 26.3333 15.9995 26.2756 16.004C26.2178 16.0085 26.1615 16.0243 26.1098 16.0505C26.0581 16.0768 26.0121 16.113 25.9745 16.157L22.8374 19.817L21.2191 18.0148C21.1804 17.9717 21.1335 17.9366 21.0813 17.9116C21.029 17.8865 20.9723 17.8721 20.9145 17.869C20.8566 17.8658 20.7987 17.8741 20.7441 17.8934C20.6895 17.9127 20.6391 17.9425 20.596 17.9812C20.5529 18.0199 20.5178 18.0667 20.4928 18.119C20.4678 18.1712 20.4533 18.2279 20.4502 18.2858C20.4471 18.3436 20.4554 18.4015 20.4747 18.4562C20.4939 18.5108 20.5238 18.5611 20.5625 18.6042L22.5167 20.7807C22.558 20.8268 22.6086 20.8637 22.6652 20.8889C22.7217 20.9141 22.783 20.927 22.8449 20.9269H22.8502C22.9129 20.9262 22.9747 20.912 23.0315 20.8855C23.0883 20.859 23.1388 20.8206 23.1796 20.7729L26.6443 16.7312C26.7205 16.6423 26.7583 16.5268 26.7493 16.4101C26.7403 16.2934 26.6854 16.185 26.5965 16.1088H26.5966ZM25.4614 12.8246V3.13712C25.4614 3.02011 25.4149 2.9079 25.3321 2.82516C25.2494 2.74242 25.1372 2.69594 25.0202 2.69594H22.7655V0.441177C22.7655 0.383227 22.7541 0.325838 22.732 0.272291C22.7098 0.218744 22.6773 0.17009 22.6364 0.129114C22.5954 0.088138 22.5467 0.0556429 22.4932 0.0334882C22.4396 0.0113334 22.3822 -4.62736e-05 22.3243 1.41416e-07H6.48482C6.36788 7.94363e-06 6.25569 0.0463008 6.17276 0.128765L1.12941 5.17241C1.04665 5.25507 1.0001 5.36721 1 5.48418V26.8624C1 26.9794 1.04648 27.0916 1.12922 27.1743C1.21195 27.257 1.32417 27.3035 1.44118 27.3035H3.69618V29.5588C3.69618 29.6758 3.74266 29.788 3.82539 29.8708C3.90813 29.9535 4.02035 30 4.13735 30H25.0202C25.1372 30 25.2495 29.9535 25.3322 29.8708C25.4149 29.788 25.4614 29.6758 25.4614 29.5588V24.1047C26.648 23.713 27.6808 22.9571 28.4129 21.9445C29.145 20.9319 29.5391 19.7142 29.5391 18.4646C29.5391 17.2151 29.145 15.9974 28.4129 14.9848C27.6808 13.9722 26.648 13.2162 25.4614 12.8246L25.4614 12.8246ZM21.8831 26.4213H1.88253V5.92524H6.48482C6.54278 5.9253 6.60017 5.91393 6.65373 5.89178C6.70728 5.86963 6.75594 5.83713 6.79692 5.79616C6.8379 5.75518 6.87039 5.70652 6.89254 5.65296C6.91469 5.59941 6.92606 5.54201 6.926 5.48406V0.882353H21.8831V12.7794C21.0082 13.0458 20.2061 13.5098 19.5391 14.1355C18.872 14.7612 18.3578 15.532 18.0361 16.3881H4.83129C4.71429 16.3881 4.60207 16.4346 4.51934 16.5173C4.4366 16.6001 4.39012 16.7123 4.39012 16.8293C4.39012 16.9463 4.4366 17.0585 4.51934 17.1413C4.60207 17.224 4.71429 17.2705 4.83129 17.2705H17.7814C17.6267 18.0269 17.6207 18.8063 17.7637 19.5651H4.83129C4.71429 19.5651 4.60207 19.6115 4.51934 19.6943C4.4366 19.777 4.39012 19.8892 4.39012 20.0062C4.39012 20.1232 4.4366 20.2355 4.51934 20.3182C4.60207 20.4009 4.71429 20.4474 4.83129 20.4474H18.0012C18.3143 21.3248 18.8285 22.1168 19.5025 22.7598C20.1766 23.4028 20.9919 23.8791 21.8831 24.1504V26.4213ZM23.6002 23.5216C22.6001 23.5217 21.6224 23.2252 20.7908 22.6696C19.9592 22.114 19.311 21.3243 18.9283 20.4003C18.5455 19.4763 18.4453 18.4596 18.6403 17.4787C18.8354 16.4978 19.317 15.5967 20.0241 14.8895C20.7313 14.1823 21.6323 13.7006 22.6132 13.5054C23.5941 13.3103 24.6108 13.4104 25.5348 13.7931C26.4588 14.1757 27.2486 14.8238 27.8043 15.6554C28.36 16.4869 28.6566 17.4646 28.6566 18.4647C28.6552 19.8054 28.122 21.0907 27.1741 22.0387C26.2262 22.9868 24.9409 23.5201 23.6002 23.5216ZM18.9343 22.7427H4.83123C4.71423 22.7427 4.60201 22.7892 4.51928 22.8719C4.43654 22.9547 4.39006 23.0669 4.39006 23.1839C4.39006 23.3009 4.43654 23.4131 4.51928 23.4958C4.60201 23.5786 4.71423 23.6251 4.83123 23.6251H18.9343C19.0513 23.6251 19.1635 23.5786 19.2463 23.4958C19.329 23.4131 19.3755 23.3009 19.3755 23.1839C19.3755 23.0669 19.329 22.9547 19.2463 22.8719C19.1635 22.7892 19.0513 22.7427 18.9343 22.7427ZM4.83123 14.0929H18.9343C19.0513 14.0929 19.1635 14.0465 19.2463 13.9637C19.329 13.881 19.3755 13.7688 19.3755 13.6518C19.3755 13.5348 19.329 13.4225 19.2463 13.3398C19.1635 13.2571 19.0513 13.2106 18.9343 13.2106H4.83123C4.71423 13.2106 4.60201 13.2571 4.51928 13.3398C4.43654 13.4225 4.39006 13.5348 4.39006 13.6518C4.39006 13.7688 4.43654 13.881 4.51928 13.9637C4.60201 14.0465 4.71423 14.0929 4.83123 14.0929ZM4.83123 10.9154H18.9343C19.0513 10.9154 19.1635 10.8689 19.2463 10.7861C19.329 10.7034 19.3755 10.5912 19.3755 10.4742C19.3755 10.3572 19.329 10.245 19.2463 10.1622C19.1635 10.0795 19.0513 10.033 18.9343 10.033H4.83123C4.71423 10.033 4.60201 10.0795 4.51928 10.1622C4.43654 10.245 4.39006 10.3572 4.39006 10.4742C4.39006 10.5912 4.43654 10.7034 4.51928 10.7861C4.60201 10.8689 4.71423 10.9154 4.83123 10.9154ZM9.54729 4.55988H18.9343C19.0513 4.55988 19.1635 4.5134 19.2463 4.43067C19.329 4.34793 19.3755 4.23571 19.3755 4.11871C19.3755 4.0017 19.329 3.88948 19.2463 3.80675C19.1635 3.72401 19.0513 3.67753 18.9343 3.67753H9.54729C9.43029 3.67753 9.31807 3.72401 9.23534 3.80675C9.1526 3.88948 9.10612 4.0017 9.10612 4.11871C9.10612 4.23571 9.1526 4.34793 9.23534 4.43067C9.31807 4.5134 9.43029 4.55988 9.54729 4.55988ZM4.39024 7.29641C4.39018 7.35436 4.40156 7.41176 4.42371 7.46531C4.44586 7.51886 4.47835 7.56751 4.51933 7.60849C4.56031 7.64947 4.60897 7.68196 4.66252 7.70412C4.71607 7.72627 4.77346 7.73764 4.83141 7.73759H18.9343C19.0513 7.73759 19.1635 7.69111 19.2463 7.60837C19.329 7.52563 19.3755 7.41342 19.3755 7.29641C19.3755 7.1794 19.329 7.06719 19.2463 6.98445C19.1635 6.90172 19.0513 6.85524 18.9343 6.85524H4.83123C4.71426 6.85528 4.60209 6.90178 4.51939 6.98452C4.43669 7.06725 4.39024 7.17944 4.39024 7.29641Z" fill="currentColor"/>
</g>
</g>
</svg>
