<svg width="15" height="15" viewBox="0 0 15 15" fill="none" xmlns="http://www.w3.org/2000/svg">
<g id="Group 2612729">
<g id="Layer 2">
<path id="Vector" d="M1.30078 0V15H12.5416V3.54736L8.99441 0H1.30078ZM8.33881 6.23549L9.126 7.38626L10.9545 5.27151L11.3326 5.59873L9.0793 8.20447L7.92536 6.51818L8.33881 6.23549ZM3.9754 1.14877C4.14644 1.14883 4.31361 1.19962 4.45578 1.2947C4.59796 1.38978 4.70874 1.52489 4.77413 1.68293C4.83951 1.84098 4.85656 2.01486 4.82311 2.1826C4.78967 2.35034 4.70723 2.50439 4.58624 2.62527C4.46524 2.74615 4.31111 2.82844 4.14334 2.86172C3.97557 2.895 3.8017 2.87779 3.64372 2.81225C3.48573 2.74671 3.35073 2.6358 3.25579 2.49354C3.16085 2.35127 3.11022 2.18405 3.11032 2.01301C3.1105 1.78378 3.20168 1.564 3.36383 1.40197C3.52599 1.23995 3.74584 1.14893 3.97506 1.14893L3.9754 1.14877ZM2.622 4.27368C2.622 3.90366 2.76897 3.5488 3.0306 3.28714C3.29223 3.02548 3.64707 2.87846 4.01709 2.87842C4.38711 2.87846 4.74196 3.02548 5.00358 3.28714C5.26521 3.5488 5.41219 3.90366 5.41219 4.27368V4.58306H2.622V4.27368ZM2.622 5.56004H7.12967V6.02902H2.622V5.56004ZM2.622 7.32622H7.12967V7.7952H2.622V7.32622ZM11.5516 12.3629H2.46956V11.8934H11.5516V12.3629ZM11.5516 10.9119H2.46956V10.4426H11.5516V10.9119ZM11.5516 9.56104H2.46956V9.09256H11.5516V9.56104ZM8.58897 3.97098L8.57697 0.840394L11.7039 3.96815L8.58897 3.97098Z" fill="currentColor"/>
</g>
</g>
</svg>
