<svg width="9" height="15" viewBox="0 0 9 15" fill="none" xmlns="http://www.w3.org/2000/svg">
<g id="Group">
<path id="Vector" fill-rule="evenodd" clip-rule="evenodd" d="M3.32177 12.7798C1.40799 12.9096 0 13.3487 0 13.8702C0 14.4941 2.01464 15 4.5 15C6.98547 15 9 14.4943 9 13.8704C9 13.3488 7.59198 12.9099 5.67794 12.78L5.07423 13.9074C4.83137 14.3608 4.16805 14.3608 3.92519 13.9074L3.32177 12.7798ZM1.21934 7.74469C-4.31118 -2.58156 13.3109 -2.58156 7.78066 7.74469L4.60949 13.666C4.56339 13.7522 4.43672 13.7522 4.39075 13.666L1.21934 7.74469ZM7.3834 4.23504C7.3834 2.66805 6.0926 1.3979 4.49988 1.3979C2.90729 1.3979 1.61637 2.66817 1.61637 4.23504C1.61637 5.80192 2.9074 7.07219 4.49988 7.07219C6.09237 7.07219 7.3834 5.80215 7.3834 4.23504Z" fill="white"/>
</g>
</svg>
