<svg width="20" height="20" viewBox="0 0 20 20" fill="none" xmlns="http://www.w3.org/2000/svg">
<g id="Group 2612795">
<g id="Group">
<path id="Vector" d="M17.9541 17.3304L15.7962 13.8821V6.89655C15.7962 4.3604 14.1499 2.13571 11.7472 1.37931C11.5693 0.57842 10.8574 0 10.012 0C9.16659 0 8.45469 0.57842 8.27672 1.37931C5.87405 2.13571 4.22777 4.3604 4.22777 6.89655V13.8821L2.06982 17.3304C1.98083 17.4638 1.98083 17.6418 2.04757 17.7753C2.11431 17.9088 2.27004 17.9978 2.42577 17.9978H7.40909C7.6983 19.1546 8.7439 20 9.98973 20C11.2356 20 12.2812 19.1546 12.5704 17.9978H17.5759C17.7317 17.9978 17.8874 17.9088 17.9541 17.7753C18.0209 17.6418 18.0431 17.4861 17.9541 17.3304ZM8.7884 2.15795C8.98862 2.11346 9.1221 1.93548 9.1221 1.73526C9.14435 1.26808 9.52255 0.889878 10.012 0.889878C10.5014 0.889878 10.8796 1.26808 10.9019 1.73526C10.9019 1.93548 11.0353 2.09121 11.2356 2.15795C13.3935 2.71413 14.9063 4.64961 14.9063 6.89655V13.5706H5.11765V6.89655C5.11765 4.64961 6.63044 2.71413 8.7884 2.15795ZM10.012 19.1324C9.25558 19.1324 8.63267 18.6874 8.3657 18.02H11.6583C11.3913 18.6874 10.7684 19.1324 10.012 19.1324ZM3.24891 17.1301L4.91743 14.4605H15.1065L16.775 17.1301H3.24891ZM6.00753 6.89655C6.00753 5.09455 7.23111 3.49277 8.96637 3.02558C9.21109 2.95884 9.4558 3.09232 9.5003 3.33704C9.56704 3.58176 9.43356 3.82647 9.18884 3.87097C7.85402 4.24917 6.89741 5.49499 6.89741 6.89655C6.89741 7.14127 6.69718 7.34149 6.45247 7.34149C6.20775 7.34149 6.00753 7.14127 6.00753 6.89655Z" fill="#3A3A3A"/>
</g>
</g>
</svg>
