<svg width="15" height="15" viewBox="0 0 15 15" fill="none" xmlns="http://www.w3.org/2000/svg">
<g id="Group 2612746">
<g id="Group">
<path id="Vector" d="M14.9785 7.04492L10.6133 10.8752L14.8715 14.4486C14.9571 14.2988 14.9999 14.1491 14.9999 13.9779V7.04492H14.9785Z" fill="white"/>
<path id="Vector_2" d="M1.00508 14.9621H13.9937C14.0365 14.9621 14.1007 14.9621 14.1435 14.9407L7.70266 9.52702C7.57427 9.42003 7.42448 9.42003 7.29609 9.52702L0.8125 14.9407C0.876694 14.9621 0.940888 14.9621 1.00508 14.9621Z" fill="white"/>
<path id="Vector_3" d="M4.36519 10.8538L0 7.17334V13.9565C0 14.1277 0.042796 14.2775 0.10699 14.4059L4.36519 10.8538Z" fill="white"/>
<path id="Vector_4" d="M4.70921 7.25875H10.2727C10.5081 7.25875 10.7007 7.06617 10.7007 6.83079C10.7007 6.59541 10.5081 6.40283 10.2727 6.40283H4.70921C4.47383 6.40283 4.28125 6.59541 4.28125 6.83079C4.28125 7.06617 4.47383 7.25875 4.70921 7.25875Z" fill="white"/>
<path id="Vector_5" d="M4.70921 8.7568H10.2727C10.5081 8.7568 10.7007 8.56422 10.7007 8.32884C10.7007 8.09346 10.5081 7.90088 10.2727 7.90088H4.70921C4.47383 7.90088 4.28125 8.09346 4.28125 8.32884C4.28125 8.56422 4.47383 8.7568 4.70921 8.7568Z" fill="white"/>
<path id="Vector_6" d="M2.13811 6.403V6.3388V5.88944C2.13811 5.46148 2.48047 5.11912 2.92983 5.11912H12.0668C12.4947 5.11912 12.8585 5.46148 12.8585 5.88944V6.403V7.79387L14.8699 6.03923C14.7843 5.88944 14.6773 5.78245 14.5275 5.69686L12.8799 4.54137L10.4833 2.87233L8.02256 1.16049C7.70159 0.946505 7.29503 0.946505 6.95266 1.16049L4.57748 2.80813L2.09531 4.51997L0.447664 5.65407C0.27648 5.76106 0.148092 5.91084 0.0625 6.10342L2.11671 7.83666V6.403H2.13811Z" fill="white"/>
</g>
</g>
</svg>
