<svg width="30" height="30" viewBox="0 0 30 30" fill="none" xmlns="http://www.w3.org/2000/svg">
<g id="Group 2612605">
<g id="Group 2612594">
<g id="Group">
<g id="Group 2612800">
<path id="Vector" fill-rule="evenodd" clip-rule="evenodd" d="M3.53061 0C2.68528 0 2 0.68528 2 1.53061V12.8571C2 13.7025 2.68528 14.3878 3.53061 14.3878H13.0204C13.8657 14.3878 14.551 13.7025 14.551 12.8571V1.53061C14.551 0.68528 13.8657 0 13.0204 0H3.53061ZM3.83673 10.7143V1.83673H12.7143V10.7143H3.83673Z" fill="currentColor"/>
<path id="Vector_2" fill-rule="evenodd" clip-rule="evenodd" d="M3.53061 15.6113C2.68528 15.6113 2 16.2966 2 17.1419V28.4685C2 29.3138 2.68528 29.9991 3.53061 29.9991H13.0204C13.8657 29.9991 14.551 29.3138 14.551 28.4685V17.1419C14.551 16.2966 13.8657 15.6113 13.0204 15.6113H3.53061ZM12.7143 17.4481H3.83673V26.3256H12.7143V17.4481Z" fill="currentColor"/>
<path id="Vector_3" fill-rule="evenodd" clip-rule="evenodd" d="M15.7773 1.53061C15.7773 0.68528 16.4626 0 17.308 0H26.7978C27.6431 0 28.3284 0.68528 28.3284 1.53061V12.8571C28.3284 13.7025 27.6431 14.3878 26.7978 14.3878H17.308C16.4626 14.3878 15.7773 13.7025 15.7773 12.8571V1.53061ZM26.4916 1.83673V10.7143H17.6141V1.83673H26.4916Z" fill="currentColor"/>
<path id="Vector_4" fill-rule="evenodd" clip-rule="evenodd" d="M17.308 15.6113C16.4626 15.6113 15.7773 16.2966 15.7773 17.1419V28.4685C15.7773 29.3138 16.4626 29.9991 17.308 29.9991H26.7978C27.6431 29.9991 28.3284 29.3138 28.3284 28.4685V17.1419C28.3284 16.2966 27.6431 15.6113 26.7978 15.6113H17.308ZM26.4916 17.4481H17.6141V26.3256H26.4916V17.4481Z" fill="currentColor"/>
</g>
</g>
</g>
</g>
</svg>
