<svg width="15" height="15" viewBox="0 0 15 15" fill="none" xmlns="http://www.w3.org/2000/svg">
<g id="Group 2612505">
<path id="Vector" d="M8.18625 9.66516C8.18625 9.92719 7.97359 10.1405 7.71234 10.1405C7.45109 10.1405 7.23703 9.92719 7.23703 9.66516C7.23703 9.40312 7.45031 9.18984 7.71234 9.18984C7.97438 9.18984 8.18625 9.40312 8.18625 9.66516ZM13.4231 5.82703V12.0002C13.4231 13.6544 12.0773 15 10.4231 15H5C3.34578 15 2 13.6542 2 12.0002V5.82703H3.70844V4.0025C3.70844 1.79547 5.50453 0 7.71219 0C9.91984 0 11.7147 1.79547 11.7147 4.0025V5.82703H13.4231ZM9.18766 9.66516C9.18766 8.85094 8.52578 8.18844 7.71234 8.18844C6.89891 8.18844 6.23563 8.85094 6.23563 9.66516C6.23563 10.3038 6.64313 10.8488 7.21172 11.0544V12.6388H8.21313V11.0542C8.78094 10.8486 9.18781 10.3036 9.18781 9.66516H9.18766ZM10.7134 5.82703V4.0025C10.7134 2.34766 9.36719 1.00141 7.71234 1.00141C6.0575 1.00141 4.70984 2.34766 4.70984 4.0025V5.82703H10.7134Z" fill="#D9D9D9"/>
</g>
</svg>
