<svg width="30" height="30" viewBox="0 0 30 30" fill="none" xmlns="http://www.w3.org/2000/svg">
<g id="Group 2612605">
<g id="Group 2612594">
<g id="Group">
<path id="Vector" d="M0.535714 11.5C0.830357 11.5 1.07143 11.2589 1.07143 10.9643V9.89286H26.7857V12.0196C26.7857 12.3143 27.0268 12.5554 27.3214 12.5554C27.6161 12.5554 27.8571 12.3143 27.8571 12.0196V9.35714V7.21429V6.67857C27.8571 5.2 26.6571 4 25.1786 4H2.67857C1.2 4 0 5.2 0 6.67857V7.21429V9.35714V10.9643C0 11.2589 0.241071 11.5 0.535714 11.5ZM2.67857 5.07143H25.1786C26.0625 5.07143 26.7857 5.79464 26.7857 6.67857H1.07143C1.07143 5.79464 1.79464 5.07143 2.67857 5.07143ZM16.5375 21.6786C16.5375 21.9732 16.2964 22.2143 16.0018 22.2143H2.67857C1.2 22.2143 0 21.0143 0 19.5357V15.25C0 14.9554 0.241071 14.7143 0.535714 14.7143C0.830357 14.7143 1.07143 14.9554 1.07143 15.25V19.5357C1.07143 20.4196 1.79464 21.1429 2.67857 21.1429H16.0018C16.2964 21.1429 16.5375 21.3839 16.5375 21.6786ZM2.67857 14.7143V11.5C2.67857 11.2054 2.91964 10.9643 3.21429 10.9643H8.57143C8.86607 10.9643 9.10714 11.2054 9.10714 11.5V14.7143C9.10714 15.0089 8.86607 15.25 8.57143 15.25H3.21429C2.91964 15.25 2.67857 15.0089 2.67857 14.7143ZM15 13.1071C15 14.2911 14.0411 15.25 12.8571 15.25C11.6732 15.25 10.7143 14.2911 10.7143 13.1071C10.7143 11.9232 11.6732 10.9643 12.8571 10.9643C14.0411 10.9643 15 11.9232 15 13.1071ZM15 16.8571C15 17.1518 14.7589 17.3929 14.4643 17.3929H3.21429C2.91964 17.3929 2.67857 17.1518 2.67857 16.8571C2.67857 16.5625 2.91964 16.3214 3.21429 16.3214H14.4643C14.7589 16.3214 15 16.5625 15 16.8571ZM15 19C15 19.2946 14.7589 19.5357 14.4643 19.5357H3.21429C2.91964 19.5357 2.67857 19.2946 2.67857 19C2.67857 18.7054 2.91964 18.4643 3.21429 18.4643H14.4643C14.7589 18.4643 15 18.7054 15 19ZM0 13.1071C0 12.8125 0.241071 12.5714 0.535714 12.5714C0.830357 12.5714 1.07143 12.8125 1.07143 13.1071C1.07143 13.4018 0.830357 13.6429 0.535714 13.6429C0.241071 13.6429 0 13.4018 0 13.1071ZM23.5714 12.5714C20.0196 12.5714 17.1429 15.4482 17.1429 19C17.1429 22.5518 20.0196 25.4286 23.5714 25.4286C27.1232 25.4286 30 22.5518 30 19C30 15.4482 27.1232 12.5714 23.5714 12.5714ZM23.0357 18.4643H24.1071C24.9911 18.4643 25.7143 19.1875 25.7143 20.0714C25.7143 20.9554 24.9911 21.6786 24.1071 21.6786V22.2143C24.1071 22.5089 23.8661 22.75 23.5714 22.75C23.2768 22.75 23.0357 22.5089 23.0357 22.2143V21.6786H21.9643C21.6696 21.6786 21.4286 21.4375 21.4286 21.1429C21.4286 20.8482 21.6696 20.6071 21.9643 20.6071H24.1071C24.4018 20.6071 24.6429 20.3661 24.6429 20.0714C24.6429 19.7768 24.4018 19.5357 24.1071 19.5357H23.0357C22.1518 19.5357 21.4286 18.8125 21.4286 17.9286C21.4286 17.0446 22.1518 16.3214 23.0357 16.3214V15.7857C23.0357 15.4911 23.2768 15.25 23.5714 15.25C23.8661 15.25 24.1071 15.4911 24.1071 15.7857V16.3214H25.1786C25.4732 16.3214 25.7143 16.5625 25.7143 16.8571C25.7143 17.1518 25.4732 17.3929 25.1786 17.3929H23.0357C22.7411 17.3929 22.5 17.6339 22.5 17.9286C22.5 18.2232 22.7411 18.4643 23.0357 18.4643Z" fill="#3A3A3A"/>
</g>
</g>
</g>
</svg>
