<svg width="16" height="16" viewBox="0 0 16 16" fill="none" xmlns="http://www.w3.org/2000/svg">
<g id="Group 2612728">
<g id="Group">
<path id="Vector" fill-rule="evenodd" clip-rule="evenodd" d="M15.3008 7.87762C15.3008 12.0479 11.9429 15.4285 7.80078 15.4285C3.65862 15.4285 0.300781 12.0479 0.300781 7.87762C0.300781 -2.05458 15.3008 -2.05458 15.3008 7.87762ZM7.60941 10.4917V8.17417C6.37261 7.81648 5.52516 7.07947 5.52516 5.71127C5.52516 4.45081 6.38657 3.59947 7.60941 3.47494V2.92723H8.4049V3.47494C9.54083 3.61466 10.2575 4.25686 10.4554 5.40146L9.06528 5.58472C8.98085 5.14837 8.7613 4.85374 8.4049 4.69884V6.86149C9.72303 7.22088 10.6805 7.7526 10.6805 9.26398C10.6805 10.6776 9.7646 11.5954 8.4049 11.7931V12.8281H7.60941V11.8195C6.23295 11.6514 5.50944 10.7577 5.30562 9.41888L6.74082 9.26398C6.83946 9.7638 7.14152 10.2651 7.60941 10.4917ZM7.60941 4.68189C6.67618 4.9978 6.64937 6.1784 7.60941 6.59708V4.68189ZM8.4049 10.5692C9.51929 10.363 9.78527 8.80721 8.4049 8.41216V10.5692Z" fill="currentColor"/>
</g>
</g>
</svg>
