<svg width="30" height="30" viewBox="0 0 30 30" fill="none" xmlns="http://www.w3.org/2000/svg">
<g id="Group 2612605">
<g id="Group">
<path id="Vector" d="M26.7342 15.1203C26.7196 15.3872 26.491 15.5921 26.224 15.5776C25.9571 15.5631 25.7522 15.3344 25.7667 15.0675L26.133 8.38115C26.1422 8.21175 26.1827 8.03163 26.2493 7.85305C26.3927 7.46873 26.6783 7.06186 27.0022 6.80909C27.3491 6.52726 27.7739 6.34753 28.2298 6.372C28.3823 6.38003 28.5376 6.41253 28.6925 6.4699C28.907 6.54982 29.0856 6.6871 29.2118 6.85612C29.3433 7.04847 29.4206 7.23203 29.432 7.46835C29.5177 9.21517 29.6206 10.6924 29.7062 11.9322C29.9169 14.9757 30.0301 16.6059 29.5823 18.0212C29.0623 19.6651 27.8443 20.8678 25.2225 23.454L23.9503 24.7132C23.8673 24.7978 23.7809 24.875 23.7109 24.9381C23.6199 25.0199 23.5981 25.0402 23.5988 25.2486L23.6057 26.4574L23.8868 26.6191C24.1453 26.7752 24.3204 27.0184 24.3923 27.2891C24.4646 27.5583 24.4352 27.8551 24.2883 28.1205C24.0333 28.5606 23.7606 28.9988 23.4975 29.4356C23.3361 29.7032 23.078 29.8849 22.7943 29.9606C22.4883 30.0317 22.2031 30.0111 21.9239 29.8573L16.5163 26.8704C16.2571 26.7155 16.0827 26.4715 16.01 26.2004C15.9255 25.8857 15.9829 25.6104 16.1355 25.3297L16.9049 24.054C17.0659 23.7867 17.324 23.6058 17.6085 23.5293C17.8918 23.4532 18.2054 23.4819 18.4781 23.6326L18.5186 23.6551L18.5484 22.4999C18.5557 22.1175 18.6624 21.6835 18.8574 21.2624C19.0379 20.8724 19.2972 20.4846 19.6253 20.1512C20.2371 19.5393 20.6061 19.1095 21.0692 18.3741L22.2428 16.5111C22.5101 16.0866 22.9507 15.7887 23.4375 15.6763C23.9009 15.5673 24.4115 15.6174 24.8581 15.8537L24.9625 15.916C25.2011 16.0747 25.3644 16.3038 25.4363 16.5554C25.5044 16.8483 25.4944 17.1015 25.351 17.373C24.9292 18.0801 24.4669 18.7822 24.0271 19.4804C23.8849 19.7064 23.5858 19.7745 23.3598 19.6322C23.1338 19.49 23.0658 19.191 23.208 18.9649L24.4937 16.9218C24.5113 16.8881 24.5143 16.856 24.5032 16.8208C24.4933 16.786 24.4688 16.752 24.4332 16.7267L24.4 16.7076C24.169 16.5879 23.9044 16.5623 23.6627 16.6178C23.4126 16.6854 23.2034 16.8021 23.0619 17.0265L21.8883 18.8896C21.3664 19.7183 20.9908 20.1355 20.3159 20.8303C20.0689 21.0812 19.8735 21.3737 19.7369 21.6685C19.597 21.9706 19.5205 22.2682 19.5155 22.516L19.4735 24.1779C20.5262 24.7515 21.5889 25.3247 22.6352 25.9086L22.6314 25.2524C22.6279 24.6089 22.7117 24.5331 23.0623 24.2177L23.2642 24.0272L24.5434 22.7634C27.0458 20.2946 28.2083 19.147 28.6569 17.729C29.05 16.487 28.9414 14.9206 28.7387 11.9964C28.6542 10.7773 28.5537 9.32416 28.4646 7.51424C28.4634 7.4848 28.4516 7.45917 28.434 7.43661C28.4137 7.40946 28.3858 7.38767 28.3552 7.37619C28.2974 7.35478 28.2382 7.34254 28.1808 7.33948C27.9854 7.32877 27.7881 7.41711 27.6175 7.55439C27.4106 7.73871 27.2539 7.92685 27.1556 8.19033C27.1238 8.27561 27.1047 8.35897 27.1005 8.43392L26.7342 15.1203ZM14.9458 1.80036C16.9882 1.80036 18.8375 2.62865 20.1763 3.96706C21.5155 5.30662 22.3438 7.15631 22.3438 9.19835C22.3438 11.2408 21.5155 13.0901 20.1771 14.4289C18.8375 15.7681 16.9882 16.5963 14.9458 16.5963C12.9038 16.5963 11.0541 15.7681 9.71528 14.4293C8.37572 13.0893 7.54743 11.2396 7.54743 9.19835C7.54743 7.15669 8.37572 5.307 9.71451 3.96821C11.0545 2.62865 12.9041 1.80036 14.9458 1.80036ZM19.9488 4.19536C18.6689 2.91621 16.8995 2.12387 14.9458 2.12387C12.9917 2.12387 11.2223 2.91583 9.94319 4.19536C8.6629 5.47526 7.87094 7.24465 7.87094 9.19835C7.87094 11.1521 8.6629 12.9214 9.94243 14.2006C11.2223 15.4809 12.9917 16.2728 14.9458 16.2728C16.8995 16.2728 18.6689 15.4805 19.9488 14.2013C21.2279 12.9214 22.0203 11.1521 22.0203 9.19835C22.0203 7.24503 21.2279 5.47526 19.9488 4.19536ZM15.4315 13.8308V15.0292C15.4315 15.2973 15.2139 15.5149 14.9458 15.5149C14.6777 15.5149 14.4601 15.2973 14.4601 15.0292V13.8312C14.033 13.734 13.6514 13.5122 13.3531 13.2052C12.9493 12.788 12.6984 12.2136 12.6984 11.583C12.6984 11.315 12.916 11.0974 13.1841 11.0974C13.4521 11.0974 13.6697 11.315 13.6697 11.583C13.6697 11.9547 13.8143 12.2897 14.0468 12.5299C14.2839 12.7742 14.6043 12.9138 14.9454 12.9138C15.2865 12.9138 15.607 12.7738 15.8441 12.5299C16.0766 12.2897 16.2211 11.9547 16.2211 11.583C16.2211 10.6534 15.4464 10.1257 14.6724 9.59872C13.6858 8.92646 12.6984 8.25381 12.6984 6.81406C12.6984 6.18347 12.9493 5.6091 13.3531 5.1919C13.6514 4.88483 14.033 4.66304 14.4601 4.56591V3.36745C14.4601 3.09939 14.6777 2.8818 14.9458 2.8818C15.2139 2.8818 15.4315 3.09939 15.4315 3.36745V4.56629C15.8582 4.66304 16.2399 4.88483 16.5378 5.1919C16.9416 5.6091 17.1924 6.18309 17.1924 6.81406C17.1924 7.08212 16.9748 7.29971 16.7068 7.29971C16.4387 7.29971 16.2211 7.08212 16.2211 6.81406C16.2211 6.44198 16.0766 6.10699 15.8441 5.86723C15.6074 5.62363 15.2861 5.48329 14.9458 5.48329C14.6043 5.48329 14.2839 5.62287 14.0468 5.86723C13.8143 6.10699 13.6697 6.44236 13.6697 6.81406C13.6697 7.7433 14.4445 8.2714 15.2185 8.79874C16.2051 9.47062 17.1924 10.1433 17.1924 11.583C17.1924 12.2144 16.9416 12.788 16.5378 13.2052C16.2399 13.5122 15.8582 13.734 15.4315 13.8308ZM14.9454 0C17.4842 0 19.7836 1.02981 21.4482 2.69404C23.1143 4.35826 24.1442 6.65842 24.1442 9.19835C24.1442 11.7383 23.1143 14.0388 21.4501 15.703C19.5603 17.4415 17.5565 18.3971 14.9454 18.3971C12.4066 18.3971 10.1072 17.3673 8.44264 15.703C6.7765 14.0388 5.74669 11.7383 5.74669 9.19835C5.74669 6.65842 6.7765 4.35826 8.44073 2.69404C10.3306 0.955628 12.3344 0 14.9454 0ZM20.7637 3.38045C19.2758 1.89214 17.218 0.971307 14.9454 0.971307C12.8598 0.971307 10.5673 1.84357 9.12752 3.38083C7.63921 4.86915 6.718 6.92648 6.718 9.19835C6.718 11.4702 7.63921 13.5279 9.12752 15.0162C10.6151 16.5049 12.6728 17.4258 14.9454 17.4258C17.0311 17.4258 19.3236 16.5535 20.7633 15.0162C22.2516 13.5279 23.1728 11.4702 23.1728 9.19835C23.1728 6.92648 22.2516 4.86915 20.7637 3.38045ZM12.9263 25.8299L12.1558 24.5549C12.129 24.5102 12.0831 24.4792 12.033 24.4658C11.9818 24.4524 11.926 24.4567 11.8797 24.4823C10.0904 25.4693 8.29733 26.4601 6.505 27.4493C6.46982 27.4711 6.44534 27.5044 6.43616 27.5396C6.4266 27.5755 6.43043 27.6172 6.4507 27.6539L7.22468 28.9346C7.25145 28.979 7.29696 29.0107 7.34743 29.0241C7.39906 29.0375 7.45336 29.0336 7.50078 29.0076L12.8755 26.0413C12.9164 26.0165 12.9344 25.9855 12.9474 25.9415C12.955 25.901 12.9485 25.8639 12.9263 25.8299ZM12.9864 24.054C13.233 24.462 13.5699 24.9545 13.7772 25.3691C13.9236 25.6345 13.9504 25.9086 13.8816 26.2008C13.8089 26.4712 13.6353 26.7151 13.376 26.8715L7.96731 29.8573C7.68854 30.0115 7.40288 30.0317 7.09734 29.961C6.8136 29.8853 6.55547 29.7032 6.3941 29.4356C6.13024 28.9985 5.85759 28.561 5.60099 28.1205C5.45568 27.8562 5.42738 27.5583 5.49927 27.2895C5.57193 27.0188 5.74631 26.7756 6.00443 26.6191L6.2855 26.4773L6.29238 25.249C6.29353 25.0406 6.27135 25.0199 6.18034 24.9381C6.11036 24.875 6.02393 24.7978 5.94019 24.714L4.66869 23.454C2.04693 20.8678 0.828973 19.6651 0.308903 18.0212C-0.138892 16.6059 -0.0257003 14.9753 0.185004 11.9318C0.270663 10.6924 0.37353 9.21479 0.459188 7.46797C0.47066 7.23203 0.547906 7.04847 0.679453 6.85612C0.805646 6.6871 0.984229 6.54982 1.19876 6.4699C1.3544 6.41177 1.51003 6.38003 1.66261 6.372C2.13106 6.34676 2.56738 6.53796 2.91843 6.83356C3.23774 7.10239 3.49127 7.46491 3.63085 7.82437C3.70006 7.98957 3.74748 8.19301 3.75742 8.37197L4.12453 15.0675C4.13906 15.3344 3.93409 15.5631 3.66718 15.5776C3.40026 15.5921 3.17158 15.3872 3.15705 15.1203L2.79032 8.42551C2.78497 8.33373 2.7582 8.25496 2.72761 8.16968C2.64348 7.95439 2.48975 7.73565 2.29664 7.57313C2.12073 7.42514 1.915 7.32839 1.71156 7.33948C1.65344 7.34254 1.59378 7.35478 1.53604 7.37619C1.50506 7.38767 1.47753 7.40946 1.45726 7.43661C1.44005 7.45917 1.42782 7.4848 1.42667 7.51386C1.33757 9.32339 1.237 10.7769 1.15249 11.996C0.949813 14.9203 0.84121 16.487 1.23432 17.729C1.68288 19.147 2.84539 20.2946 5.34784 22.7634L6.62507 24.0272L6.82889 24.2177C7.17994 24.5328 7.26369 24.6092 7.25986 25.2528L7.25604 25.966C8.3088 25.3974 9.3757 24.7798 10.4181 24.1897L10.3761 22.516C10.3711 22.2682 10.2946 21.9706 10.1547 21.6689C10.0113 21.3588 9.77952 21.038 9.54052 20.7944C8.79751 20.038 8.59331 19.8269 8.00287 18.8896L6.82928 17.0265C6.70002 16.8212 6.48435 16.6808 6.24305 16.6216C6.00061 16.5562 5.71342 16.5925 5.49124 16.7076L5.45797 16.7267C5.42241 16.752 5.39794 16.786 5.38799 16.8208C5.3769 16.8564 5.37958 16.8881 5.39755 16.9218L6.6832 18.9649C6.82545 19.191 6.75738 19.49 6.53138 19.6322C6.30538 19.7745 6.00634 19.7064 5.86409 19.4804C5.42432 18.7822 4.962 18.0801 4.5402 17.373C4.3968 17.1015 4.38686 16.8483 4.45493 16.5554C4.52682 16.3034 4.69049 16.074 4.92911 15.916L5.03312 15.8537C5.4836 15.6155 5.98072 15.5669 6.47402 15.6809C6.94935 15.7979 7.37956 16.0843 7.64839 16.5111L8.82198 18.3741C9.35505 19.2204 9.54396 19.4162 10.2315 20.116C10.5665 20.4548 10.8342 20.8299 11.0342 21.2628C11.2292 21.6831 11.3359 22.1175 11.3432 22.4999L11.3726 23.6548L11.4132 23.6326C11.6858 23.4819 11.9998 23.4536 12.2831 23.5289C12.5669 23.6047 12.825 23.7863 12.9864 24.054ZM17.7354 24.5549L16.9561 25.8433C16.94 25.8765 16.9377 25.9151 16.9469 25.9503C16.9565 25.9859 16.9806 26.0195 17.0165 26.041L22.3904 29.0076C22.4371 29.0333 22.4937 29.0375 22.5442 29.0237C22.5943 29.0103 22.6402 28.979 22.6669 28.9346L23.4463 27.6463C23.4623 27.613 23.4646 27.5744 23.4554 27.5392C23.4463 27.504 23.4218 27.4708 23.3862 27.4493C21.5939 26.4601 19.8008 25.4693 18.0115 24.4823C17.9653 24.4567 17.9094 24.4524 17.8586 24.4658C17.8073 24.4788 17.7626 24.5098 17.7354 24.5549Z" fill="currentColor"/>
</g>
</g>
</svg>
