<svg width="30" height="30" viewBox="0 0 30 30" fill="none" xmlns="http://www.w3.org/2000/svg">
<g id="Group 2612595">
<g id="Group">
<path id="Vector" d="M23.4328 27.325H23.5078V27.25V24.9024C23.5078 20.3239 19.3239 16.6137 14.2 16.6137C9.07607 16.6137 4.89216 20.3237 4.89216 24.9024V27.25V27.325H4.96716H23.4328ZM21.1687 7.26646C21.1687 10.6721 18.0512 13.4576 14.2 13.4576C10.3488 13.4576 7.23127 10.6718 7.23127 7.26617C7.23127 3.86051 10.3488 1.075 14.2 1.075C18.0512 1.075 21.1687 3.8608 21.1687 7.26646ZM19.3516 7.26617C19.3516 4.72649 17.0322 2.675 14.2 2.675C11.3678 2.675 9.04843 4.72679 9.04843 7.26646C9.04843 9.80614 11.3678 11.8576 14.2 11.8576C17.0322 11.8576 19.3516 9.80584 19.3516 7.26617ZM3.075 24.9024C3.075 19.458 8.05705 15.0138 14.2 15.0138C20.343 15.0138 25.325 19.4577 25.325 24.9024V28.125C25.325 28.5589 24.9268 28.925 24.4164 28.925H3.98358C3.47325 28.925 3.075 28.5589 3.075 28.125V24.9024Z" fill="#3A3A3A" stroke="white" stroke-width="0.15"/>
</g>
</g>
</svg>
