<svg width="30" height="30" viewBox="0 0 30 30" fill="none" xmlns="http://www.w3.org/2000/svg">
<g id="Group 2612605">
<path id="Vector" d="M28.2371 2.57172L25.807 0.141639C25.7163 0.0509616 25.5933 6.10352e-05 25.4648 6.10352e-05H12.8971C12.6298 6.10352e-05 12.4134 0.21681 12.4134 0.483785V5.9052H10.4626C9.29631 5.9052 8.34774 6.85378 8.34774 8.02011V9.16722H3.26476C2.56732 9.16722 2 9.73455 2 10.432V14.1474C2 14.8866 2.31282 15.5477 2.92801 16.116V22.7479C2.92801 23.8552 3.82871 24.756 4.93605 24.756H14.6355V24.9788C14.6355 25.2164 14.8081 25.419 15.0427 25.4564L16.2694 25.6529C16.331 25.8356 16.4052 26.0143 16.4908 26.1872L15.7624 27.1945C15.6228 27.3869 15.6441 27.6522 15.8123 27.8204L16.8151 28.8233C16.9833 28.9915 17.2486 29.0124 17.4411 28.8732L18.4476 28.1444C18.6209 28.2303 18.7992 28.3042 18.9819 28.3662L19.1781 29.5929C19.2155 29.8275 19.4181 30.0001 19.6558 30.0001H21.0739C21.3115 30.0001 21.5141 29.8275 21.5516 29.5929L21.7481 28.3662C21.9308 28.3045 22.1094 28.2303 22.2824 28.1447L23.2889 28.8735C23.4814 29.0131 23.7467 28.9918 23.9149 28.8236L24.9177 27.8208C25.0856 27.6526 25.1068 27.3873 24.9676 27.1948L24.2388 26.1882C24.3248 26.0153 24.3986 25.8367 24.4603 25.654L25.687 25.4574C25.9216 25.42 26.0942 25.2174 26.0942 24.9798V23.5616C26.0942 23.324 25.9216 23.1214 25.687 23.084L24.4603 22.8875C24.3986 22.7048 24.3245 22.5264 24.2388 22.3532L24.9676 21.3466C25.1072 21.1541 25.0859 20.8889 24.9177 20.7206L24.6036 20.4065H27.8953C28.1626 20.4065 28.379 20.1897 28.379 19.9228V2.91387C28.3786 2.78577 28.3277 2.66273 28.2371 2.57172ZM25.9489 1.65214L26.7269 2.43014H25.9489V1.65214ZM9.31519 8.02044C9.31519 7.38806 9.82993 6.87333 10.4623 6.87333H15.3316C15.964 6.87333 16.4787 7.38806 16.4787 8.02044V9.16756H16.0024V8.02044C16.0024 7.65032 15.7014 7.3493 15.3316 7.3493H10.4623C10.0922 7.3493 9.79116 7.65032 9.79116 8.02044V9.16756H9.31485L9.31519 8.02044ZM7.9429 10.1353H17.8506V12.1909C17.8506 12.464 17.6285 12.6861 17.3555 12.6861H8.43842C8.16538 12.6861 7.94323 12.464 7.94323 12.1909L7.9429 10.1353ZM15.0349 9.16756H10.7589V8.31708H15.0346L15.0349 9.16756ZM2.96779 10.4327C2.96779 10.2688 3.10094 10.1353 3.26476 10.1353H6.97545V12.1909C6.97545 12.9976 7.63176 13.6539 8.43842 13.6539H17.3555C18.1621 13.6539 18.8184 12.9976 18.8184 12.1909V10.1353H22.5291C22.6929 10.1353 22.8261 10.2685 22.8261 10.4327V14.1481C22.8261 14.6658 22.5874 15.103 22.0747 15.5237C21.95 15.6262 21.8064 15.7287 21.6483 15.8288C20.5662 16.5134 18.1591 17.0157 15.164 17.1879C14.835 16.2525 13.9431 15.58 12.8968 15.58C11.8498 15.58 10.9578 16.2532 10.6288 17.189C7.63749 17.0181 5.23101 16.5158 4.1449 15.8288C3.98681 15.729 3.84355 15.6262 3.71882 15.5237C3.20611 15.103 2.96745 14.6658 2.96745 14.1481V10.4327H2.96779ZM14.3324 17.9831C14.3324 18.7746 13.6886 19.4185 12.8971 19.4185C12.1056 19.4185 11.4614 18.7746 11.4614 17.9831C11.4614 17.1917 12.1053 16.5478 12.8971 16.5478C13.6883 16.5478 14.3324 17.1917 14.3324 17.9831ZM4.93605 23.7888C4.36233 23.7888 3.89579 23.3223 3.89579 22.7486V16.8016C5.19629 17.4947 7.55794 17.9777 10.5001 18.151C10.5867 19.3979 11.628 20.3863 12.8968 20.3863C14.1659 20.3863 15.2075 19.3972 15.2935 18.1497C18.2386 17.975 20.6003 17.4923 21.8977 16.8016V20.2292C21.8482 20.2103 21.798 20.1921 21.7477 20.1752L21.5516 18.9486C21.5141 18.714 21.3115 18.5414 21.0739 18.5414H19.6558C19.4181 18.5414 19.2155 18.714 19.1781 18.9486L18.9819 20.1752C18.7992 20.2369 18.6206 20.3111 18.4476 20.3967L17.4411 19.6679C17.2486 19.5287 16.9833 19.5496 16.8151 19.7178L15.8123 20.7203C15.6441 20.8885 15.6232 21.1538 15.7624 21.3463L16.4912 22.3528C16.4055 22.5258 16.3314 22.7044 16.2697 22.8871L15.043 23.0836C14.8084 23.1211 14.6358 23.3237 14.6358 23.5613V23.7888H4.93605ZM25.1264 23.9739V24.5668L24.0066 24.7462C23.8161 24.7765 23.6621 24.9171 23.6142 25.1042C23.5357 25.4109 23.4136 25.7052 23.2515 25.9782C23.1531 26.1441 23.1625 26.3527 23.2758 26.5088L23.9412 27.4277L23.5218 27.8471L22.6029 27.1817C22.4469 27.0684 22.2382 27.059 22.0724 27.1574C21.7993 27.3192 21.5054 27.4412 21.1979 27.5201C21.0112 27.568 20.8706 27.722 20.8403 27.9125L20.661 29.0323H20.068L19.8887 27.9125C19.8584 27.722 19.7174 27.568 19.5307 27.5201C19.2243 27.4419 18.93 27.3199 18.6566 27.1574C18.4908 27.059 18.2821 27.0684 18.126 27.1817L17.2071 27.8471L16.7878 27.4277L17.4532 26.5088C17.5665 26.3527 17.5759 26.1441 17.4775 25.9782C17.3153 25.7049 17.1937 25.4109 17.1151 25.1042C17.0672 24.9174 16.9132 24.7769 16.7227 24.7462L15.6029 24.5668V23.9739L16.7227 23.7946C16.9132 23.7642 17.0672 23.6237 17.1151 23.4366C17.1937 23.1298 17.3157 22.8356 17.4775 22.5625C17.5759 22.3967 17.5665 22.188 17.4532 22.0319L16.7878 21.113L17.2071 20.6937L18.126 21.3591C18.2821 21.472 18.4908 21.4818 18.6566 21.3834C18.93 21.2212 19.2243 21.0992 19.5307 21.021C19.7174 20.9731 19.858 20.8191 19.8887 20.6286L20.068 19.5088H20.661L20.8403 20.6286C20.8706 20.8191 21.0115 20.9731 21.1983 21.021C21.5047 21.0992 21.799 21.2212 22.0724 21.3834C22.2382 21.4818 22.4465 21.4724 22.6029 21.3591L23.5218 20.6937L23.9412 21.113L23.2758 22.0319C23.1625 22.188 23.1531 22.3967 23.2515 22.5625C23.4136 22.8359 23.5353 23.1298 23.6142 23.4366C23.6621 23.6233 23.8161 23.7639 24.0066 23.7942L25.1264 23.9739ZM22.8655 19.4387V16.117C23.4811 15.5487 23.7939 14.8873 23.7939 14.1481V10.4327C23.7939 9.73522 23.2266 9.1679 22.5291 9.1679H17.4465V8.02078C17.4465 6.85479 16.4979 5.90588 15.3316 5.90588H13.3808V0.967847H24.9811V2.91387C24.9811 3.18118 25.1979 3.39759 25.4648 3.39759H27.4109V19.4384L22.8655 19.4387ZM22.8072 4.17998V2.14968C22.8072 1.88237 22.5905 1.66596 22.3235 1.66596H15.9636C15.6963 1.66596 15.4799 1.88271 15.4799 2.14968V4.17998C15.4799 4.44729 15.6966 4.6637 15.9636 4.6637H22.3235C22.5908 4.6637 22.8072 4.44695 22.8072 4.17998ZM21.8398 3.69592H16.4477V2.63341H21.8398V3.69592ZM25.7423 5.86543C25.7423 6.13274 25.5255 6.34915 25.2585 6.34915H19.528C19.2607 6.34915 19.0443 6.1324 19.0443 5.86543C19.0443 5.59845 19.261 5.3817 19.528 5.3817H25.2585C25.5255 5.38137 25.7423 5.59811 25.7423 5.86543ZM25.7423 7.90887C25.7423 8.17618 25.5255 8.39259 25.2585 8.39259H19.528C19.2607 8.39259 19.0443 8.17584 19.0443 7.90887C19.0443 7.64189 19.261 7.42514 19.528 7.42514H25.2585C25.5255 7.42514 25.7423 7.64189 25.7423 7.90887ZM20.3647 21.6911C18.9425 21.6911 17.7856 22.848 17.7856 24.2702C17.7856 25.6924 18.9425 26.8493 20.3647 26.8493C21.7868 26.8493 22.9437 25.6924 22.9437 24.2702C22.9437 22.8484 21.7868 21.6911 20.3647 21.6911ZM20.3647 25.8818C19.4761 25.8818 18.7534 25.1588 18.7534 24.2705C18.7534 23.3823 19.4764 22.6593 20.3647 22.6593C21.2532 22.6593 21.976 23.382 21.976 24.2705C21.976 25.1591 21.2532 25.8818 20.3647 25.8818Z" fill="#3A3A3A"/>
</g>
</svg>
