<svg width="31" height="30" viewBox="0 0 31 30" fill="none" xmlns="http://www.w3.org/2000/svg">
<g id="Group 2612605">
<path id="Vector" d="M28.9009 9.76103H26.4202V5.13842C26.4202 4.24744 25.6954 3.52228 24.8041 3.52228H13.2437L13.0469 2.92711C12.8262 2.26614 12.2088 1.82227 11.5104 1.82227H5.20716C4.50813 1.82227 3.8907 2.26646 3.67038 2.92808L3.47393 3.52228H2.12005C1.22875 3.52228 0.503906 4.24744 0.503906 5.13842L0.504874 26.1331C0.51939 26.8208 0.492938 26.606 18.0398 26.606C18.3611 26.846 18.794 26.8744 19.1408 26.6721C19.2956 26.584 19.1818 26.606 19.7021 26.606C20.7863 27.4695 21.4953 27.5318 21.4953 27.6299V28.0282C21.4953 28.5841 21.9473 29.036 22.5031 29.036H24.5912C25.1457 29.036 25.5967 28.5841 25.5967 28.0282C25.5967 27.5953 25.5831 27.6082 25.6373 27.5882C27.0315 27.0908 27.5115 26.4202 27.6047 26.4734L27.9486 26.6705C28.4296 26.9476 29.0464 26.7834 29.3241 26.3028L30.3712 24.4911C30.6441 24.0105 30.477 23.3947 30.0002 23.1195L29.6544 22.9185C29.5393 22.8527 29.9283 22.164 29.6325 20.634C29.6267 20.6001 29.7983 20.5201 29.9993 20.4037C30.4773 20.1282 30.6444 19.5124 30.3696 19.0279C29.2422 17.0782 29.2799 17.073 29.018 16.8953L30.4451 11.7894C30.7267 10.7665 29.9622 9.76071 28.9012 9.76071L28.9009 9.76103ZM29.5293 19.5092C29.5583 19.5614 29.517 19.565 29.1696 19.7663C28.8018 19.9788 28.6051 20.3976 28.6809 20.813C28.806 21.4605 28.8035 22.0763 28.6796 22.7163C28.6057 23.1266 28.8025 23.5447 29.1689 23.7566C29.5289 23.9656 29.5567 23.9666 29.5312 24.0108C28.3934 25.9792 28.4825 25.8608 28.4312 25.8321L28.0883 25.6357C27.7215 25.4224 27.2525 25.4676 26.9221 25.7473C26.4428 26.1528 25.8299 26.4928 25.3092 26.6786C24.9025 26.8266 24.6292 27.2092 24.6292 27.6305C24.6292 28.0518 24.6425 28.0689 24.5915 28.0689C22.3573 28.0689 22.4634 28.087 22.4634 28.0289C22.4634 26.4844 21.9608 26.9673 20.6805 26.1228C20.2415 25.8331 20.1876 25.7363 20.0156 25.6389C19.7002 25.4598 19.315 25.4566 19.0098 25.6337L18.6621 25.8318C18.5956 25.8318 18.6889 25.9586 17.5634 24.0114C17.5363 23.9644 17.5656 23.9643 17.9247 23.7576C18.2943 23.544 18.4902 23.124 18.4121 22.714C18.1792 21.4618 18.4653 20.8876 18.4214 20.5163C18.3282 19.7272 17.4856 19.6466 17.5634 19.513L18.6085 17.705L18.6602 17.6914C20.1763 18.5662 19.8211 17.5482 21.7811 16.8466C22.1747 16.7053 22.4331 16.3604 22.4586 15.9585C22.4653 15.8501 22.4637 15.9449 22.4637 15.4956C22.4637 15.4375 22.3612 15.4556 24.5918 15.4556C24.6434 15.4556 24.6296 15.4743 24.6296 15.894C24.6296 16.2978 24.8928 16.6943 25.3128 16.8469C27.0738 17.4753 27.0441 18.4972 28.2664 17.7882C28.4318 17.6921 28.4615 17.6614 28.4867 17.7053L29.5299 19.5098L29.5293 19.5092ZM28.0357 16.8133C27.9105 16.8704 28.0257 16.8078 27.6063 17.0511C27.5102 17.1053 27.0241 16.4298 25.6399 15.9356C25.5799 15.914 25.5963 15.9253 25.5963 15.4946C25.5963 14.9388 25.1454 14.4869 24.5908 14.4869H22.5028C22.1318 14.4869 21.8108 14.6904 21.6357 14.9898H8.85235C8.21202 14.9898 8.21202 15.9575 8.85235 15.9575H21.3989C20.7218 16.2075 20.0979 16.5691 19.5502 17.0349C19.4992 17.0775 19.5169 17.0679 19.1453 16.8537C18.664 16.5737 18.0489 16.7379 17.7702 17.2201C16.6295 19.1937 16.5876 19.1746 16.5943 19.5479H7.20718C6.56685 19.5479 6.56685 20.5156 7.20718 20.5156C17.5253 20.5156 17.476 20.4656 17.4601 20.6324C17.166 22.214 17.5514 22.8547 17.4405 22.9185L17.0911 23.1198C16.6124 23.3985 16.4479 24.0153 16.7247 24.4947L17.3856 25.6379H1.62456L5.53458 11.6391C5.68491 11.1027 6.17911 10.7281 6.73653 10.7281H28.9009C29.3241 10.7281 29.6228 11.1285 29.5125 11.5301L28.0357 16.8127V16.8133ZM1.47165 5.13842C1.47165 4.78099 1.7623 4.49003 2.12005 4.49003H3.82328C4.03167 4.49003 4.21716 4.35615 4.28264 4.15809L4.58877 3.23324C4.67716 2.96808 4.92555 2.79001 5.20716 2.79001H11.5104C11.7917 2.79001 12.0404 2.96808 12.1285 3.23228L12.435 4.15809C12.5004 4.35615 12.6856 4.49003 12.8943 4.49003H24.8041C25.1615 4.49003 25.4525 4.78067 25.4525 5.13842V9.76103H24.7202V8.92231C24.7202 8.02392 23.9892 7.29327 23.0908 7.29327H3.83296C2.93457 7.29327 2.2036 8.02392 2.2036 8.92231V19.9675L1.47133 22.5885L1.47165 5.13842ZM23.7524 9.76103H6.73621C5.74684 9.76103 4.8691 10.4262 4.60264 11.3791L3.17134 16.5027V8.92231C3.17134 8.55779 3.46812 8.26102 3.83296 8.26102H23.0908C23.4557 8.26102 23.7524 8.55747 23.7524 8.92231V9.76103ZM27.5483 20.355C26.1721 16.4975 20.6931 16.6408 19.4873 20.5159C18.3992 24.0121 21.9873 27.1679 25.3144 25.6386C27.2841 24.7327 28.3015 22.4663 27.5486 20.3553L27.5483 20.355ZM23.546 25.0605C21.2063 25.0605 19.6179 22.6676 20.5166 20.5156C21.0018 19.3537 22.1699 18.494 23.546 18.494C25.3928 18.494 26.8305 20.0124 26.8305 21.7759C26.8305 23.5769 25.3621 25.0605 23.546 25.0605ZM25.3118 22.2453H24.0308V23.5263C24.0308 24.1663 23.0631 24.1663 23.0631 23.5263V22.2453H21.7821C21.1418 22.2453 21.1418 21.2776 21.7821 21.2776H23.0631C23.0631 19.9217 23.0095 19.8085 23.2476 19.6192C23.5673 19.3653 24.0308 19.595 24.0308 19.9966V21.2776H25.3118C25.9521 21.2776 25.9521 22.2453 25.3118 22.2453Z" fill="currentColor"/>
</g>
</svg>
