<svg width="10" height="10" viewBox="0 0 10 10" fill="none" xmlns="http://www.w3.org/2000/svg">
<path d="M3.88889 0V1.11111H1.11111V8.88889H8.88889V6.11111H10V9.44444C10 9.59179 9.94147 9.7331 9.83728 9.83728C9.7331 9.94147 9.59179 10 9.44444 10H0.555556C0.408213 10 0.266905 9.94147 0.162718 9.83728C0.0585316 9.7331 0 9.59179 0 9.44444V0.555556C0 0.408213 0.0585316 0.266905 0.162718 0.162718C0.266905 0.0585316 0.408213 0 0.555556 0H3.88889ZM8.10333 1.11111H5.55556V0H10V4.44444H8.88889V1.89667L5 5.78556L4.21445 5L8.10333 1.11111Z" fill="#3281CD"/>
</svg>
