<svg width="206" height="181" viewBox="0 0 206 181" fill="none" xmlns="http://www.w3.org/2000/svg">
<g id="Group 2612534">
<g id="freepik--background-complete--inject-62">
<path id="Vector" d="M200.569 166.877H184.434V166.999H200.569V166.877Z" fill="#EBEBEB"/>
<path id="Vector_2" d="M142.749 168.198H138.516V168.32H142.749V168.198Z" fill="#EBEBEB"/>
<path id="Vector_3" d="M183.943 162.368H174.594V162.49H183.943V162.368Z" fill="#EBEBEB"/>
<path id="Vector_4" d="M27.9827 163.185H6.94141V163.307H27.9827V163.185Z" fill="#EBEBEB"/>
<path id="Vector_5" d="M35.4081 163.185H32.3242V163.307H35.4081V163.185Z" fill="#EBEBEB"/>
<path id="Vector_6" d="M91.0727 165.235H45.4336V165.357H91.0727V165.235Z" fill="#EBEBEB"/>
<path id="Vector_7" d="M96.8466 137.392H2.77693C2.03999 137.391 1.33368 137.098 0.813048 136.578C0.292412 136.058 -1.13013e-06 135.353 0 134.618V2.74978C0.00641517 2.01911 0.301659 1.32047 0.821602 0.805608C1.34155 0.290748 2.04419 0.00125168 2.77693 0H96.8466C97.5844 0 98.2919 0.292268 98.8136 0.812508C99.3353 1.33275 99.6284 2.03835 99.6284 2.77408V134.618C99.6284 135.354 99.3353 136.059 98.8136 136.58C98.2919 137.1 97.5844 137.392 96.8466 137.392ZM2.77693 0.0971659C2.0723 0.0984529 1.39696 0.378491 0.89917 0.875815C0.401375 1.37314 0.121794 2.04711 0.121795 2.74978V134.618C0.121794 135.321 0.401375 135.995 0.89917 136.492C1.39696 136.989 2.0723 137.269 2.77693 137.271H96.8466C97.5517 137.269 98.2275 136.989 98.7261 136.492C99.2247 135.995 99.5053 135.321 99.5066 134.618V2.74978C99.5053 2.04666 99.2247 1.3727 98.7261 0.875518C98.2275 0.378334 97.5517 0.0984502 96.8466 0.0971659H2.77693Z" fill="#EBEBEB"/>
<path id="Vector_8" d="M202.231 137.392H108.157C107.419 137.391 106.713 137.098 106.191 136.578C105.67 136.058 105.376 135.353 105.375 134.618V2.74978C105.383 2.01867 105.679 1.32003 106.2 0.805305C106.72 0.290578 107.424 0.00123803 108.157 0H202.231C202.963 0.00252849 203.665 0.292589 204.184 0.807313C204.702 1.32204 204.997 2.01995 205.003 2.74978V134.618C205.003 135.352 204.712 136.056 204.192 136.576C203.673 137.096 202.967 137.389 202.231 137.392ZM108.157 0.0971659C107.452 0.0984502 106.776 0.378334 106.277 0.875518C105.779 1.3727 105.498 2.04666 105.497 2.74978V134.618C105.498 135.321 105.779 135.995 106.277 136.492C106.776 136.989 107.452 137.269 108.157 137.271H202.231C202.936 137.269 203.612 136.989 204.111 136.492C204.609 135.995 204.89 135.321 204.891 134.618V2.74978C204.89 2.04666 204.609 1.3727 204.111 0.875518C203.612 0.378334 202.936 0.0984502 202.231 0.0971659H108.157Z" fill="#EBEBEB"/>
<path id="Vector_9" d="M61.5163 5.22266H26.8047V122.652H61.5163V5.22266Z" fill="#FAFAFA"/>
<path id="Vector_10" d="M56.3519 5.22266H54.3252L42.2188 122.652H44.2454L56.3519 5.22266Z" fill="#F5F5F5"/>
<path id="Vector_11" d="M60.9078 5.67456H26.5859V6.70937H60.9078V5.67456Z" fill="#E0E0E0"/>
<path id="Vector_12" d="M60.9078 121.622H26.5859V123.838H60.9078V121.622Z" fill="#EBEBEB"/>
<path id="Vector_13" d="M60.3339 123.74H27.9023V123.838H60.3339V123.74Z" fill="#EBEBEB"/>
<path id="Vector_14" d="M27.9048 5.67455H60.3364V123.74H62.2802V4.22192H25.9609V123.74H27.9048V5.67455Z" fill="#EBEBEB"/>
<path id="Vector_15" d="M100.149 5.22266H65.4375V122.652H100.149V5.22266Z" fill="#FAFAFA"/>
<path id="Vector_16" d="M90.518 5.22266H79.4541L67.3477 122.652H78.4115L90.518 5.22266Z" fill="#F5F5F5"/>
<path id="Vector_17" d="M100.511 5.67456H65.2148V6.70937H100.511V5.67456Z" fill="#E0E0E0"/>
<path id="Vector_18" d="M100.511 121.622H65.2148V123.838H100.511V121.622Z" fill="#EBEBEB"/>
<path id="Vector_19" d="M98.9629 123.74H66.5312V123.838H98.9629V123.74Z" fill="#EBEBEB"/>
<path id="Vector_20" d="M66.5337 5.67455H98.9653V123.74H100.904V4.22192H64.5898V123.74H66.5337V5.67455Z" fill="#EBEBEB"/>
<path id="Vector_21" d="M137.796 5.22266H104.059V122.652H137.796V5.22266Z" fill="#FAFAFA"/>
<path id="Vector_22" d="M123.176 5.22266H121.149L109.043 122.652H111.07L123.176 5.22266Z" fill="#F5F5F5"/>
<path id="Vector_23" d="M138.162 5.67456H103.84V6.70937H138.162V5.67456Z" fill="#E0E0E0"/>
<path id="Vector_24" d="M138.162 121.622H103.84V123.838H138.162V121.622Z" fill="#EBEBEB"/>
<path id="Vector_25" d="M137.596 123.74H105.164V123.838H137.596V123.74Z" fill="#EBEBEB"/>
<path id="Vector_26" d="M105.163 5.67455H137.589V123.74H139.533V4.22192H103.219V123.74H105.163V5.67455Z" fill="#EBEBEB"/>
<path id="Vector_27" d="M177.403 5.22266H142.691V122.652H177.403V5.22266Z" fill="#FAFAFA"/>
<path id="Vector_28" d="M174.007 5.22266H162.943L150.832 122.652H161.901L174.007 5.22266Z" fill="#F5F5F5"/>
<path id="Vector_29" d="M176.787 5.67456H142.465V6.70937H176.787V5.67456Z" fill="#E0E0E0"/>
<path id="Vector_30" d="M176.787 121.622H142.465V123.838H176.787V121.622Z" fill="#EBEBEB"/>
<path id="Vector_31" d="M143.787 5.67455H176.218V123.74H178.162V4.22192H141.848V123.74H143.787V5.67455Z" fill="#EBEBEB"/>
<path id="Vector_32" d="M176.217 123.74H143.785V123.838H176.217V123.74Z" fill="#EBEBEB"/>
<path id="Vector_33" d="M53.2169 95.6401H38.1484V121.627H53.2169V95.6401Z" fill="#EBEBEB"/>
<path id="Vector_34" d="M50.3159 92.0061V98.5259H49.1321H42.2239H41.0352V92.0061H50.3159Z" fill="#EBEBEB"/>
<path id="Vector_35" d="M50.3208 98.5261H52.25V96.6022H50.3208V98.5261Z" fill="#FAFAFA"/>
<path id="Vector_36" d="M46.5864 98.5261H48.5156V96.6022H46.5864V98.5261Z" fill="#FAFAFA"/>
<path id="Vector_37" d="M42.852 98.5261H44.7812V96.6022H42.852V98.5261Z" fill="#FAFAFA"/>
<path id="Vector_38" d="M39.1137 98.5261H41.043V96.6022H39.1137V98.5261Z" fill="#F0F0F0"/>
<path id="Vector_39" d="M50.3208 102.019H52.25V100.095H50.3208V102.019Z" fill="#F0F0F0"/>
<path id="Vector_40" d="M46.5864 102.019H48.5156V100.095H46.5864V102.019Z" fill="#F0F0F0"/>
<path id="Vector_41" d="M42.852 102.019H44.7812V100.095H42.852V102.019Z" fill="#FAFAFA"/>
<path id="Vector_42" d="M39.1137 102.019H41.043V100.095H39.1137V102.019Z" fill="#FAFAFA"/>
<path id="Vector_43" d="M50.3208 105.517H52.25V103.593H50.3208V105.517Z" fill="#F0F0F0"/>
<path id="Vector_44" d="M46.5864 105.517H48.5156V103.593H46.5864V105.517Z" fill="#FAFAFA"/>
<path id="Vector_45" d="M42.852 105.517H44.7812V103.593H42.852V105.517Z" fill="#FAFAFA"/>
<path id="Vector_46" d="M46.5864 95.5039H48.5156V93.58H46.5864V95.5039Z" fill="#FAFAFA"/>
<path id="Vector_47" d="M42.852 95.5039H44.7812V93.58H42.852V95.5039Z" fill="#F0F0F0"/>
<path id="Vector_48" d="M39.1137 105.517H41.043V103.593H39.1137V105.517Z" fill="#F0F0F0"/>
<path id="Vector_49" d="M50.3208 109.015H52.25V107.091H50.3208V109.015Z" fill="#FAFAFA"/>
<path id="Vector_50" d="M46.5864 109.015H48.5156V107.091H46.5864V109.015Z" fill="#F0F0F0"/>
<path id="Vector_51" d="M42.852 109.015H44.7812V107.091H42.852V109.015Z" fill="#F0F0F0"/>
<path id="Vector_52" d="M39.1137 109.015H41.043V107.091H39.1137V109.015Z" fill="#FAFAFA"/>
<path id="Vector_53" d="M50.3208 112.513H52.25V110.589H50.3208V112.513Z" fill="#F0F0F0"/>
<path id="Vector_54" d="M46.5864 112.513H48.5156V110.589H46.5864V112.513Z" fill="#FAFAFA"/>
<path id="Vector_55" d="M42.852 112.513H44.7812V110.589H42.852V112.513Z" fill="#FAFAFA"/>
<path id="Vector_56" d="M39.1137 112.513H41.043V110.589H39.1137V112.513Z" fill="#F0F0F0"/>
<path id="Vector_57" d="M50.3208 116.006H52.25V114.082H50.3208V116.006Z" fill="#F0F0F0"/>
<path id="Vector_58" d="M46.5864 116.006H48.5156V114.082H46.5864V116.006Z" fill="#FAFAFA"/>
<path id="Vector_59" d="M42.852 116.006H44.7812V114.082H42.852V116.006Z" fill="#F0F0F0"/>
<path id="Vector_60" d="M39.1137 116.006H41.043V114.082H39.1137V116.006Z" fill="#FAFAFA"/>
<path id="Vector_61" d="M50.3208 119.504H52.25V117.58H50.3208V119.504Z" fill="#FAFAFA"/>
<path id="Vector_62" d="M46.5864 119.504H48.5156V117.58H46.5864V119.504Z" fill="#FAFAFA"/>
<path id="Vector_63" d="M42.852 119.504H44.7812V117.58H42.852V119.504Z" fill="#F0F0F0"/>
<path id="Vector_64" d="M39.1137 119.504H41.043V117.58H39.1137V119.504Z" fill="#F0F0F0"/>
<path id="Vector_65" d="M159.367 105.104H145.867V121.622H159.367V105.104Z" fill="#F0F0F0"/>
<path id="Vector_66" d="M147.047 106.94H150.184H151.051H151.914V108.66H151.051H150.184H147.047V106.94Z" fill="#E6E6E6"/>
<path id="Vector_67" d="M147.047 110.278H150.184H151.051H151.914V112.003H151.051H150.184H147.047V110.278Z" fill="#FAFAFA"/>
<path id="Vector_68" d="M147.047 113.615H150.184H151.051H151.914V115.34H151.051H150.184H147.047V113.615Z" fill="#E6E6E6"/>
<path id="Vector_69" d="M147.047 116.953H150.184H151.519H151.914V118.678H151.519H150.184H147.047V116.953Z" fill="#FAFAFA"/>
<path id="Vector_70" d="M153.324 106.94H156.467H157.329H158.191V108.66H157.329H156.467H153.324V106.94Z" fill="#FAFAFA"/>
<path id="Vector_71" d="M153.324 110.278H156.467H157.684H158.191V112.003H157.684H156.467H153.324V110.278Z" fill="#FAFAFA"/>
<path id="Vector_72" d="M153.324 113.615H156.467H157.329H158.191V115.34H157.329H156.467H153.324V113.615Z" fill="#E6E6E6"/>
<path id="Vector_73" d="M153.324 116.953H156.467H157.329H158.191V118.678H157.329H156.467H153.324V116.953Z" fill="#FAFAFA"/>
<path id="Vector_74" d="M94.318 111.361H82.0508V121.627H94.318V111.361Z" fill="#F0F0F0"/>
<path id="Vector_75" d="M91.9664 114.208H93.5352V112.644H91.9664V114.208Z" fill="#FAFAFA"/>
<path id="Vector_76" d="M88.9235 114.208H90.4922V112.644H88.9235V114.208Z" fill="#FAFAFA"/>
<path id="Vector_77" d="M85.8766 114.208H87.4453V112.644H85.8766V114.208Z" fill="#FAFAFA"/>
<path id="Vector_78" d="M82.8414 114.208H84.4102V112.644H82.8414V114.208Z" fill="#FAFAFA"/>
<path id="Vector_79" d="M91.9664 117.05H93.5352V115.486H91.9664V117.05Z" fill="#FAFAFA"/>
<path id="Vector_80" d="M88.9235 117.05H90.4922V115.486H88.9235V117.05Z" fill="#FAFAFA"/>
<path id="Vector_81" d="M85.8766 117.05H87.4453V115.486H85.8766V117.05Z" fill="#FAFAFA"/>
<path id="Vector_82" d="M82.8414 117.05H84.4102V115.486H82.8414V117.05Z" fill="#E6E6E6"/>
<path id="Vector_83" d="M91.9664 119.897H93.5352V118.333H91.9664V119.897Z" fill="#E6E6E6"/>
<path id="Vector_84" d="M88.9235 119.897H90.4922V118.333H88.9235V119.897Z" fill="#E6E6E6"/>
<path id="Vector_85" d="M85.8766 119.897H87.4453V118.333H85.8766V119.897Z" fill="#FAFAFA"/>
<path id="Vector_86" d="M82.8414 119.897H84.4102V118.333H82.8414V119.897Z" fill="#E6E6E6"/>
<path id="Vector_87" d="M80.3883 103.773H68.1211V121.627H80.3883V103.773Z" fill="#F0F0F0"/>
<path id="Vector_88" d="M79.6058 104.555H74.9922V108.966H79.6058V104.555Z" fill="#FAFAFA"/>
<path id="Vector_89" d="M73.5159 104.555H68.9023V108.966H73.5159V104.555Z" fill="#FAFAFA"/>
<path id="Vector_90" d="M79.6058 110.244H74.9922V114.655H79.6058V110.244Z" fill="#FAFAFA"/>
<path id="Vector_91" d="M73.5159 110.244H68.9023V114.655H73.5159V110.244Z" fill="#FAFAFA"/>
<path id="Vector_92" d="M79.6058 115.933H74.9922V120.344H79.6058V115.933Z" fill="#FAFAFA"/>
<path id="Vector_93" d="M73.5159 115.933H68.9023V120.344H73.5159V115.933Z" fill="#FAFAFA"/>
</g>
<g id="freepik--Shadow--inject-62">
<path id="freepik--path--inject-62" d="M103.178 181C155.347 181 197.638 178.538 197.638 175.501C197.638 172.463 155.347 170.001 103.178 170.001C51.0097 170.001 8.71875 172.463 8.71875 175.501C8.71875 178.538 51.0097 181 103.178 181Z" fill="#F5F5F5"/>
</g>
<g id="freepik--Sheet--inject-62">
<path id="Vector_94" d="M197.973 11.9561V118.955L185.063 131.829H110.324V11.9561H197.973Z" fill="#A1DC5F"/>
<path id="Vector_95" opacity="0.8" d="M197.973 11.9561V118.955L185.063 131.829H110.324V11.9561H197.973Z" fill="white"/>
<path id="Vector_96" opacity="0.2" d="M185.062 131.829V119.334H197.973L185.316 131.956" fill="black"/>
<path id="Vector_97" opacity="0.1" d="M143.494 22.3482H119.32C118.981 22.3482 118.655 22.2135 118.414 21.9739C118.174 21.7343 118.039 21.4093 118.039 21.0704C118.038 20.9022 118.071 20.7356 118.135 20.58C118.199 20.4244 118.294 20.283 118.413 20.1638C118.532 20.0446 118.673 19.9501 118.829 19.8856C118.985 19.8211 119.152 19.7878 119.32 19.7878H143.494C143.835 19.7891 144.16 19.9248 144.401 20.1652C144.641 20.4056 144.776 20.7311 144.776 21.0704C144.776 21.4093 144.641 21.7343 144.4 21.9739C144.16 22.2135 143.834 22.3482 143.494 22.3482Z" fill="black"/>
<path id="Vector_98" opacity="0.1" d="M187.335 32.7156H129.059C128.89 32.7156 128.723 32.6824 128.567 32.6179C128.411 32.5533 128.27 32.4588 128.151 32.3396C128.032 32.2205 127.938 32.079 127.873 31.9235C127.809 31.7679 127.777 31.6012 127.777 31.433C127.777 31.0941 127.912 30.7691 128.153 30.5295C128.393 30.2899 128.719 30.1553 129.059 30.1553H187.335C187.675 30.1553 188.001 30.2899 188.241 30.5295C188.481 30.7691 188.616 31.0941 188.616 31.433C188.616 31.7723 188.482 32.0978 188.241 32.3382C188.001 32.5786 187.675 32.7143 187.335 32.7156Z" fill="black"/>
<path id="Vector_99" opacity="0.1" d="M187.34 37.7532H119.32C118.981 37.7532 118.655 37.6186 118.414 37.3789C118.174 37.1393 118.039 36.8143 118.039 36.4755C118.038 36.3073 118.071 36.1406 118.135 35.985C118.199 35.8294 118.294 35.688 118.413 35.5688C118.532 35.4497 118.673 35.3551 118.829 35.2906C118.985 35.2261 119.152 35.1929 119.32 35.1929H187.34C187.681 35.1942 188.007 35.3299 188.247 35.5702C188.487 35.8106 188.622 36.1361 188.622 36.4755C188.622 36.8143 188.487 37.1393 188.247 37.3789C188.006 37.6186 187.68 37.7532 187.34 37.7532Z" fill="black"/>
<path id="Vector_100" opacity="0.1" d="M187.34 43.4473H119.32C119.152 43.4473 118.985 43.4141 118.829 43.3495C118.673 43.285 118.532 43.1905 118.413 43.0713C118.294 42.9522 118.199 42.8107 118.135 42.6551C118.071 42.4996 118.038 42.3329 118.039 42.1647C118.039 41.8258 118.174 41.5008 118.414 41.2612C118.655 41.0216 118.981 40.887 119.32 40.887H187.34C187.68 40.887 188.006 41.0216 188.247 41.2612C188.487 41.5008 188.622 41.8258 188.622 42.1647C188.622 42.504 188.487 42.8295 188.247 43.0699C188.007 43.3103 187.681 43.446 187.34 43.4473Z" fill="black"/>
<path id="Vector_101" opacity="0.1" d="M187.34 49.1365H119.32C118.981 49.1365 118.655 49.0019 118.414 48.7623C118.174 48.5226 118.039 48.1977 118.039 47.8588C118.039 47.5199 118.174 47.1949 118.414 46.9553C118.655 46.7157 118.981 46.5811 119.32 46.5811H187.34C187.68 46.5811 188.006 46.7157 188.246 46.9553C188.487 47.1949 188.622 47.5199 188.622 47.8588C188.622 48.1977 188.487 48.5226 188.246 48.7623C188.006 49.0019 187.68 49.1365 187.34 49.1365Z" fill="black"/>
<path id="Vector_102" opacity="0.1" d="M187.34 54.8304H119.32C118.981 54.8304 118.655 54.6957 118.414 54.4561C118.174 54.2165 118.039 53.8915 118.039 53.5526C118.038 53.3847 118.071 53.2182 118.135 53.0629C118.199 52.9076 118.294 52.7665 118.413 52.6477C118.532 52.5289 118.674 52.4348 118.829 52.3709C118.985 52.3069 119.152 52.2743 119.32 52.2749H187.34C187.68 52.2749 188.006 52.4095 188.247 52.6491C188.487 52.8888 188.622 53.2138 188.622 53.5526C188.622 53.8915 188.487 54.2165 188.247 54.4561C188.006 54.6957 187.68 54.8304 187.34 54.8304Z" fill="black"/>
<path id="Vector_103" opacity="0.1" d="M187.34 60.5242H119.32C118.981 60.5242 118.655 60.3896 118.414 60.1499C118.174 59.9103 118.039 59.5853 118.039 59.2465C118.038 59.0783 118.071 58.9116 118.135 58.756C118.199 58.6004 118.294 58.459 118.413 58.3398C118.532 58.2207 118.673 58.1261 118.829 58.0616C118.985 57.9971 119.152 57.9639 119.32 57.9639H187.34C187.681 57.9652 188.007 58.1008 188.247 58.3412C188.487 58.5816 188.622 58.9071 188.622 59.2465C188.622 59.5853 188.487 59.9103 188.247 60.1499C188.006 60.3896 187.68 60.5242 187.34 60.5242Z" fill="black"/>
<path id="Vector_104" opacity="0.1" d="M187.345 63.6577H119.32C118.613 63.6577 118.039 64.2298 118.039 64.9354V64.9403C118.039 65.646 118.613 66.218 119.32 66.218H187.345C188.053 66.218 188.627 65.646 188.627 64.9403V64.9354C188.627 64.2298 188.053 63.6577 187.345 63.6577Z" fill="black"/>
<path id="Vector_105" opacity="0.1" d="M187.34 71.9024H119.32C118.981 71.9024 118.655 71.7678 118.414 71.5281C118.174 71.2885 118.039 70.9635 118.039 70.6246C118.039 70.2858 118.174 69.9608 118.414 69.7212C118.655 69.4815 118.981 69.3469 119.32 69.3469H187.34C187.68 69.3469 188.006 69.4815 188.246 69.7212C188.487 69.9608 188.622 70.2858 188.622 70.6246C188.622 70.9635 188.487 71.2885 188.246 71.5281C188.006 71.7678 187.68 71.9024 187.34 71.9024Z" fill="black"/>
<path id="Vector_106" opacity="0.1" d="M187.34 77.6011H119.32C118.981 77.6011 118.655 77.4665 118.414 77.2269C118.174 76.9873 118.039 76.6623 118.039 76.3234C118.038 76.1554 118.071 75.989 118.135 75.8337C118.199 75.6784 118.294 75.5372 118.413 75.4185C118.532 75.2997 118.674 75.2056 118.829 75.1416C118.985 75.0776 119.152 75.045 119.32 75.0457H187.34C187.68 75.0457 188.006 75.1803 188.247 75.4199C188.487 75.6595 188.622 75.9845 188.622 76.3234C188.622 76.6623 188.487 76.9873 188.247 77.2269C188.006 77.4665 187.68 77.6011 187.34 77.6011Z" fill="black"/>
<path id="Vector_107" opacity="0.1" d="M187.34 83.2949H119.32C118.981 83.2949 118.655 83.1603 118.414 82.9207C118.174 82.6811 118.039 82.3561 118.039 82.0172C118.038 81.849 118.071 81.6823 118.135 81.5268C118.199 81.3712 118.294 81.2297 118.413 81.1106C118.532 80.9914 118.673 80.8969 118.829 80.8323C118.985 80.7678 119.152 80.7346 119.32 80.7346H187.34C187.681 80.7359 188.007 80.8716 188.247 81.112C188.487 81.3524 188.622 81.6779 188.622 82.0172C188.622 82.3561 188.487 82.6811 188.247 82.9207C188.006 83.1603 187.68 83.2949 187.34 83.2949Z" fill="black"/>
<path id="Vector_108" opacity="0.1" d="M187.34 88.9888H119.32C119.152 88.9888 118.985 88.9556 118.829 88.8911C118.673 88.8265 118.532 88.732 118.413 88.6128C118.294 88.4937 118.199 88.3522 118.135 88.1967C118.071 88.0411 118.038 87.8744 118.039 87.7062C118.039 87.3673 118.174 87.0423 118.414 86.8027C118.655 86.5631 118.981 86.4285 119.32 86.4285H187.34C187.68 86.4285 188.006 86.5631 188.247 86.8027C188.487 87.0423 188.622 87.3673 188.622 87.7062C188.622 88.0455 188.487 88.371 188.247 88.6114C188.007 88.8518 187.681 88.9875 187.34 88.9888Z" fill="black"/>
<path id="Vector_109" opacity="0.1" d="M148.366 94.678H119.32C118.981 94.678 118.655 94.5434 118.414 94.3038C118.174 94.0642 118.039 93.7392 118.039 93.4003C118.039 93.0614 118.174 92.7364 118.414 92.4968C118.655 92.2572 118.981 92.1226 119.32 92.1226H148.366C148.706 92.1226 149.032 92.2572 149.272 92.4968C149.512 92.7364 149.647 93.0614 149.647 93.4003C149.647 93.7392 149.512 94.0642 149.272 94.3038C149.032 94.5434 148.706 94.678 148.366 94.678Z" fill="black"/>
<path id="Vector_110" d="M182.106 38.1763L182.013 38.0985C181.75 37.8993 181.599 37.9674 181.477 37.5835C181.389 37.3066 181.477 36.9957 181.375 36.7091C181.143 36.2156 180.877 35.7384 180.581 35.2807L179.382 33.1285C179.115 32.6519 178.669 32.3005 178.142 32.1512C177.615 32.0018 177.05 32.0668 176.571 32.3318L165.537 38.4629C165.493 38.8321 165.186 39.0848 165.123 39.4345C165.101 39.5379 165.106 39.6452 165.139 39.7457C165.171 39.8462 165.229 39.9366 165.308 40.0078C165.184 40.0054 165.064 39.9627 164.967 39.8864C164.309 39.522 164.134 39.2305 163.456 39.5997C163.164 39.7552 162.877 39.9204 162.589 40.0856L159.666 41.7131L150.507 46.7997L139.789 52.7657L130.859 57.726C129.641 58.4013 128.165 58.994 127.079 59.8539C127.381 60.0094 127.434 60.2474 127.166 60.4806L126.679 60.9227C126.679 61.0442 126.854 61.0442 126.967 60.9956L127.571 60.7381C127.151 61.2695 126.645 61.7276 126.075 62.0936C125.117 62.6482 124.088 63.0699 123.015 63.347L123.532 62.7008C123.571 62.6474 123.62 62.5794 123.585 62.5162C123.551 62.4531 123.488 62.4482 123.43 62.4433C123.171 62.4142 122.913 62.4434 122.723 62.2539C121.057 63.2255 119.313 64.1486 117.618 65.0911C117.14 65.358 116.787 65.8028 116.637 66.3282C116.488 66.8536 116.553 67.4167 116.819 67.8943L127.946 87.8133C128.077 88.0496 128.254 88.2576 128.467 88.4256C128.679 88.5936 128.922 88.7181 129.183 88.7921C129.444 88.8662 129.717 88.8882 129.986 88.8569C130.255 88.8257 130.515 88.7418 130.752 88.61L133.68 86.9631C133.68 86.6181 133.953 86.2343 133.748 85.9186C133.719 85.8802 133.701 85.835 133.694 85.7874C133.694 85.7242 133.753 85.6756 133.807 85.6416C134.107 85.4516 134.45 85.3412 134.805 85.321C134.927 85.321 135.088 85.3744 135.068 85.491C135.068 85.3841 135.697 85.1607 135.799 85.1267C135.848 85.389 135.668 85.6708 135.974 85.7242C136.281 85.7777 136.749 85.2384 136.949 85.1412L139.872 83.5137L149.128 78.3785L159.281 72.738L166.029 68.9875C166.272 68.8466 166.56 68.6814 166.794 68.5648C166.878 68.1193 167.095 67.7095 167.417 67.3891C167.904 67.0539 168.674 67.4231 169.078 66.947C169.156 66.8547 169.205 66.7429 169.273 66.6458C169.409 66.4877 169.575 66.3574 169.76 66.262C169.878 66.1697 170.02 66.114 170.17 66.1016C170.316 66.1016 170.472 66.2231 170.452 66.3688C171.456 66.1356 172.362 65.4603 173.249 64.9599C173.57 64.7802 176.391 63.4587 176.381 63.2498C176.342 62.6037 176.737 62.0498 176.717 61.3843C176.717 61.2579 176.469 60.4126 176.581 60.3494C174.048 61.8555 171.417 63.2255 168.835 64.6539C168.747 64.7073 168.416 64.819 168.348 64.9162C168.348 64.9162 168.323 64.9599 168.314 64.9842L168.24 65.1446V65.1834C168.136 65.514 168.012 65.8385 167.87 66.1551C167.87 66.1988 167.32 66.879 167.276 66.7186C167.061 65.9365 166.789 65.815 166.189 66.1356L165.332 66.6215L162.609 68.1324L153.435 73.2336L142.625 79.2384L133.617 84.2424L129.841 86.3364C129.087 84.976 128.329 83.6173 127.566 82.2603L126.104 79.6417C125.956 79.2786 125.738 78.9484 125.461 78.67C125.252 78.5145 124.896 78.5534 124.711 78.4125C124.258 78.0676 123.931 77.4409 123.503 77.0376C123.21 76.7656 122.767 75.9494 122.889 75.4975C123.035 75.5558 123.181 75.619 123.327 75.6627C123.251 75.3636 123.268 75.0483 123.376 74.7591C121.914 72.3057 120.57 69.7405 119.172 67.2336L119.079 67.0733L122.489 65.1786L124.979 63.794C125.491 63.5745 125.98 63.306 126.44 62.9923C126.757 62.7203 127.079 62.3802 127.415 62.0887C127.64 61.9176 127.886 61.774 128.146 61.6612L129.066 61.2142C129.114 61.1858 129.167 61.1692 129.222 61.1656C129.277 61.1716 129.331 61.1847 129.383 61.2045C129.87 61.3065 131.078 60.4077 131.517 60.1648L134.352 58.5907L142.907 53.8345L153.567 47.9171L164.236 41.9851L172.82 37.2192L177.205 34.79L177.409 34.6783L182.149 43.1657C182.443 43.7378 182.912 44.201 183.489 44.4872C183.684 44.5503 183.903 44.6863 183.879 44.8855C183.855 45.0847 183.562 45.2499 183.63 45.454C183.699 45.658 184.074 45.5803 184.162 45.7649C184.249 45.9495 184.01 46.2507 184.04 46.5033C184.14 46.8058 184.29 47.0897 184.483 47.3438L185.862 49.8167C186.632 51.1867 187.396 52.5616 188.171 53.9462L179.743 58.6296C179.784 58.6631 179.819 58.7044 179.845 58.7511L179.889 58.8628C180.056 58.9219 180.219 58.9934 180.376 59.0766C180.443 59.114 180.499 59.1692 180.537 59.236C180.574 59.3029 180.593 59.3788 180.59 59.4555C180.589 59.5313 180.568 59.6055 180.529 59.6704C180.489 59.7353 180.433 59.7885 180.366 59.8247L179.85 60.1162C179.832 60.2289 179.779 60.3333 179.7 60.4157C179.621 60.4982 179.519 60.5547 179.407 60.5778C179.347 60.5828 179.286 60.5828 179.226 60.5778C179.175 60.6152 179.116 60.6412 179.054 60.6537C178.992 60.6663 178.928 60.6653 178.866 60.6506C178.756 60.6168 178.663 60.5419 178.606 60.4414C178.55 60.341 178.535 60.2228 178.564 60.1114C178.584 60.0614 178.61 60.0141 178.642 59.9705C178.605 59.8997 178.588 59.8202 178.593 59.7405C178.598 59.6609 178.625 59.5841 178.671 59.5187H178.515C178.427 59.5187 178.349 59.4701 178.267 59.4458C177.828 59.7157 177.487 60.1171 177.292 60.5923C177.271 60.6183 177.261 60.6513 177.263 60.6847C177.263 60.7527 177.37 60.7575 177.434 60.7867C177.58 60.8547 177.546 61.0685 177.473 61.2094C177.399 61.3502 177.312 61.53 177.409 61.6563C177.446 61.6988 177.487 61.7379 177.531 61.7729C177.74 62.011 177.419 62.7008 177.93 62.4191C177.895 62.269 177.917 62.111 177.994 61.977C178.08 61.8417 178.214 61.7431 178.369 61.7C178.748 61.6084 179.134 61.5531 179.524 61.5349L189.681 55.8701C190.159 55.6032 190.512 55.1584 190.661 54.633C190.811 54.1077 190.746 53.5445 190.48 53.0669L190.422 52.9649L185.833 44.7495L183.182 39.9981C182.924 39.5463 182.695 39.075 182.413 38.6281C182.335 38.4622 182.231 38.3097 182.106 38.1763Z" fill="#A1DC5F"/>
<path id="Vector_111" d="M135.17 65.0182C134.834 64.6102 134.936 64.6004 134.873 64.1632C134.873 64.1632 134.873 64.1632 134.873 64.134L134.834 64.0903L134.775 64.0223C134.546 64.1243 134.317 64.2361 134.088 64.3624L129.602 66.8547L131.409 70.0854C131.156 69.6385 132.052 69.7696 132.086 69.7648C132.181 69.7368 132.279 69.7205 132.378 69.7162C132.476 69.7368 132.561 69.7943 132.617 69.8765C132.805 70.2032 132.86 70.5889 132.773 70.9551C132.72 71.4409 132.978 71.9267 132.7 72.4125C132.939 72.8012 135.097 76.717 135.107 76.7121L139.594 74.2198C139.852 74.0741 140.466 73.8166 140.617 73.5591C140.768 73.3016 140.529 72.8984 140.797 72.7769C140.898 72.74 141.006 72.7261 141.113 72.7362C141.22 72.7463 141.323 72.7801 141.416 72.8352C142.27 71.9914 142.82 70.8885 142.977 69.6996C143.135 68.5108 142.893 67.3033 142.288 66.2668C141.026 64.0077 138.161 62.662 135.652 63.7114C135.477 63.7842 135.711 64.5664 135.292 64.6539C135.372 64.4972 135.487 64.3609 135.628 64.2555M138.424 72.3883L136.334 73.5494C136.164 73.2433 135.998 72.9372 135.823 72.6409C136.042 73.0101 135.438 72.8935 135.311 72.8109C135.004 72.6069 134.922 72.019 134.912 71.6887C134.904 71.1221 134.735 70.5694 134.425 70.0951C133.934 69.2109 133.447 68.3267 132.963 67.4425L135.053 66.2814C137.002 65.1931 138.951 65.645 140.003 67.53C141.055 69.415 140.388 71.3146 138.424 72.3883Z" fill="#A1DC5F"/>
<path id="Vector_112" d="M150.004 56.7446C150.111 56.9754 150.141 57.2338 150.092 57.4831C150.067 57.6191 149.848 57.9689 149.877 58.0563C149.955 58.2507 150.033 58.445 150.106 58.6393C150.119 58.6711 150.138 58.7006 150.16 58.7268C150.197 58.7519 150.241 58.7654 150.287 58.7656C151.061 58.8337 151.027 58.9114 151.076 59.5624C151.12 60.1211 151.602 60.4418 151.875 60.9276C152.241 61.5659 152.4 62.3017 152.331 63.0339C152.261 63.7661 151.965 64.4587 151.485 65.0167C151.004 65.5747 150.362 65.9706 149.647 66.1501C148.932 66.3296 148.178 66.2838 147.49 66.0191C147.472 66.0367 147.452 66.0529 147.432 66.0676C147.329 66.1191 147.212 66.1328 147.1 66.1065C146.847 66.035 146.618 65.8966 146.437 65.7059C146.256 65.5152 146.13 65.2793 146.072 65.0231C146.065 64.9846 146.065 64.945 146.072 64.9065C145.935 64.7364 145.812 64.5543 145.707 64.3624C145.457 63.9609 145.292 63.5123 145.224 63.0445C145.155 62.5768 145.184 62.0999 145.309 61.6439C145.434 61.1878 145.652 60.7624 145.949 60.3942C146.247 60.026 146.617 59.723 147.037 59.5041C147.646 59.1576 148.345 58.9987 149.044 59.0474L149.005 58.9891C148.586 58.4353 150.097 58.2118 149.415 57.8377C149.127 57.6823 149.176 56.9778 149.103 56.6912C147.996 56.7161 146.913 57.0149 145.951 57.5608C142.833 59.2952 141.756 62.73 143.393 65.6595C144.082 66.9199 145.221 67.8755 146.584 68.3365C146.905 68.4756 147.248 68.5547 147.597 68.5696C147.997 68.5356 147.802 68.5696 147.972 68.3316C148.143 68.0935 148.041 67.9915 148.299 67.7389C148.557 67.4862 148.859 67.3356 148.913 66.947C148.913 67.1219 149.108 67.2482 149.108 67.4328C149.108 67.4863 149.108 67.5397 149.108 67.5883C149.118 67.6518 149.147 67.7109 149.19 67.7583C149.356 67.9818 149.634 68.2441 149.639 68.5016C150.351 68.3837 151.036 68.1332 151.656 67.7632C154.759 66.0385 155.86 62.6085 154.213 59.6693C153.361 58.1681 151.758 56.8418 150.004 56.7446Z" fill="#A1DC5F"/>
<path id="Vector_113" d="M159.969 49.9819L163.311 55.9624L155.058 52.7074L153.168 53.7616C154.444 56.045 155.799 58.3041 156.997 60.6312C157.08 60.3786 157.275 60.33 157.509 60.296C157.947 60.2377 157.933 60.4563 158.171 60.8887C158.201 60.9421 158.235 60.9956 158.288 61.0053C158.342 61.015 158.449 60.9276 158.537 60.9373C158.624 60.947 158.658 61.0539 158.634 61.1365C158.603 61.2174 158.562 61.2941 158.512 61.3648C158.371 61.632 158.605 61.802 158.576 62.045C158.576 62.1713 158.152 62.6863 158.201 62.7737L158.688 63.6093L160.948 62.3559L160.344 61.2774H160.232C159.574 61.3648 159.867 60.5049 159.721 60.1502C159.484 59.6478 159.215 59.161 158.917 58.6927L157.587 56.3559L164.295 58.9891C164.278 58.797 164.301 58.6033 164.363 58.4207C164.417 58.3187 164.851 58.1292 164.851 58.032C164.876 58.3453 165.022 58.6365 165.26 58.8434C165.518 59.0717 165.518 59.0377 165.469 59.4409L165.869 59.6012L167.749 58.5567L162.244 48.709L159.969 49.9819Z" fill="#A1DC5F"/>
<path id="Vector_114" d="M171.325 54.1842L170.048 51.9056L174.638 49.355L173.663 47.5818L169.079 50.1324L167.885 47.9899L170.984 46.27C171.115 46.1017 171.281 45.9641 171.471 45.8668C171.567 45.8175 171.678 45.8054 171.783 45.8328L173.093 45.1089C173.093 45.1089 172.163 43.4522 172.075 43.2773C171.627 43.4814 172.075 44.045 171.622 44.317C171.714 44.4142 171.851 44.7591 171.622 44.8028C171.49 44.8028 171.393 44.6377 171.261 44.6522C171.13 44.6668 171.125 44.73 171.057 44.7105C171.036 44.7047 171.017 44.6942 171.001 44.6799C170.985 44.6656 170.972 44.6478 170.964 44.6279C170.901 44.4814 170.821 44.3428 170.725 44.215C170.419 43.9186 167.617 45.7794 167.228 45.998L164.621 47.4555L170.121 57.3032L172.319 56.0838L172.362 56.0255C172.523 55.8214 172.679 55.6125 172.85 55.423C172.919 55.3574 173.007 55.3158 173.102 55.3044C173.197 55.293 173.293 55.3125 173.376 55.3599C173.415 55.3803 173.45 55.4084 173.478 55.4425L177.77 53.0571L176.747 51.2255L171.325 54.1842Z" fill="#A1DC5F"/>
</g>
<g id="freepik--Plant--inject-62">
<path id="Vector_115" d="M177.181 158.968C177.181 158.968 173.976 152.001 177.634 145.126C181.293 138.252 182.36 136.634 180.026 135.23C177.693 133.826 176.616 140.725 176.616 140.725C176.616 140.725 174.667 135.973 176.27 131.008C177.873 126.043 178.916 117.94 176.699 117.07C174.482 116.2 176.275 127.17 174.351 130.911C173.369 128.285 172.736 125.543 172.465 122.754C172.202 118.761 172.616 112.387 170.862 110.749C169.109 109.112 167.993 110.263 169.713 119.057C170.746 124.324 171.319 129.67 171.423 135.036C171.423 135.036 167.618 123.473 165.089 123.138C162.561 122.803 162.541 126.539 164.729 129.789C166.916 133.039 171.106 138.85 171.793 141.862C171.793 141.862 167.623 133.165 163.867 135.828C160.11 138.49 167.136 143.752 170.263 145.651C173.391 147.551 175.569 159.449 175.569 159.449L177.181 158.968Z" fill="#A1DC5F"/>
<path id="Vector_116" opacity="0.2" d="M177.181 158.968C177.181 158.968 173.976 152.001 177.634 145.126C181.293 138.252 182.36 136.634 180.026 135.23C177.693 133.826 176.616 140.725 176.616 140.725C176.616 140.725 174.667 135.973 176.27 131.008C177.873 126.043 178.916 117.94 176.699 117.07C174.482 116.2 176.275 127.17 174.351 130.911C173.369 128.285 172.736 125.543 172.465 122.754C172.202 118.761 172.616 112.387 170.862 110.749C169.109 109.112 167.993 110.263 169.713 119.057C170.746 124.324 171.319 129.67 171.423 135.036C171.423 135.036 167.618 123.473 165.089 123.138C162.561 122.803 162.541 126.539 164.729 129.789C166.916 133.039 171.106 138.85 171.793 141.862C171.793 141.862 167.623 133.165 163.867 135.828C160.11 138.49 167.136 143.752 170.263 145.651C173.391 147.551 175.569 159.449 175.569 159.449L177.181 158.968Z" fill="black"/>
<path id="Vector_117" d="M174.648 161.829C174.648 161.829 177.771 154.809 174.029 147.993C170.288 141.177 169.201 139.574 171.52 138.131C173.839 136.688 174.989 143.577 174.989 143.577C174.989 143.577 176.899 138.801 175.218 133.86C173.537 128.92 172.417 120.83 174.624 119.932C176.831 119.033 175.169 130.027 177.138 133.734C178.088 131.096 178.688 128.346 178.921 125.553C179.14 121.554 178.648 115.185 180.382 113.524C182.117 111.862 183.252 112.98 181.634 121.817C180.665 127.096 180.158 132.449 180.119 137.815C180.119 137.815 183.783 126.199 186.331 125.825C188.879 125.451 188.918 129.192 186.774 132.471C184.631 135.75 180.489 141.629 179.832 144.617C179.832 144.617 183.9 135.872 187.685 138.471C191.471 141.07 184.514 146.438 181.41 148.382C178.307 150.325 176.256 162.267 176.256 162.267L174.648 161.829Z" fill="#A1DC5F"/>
<path id="Vector_118" d="M189.041 156.825H163.27L165.355 175.219H186.956L189.041 156.825Z" fill="#263238"/>
</g>
<g id="freepik--speech-bubble--inject-62">
<path id="Vector_119" d="M57.204 41.1738H40.1966C39.5415 41.1738 38.9132 41.4333 38.45 41.8953C37.9868 42.3572 37.7266 42.9837 37.7266 43.637V60.126C37.7266 60.7792 37.9868 61.4057 38.45 61.8677C38.9132 62.3296 39.5415 62.5891 40.1966 62.5891H45.6384L41.9748 67.5543L48.3081 62.5891H57.1992C57.8542 62.5891 58.4825 62.3296 58.9457 61.8677C59.4089 61.4057 59.6692 60.7792 59.6692 60.126V43.637C59.6692 42.9846 59.4096 42.3588 58.9474 41.897C58.4853 41.4352 57.8583 41.1751 57.204 41.1738Z" fill="#A1DC5F"/>
<path id="Vector_120" opacity="0.6" d="M57.204 41.1738H40.1966C39.5415 41.1738 38.9132 41.4333 38.45 41.8953C37.9868 42.3572 37.7266 42.9837 37.7266 43.637V60.126C37.7266 60.7792 37.9868 61.4057 38.45 61.8677C38.9132 62.3296 39.5415 62.5891 40.1966 62.5891H45.6384L41.9748 67.5543L48.3081 62.5891H57.1992C57.8542 62.5891 58.4825 62.3296 58.9457 61.8677C59.4089 61.4057 59.6692 60.7792 59.6692 60.126V43.637C59.6692 42.9846 59.4096 42.3588 58.9474 41.897C58.4853 41.4352 57.8583 41.1751 57.204 41.1738Z" fill="white"/>
<path id="Vector_121" d="M48.7062 59.5819C52.9708 59.5819 56.428 56.1343 56.428 51.8815C56.428 47.6287 52.9708 44.1812 48.7062 44.1812C44.4415 44.1812 40.9844 47.6287 40.9844 51.8815C40.9844 56.1343 44.4415 59.5819 48.7062 59.5819Z" fill="#A1DC5F"/>
<path id="Vector_122" opacity="0.2" d="M55.1427 53.3931C55.9827 49.8442 53.7786 46.2882 50.2198 45.4506C46.6611 44.613 43.0952 46.8109 42.2552 50.3598C41.4153 53.9087 43.6193 57.4647 47.1781 58.3023C50.7369 59.1399 54.3028 56.942 55.1427 53.3931Z" fill="black"/>
<path id="Vector_123" d="M47.8794 55.0344C47.7897 55.0363 47.7004 55.0206 47.6168 54.988C47.5332 54.9555 47.4569 54.9069 47.3922 54.8449L44.5812 52.1C44.4519 51.975 44.3778 51.8039 44.3751 51.6245C44.3723 51.445 44.4412 51.2717 44.5665 51.1429C44.6919 51.014 44.8634 50.9401 45.0434 50.9374C45.2234 50.9347 45.3971 51.0033 45.5263 51.1283L47.8307 53.3777L51.8158 48.9421C51.938 48.8193 52.1028 48.7479 52.2762 48.7427C52.4496 48.7375 52.6184 48.7989 52.7478 48.9142C52.8771 49.0295 52.9572 49.1899 52.9714 49.3623C52.9856 49.5347 52.933 49.706 52.8243 49.8409L48.3666 54.8012C48.3051 54.8698 48.2301 54.925 48.1463 54.9635C48.0625 55.0019 47.9716 55.0227 47.8794 55.0247V55.0344Z" fill="white"/>
</g>
<g id="freepik--Character--inject-62">
<path id="Vector_124" d="M26.637 164.171L40.6727 162.791V147.007H46.2363V162.787L60.3304 164.171C61.0058 164.236 61.6325 164.55 62.0883 165.052C62.5442 165.553 62.7963 166.205 62.7955 166.882V168.986H24.1719V166.882C24.1711 166.205 24.4233 165.553 24.8791 165.052C25.3349 164.55 25.9616 164.236 26.637 164.171Z" fill="#263238"/>
<path id="Vector_125" opacity="0.1" d="M26.637 164.171L40.6727 162.791V147.007H46.2363V162.787L60.3304 164.171C61.0058 164.236 61.6325 164.55 62.0883 165.052C62.5442 165.553 62.7963 166.205 62.7955 166.882V168.986H24.1719V166.882C24.1711 166.205 24.4233 165.553 24.8791 165.052C25.3349 164.55 25.9616 164.236 26.637 164.171Z" fill="white"/>
<path id="Vector_126" d="M61.315 175.219C63.3249 175.219 64.9543 173.594 64.9543 171.59C64.9543 169.585 63.3249 167.96 61.315 167.96C59.3051 167.96 57.6758 169.585 57.6758 171.59C57.6758 173.594 59.3051 175.219 61.315 175.219Z" fill="#263238"/>
<path id="Vector_127" d="M25.6588 175.219C27.6687 175.219 29.298 173.594 29.298 171.59C29.298 169.585 27.6687 167.96 25.6588 167.96C23.6489 167.96 22.0195 169.585 22.0195 171.59C22.0195 173.594 23.6489 175.219 25.6588 175.219Z" fill="#263238"/>
<path id="Vector_128" d="M45.1833 151.233H41.7145C41.1809 151.233 40.6691 151.022 40.2918 150.646C39.9145 150.269 39.7025 149.759 39.7025 149.227V133.71H47.1953V149.227C47.1953 149.759 46.9833 150.269 46.606 150.646C46.2287 151.022 45.7169 151.233 45.1833 151.233Z" fill="#263238"/>
<path id="Vector_129" opacity="0.2" d="M45.1833 151.233H41.7145C41.1809 151.233 40.6691 151.022 40.2918 150.646C39.9145 150.269 39.7025 149.759 39.7025 149.227V133.71H47.1953V149.227C47.1953 149.759 46.9833 150.269 46.606 150.646C46.2287 151.022 45.7169 151.233 45.1833 151.233Z" fill="white"/>
<path id="Vector_130" d="M24.0238 103.297C24.0238 103.297 28.1941 129.23 36.4274 133.714H28.0577C28.0577 133.714 19.7756 124.872 17.2812 103.297H24.0238Z" fill="#263238"/>
<path id="Vector_131" opacity="0.1" d="M24.0238 103.297C24.0238 103.297 28.1941 129.23 36.4274 133.714H28.0577C28.0577 133.714 19.7756 124.872 17.2812 103.297H24.0238Z" fill="white"/>
<path id="Vector_132" d="M27.6625 130.046H60.2646C60.9106 130.046 61.5302 130.302 61.987 130.758C62.4438 131.213 62.7005 131.831 62.7005 132.475V135.725H25.2266V132.475C25.2266 131.831 25.4832 131.213 25.94 130.758C26.3968 130.302 27.0164 130.046 27.6625 130.046Z" fill="#A1DC5F"/>
<path id="Vector_133" d="M63.2659 132.884H24.6277C24.0869 132.884 23.6484 133.321 23.6484 133.86V134.744C23.6484 135.284 24.0869 135.721 24.6277 135.721H63.2659C63.8068 135.721 64.2452 135.284 64.2452 134.744V133.86C64.2452 133.321 63.8068 132.884 63.2659 132.884Z" fill="#263238"/>
<path id="Vector_134" opacity="0.6" d="M63.2659 132.884H24.6277C24.0869 132.884 23.6484 133.321 23.6484 133.86V134.744C23.6484 135.284 24.0869 135.721 24.6277 135.721H63.2659C63.8068 135.721 64.2452 135.284 64.2452 134.744V133.86C64.2452 133.321 63.8068 132.884 63.2659 132.884Z" fill="white"/>
<path id="Vector_135" d="M16.2964 108.573H29.689C33.6157 108.573 36.1636 105.434 35.3841 101.562L34.3416 96.3931C33.5621 92.5065 29.7474 89.3875 25.8256 89.3875H12.4331C8.50638 89.3875 5.95842 92.5259 6.73791 96.3931L7.78048 101.562C8.55997 105.425 12.3697 108.573 16.2964 108.573Z" fill="#A1DC5F"/>
<path id="Vector_136" d="M87.3615 152.01L84.2922 153.21L82.0853 149.062L80.0781 145.287L83.4787 143.256L85.5345 147.886L87.3615 152.01Z" fill="#E4897B"/>
<path id="Vector_137" opacity="0.2" d="M85.5345 147.886L82.0853 149.062L80.0781 145.287L83.4787 143.256L85.5345 147.886Z" fill="black"/>
<path id="Vector_138" d="M84.8919 145.622L80.7168 147.857C80.7168 147.857 64.937 120.189 62.5109 120.422C60.0847 120.655 37.0654 135.279 30.0452 129.876C23.0249 124.474 29.8552 108.208 29.8552 108.208C29.8552 108.208 44.378 104.069 45.9321 107.237C46.3417 108.185 46.6899 109.159 46.9747 110.152C47.2816 111.148 47.5154 111.988 47.5154 111.988C47.9588 111.808 62.3014 105.945 68.7029 109.073C75.236 112.289 84.8919 145.622 84.8919 145.622Z" fill="#263238"/>
<path id="Vector_139" opacity="0.3" d="M84.8919 145.622L80.7168 147.857C80.7168 147.857 64.937 120.189 62.5109 120.422C60.0847 120.655 37.0654 135.279 30.0452 129.876C23.0249 124.474 29.8552 108.208 29.8552 108.208C29.8552 108.208 44.378 104.069 45.9321 107.237C46.3417 108.185 46.6899 109.159 46.9747 110.152C47.2816 111.148 47.5154 111.988 47.5154 111.988C47.9588 111.808 62.3014 105.945 68.7029 109.073C75.236 112.289 84.8919 145.622 84.8919 145.622Z" fill="white"/>
<path id="Vector_140" d="M62.2123 168.184L58.9384 167.81L58.9189 163.204L58.9141 158.978L62.8748 158.793L62.5241 163.763L62.2123 168.184Z" fill="#E4897B"/>
<path id="Vector_141" opacity="0.2" d="M62.5114 163.865L58.9062 163.292V159.021L62.867 158.812L62.5114 163.865Z" fill="black"/>
<path id="Vector_142" d="M78.6797 146.482L84.7889 143.431L85.4271 146.016L80.7989 148.396L78.6797 146.482Z" fill="#A1DC5F"/>
<path id="Vector_143" d="M40.8945 129.92C40.8945 129.92 41.8981 129.808 57.3369 126.957C57.3369 126.957 57.6876 146.642 58.4184 161.319L63.1733 161.47C63.1733 161.47 69.9938 128.919 69.19 123.983C68.3861 119.047 62.5205 118.401 62.5205 118.401C62.5205 118.401 52.3335 126.315 40.8945 129.92Z" fill="#263238"/>
<path id="Vector_144" opacity="0.4" d="M40.8945 129.92C40.8945 129.92 41.8981 129.808 57.3369 126.957C57.3369 126.957 57.6876 146.642 58.4184 161.319L63.1733 161.47C63.1733 161.47 69.9938 128.919 69.19 123.983C68.3861 119.047 62.5205 118.401 62.5205 118.401C62.5205 118.401 52.3335 126.315 40.8945 129.92Z" fill="white"/>
<path id="Vector_145" opacity="0.3" d="M40.8945 129.92C40.8945 129.92 41.8981 129.808 57.3369 126.957C57.3369 126.957 57.6876 146.642 58.4184 161.319L63.1733 161.47C63.1733 161.47 69.9938 128.919 69.19 123.983C68.3861 119.047 62.5205 118.401 62.5205 118.401C62.5205 118.401 52.3335 126.315 40.8945 129.92Z" fill="black"/>
<path id="Vector_146" d="M57.5469 160.007L64.0312 159.857L63.1446 162.519L57.883 162.568L57.5469 160.007Z" fill="#A1DC5F"/>
<path id="Vector_147" opacity="0.3" d="M47.5425 111.998L39.1289 114.986C39.1289 114.986 43.5525 111.692 47.0017 110.161C47.3087 111.157 47.5425 111.998 47.5425 111.998Z" fill="black"/>
<path id="Vector_148" d="M28.8828 107.208L29.1946 109.535L44.9646 106.197L44.5993 103.447L28.8828 107.208Z" fill="#263238"/>
<path id="Vector_149" opacity="0.2" d="M28.8828 107.208L29.1946 109.535L44.9646 106.197L44.5993 103.447L28.8828 107.208Z" fill="black"/>
<path id="Vector_150" d="M34.1059 105.517L33.3203 105.662L34.0623 109.651L34.8479 109.506L34.1059 105.517Z" fill="#263238"/>
<path id="Vector_151" d="M40.9878 104.507L37.5469 105.281L38.1349 107.883L41.5758 107.109L40.9878 104.507Z" fill="white"/>
<path id="Vector_152" d="M43.201 102.882L42.418 103.026L43.1502 107.001L43.9332 106.858L43.201 102.882Z" fill="#263238"/>
<path id="Vector_153" opacity="0.3" d="M34.1059 105.517L33.3203 105.662L34.0623 109.651L34.8479 109.506L34.1059 105.517Z" fill="white"/>
<path id="Vector_154" opacity="0.3" d="M43.201 102.882L42.418 103.026L43.1502 107.001L43.9332 106.858L43.201 102.882Z" fill="white"/>
<path id="Vector_155" d="M93.4653 157.442C92.9531 157.285 92.4163 157.224 91.882 157.262C91.882 157.262 89.8991 156.436 87.4973 152.506L85.4512 152.773C85.1068 152.825 84.7867 152.981 84.534 153.22C84.2813 153.459 84.1083 153.769 84.0384 154.109C84.0237 154.206 84.0237 154.304 84.0384 154.401C84.1265 154.894 84.2469 155.381 84.3989 155.858C84.9235 157.438 85.5434 158.984 86.255 160.488L86.5863 160.352L85.5291 157.408C85.1784 156.402 86.4012 157.253 87.0491 158.224C87.6971 159.196 88.6179 160.138 90.8053 159.313C93.3484 158.321 94.3568 157.797 93.4653 157.442Z" fill="#263238"/>
<path id="Vector_156" d="M86.9832 151.462C86.9832 151.462 90.2668 156.437 91.8794 157.262C91.8794 157.262 90.072 158.72 87.6604 156.378C84.5473 153.371 84.026 154.401 84.026 154.401C83.9983 153.812 84.026 153.221 84.1089 152.637C84.3573 151.496 86.9832 151.462 86.9832 151.462Z" fill="#E4897B"/>
<path id="Vector_157" d="M67.1237 173.975C66.657 173.707 66.1452 173.526 65.6134 173.44C65.6134 173.44 63.8839 172.172 62.4954 167.79L60.4444 167.567C60.0964 167.534 59.7467 167.61 59.4438 167.784C59.141 167.958 58.8999 168.222 58.7539 168.538C58.7102 168.626 58.6806 168.719 58.6662 168.815C58.6321 169.312 58.6321 169.81 58.6662 170.307C58.7984 171.965 59.0327 173.613 59.3677 175.243L59.7234 175.189L59.4067 172.07C59.3044 171.011 60.2934 172.129 60.6929 173.227C61.0924 174.325 61.7598 175.457 64.0788 175.17C66.7875 174.806 67.8885 174.534 67.1237 173.975Z" fill="#263238"/>
<path id="Vector_158" d="M62.2527 166.639C62.2527 166.639 64.2598 172.25 65.6288 173.441C65.6288 173.441 63.5291 174.412 61.7314 171.585C59.4173 167.926 58.6719 168.806 58.6719 168.806C58.7808 168.228 58.9439 167.662 59.1591 167.115C59.6755 166.046 62.2527 166.639 62.2527 166.639Z" fill="#E4897B"/>
<path id="Vector_159" d="M25.4518 67.5301L21.3302 68.356C21.1692 68.4913 20.979 68.5876 20.7744 68.6373C20.5699 68.687 20.3566 68.6889 20.1512 68.6427C18.9235 68.1568 17.1551 66.7334 16.931 66.2135C16.5997 65.4799 16.931 63.3277 17.7982 62.9391C18.6653 62.5504 21.6518 66.1455 21.6518 66.1455L26.0802 65.1496L25.4518 67.5301Z" fill="#E4897B"/>
<path id="Vector_160" d="M38.4497 81.1916C38.4497 81.1916 38.0745 67.8751 36.5302 67.3067C34.9858 66.7383 23.3763 68.3269 23.3763 68.3269L23.0938 65.2856C23.0938 65.2856 36.6033 63.2112 39.2194 64.4403C41.8356 65.6694 42.6979 85.5155 42.2205 89.339L38.4497 81.1916Z" fill="#A1DC5F"/>
<path id="Vector_161" opacity="0.6" d="M38.4497 81.1916C38.4497 81.1916 38.0745 67.8751 36.5302 67.3067C34.9858 66.7383 23.3763 68.3269 23.3763 68.3269L23.0938 65.2856C23.0938 65.2856 36.6033 63.2112 39.2194 64.4403C41.8356 65.6694 42.6979 85.5155 42.2205 89.339L38.4497 81.1916Z" fill="white"/>
<path id="Vector_162" d="M23.5743 68.6182L22.7656 65.2757L23.9251 64.8579L24.6608 68.7202L23.5743 68.6182Z" fill="#A1DC5F"/>
<path id="Vector_163" opacity="0.7" d="M23.5743 68.6182L22.7656 65.2757L23.9251 64.8579L24.6608 68.7202L23.5743 68.6182Z" fill="white"/>
<path id="Vector_164" d="M38.3805 79.5298C38.3805 79.5298 37.3428 83.5816 32.3444 84.8739C27.3459 86.1662 21.8164 82.7897 21.8164 82.7897L22.9174 92.4577L29.0364 107.688L44.6749 103.622C44.6749 103.622 43.7395 85.9038 38.3805 79.5298Z" fill="#A1DC5F"/>
<path id="Vector_165" opacity="0.7" d="M38.3805 79.5298C38.3805 79.5298 37.3428 83.5816 32.3444 84.8739C27.3459 86.1662 21.8164 82.7897 21.8164 82.7897L22.9174 92.4577L29.0364 107.688L44.6749 103.622C44.6749 103.622 43.7395 85.9038 38.3805 79.5298Z" fill="white"/>
<path id="Vector_166" opacity="0.6" d="M41.0954 95.5962L42.9259 95.0203C43.1286 94.9565 43.2411 94.7409 43.1772 94.5388L42.0866 91.0917C42.0227 90.8895 41.8065 90.7774 41.6038 90.8411L39.7732 91.4171C39.5705 91.4808 39.458 91.6964 39.522 91.8986L40.6125 95.3456C40.6765 95.5478 40.8927 95.66 41.0954 95.5962Z" fill="#A1DC5F"/>
<path id="Vector_167" opacity="0.2" d="M40.7233 94.5452L42.8047 93.8904L41.9062 91.0502L39.8247 91.7051L40.7233 94.5452Z" fill="black"/>
<path id="Vector_168" d="M40.6599 90.0235L40.1992 90.1685L40.7284 91.8413L41.1891 91.6964L40.6599 90.0235Z" fill="#263238"/>
<path id="Vector_169" d="M27.7477 64.3965C23.8941 64.3965 21.351 68.4677 22.2523 74.9244C23.1536 81.381 26.7636 83.2417 26.7636 83.2417L26.5346 81.6822C30.5422 82.5892 34.674 82.8191 38.758 82.3624C38.758 82.3624 36.8969 77.096 37.501 71.7179C37.501 71.7179 38.7239 64.3868 27.7477 64.3965Z" fill="#263238"/>
<path id="Vector_170" opacity="0.2" d="M35.4047 83.5624L36.9783 89.3923L34.2112 87.2887C34.2112 87.2887 36.9053 93.4296 37.6214 97.0052C37.6214 97.0052 35.2927 90.9178 33.2855 87.5802L32.1114 90.9227L27.3906 86.1276C27.3906 86.1276 31.5609 82.9405 35.4047 83.5624Z" fill="black"/>
<path id="Vector_171" d="M33.1054 85.4426L28.3018 85.5884C30.4308 82.8726 26.582 78.1406 26.582 78.1406L31.3272 79.1657C32.4574 83.8491 34.411 83.99 34.411 83.99L33.1054 85.4426Z" fill="#E4897B"/>
<path id="Vector_172" opacity="0.2" d="M32.6523 82.5277C30.8194 82.3749 29.1146 81.5283 27.8877 80.1618C27.5086 79.4598 27.0719 78.7903 26.582 78.1602L31.3272 79.1901C31.5785 80.3688 32.0264 81.497 32.6523 82.5277Z" fill="black"/>
<path id="Vector_173" d="M31.3217 66.3738C35.4578 66.7188 36.6076 69.0362 36.554 73.3163C36.4906 78.6604 34.9901 82.3381 29.9137 80.7738C23.0152 78.6507 24.4475 65.8006 31.3217 66.3738Z" fill="#E4897B"/>
<path id="Vector_174" d="M33.8963 72.8743C34.1764 73.5185 34.533 74.1269 34.9584 74.6864C34.8222 74.8457 34.6448 74.9648 34.4456 75.0308C34.2464 75.0967 34.0328 75.107 33.8281 75.0605L33.8963 72.8743Z" fill="#DE5753"/>
<path id="Vector_175" d="M31.0977 72.1843L31.9941 71.8928C31.9941 71.8928 31.5166 72.6021 31.0977 72.1843Z" fill="#263238"/>
<path id="Vector_176" d="M31.4119 72.0823C31.2452 72.0007 31.0544 71.9822 30.8751 72.0305C30.6958 72.0788 30.5403 72.1905 30.4375 72.3447C30.5904 72.2751 30.7566 72.2391 30.9247 72.2391C31.0928 72.2391 31.2589 72.2751 31.4119 72.3447V72.0823Z" fill="#263238"/>
<path id="Vector_177" d="M29.7419 70.1148C29.6959 70.1136 29.6521 70.0944 29.6201 70.0614C29.6032 70.0455 29.5896 70.0263 29.5804 70.005C29.5712 69.9836 29.5664 69.9607 29.5664 69.9375C29.5664 69.9143 29.5712 69.8913 29.5804 69.87C29.5896 69.8487 29.6032 69.8295 29.6201 69.8136C29.8918 69.5766 30.215 69.4059 30.5642 69.3148C30.9133 69.2237 31.279 69.2149 31.6322 69.2889C31.678 69.2986 31.7182 69.326 31.7438 69.3652C31.7694 69.4043 31.7783 69.4521 31.7686 69.4978C31.7589 69.5435 31.7314 69.5836 31.6921 69.6091C31.6528 69.6346 31.605 69.6435 31.5591 69.6338C31.2643 69.5738 30.9598 69.5806 30.668 69.6538C30.3762 69.7269 30.1047 69.8646 29.8735 70.0565C29.8571 70.0752 29.8369 70.0901 29.8142 70.1002C29.7914 70.1102 29.7668 70.1152 29.7419 70.1148Z" fill="#263238"/>
<path id="Vector_178" d="M36.2292 70.1876C36.1906 70.1891 36.1527 70.177 36.122 70.1536C35.927 69.9754 35.6947 69.8428 35.4419 69.7655C35.189 69.6882 34.9221 69.6681 34.6605 69.7066C34.6381 69.7127 34.6147 69.7143 34.5917 69.7113C34.5687 69.7084 34.5465 69.701 34.5263 69.6894C34.5062 69.6779 34.4885 69.6626 34.4744 69.6443C34.4602 69.626 34.4497 69.6051 34.4437 69.5827C34.4376 69.5604 34.436 69.5371 34.4389 69.5141C34.4419 69.4912 34.4493 69.4691 34.4609 69.449C34.4724 69.4289 34.4878 69.4113 34.5062 69.3971C34.5245 69.383 34.5455 69.3726 34.5679 69.3665C34.8837 69.3109 35.2081 69.3279 35.5162 69.4163C35.8244 69.5047 36.1083 69.6622 36.3461 69.8767C36.3822 69.9062 36.4054 69.9485 36.4108 69.9947C36.4163 70.0409 36.4036 70.0874 36.3753 70.1244C36.3577 70.1457 36.3353 70.1625 36.3099 70.1735C36.2845 70.1845 36.2568 70.1893 36.2292 70.1876Z" fill="#263238"/>
<path id="Vector_179" d="M26.1992 72.952C26.1992 72.952 28.4159 69.7261 28.3428 67.0832C28.3428 67.0832 36.8246 64.4209 36.5372 72.7577C36.5372 72.7577 37.95 65.4703 30.8518 64.6978C23.7535 63.9253 22.9302 74.3318 26.3453 77.7326C26.3453 77.7326 24.84 74.9731 26.1992 72.952Z" fill="#263238"/>
<path id="Vector_180" d="M26.8214 73.8797C26.8214 73.3987 26.6301 72.9373 26.2895 72.5966C25.9488 72.256 25.4866 72.064 25.0042 72.0627C23.7083 72.0968 22.8801 74.6716 26.0176 75.5704C26.4658 75.6967 26.7629 75.2741 26.8214 73.8797Z" fill="#E4897B"/>
<path id="Vector_181" d="M33.8637 76.2752C33.5603 76.6816 33.2883 77.1103 33.0501 77.5578C32.9672 77.5286 32.8795 77.5044 32.7967 77.4703C31.6518 77.0671 31.2524 76.4987 31.1598 76.0129C31.1162 75.7661 31.1346 75.5124 31.2134 75.2744C31.254 75.1375 31.313 75.0068 31.3888 74.8857C31.984 75.4499 32.6957 75.8777 33.4739 76.1392C33.7078 76.2266 33.8637 76.2752 33.8637 76.2752Z" fill="#263238"/>
<path id="Vector_182" d="M33.4754 76.1292L33.2269 76.5033C32.1454 76.1195 31.4389 75.7065 31.2148 75.2644C31.2554 75.1275 31.3144 74.9968 31.3902 74.8757C31.9855 75.4399 32.6971 75.8677 33.4754 76.1292Z" fill="white"/>
<path id="Vector_183" d="M32.7932 77.4702C31.6483 77.0669 31.2488 76.4985 31.1562 76.0127C31.5894 76.1718 31.9903 76.4071 32.3401 76.7074C32.5669 76.9086 32.7252 77.1752 32.7932 77.4702Z" fill="#DE5753"/>
<path id="Vector_184" d="M31.2089 66.68C31.2089 66.68 28.9728 73.331 24.6953 72.8743C20.4179 72.4176 27.7499 64.382 27.7499 64.382C27.7499 64.382 34.9651 62.327 38.1074 66.3253C41.2497 70.3237 36.5533 72.748 36.5533 72.748C36.5533 72.748 37.2548 67.5302 31.2089 66.68Z" fill="#263238"/>
<path id="Vector_185" d="M27.7962 72.3398C27.7715 72.3387 27.7476 72.3308 27.727 72.3171C27.7064 72.3034 27.6899 72.2844 27.6793 72.2621C27.6682 72.2311 27.6696 72.1971 27.6832 72.1671C27.6969 72.1372 27.7217 72.1137 27.7524 72.1018C31.1627 70.8046 31.0847 66.2427 31.0847 66.1941C31.0833 66.1782 31.0853 66.1622 31.0906 66.1472C31.0959 66.1321 31.1044 66.1184 31.1155 66.1069C31.1266 66.0954 31.14 66.0864 31.1549 66.0804C31.1697 66.0745 31.1857 66.0719 31.2016 66.0726C31.2333 66.0736 31.2635 66.0859 31.2868 66.1074C31.3101 66.1288 31.3248 66.1579 31.3283 66.1892C31.3283 66.2378 31.4063 70.9698 27.8401 72.3301L27.7962 72.3398Z" fill="#263238"/>
<path id="Vector_186" d="M35.2969 72.5874L36.1933 72.3008C36.1933 72.3008 35.711 73.0052 35.2969 72.5874Z" fill="#263238"/>
<path id="Vector_187" d="M35.6072 72.4856C35.4402 72.4033 35.2486 72.3851 35.069 72.4344C34.8894 72.4836 34.7342 72.597 34.6328 72.7528C34.7835 72.6781 34.9486 72.6367 35.1168 72.6317C35.285 72.6267 35.4523 72.658 35.6072 72.7237V72.4856Z" fill="#263238"/>
<path id="Vector_188" d="M28.9758 83.6255L32.5956 85.4619L32.5371 89.1202L27.3633 86.1129L28.9758 83.6255Z" fill="#A1DC5F"/>
<path id="Vector_189" d="M33.1484 82.9355L33.3628 85.1558L35.7256 87.6481L35.4041 83.5477L33.1484 82.9355Z" fill="#A1DC5F"/>
<path id="Vector_190" d="M16.4202 57.8134L14.91 53.9268C14.9376 53.719 14.9163 53.5077 14.8478 53.3095C14.7793 53.1114 14.6655 52.9318 14.5154 52.7851C13.4631 52.0029 11.2902 51.2936 10.7446 51.3762C9.95049 51.4928 8.30869 52.926 8.44997 53.8636C8.59126 54.8013 13.2292 55.3794 13.2292 55.3794L14.7687 59.6401L16.4202 57.8134Z" fill="#E4897B"/>
<path id="Vector_191" d="M22.926 92.4576C22.926 92.4576 25.8491 90.1402 24.6847 85.0196L21.5424 70.8529L16.1444 56.2197L13.5039 57.5509C13.5039 57.5509 17.9372 71.8488 18.3465 72.8156C18.556 73.3014 19.389 80.72 20.5242 85.69C21.5667 90.2665 22.926 92.4576 22.926 92.4576Z" fill="#A1DC5F"/>
<path id="Vector_192" opacity="0.6" d="M22.926 92.4576C22.926 92.4576 25.8491 90.1402 24.6847 85.0196L21.5424 70.8529L16.1444 56.2197L13.5039 57.5509C13.5039 57.5509 17.9372 71.8488 18.3465 72.8156C18.556 73.3014 19.389 80.72 20.5242 85.69C21.5667 90.2665 22.926 92.4576 22.926 92.4576Z" fill="white"/>
<path id="Vector_193" d="M13.0391 57.1333L16.1229 55.5933L16.7952 56.6184L13.1901 58.2119L13.0391 57.1333Z" fill="#A1DC5F"/>
<path id="Vector_194" opacity="0.7" d="M13.0391 57.1333L16.1229 55.5933L16.7952 56.6184L13.1901 58.2119L13.0391 57.1333Z" fill="white"/>
<path id="Vector_195" opacity="0.6" d="M28.9758 83.6255L32.5956 85.4619L32.5371 89.1202L27.3633 86.1129L28.9758 83.6255Z" fill="white"/>
<path id="Vector_196" opacity="0.6" d="M33.1484 82.9355L33.3628 85.1558L35.7256 87.6481L35.4041 83.5477L33.1484 82.9355Z" fill="white"/>
</g>
<g id="freepik--Desk--inject-62">
<path id="Vector_197" d="M135.948 75.988H121.352V87.2981H135.948V75.988Z" fill="white"/>
<path id="Vector_198" opacity="0.1" d="M135.949 75.988H132.207V87.2981H135.949V75.988Z" fill="black"/>
<path id="Vector_199" d="M120.516 97.287H137.016V76.7607H131.701L120.516 82.1V97.287Z" fill="#A1DC5F"/>
<path id="Vector_200" opacity="0.2" d="M137.014 76.7607H131.699V97.287H137.014V76.7607Z" fill="black"/>
<path id="Vector_201" opacity="0.7" d="M129.942 86.147H122.215V89.8393H129.942V86.147Z" fill="white"/>
<path id="Vector_202" opacity="0.7" d="M129.942 91.0732H122.215V91.6028H129.942V91.0732Z" fill="white"/>
<path id="Vector_203" opacity="0.7" d="M136.499 92.623H132.207V95.7566H136.499V92.623Z" fill="white"/>
<path id="Vector_204" d="M129.744 75.3713H115.148V87.2984H129.744V75.3713Z" fill="white"/>
<path id="Vector_205" opacity="0.1" d="M129.749 75.3713H126.008V87.2984H129.749V75.3713Z" fill="black"/>
<path id="Vector_206" d="M114.312 97.287H130.813V76.7607H125.498L114.312 82.1V97.287Z" fill="#A1DC5F"/>
<path id="Vector_207" opacity="0.2" d="M130.811 76.7607H125.496V97.287H130.811V76.7607Z" fill="black"/>
<path id="Vector_208" opacity="0.7" d="M123.738 86.147H116.012V89.8393H123.738V86.147Z" fill="white"/>
<path id="Vector_209" opacity="0.7" d="M123.738 91.0732H116.012V91.6028H123.738V91.0732Z" fill="white"/>
<path id="Vector_210" opacity="0.7" d="M130.3 92.623H126.008V95.7566H130.3V92.623Z" fill="white"/>
<path id="Vector_211" d="M104.062 175.219H107.049L112.408 100.766H108.447L104.062 175.219Z" fill="#263238"/>
<path id="Vector_212" opacity="0.1" d="M104.062 175.218H107.049L112.145 104.462L112.408 100.887H108.447L108.238 104.462L104.062 175.218Z" fill="white"/>
<path id="Vector_213" opacity="0.2" d="M108.234 104.288H112.142L112.405 100.887H108.444L108.234 104.288Z" fill="black"/>
<path id="Vector_214" d="M82.1591 175.219H85.1455L85.6326 100.766H81.6719L82.1591 175.219Z" fill="#263238"/>
<path id="Vector_215" opacity="0.1" d="M81.668 100.887L81.7508 112.896L82.1551 175.218H85.1416L85.5508 112.896L85.6287 100.887H81.668Z" fill="white"/>
<path id="Vector_216" opacity="0.2" d="M81.668 100.887L81.7508 113.032H85.5508L85.6287 100.887H81.668Z" fill="black"/>
<path id="Vector_217" d="M50.4727 175.219H53.4591L58.8181 100.766H54.8573L50.4727 175.219Z" fill="#263238"/>
<path id="Vector_218" opacity="0.1" d="M50.4727 175.218H53.4591L58.5599 104.462L58.8181 100.887H54.8573L54.6478 104.462L50.4727 175.218Z" fill="white"/>
<path id="Vector_219" opacity="0.2" d="M54.6445 104.288H58.5566L58.8148 100.887H54.854L54.6445 104.288Z" fill="black"/>
<path id="Vector_220" d="M138.204 175.219H141.19L136.801 100.766H132.84L138.204 175.219Z" fill="#263238"/>
<path id="Vector_221" opacity="0.1" d="M132.84 100.887L133.108 104.462L138.204 175.218H141.185L137.015 104.462L136.801 100.887H132.84Z" fill="white"/>
<path id="Vector_222" opacity="0.2" d="M136.801 100.887H132.84L133.108 104.288H137.015L136.801 100.887Z" fill="black"/>
<path id="Vector_223" d="M138.893 102.631L52.779 102.631C52.6408 102.631 52.5039 102.604 52.3763 102.551C52.2486 102.498 52.1326 102.421 52.0349 102.324C51.9372 102.226 51.8596 102.11 51.8068 101.983C51.7539 101.856 51.7267 101.719 51.7267 101.581V98.9046L139.945 98.9046V101.581C139.945 101.719 139.918 101.856 139.865 101.983C139.812 102.11 139.735 102.226 139.637 102.324C139.539 102.421 139.423 102.498 139.296 102.551C139.168 102.604 139.031 102.631 138.893 102.631Z" fill="#A1DC5F"/>
<path id="Vector_224" opacity="0.4" d="M138.893 102.631L52.779 102.631C52.6408 102.631 52.5039 102.604 52.3763 102.551C52.2486 102.498 52.1326 102.421 52.0349 102.324C51.9372 102.226 51.8596 102.11 51.8068 101.983C51.7539 101.856 51.7267 101.719 51.7267 101.581V98.9046L139.945 98.9046V101.581C139.945 101.719 139.918 101.856 139.865 101.983C139.812 102.11 139.735 102.226 139.637 102.324C139.539 102.421 139.423 102.498 139.296 102.551C139.168 102.604 139.031 102.631 138.893 102.631Z" fill="white"/>
<path id="Vector_225" opacity="0.2" d="M51.7267 100.766L139.945 100.766V98.9L51.7267 98.9V100.766Z" fill="black"/>
<path id="Vector_226" d="M49.8736 99.3856H141.79C141.928 99.3863 142.065 99.3596 142.193 99.3071C142.321 99.2546 142.438 99.1773 142.535 99.0797C142.633 98.9821 142.711 98.8662 142.763 98.7386C142.816 98.611 142.843 98.4742 142.842 98.3363C142.842 98.0579 142.731 97.791 142.534 97.5942C142.337 97.3974 142.069 97.2869 141.79 97.2869H49.8736C49.594 97.2869 49.3259 97.3973 49.1278 97.5939C48.9296 97.7906 48.8177 98.0575 48.8164 98.3363C48.8164 98.4745 48.8438 98.6113 48.897 98.739C48.9502 98.8666 49.0281 98.9825 49.1263 99.08C49.2246 99.1775 49.3412 99.2547 49.4694 99.3072C49.5976 99.3596 49.735 99.3863 49.8736 99.3856Z" fill="#A1DC5F"/>
<path id="Vector_227" opacity="0.4" d="M49.8736 99.3856H141.79C141.928 99.3863 142.065 99.3596 142.193 99.3071C142.321 99.2546 142.438 99.1773 142.535 99.0797C142.633 98.9821 142.711 98.8662 142.763 98.7386C142.816 98.611 142.843 98.4742 142.842 98.3363C142.842 98.0579 142.731 97.791 142.534 97.5942C142.337 97.3974 142.069 97.2869 141.79 97.2869H49.8736C49.594 97.2869 49.3259 97.3973 49.1278 97.5939C48.9296 97.7906 48.8177 98.0575 48.8164 98.3363C48.8164 98.4745 48.8438 98.6113 48.897 98.739C48.9502 98.8666 49.0281 98.9825 49.1263 99.08C49.2246 99.1775 49.3412 99.2547 49.4694 99.3072C49.5976 99.3596 49.735 99.3863 49.8736 99.3856Z" fill="white"/>
<path id="Vector_228" d="M122.037 97.2772V95.6351H123.143L122.037 94.9938H122.865L121.759 94.2748H120.712V93.4489H121.93L120.712 92.9679V91.1752H121.93V90.0044H123.143L121.93 89.5963V88.7607H122.797L122.086 88.0562L121.472 87.4392H102.647V88.2797H101.405L102.789 88.9016V89.5963H100.25V90.8886H99.125L100.25 91.4522V92.8951H101.049V93.5849H102.647V95.6351H101.751L102.487 96.3687V97.2869L122.037 97.2772Z" fill="#A1DC5F"/>
<path id="Vector_229" opacity="0.7" d="M122.037 97.2772V95.6351H123.143L122.037 94.9938H122.865L121.759 94.2748H120.712V93.4489H121.93L120.712 92.9679V91.1752H121.93V90.0044H123.143L121.93 89.5963V88.7607H122.797L122.086 88.0562L121.472 87.4392H102.647V88.2797H101.405L102.789 88.9016V89.5963H100.25V90.8886H99.125L100.25 91.4522V92.8951H101.049V93.5849H102.647V95.6351H101.751L102.487 96.3687V97.2869L122.037 97.2772Z" fill="white"/>
<path id="Vector_230" opacity="0.1" d="M122.038 97.2772V95.6351H123.144L122.038 94.9938H122.866L121.76 94.2748H120.713V93.4489H121.931L120.713 92.9679V91.1752H121.931V90.0044H123.144L121.931 89.5963V88.7607H122.798L122.086 88.0562L121.473 87.4392H111.558V88.2797H110.316L111.695 88.9016V89.5963H109.157V90.8886H108.031L109.157 91.4522V92.8951H109.956V93.5849H111.558V95.6351H110.662L111.393 96.3687V97.2869L122.038 97.2772Z" fill="black"/>
<path id="Vector_231" opacity="0.1" d="M102.793 89.5963H111.699L102.793 89.2756V89.5963Z" fill="black"/>
<path id="Vector_232" opacity="0.1" d="M102.652 93.585H111.563L111.602 94.2068L102.652 93.585Z" fill="black"/>
<path id="Vector_233" opacity="0.1" d="M101.047 92.895H109.953L101.047 93.2059V92.895Z" fill="black"/>
<path id="Vector_234" opacity="0.1" d="M102.652 95.6351H111.563L102.652 95.3096V95.6351Z" fill="black"/>
<path id="Vector_235" opacity="0.1" d="M102.492 96.3687H111.398V96.7087L102.492 96.3687Z" fill="black"/>
<path id="Vector_236" opacity="0.1" d="M100.254 90.8887H109.16L100.254 90.6069V90.8887Z" fill="black"/>
<path id="Vector_237" opacity="0.1" d="M102.652 88.2797H111.563L102.652 87.9688V88.2797Z" fill="black"/>
<path id="Vector_238" opacity="0.1" d="M121.932 88.7605H112.895L121.932 89.0374V88.7605Z" fill="black"/>
<path id="Vector_239" opacity="0.1" d="M111.699 89.5962H121.935L112.654 89.8974L111.699 89.5962Z" fill="black"/>
<path id="Vector_240" opacity="0.1" d="M109.156 90.8884L121.93 91.1751V90.8884H109.156Z" fill="black"/>
<path id="Vector_241" opacity="0.1" d="M109.156 91.4521H115.475L109.156 91.7582V91.4521Z" fill="black"/>
<path id="Vector_242" opacity="0.1" d="M120.713 92.9678L111.559 92.895L120.713 92.6909V92.9678Z" fill="black"/>
<path id="Vector_243" opacity="0.1" d="M120.714 93.449H111.395L120.714 93.7599V93.449Z" fill="black"/>
<path id="Vector_244" opacity="0.1" d="M122.042 94.9937H111.699V95.3094L122.042 94.9937Z" fill="black"/>
<path id="Vector_245" opacity="0.1" d="M122.04 95.6353H114.547L122.04 95.8451V95.6353Z" fill="black"/>
<path id="Vector_246" d="M98.07 95.1589V96.7184C98.07 97.1168 97.5828 97.282 97.1979 97.282H65.9599C65.5604 97.282 65.0781 97.1168 65.0781 96.7184V95.1589H98.07Z" fill="#263238"/>
<path id="Vector_247" opacity="0.4" d="M98.07 95.1589V96.7184C98.07 97.1168 97.5828 97.282 97.1979 97.282H65.9599C65.5604 97.282 65.0781 97.1168 65.0781 96.7184V95.1589H98.07Z" fill="white"/>
<path id="Vector_248" opacity="0.2" d="M98.0667 95.1589V96.7184C98.0667 97.1168 97.5795 97.282 97.1946 97.282H76.5918C76.1923 97.282 75.7148 97.1168 75.7148 96.7184V95.1589H98.0667Z" fill="black"/>
<path id="Vector_249" d="M103.299 78.9714L99.5771 95.7956C99.5131 96.0687 99.3594 96.3126 99.1405 96.4886C98.9216 96.6647 98.6501 96.7627 98.3689 96.7673H78.0583C77.932 96.7645 77.8079 96.7326 77.696 96.674C77.5841 96.6155 77.4873 96.5318 77.4132 96.4297C77.3391 96.3276 77.2897 96.2097 77.2689 96.0854C77.2482 95.961 77.2566 95.8336 77.2935 95.713L81.0058 79.02C81.0819 78.7652 81.2434 78.5442 81.4633 78.3938C81.6832 78.2435 81.9482 78.173 82.214 78.1941H102.529C103.075 78.1747 103.416 78.4224 103.299 78.9714Z" fill="#263238"/>
<path id="Vector_250" opacity="0.4" d="M103.296 78.9712L99.5738 95.7954C99.5097 96.0685 99.3561 96.3124 99.1372 96.4884C98.9183 96.6645 98.6467 96.7626 98.3656 96.7671H78.7419C78.6155 96.7643 78.4915 96.7324 78.3796 96.6739C78.2677 96.6153 78.1709 96.5317 78.0968 96.4295C78.0227 96.3274 77.9733 96.2095 77.9525 96.0852C77.9318 95.9609 77.9402 95.8334 77.9771 95.7129L81.6942 79.0198C81.7696 78.7645 81.9309 78.543 82.151 78.3925C82.3711 78.242 82.6365 78.1719 82.9024 78.1939H102.526C103.072 78.1745 103.413 78.4222 103.296 78.9712Z" fill="white"/>
<path id="Vector_251" opacity="0.2" d="M93.2838 87.522C93.2838 88.9795 91.7346 90.1309 90.5995 90.1309C89.4643 90.1309 88.792 88.9601 89.1379 87.522C89.4838 86.084 90.5995 84.9617 91.7005 84.918C91.379 86.3755 92.0708 87.522 93.201 87.522H93.2838Z" fill="black"/>
</g>
</g>
</svg>
