<svg width="30" height="30" viewBox="0 0 30 30" fill="none" xmlns="http://www.w3.org/2000/svg">
<g id="Group 2612605">
<g id="Group 2612594">
<g id="Group">
<g id="Group 2612606">
<path id="Vector" d="M7.51953 8.85917C7.51953 9.55518 7.70523 10.208 8.02593 10.7744C8.03103 10.784 8.03373 10.7942 8.03913 10.8038C8.04543 10.8146 8.05473 10.8224 8.06163 10.8329C8.74054 11.9837 9.99004 12.7601 11.4205 12.7601C13.5712 12.7598 15.3211 11.0099 15.3211 8.85917C15.3211 6.70816 13.5712 4.95825 11.4205 4.95825C9.26944 4.95825 7.51953 6.70816 7.51953 8.85917ZM10.8204 6.22756V8.51177L8.83864 9.65148C8.76154 9.40067 8.71954 9.13457 8.71954 8.85887C8.71954 7.57607 9.61924 6.50146 10.8204 6.22756ZM14.1211 8.85917C14.1211 10.3484 12.9094 11.5598 11.4205 11.5598C10.638 11.5598 9.93424 11.2232 9.44044 10.6898L11.7196 9.37908C11.7259 9.37547 11.7304 9.37067 11.7364 9.36707C11.7544 9.35567 11.7712 9.34307 11.7877 9.33017C11.8027 9.31847 11.8177 9.30707 11.8315 9.29417C11.8453 9.28127 11.8576 9.26687 11.8702 9.25247C11.8834 9.23747 11.8966 9.22277 11.908 9.20687C11.9191 9.19127 11.9281 9.17507 11.9377 9.15857C11.9473 9.14177 11.9572 9.12527 11.965 9.10787C11.9731 9.09017 11.9791 9.07157 11.9857 9.05297C11.992 9.03467 11.9983 9.01667 12.0028 8.99807C12.007 8.98007 12.0094 8.96147 12.0121 8.94287C12.0151 8.92157 12.0178 8.90057 12.0184 8.87927C12.0187 8.87237 12.0205 8.86607 12.0205 8.85917V6.22786C13.2214 6.50146 14.1211 7.57637 14.1211 8.85917Z" fill="#3A3A3A"/>
<path id="Vector_2" d="M16.5688 12.7583H18.3433C18.6745 12.7583 18.9433 12.4895 18.9433 12.1583V8.05581C18.9433 7.72461 18.6745 7.45581 18.3433 7.45581H16.5688C16.2376 7.45581 15.9688 7.72461 15.9688 8.05581V12.1583C15.9687 12.4898 16.2376 12.7583 16.5688 12.7583ZM17.1688 8.65582H17.7433V11.5583H17.1688V8.65582Z" fill="#3A3A3A"/>
<path id="Vector_3" d="M19.9047 12.7665H21.6792C22.0104 12.7665 22.2792 12.4977 22.2792 12.1665V5.99063C22.2792 5.65943 22.0104 5.39062 21.6792 5.39062H19.9047C19.5735 5.39062 19.3047 5.65943 19.3047 5.99063V12.1665C19.3047 12.4977 19.5735 12.7665 19.9047 12.7665ZM20.5047 6.59063H21.0792V11.5665H20.5047V6.59063Z" fill="#3A3A3A"/>
<path id="Vector_4" d="M18.3609 14.4705H11.4398C11.1086 14.4705 10.8398 14.7393 10.8398 15.0705V16.9869C10.8398 17.3181 11.1086 17.5869 11.4398 17.5869H18.3609C18.6921 17.5869 18.9609 17.3181 18.9609 16.9869V15.0705C18.9609 14.739 18.6921 14.4705 18.3609 14.4705ZM17.7609 16.3869H12.0398V15.6702H17.7609V16.3869Z" fill="#3A3A3A"/>
<path id="Vector_5" d="M20.9173 19.2971H8.88516C8.55396 19.2971 8.28516 19.5659 8.28516 19.8971C8.28516 20.2283 8.55396 20.4971 8.88516 20.4971H20.917C21.2482 20.4971 21.517 20.2283 21.517 19.8971C21.517 19.5659 21.2485 19.2971 20.9173 19.2971Z" fill="#3A3A3A"/>
<path id="Vector_6" d="M18.9662 21.5687H10.8383C10.5071 21.5687 10.2383 21.8375 10.2383 22.1687C10.2383 22.4999 10.5071 22.7687 10.8383 22.7687H18.9659C19.2971 22.7687 19.5659 22.4999 19.5659 22.1687C19.5659 21.8375 19.2974 21.5687 18.9662 21.5687Z" fill="#3A3A3A"/>
<path id="Vector_7" d="M16.7803 23.8403H13.018C12.6868 23.8403 12.418 24.1091 12.418 24.4403C12.418 24.7715 12.6868 25.0403 13.018 25.0403H16.7803C17.1115 25.0403 17.3803 24.7715 17.3803 24.4403C17.3803 24.1091 17.1118 23.8403 16.7803 23.8403Z" fill="#3A3A3A"/>
<path id="Vector_8" d="M28.3103 20.6394L24.3371 13.0247V3.71266C24.3371 3.06886 23.813 2.54476 23.1689 2.54476H18.8678L17.8667 0.626849C17.5691 0.0565459 16.8614 -0.165155 16.2911 0.131846L11.6671 2.54476H6.6295C5.9857 2.54476 5.4616 3.06886 5.4616 3.71266V5.78328L1.62818 7.78369C1.35158 7.92799 1.14758 8.17129 1.05427 8.46919C0.960674 8.76679 0.988875 9.08299 1.13318 9.35959L5.4616 17.6537V26.286C5.4616 26.9298 5.9857 27.4539 6.6295 27.4539H10.576L11.5765 29.3721C11.7208 29.6487 11.9644 29.8524 12.262 29.9457C12.3775 29.982 12.4957 30 12.6133 30C12.799 30 12.9832 29.9553 13.1524 29.8671L17.7761 27.4542H23.1692C23.813 27.4542 24.3374 26.9304 24.3374 26.2863V24.0303L27.8162 22.215C28.0925 22.0707 28.2962 21.8271 28.3895 21.5295C28.4828 21.2319 28.4543 20.9154 28.3103 20.6394ZM16.8176 1.21065L17.5139 2.54476H14.2609L16.8176 1.21065ZM2.21198 8.83279L5.4616 7.13688V15.0599L2.21198 8.83279ZM12.6253 28.788L11.929 27.4539H15.1819L12.6253 28.788ZM23.1371 26.2539H6.6616V3.74477H23.1371V26.2539ZM24.3371 22.6767V15.6191L27.2315 21.1659L24.3371 22.6767Z" fill="#3A3A3A"/>
</g>
</g>
</g>
</g>
</svg>
