<svg width="30" height="30" viewBox="0 0 30 30" fill="none" xmlns="http://www.w3.org/2000/svg">
<g id="Group 2612605">
<g id="Group 2612594">
<g id="Group">
<g id="Group 2612924">
<path id="Vector" d="M29.3562 20.0779L26.2976 14.7803C26.1029 14.4432 25.6715 14.3276 25.3348 14.5223C24.9977 14.717 24.8821 15.148 25.0768 15.4851L28.1354 20.7828C28.7398 21.8294 28.7398 23.0789 28.1354 24.1255C27.5313 25.1721 26.449 25.797 25.2405 25.797H18.7378L19.5298 25.1935C19.8396 24.9575 19.8992 24.5152 19.6634 24.2057C19.4271 23.896 18.9855 23.8362 18.6756 24.0722L16.2267 25.9386C16.0521 26.0717 15.9494 26.2788 15.9492 26.4985C15.949 26.7182 16.0513 26.9252 16.2257 27.0587L18.6705 28.9298C18.7984 29.0277 18.9489 29.075 19.0983 29.075C19.3103 29.075 19.5198 28.9797 19.6585 28.7985C19.8952 28.4896 19.8364 28.0471 19.5272 27.8105L18.7386 27.2069H25.2407C26.9587 27.2069 28.4975 26.3186 29.3566 24.8306C30.2151 23.3426 30.2151 21.5659 29.3562 20.0779Z" fill="#3A3A3A"/>
<path id="Vector_2" d="M10.8654 25.764L4.74851 25.7423C3.54 25.738 2.45997 25.1091 1.85944 24.0605C1.25891 23.0117 1.26334 21.7621 1.87132 20.7175L5.16377 15.0614L5.28702 16.0716C5.33072 16.429 5.63461 16.691 5.98582 16.691C6.01442 16.691 6.04322 16.6894 6.07222 16.686C6.45847 16.6389 6.73357 16.2874 6.68644 15.901L6.31328 12.8448C6.28669 12.6267 6.15982 12.4333 5.97032 12.3222C5.78061 12.2108 5.55023 12.1945 5.34703 12.2775L2.49683 13.4419C2.13655 13.5891 1.96376 14.0005 2.11077 14.3608C2.25798 14.7213 2.66881 14.8937 3.02989 14.7468L3.92928 14.3793L0.652744 20.008C-0.211601 21.4928 -0.217844 23.2695 0.635827 24.7605C1.4895 26.2516 3.02486 27.1455 4.74308 27.1516L10.8599 27.1733C10.861 27.1733 10.8618 27.1733 10.8626 27.1733C11.2508 27.1733 11.566 26.8593 11.5674 26.4711C11.569 26.082 11.2547 25.7652 10.8654 25.764Z" fill="#3A3A3A"/>
<path id="Vector_3" d="M8.10851 8.61547C8.44482 8.81102 8.87659 8.69723 9.07214 8.36032L12.1467 3.07235C12.7524 2.03058 13.8319 1.40971 15.0362 1.40971C15.0398 1.40971 15.0434 1.40971 15.047 1.40971C16.2553 1.41354 17.3356 2.04166 17.9369 3.09007L21.1013 8.60963L20.2563 8.26285C19.896 8.11503 19.4844 8.28742 19.3367 8.64749C19.1891 9.00777 19.3611 9.4194 19.7214 9.56722L22.3821 10.6589C22.4421 10.6946 22.5069 10.7208 22.5742 10.7373C22.6588 10.7713 22.748 10.7886 22.837 10.7886C22.9605 10.7886 23.0835 10.7562 23.1929 10.6922C23.3826 10.5812 23.5096 10.3883 23.5366 10.1702L23.9142 7.11455C23.962 6.72829 23.6875 6.37627 23.3012 6.32854C22.9133 6.28102 22.5627 6.5551 22.5152 6.94156L22.3831 8.01112L19.1599 2.38885C18.3054 0.898193 16.7697 0.00525127 15.0517 1.52588e-05C15.0464 1.52588e-05 15.0414 1.52588e-05 15.0364 1.52588e-05C13.3244 1.52588e-05 11.7896 0.882887 10.9287 2.36367L7.85336 7.65184C7.65781 7.98836 7.772 8.41993 8.10851 8.61547Z" fill="#3A3A3A"/>
<path id="Vector_4" d="M16.0372 20.3637C16.6772 20.6607 17.3913 20.7697 18.1026 20.6805C19.7952 20.467 21.1654 19.0813 21.3604 17.385C21.4854 16.2933 21.1391 15.2243 20.4221 14.4262C20.6217 13.9604 20.7256 13.4588 20.7256 12.9499C20.7256 11.5704 19.9531 10.298 18.7605 9.64414C18.6352 7.67822 16.9962 6.11729 14.9992 6.11729C13.0023 6.11729 11.3634 7.67822 11.2384 9.64414C10.0456 10.298 9.27305 11.5704 9.27305 12.9499C9.27305 13.4588 9.37696 13.9606 9.57654 14.4264C8.8594 15.2243 8.51322 16.2935 8.63848 17.3854C8.83342 19.0815 10.2034 20.4672 11.8963 20.6805C12.0576 20.7008 12.2189 20.7109 12.3794 20.7109C12.9274 20.7109 13.4665 20.5932 13.9615 20.3635C14.1331 20.2839 14.3113 20.2261 14.4927 20.1879V23.9089C14.4927 24.187 14.7181 24.4123 14.9962 24.4123C15.2743 24.4123 15.4997 24.187 15.4997 23.9089V20.1869C15.6831 20.2251 15.8636 20.2831 16.0372 20.3637ZM13.368 19.0851C12.9687 19.2704 12.5212 19.3384 12.0725 19.282C11.0158 19.1489 10.1606 18.2836 10.0389 17.2247C9.94608 16.4157 10.2643 15.6271 10.8906 15.1154C11.1653 14.8908 11.2305 14.4969 11.0422 14.1961C10.807 13.8199 10.6827 13.3891 10.6827 12.9499C10.6827 11.9816 11.2917 11.0973 12.1984 10.7495C12.487 10.639 12.6696 10.3532 12.6491 10.0449L12.6462 10.0034C12.6434 9.96455 12.6402 9.92568 12.6402 9.88601C12.6402 8.58526 13.6985 7.52698 14.9992 7.52698C16.3 7.52698 17.3583 8.58526 17.3583 9.88601C17.3583 9.92548 17.3548 9.96435 17.3522 10.0034L17.3494 10.0449C17.3289 10.3532 17.5117 10.639 17.8001 10.7495C18.7065 11.0975 19.3155 11.9818 19.3155 12.9499C19.3155 13.3889 19.1913 13.8199 18.9562 14.1961C18.7682 14.4969 18.8332 14.8906 19.1079 15.1152C19.7338 15.6269 20.0522 16.4155 19.9595 17.2243C19.8379 18.2834 18.9826 19.1487 17.926 19.2818C17.4783 19.3384 17.0298 19.2702 16.6302 19.0849C16.2678 18.9167 15.8861 18.8108 15.4995 18.7602V14.4415L17.3341 12.5443C17.5274 12.3443 17.5222 12.0257 17.3222 11.8322C17.1226 11.6393 16.8036 11.6443 16.6103 11.8443L15.4993 12.9932V10.56C15.4993 10.2819 15.2739 10.0566 14.9958 10.0566C14.7177 10.0566 14.4923 10.2819 14.4923 10.56V16.719L13.3811 15.5701C13.1878 15.3703 12.8692 15.3651 12.6692 15.5582C12.4694 15.7515 12.464 16.0701 12.6573 16.2701L14.4921 18.1672V18.761C14.1081 18.8124 13.7285 18.9177 13.368 19.0851Z" fill="#3A3A3A"/>
</g>
</g>
</g>
</g>
</svg>
