<svg width="30" height="30" viewBox="0 0 30 30" fill="none" xmlns="http://www.w3.org/2000/svg">
<g id="Group 2612605">
<g id="Group 2612594">
<g id="Group">
<g id="Group_2">
<path id="Vector" d="M28.4653 6.7711H20.3236C21.5576 6.15561 22.6083 5.22663 23.3703 4.07723C24.0979 2.91672 24.233 1.78562 23.7419 0.97608C23.5077 0.621053 23.1742 0.342779 22.7829 0.175916C22.3917 0.00905262 21.96 -0.0390272 21.5416 0.0376654C18.5806 0.268515 15.9699 3.39469 14.7018 5.18956C13.4337 3.39531 10.8231 0.269141 7.86204 0.035789C7.44366 -0.0412367 7.01186 0.0066882 6.62055 0.17358C6.22925 0.340472 5.89577 0.618936 5.66177 0.974204C5.17067 1.78374 5.3058 2.91359 6.03338 4.07535C6.79538 5.22475 7.84604 6.15373 9.0801 6.76923H0.938415C0.689532 6.76923 0.450842 6.8681 0.274855 7.04408C0.0988683 7.22007 0 7.45876 0 7.70764V13.1504C0 13.3993 0.0988683 13.638 0.274855 13.814C0.450842 13.99 0.689532 14.0889 0.938415 14.0889H1.15863V29.0616C1.15863 29.3105 1.2575 29.5492 1.43348 29.7251C1.60947 29.9011 1.84816 30 2.09704 30H27.3091C27.558 30 27.7967 29.9011 27.9727 29.7251C28.1487 29.5492 28.2475 29.3105 28.2475 29.0616V14.0926H28.4653C28.7141 14.0926 28.9528 13.9937 29.1288 13.8178C29.3048 13.6418 29.4037 13.4031 29.4037 13.1542V7.7114C29.4039 7.588 29.3798 7.46577 29.3328 7.3517C29.2857 7.23763 29.2166 7.13396 29.1295 7.04662C29.0423 6.95928 28.9388 6.88999 28.8248 6.84272C28.7108 6.79544 28.5886 6.7711 28.4653 6.7711ZM16.4241 8.64793V12.2139H12.9795V8.64793H16.4241ZM27.5268 12.2139H18.301V8.64793H27.5268V12.2139ZM21.6893 1.90386C21.7412 1.89948 21.7881 1.89823 21.83 1.89823C21.9348 1.8905 22.04 1.90721 22.1372 1.94703C22.1835 2.02836 22.1804 2.45752 21.755 3.11879C21.1364 3.95805 20.3391 4.64932 19.4206 5.1426C18.5021 5.63587 17.4854 5.91881 16.4442 5.97095C17.6954 4.27367 19.7455 2.06151 21.6893 1.90574V1.90386ZM7.64871 3.12067C7.22329 2.4594 7.22016 2.03023 7.26083 1.95516C7.35857 1.91001 7.46636 1.89104 7.57363 1.90011C7.61555 1.90011 7.66184 1.90011 7.71314 1.90574C9.65629 2.05901 11.707 4.27367 12.9583 5.9722C11.9173 5.91995 10.9009 5.63702 9.98263 5.14387C9.06437 4.65071 8.26718 3.95965 7.64871 3.12067ZM1.87683 8.64793H11.1027V12.2139H1.87683V8.64793ZM3.03546 14.2609H11.1058V28.1232H3.03546V14.2609ZM12.9827 28.125V14.2609H16.4273V28.1232L12.9827 28.125ZM26.3707 28.125H18.3003V14.2609H26.3707V28.125Z" fill="#3A3A3A"/>
</g>
</g>
</g>
</g>
</svg>
