<svg width="13" height="12" viewBox="0 0 13 12" fill="none" xmlns="http://www.w3.org/2000/svg">
<path id="Vector" d="M12.2703 10.8315L9.28381 7.92264C10.3209 6.57286 10.5822 4.80207 9.97717 3.22278C9.37221 1.64313 7.98399 0.471582 6.29266 0.113259C4.60134 -0.24504 2.83893 0.259075 1.61488 1.45119C0.390958 2.64332 -0.126562 4.35991 0.241275 6.00747C0.609112 7.65503 1.81194 9.00703 3.43355 9.59628C5.05533 10.1855 6.87334 9.93119 8.25915 8.92092L11.2456 11.8298C11.4326 11.9859 11.6881 12.039 11.9244 11.9709C12.1605 11.903 12.3453 11.723 12.415 11.493C12.4849 11.263 12.4303 11.0142 12.2702 10.8319L12.2703 10.8315ZM1.58146 4.96449C1.58113 3.78295 2.18642 2.67915 3.19464 2.02228C4.20298 1.36541 5.48138 1.24202 6.60245 1.69337C7.72353 2.14471 8.53934 3.11125 8.77713 4.26985C9.01506 5.42846 8.64348 6.62629 7.78676 7.46277C7.10602 8.12757 6.18188 8.50166 5.2178 8.50243C4.25389 8.50338 3.32908 8.13102 2.64706 7.46734C1.96503 6.80383 1.58162 5.9035 1.58146 4.96446V4.96449Z" fill="#3A3A3A"/>
</svg>
