<svg width="15" height="16" viewBox="0 0 15 16" fill="none" xmlns="http://www.w3.org/2000/svg">
<g id="Group">
<path id="Vector" d="M3.37525 3.11457C3.61031 3.11457 3.80393 3.29097 3.83048 3.51817L3.83355 3.57141L3.83309 13.8905L5.96665 11.7635L6.00654 11.728C6.18651 11.586 6.44842 11.5978 6.61456 11.7635C6.7798 11.9283 6.79254 12.1874 6.65277 12.3666L6.61456 12.4097L3.37447 15.6406L0.134217 12.4097L0.0986214 12.3698C-0.0319455 12.2055 -0.0328685 11.9722 0.0958597 11.8068L0.134217 11.7635L0.174107 11.728C0.339042 11.5978 0.572854 11.5969 0.738724 11.7252L0.782145 11.7635L2.91665 13.8923L2.91696 3.57123C2.91696 3.33701 3.09386 3.14379 3.32187 3.11747L3.37525 3.11457ZM11.6255 0.640625L14.8658 3.87155L14.9014 3.91148C15.0319 4.07578 15.0329 4.30907 14.9041 4.47447L14.8658 4.51776L14.8257 4.55326C14.661 4.68345 14.427 4.68437 14.2611 4.55601L14.2177 4.51776L12.0815 2.3874L12.082 12.71C12.082 12.9442 11.9051 13.1375 11.6771 13.1638L11.6237 13.1668C11.3886 13.1668 11.195 12.9904 11.1684 12.7632L11.1654 12.71L11.1651 2.39131L9.03334 4.51799L8.99329 4.55348C8.81348 4.69545 8.55142 4.68367 8.38527 4.51799C8.22003 4.35322 8.2073 4.09407 8.34707 3.91493L8.38527 3.87179L11.6255 0.640625Z" fill="#3A3A3A"/>
</g>
</svg>
