<svg width="20" height="20" viewBox="0 0 20 20" fill="none" xmlns="http://www.w3.org/2000/svg">
<g id="Group 2612502">
<circle id="Ellipse 1339" cx="10" cy="10" r="10" fill="white"/>
<path id="Vector" d="M10 0C4.47917 0 0 4.47917 0 10C0 15.5208 4.47917 20 10 20C15.5208 20 20 15.5208 20 10C20 4.47917 15.5208 0 10 0ZM15.1458 7.58333L9.27083 13.4792C9.08333 13.6667 8.8125 13.7917 8.54167 13.7917C8.27083 13.7917 8 13.6875 7.8125 13.4792L4.85417 10.5208C4.4375 10.1042 4.4375 9.45833 4.85417 9.04167C5.27083 8.625 5.91667 8.625 6.33333 9.04167L8.54167 11.25L13.6875 6.10417C14.1042 5.6875 14.75 5.6875 15.1667 6.10417C15.5625 6.52083 15.5625 7.16667 15.1458 7.58333Z" fill="#398501"/>
</g>
</svg>
