<svg width="32" height="30" viewBox="0 0 32 30" fill="none" xmlns="http://www.w3.org/2000/svg">
<g id="Group 2612594">
<g id="Group">
<g id="Group_2">
<g id="Group_3">
<path id="Vector" d="M4.19453 11.184C4.19453 15.0427 7.32963 18.1779 11.1816 18.1779C15.0336 18.1779 18.1687 15.0359 18.1687 11.184C18.1687 7.33212 15.0335 4.19697 11.1816 4.19697C7.32973 4.19697 4.19453 7.32525 4.19453 11.184ZM5.02619 11.184C5.02619 7.78988 7.78744 5.02864 11.1816 5.02864C14.5758 5.02864 17.337 7.78988 17.337 11.184C17.337 14.5782 14.5758 17.3394 11.1816 17.3394C7.78744 17.3394 5.02619 14.5782 5.02619 11.184Z" fill="#3A3A3A" stroke="#3A3A3A" stroke-width="0.15"/>
</g>
<g id="Group_4">
<path id="Vector_2" d="M10.8391 7.91895C10.8391 8.15124 11.0226 8.33478 11.2549 8.33478C11.4882 8.33478 11.6707 8.14344 11.6707 7.91895V6.75331C11.6707 6.52102 11.4872 6.33748 11.2549 6.33748C11.0226 6.33748 10.8391 6.52102 10.8391 6.75331V7.91895Z" fill="#3A3A3A" stroke="#3A3A3A" stroke-width="0.15"/>
</g>
<g id="Group_5">
<path id="Vector_3" d="M10.7023 15.6148C10.7023 15.8471 10.8859 16.0306 11.1182 16.0306C11.3427 16.0306 11.534 15.848 11.534 15.6148V14.4559C11.534 14.2237 11.3505 14.0401 11.1182 14.0401C10.8859 14.0401 10.7023 14.2237 10.7023 14.4559V15.6148Z" fill="#3A3A3A" stroke="#3A3A3A" stroke-width="0.15"/>
</g>
<g id="Group_6">
<path id="Vector_4" d="M9.17593 12.786L9.10094 12.7853C9.09396 13.5111 9.3213 14.0246 9.66815 14.3616C10.0137 14.6973 10.4704 14.8507 10.9106 14.8718L10.9106 14.8719H10.9142H10.9144H10.9146H10.9148H10.915H10.9152H10.9154H10.9156H10.9158H10.916H10.9162H10.9164H10.9166H10.9168H10.917H10.9172H10.9174H10.9176H10.9178H10.918H10.9182H10.9184H10.9186H10.9188H10.919H10.9192H10.9194H10.9196H10.9198H10.92H10.9202H10.9204H10.9206H10.9208H10.9211H10.9213H10.9215H10.9217H10.9219H10.9221H10.9223H10.9225H10.9227H10.9229H10.9231H10.9233H10.9235H10.9237H10.9239H10.9241H10.9243H10.9246H10.9248H10.925H10.9252H10.9254H10.9256H10.9258H10.926H10.9262H10.9264H10.9266H10.9268H10.927H10.9273H10.9275H10.9277H10.9279H10.9281H10.9283H10.9285H10.9287H10.9289H10.9291H10.9293H10.9296H10.9298H10.93H10.9302H10.9304H10.9306H10.9308H10.931H10.9312H10.9314H10.9317H10.9319H10.9321H10.9323H10.9325H10.9327H10.9329H10.9331H10.9333H10.9336H10.9338H10.934H10.9342H10.9344H10.9346H10.9348H10.935H10.9352H10.9355H10.9357H10.9359H10.9361H10.9363H10.9365H10.9367H10.937H10.9372H10.9374H10.9376H10.9378H10.938H10.9382H10.9384H10.9387H10.9389H10.9391H10.9393H10.9395H10.9397H10.9399H10.9402H10.9404H10.9406H10.9408H10.941H10.9412H10.9414H10.9417H10.9419H10.9421H10.9423H10.9425H10.9427H10.943H10.9432H10.9434H10.9436H10.9438H10.944H10.9442H10.9445H10.9447H10.9449H10.9451H10.9453H10.9455H10.9458H10.946H10.9462H10.9464H10.9466H10.9468H10.9471H10.9473H10.9475H10.9477H10.9479H10.9481H10.9484H10.9486H10.9488H10.949H10.9492H10.9494H10.9497H10.9499H10.9501H10.9503H10.9505H10.9508H10.951H10.9512H10.9514H10.9516H10.9518H10.9521H10.9523H10.9525H10.9527H10.9529H10.9531H10.9534H10.9536H10.9538H10.954H10.9542H10.9545H10.9547H10.9549H10.9551H10.9553H10.9556H10.9558H10.956H10.9562H10.9564H10.9566H10.9569H10.9571H10.9573H10.9575H10.9577H10.958H10.9582H10.9584H10.9586H10.9588H10.9591H10.9593H10.9595H10.9597H10.9599H10.9601H10.9604H10.9606H10.9608H10.961H10.9612H10.9615H10.9617H10.9619H10.9621H10.9623H10.9626H10.9628H10.963H10.9632H10.9634H10.9637H10.9639H10.9641H10.9643H10.9645H10.9648H10.965H10.9652H10.9654H10.9656H10.9659H10.9661H10.9663H10.9665H10.9667H10.967H10.9672H10.9674H10.9676H10.9678H10.968H10.9683H10.9685H10.9687H10.9689H10.9691H10.9694H10.9696H10.9698H10.97H10.9702H10.9705H10.9707H10.9709H10.9711H10.9713H10.9716H10.9718H10.972H10.9722H10.9724H10.9727H10.9729H10.9731H10.9733H10.9735H10.9738H10.974H10.9742H10.9744H10.9746H10.9749H10.9751H10.9753H10.9755H10.9757H10.976H10.9762H10.9764H10.9766H10.9768H10.9771H10.9773H10.9775H10.9777H10.9779H10.9781H10.9784H10.9786H10.9788H10.979H10.9792H10.9795H10.9797H10.9799H10.9801H10.9803H10.9806H10.9808H10.981H10.9812H10.9814H10.9816H10.9819H10.9821H10.9823H10.9825H10.9827H10.983H10.9832H10.9834H10.9836H10.9838H10.9841H10.9843H10.9845H10.9847H10.9849H10.9851H10.9854H10.9856H10.9858H10.986H10.9862H10.9864H10.9867H10.9869H10.9871H10.9873H10.9875H10.9878H10.988H10.9882H10.9884H10.9886H10.9888H10.9891H10.9893H10.9895H10.9897H10.9899H10.9901H10.9904H10.9906H10.9908H10.991H10.9912H10.9914H10.9917H10.9919H10.9921H10.9923H10.9925H10.9927H10.993H10.9932H10.9934H10.9936H10.9938H10.994H10.9942H10.9945H10.9947H10.9949H10.9951H10.9953H10.9955H10.9958H10.996H10.9962H10.9964H10.9966H10.9968H10.997H10.9973H10.9975H10.9977H10.9979H10.9981H10.9983H10.9985H10.9988H10.999H10.9992H10.9994H10.9996H10.9998H11H11.0003H11.0005H11.0007H11.0009H11.0011H11.0013H11.0015H11.0017H11.002H11.0022H11.0024H11.0026H11.0028H11.003H11.0032H11.0034H11.0037H11.0039H11.0041H11.0043H11.0045H11.0047H11.0049H11.0051H11.0053H11.0056H11.0058H11.006H11.0062H11.0064H11.0066H11.0068H11.007H11.0072H11.0074H11.0077H11.0079H11.0081H11.0083H11.0085H11.0087H11.0089H11.0091H11.0093H11.0095H11.0098H11.01H11.0102H11.0104H11.0106H11.0108H11.011H11.0112H11.0114H11.0116H11.0118H11.012H11.0122H11.0125H11.0127H11.0129H11.0131H11.0133H11.0135H11.0137H11.0139H11.0141H11.0143H11.0145H11.0147H11.0149H11.0151H11.0153H11.0155H11.0158H11.016H11.0162H11.0164H11.0166H11.0168H11.017H11.0172H11.0174H11.0176H11.0178H11.018H11.0182H11.0184H11.0186H11.0188H11.019H11.0192H11.0194H11.0196H11.0198H11.02H11.0202H11.0204H11.0206H11.0208H11.021H11.0212H11.0214H11.0216H11.0218H11.022H11.0222H11.0224H11.0226H11.0228H11.023H11.0232C11.5222 14.8719 12.0418 14.7123 12.4494 14.4245C12.8572 14.1365 13.157 13.7166 13.2042 13.1963M9.17593 12.786H9.10093C9.10093 12.5586 9.29327 12.377 9.51677 12.377H9.51677H9.51677H9.51678H9.51678H9.51679H9.51679H9.51679H9.5168H9.5168H9.51681H9.51681H9.51682H9.51682H9.51683H9.51683H9.51683H9.51684H9.51684H9.51685H9.51685H9.51685H9.51686H9.51686H9.51687H9.51687H9.51688H9.51688H9.51689H9.51689H9.5169H9.51691H9.51691H9.51692H9.51692H9.51693H9.51694H9.51694H9.51695H9.51696H9.51696H9.51696H9.51697H9.51697H9.51697H9.51698H9.51698H9.51699H9.51699H9.51699H9.517H9.517H9.51701H9.51701H9.51702H9.51702H9.51702H9.51703H9.51703H9.51704H9.51704H9.51705H9.51705H9.51706H9.51706H9.51707H9.51707H9.51708H9.51708H9.51709H9.51709H9.5171H9.5171H9.51711H9.51711H9.51712H9.51713H9.51713H9.51714H9.51714H9.51715H9.51715H9.51716H9.51717H9.51717H9.51718H9.51718H9.51719H9.5172H9.5172H9.51721H9.51722H9.51722H9.51723H9.51724H9.51724H9.51725H9.51726H9.51726H9.51727H9.51728H9.51729H9.51729H9.5173H9.51731H9.51731H9.51732H9.51733H9.51734H9.51734H9.51735H9.51736H9.51737H9.51738H9.51738H9.51739H9.5174H9.51741H9.51742H9.51743H9.51743H9.51744H9.51745H9.51746H9.51747H9.51748H9.51749H9.51749H9.5175H9.51751H9.51752H9.51753H9.51754H9.51755H9.51756H9.51757H9.51758H9.51759H9.5176H9.51761H9.51762H9.51763H9.51764H9.51765H9.51766H9.51767H9.51768H9.51769H9.5177H9.51771H9.51772H9.51773H9.51774H9.51775H9.51777H9.51778H9.51779H9.5178H9.51781H9.51782H9.51783H9.51785H9.51786H9.51787H9.51788H9.51789H9.51791H9.51792H9.51793H9.51794H9.51795H9.51797H9.51798H9.51799H9.518H9.51802H9.51803H9.51804H9.51806H9.51807H9.51808H9.5181H9.51811H9.51812H9.51814H9.51815H9.51816H9.51818H9.51819H9.51821H9.51822H9.51824H9.51825H9.51826H9.51828H9.51829H9.51831H9.51832H9.51834H9.51835H9.51837H9.51838H9.5184H9.51841H9.51843H9.51845H9.51846H9.51848H9.51849H9.51851H9.51853H9.51854H9.51856H9.51857H9.51859H9.51861H9.51862H9.51864H9.51866H9.51868H9.51869H9.51871H9.51873H9.51874H9.51876H9.51878H9.5188H9.51882H9.51883H9.51885H9.51887H9.51889H9.51891H9.51892H9.51894H9.51896H9.51898H9.519H9.51902H9.51904H9.51906H9.51908H9.5191H9.51912H9.51914H9.51916H9.51918H9.5192H9.51922H9.51924H9.51926H9.51928H9.5193H9.51932H9.51934H9.51936H9.51938H9.5194H9.51942H9.51944H9.51947H9.51949H9.51951H9.51953H9.51955H9.51957H9.5196H9.51962H9.51964H9.51966H9.51969H9.51971H9.51973H9.51976H9.51978H9.5198H9.51983H9.51985H9.51987H9.5199H9.51992H9.51994H9.51997H9.51999H9.52002H9.52004H9.52007H9.52009H9.52011H9.52014H9.52016H9.52019H9.52022H9.52024H9.52027H9.52029H9.52032H9.52034H9.52037H9.5204H9.52042H9.52045H9.52048H9.5205H9.52053H9.52056H9.52058H9.52061H9.52064H9.52066H9.52069H9.52072H9.52075H9.52078H9.5208H9.52083H9.52086H9.52089H9.52092H9.52095H9.52098H9.521H9.52103H9.52106H9.52109H9.52112H9.52115H9.52118H9.52121H9.52124H9.52127H9.5213H9.52133H9.52136H9.52139H9.52142H9.52146H9.52149H9.52152H9.52155H9.52158H9.52161H9.52165H9.52168H9.52171H9.52174H9.52177H9.52181H9.52184H9.52187H9.52191H9.52194H9.52197H9.52201H9.52204H9.52207H9.52211H9.52214H9.52217H9.52221H9.52224H9.52228H9.52231H9.52235H9.52238H9.52242H9.52245H9.52249H9.52252H9.52256H9.5226H9.52263H9.52267H9.5227H9.52274H9.52278H9.52281H9.52285H9.52289H9.52293H9.52296H9.523H9.52304H9.52308H9.52311H9.52315H9.52319H9.52323H9.52327H9.52331H9.52335H9.52338H9.52342H9.52346H9.5235H9.52354H9.52358C9.75702 12.377 9.94038 12.5689 9.93258 12.8014C9.92616 13.3361 10.0906 13.6378 10.2931 13.8102C10.4986 13.9851 10.7556 14.0373 10.952 14.0471L10.9521 14.0472C11.2705 14.0634 11.6203 13.972 11.8958 13.8033C12.1709 13.6348 12.3609 13.3968 12.3866 13.1234V13.1234V13.1234V13.1233V13.1233V13.1233V13.1233V13.1232V13.1232V13.1232V13.1232V13.1231V13.1231V13.1231V13.1231V13.123V13.123V13.123V13.123V13.1229V13.1229V13.1229V13.1229V13.1228V13.1228V13.1228V13.1228V13.1227V13.1227V13.1227V13.1227V13.1226V13.1226V13.1226V13.1226V13.1225V13.1225V13.1225V13.1225V13.1224V13.1224V13.1224V13.1224V13.1223V13.1223V13.1223V13.1223V13.1222V13.1222V13.1222V13.1222V13.1222V13.1221V13.1221V13.1221V13.1221V13.122V13.122V13.122V13.122V13.1219V13.1219V13.1219V13.1219V13.1219V13.1218V13.1218V13.1218V13.1218V13.1217V13.1217V13.1217V13.1217V13.1217V13.1216V13.1216V13.1216V13.1216V13.1215V13.1215V13.1215V13.1215V13.1215V13.1214V13.1214V13.1214V13.1214V13.1214V13.1213V13.1213V13.1213V13.1213V13.1213V13.1212V13.1212V13.1212V13.1212V13.1211V13.1211V13.1211V13.1211V13.1211V13.121V13.121V13.121V13.121V13.121V13.1209V13.1209V13.1209V13.1209V13.1209V13.1208V13.1208V13.1208V13.1208V13.1208V13.1207V13.1207V13.1207V13.1207V13.1207V13.1206V13.1206V13.1206V13.1206V13.1206V13.1205V13.1205V13.1205V13.1205V13.1204V13.1204V13.1204V13.1204V13.1204V13.1203V13.1203V13.1203V13.1203V13.1203V13.1202V13.1202V13.1202V13.1202V13.1202V13.1201V13.1201V13.1201V13.1201V13.1201V13.12V13.12V13.12V13.12V13.12V13.1199V13.1199V13.1199V13.1199V13.1199V13.1198V13.1198V13.1198V13.1198V13.1198V13.1197V13.1197V13.1197V13.1197V13.1197V13.1196V13.1196V13.1196V13.1196V13.1196V13.1195V13.1195V13.1195V13.1195V13.1195V13.1194V13.1194V13.1194V13.1194V13.1194V13.1193V13.1193V13.1193V13.1193V13.1193V13.1192V13.1192V13.1192V13.1192V13.1192V13.1191V13.1191V13.1191V13.1191V13.1191V13.119V13.119V13.119V13.119V13.119V13.1189V13.1189V13.1189V13.1189V13.1189V13.1188V13.1188V13.1188V13.1188V13.1187V13.1187V13.1187V13.1187V13.1187V13.1186V13.1186V13.1186V13.1186V13.1186V13.1185V13.1185V13.1185V13.1185V13.1184V13.1184V13.1184V13.1184V13.1184V13.1183V13.1183V13.1183V13.1183V13.1182V13.1182V13.1182V13.1182V13.1182V13.1181V13.1181V13.1181V13.1181V13.118V13.118V13.118V13.118V13.118V13.1179V13.1179V13.1179V13.1179V13.1178V13.1178V13.1178V13.1178V13.1177V13.1177V13.1177V13.1177V13.1177V13.1176V13.1176V13.1176V13.1176V13.1175V13.1175V13.1175V13.1175V13.1174V13.1174V13.1174V13.1174V13.1173V13.1173V13.1173V13.1173V13.1172V13.1172V13.1172V13.1172V13.1171V13.1171V13.1171V13.1171V13.117V13.117V13.117V13.117V13.1169V13.1169V13.1169V13.1169V13.1168V13.1168V13.1168V13.1168V13.1167V13.1167V13.1167V13.1166V13.1166V13.1166V13.1166V13.1165V13.1165V13.1165V13.1165V13.1164V13.1164V13.1164V13.1163V13.1163V13.1163V13.1163V13.1162V13.1162V13.1162V13.1161V13.1161V13.1161V13.1161V13.116V13.116V13.116V13.1159V13.1159V13.1159V13.1159V13.1158V13.1158V13.1158V13.1157V13.1157V13.1157V13.1156V13.1156V13.1156V13.1155V13.1155V13.1155V13.1155V13.1154V13.1154V13.1154V13.1153V13.1153V13.1153V13.1152V13.1152V13.1152V13.1151V13.1151V13.1151V13.115V13.115V13.115V13.1149V13.1149V13.1149V13.1148V13.1148V13.1148V13.1147V13.1147V13.1147V13.1146V13.1146V13.1146V13.1145V13.1145V13.1145V13.1144V13.1144V13.1144V13.1143V13.1143V13.1143V13.1142V13.1142V13.1141V13.1141V13.1141V13.114V13.114V13.114V13.1139V13.1139V13.1138V13.1138V13.1138V13.1137V13.1137V13.1137V13.1136V13.1136V13.1135V13.1135V13.1135V13.1134V13.1134V13.1134V13.1133V13.1133V13.1132V13.1132V13.1034L12.3872 13.1035C12.447 12.6435 12.1924 12.285 11.8599 12.018C11.5277 11.7512 11.1312 11.5876 10.9435 11.5206L10.9428 11.5203L10.9428 11.5203L10.9334 11.5168C10.672 11.4206 10.1444 11.2263 9.72641 10.8715C9.51407 10.6912 9.32723 10.4673 9.21851 10.191C9.10939 9.9136 9.08086 9.58809 9.17828 9.20904L9.17839 9.20862L9.17839 9.20862C9.52999 7.87252 10.6529 7.39686 11.5518 7.52428L11.5523 7.52434L11.5523 7.52434C12.4145 7.65155 13.3151 8.3673 13.2727 9.63241L13.2727 9.63257C13.2644 9.86567 13.072 10.0403 12.8406 10.032C12.6075 10.0237 12.4329 9.83141 12.4411 9.60002M9.17593 12.786C9.1623 14.2039 10.0621 14.756 10.9142 14.7969L12.5161 9.60263M9.17593 12.786C9.17593 12.6019 9.33272 12.452 9.51677 12.452H9.52358C9.71445 12.452 9.86441 12.6088 9.8576 12.7996C9.84396 13.9039 10.5393 14.1016 10.9483 14.1221C11.6163 14.1561 12.407 13.7403 12.4616 13.1268V13.1132C12.5911 12.118 11.3504 11.5863 10.9687 11.4499L10.9614 11.4473C10.4361 11.2537 8.87774 10.6797 9.25092 9.22771C9.59175 7.93255 10.6756 7.47584 11.5413 7.59854C12.3729 7.72124 13.2386 8.40972 13.1977 9.62989C13.1909 9.82076 13.0341 9.96391 12.8433 9.95709C12.6524 9.95027 12.5093 9.79349 12.5161 9.60263M12.4411 9.60002C12.4411 9.59999 12.4411 9.59997 12.4411 9.59995L12.5161 9.60263M12.4411 9.60002C12.4411 9.60004 12.4411 9.60006 12.4411 9.60009L12.5161 9.60263M12.4411 9.60002C12.4669 8.83981 11.9555 8.42476 11.4282 8.34759L11.4281 8.34757C11.1667 8.30885 10.8644 8.34784 10.5986 8.50881C10.3341 8.66892 10.0996 8.95335 9.97786 9.41716L9.90531 9.39813L9.97788 9.41709C9.90564 9.69349 9.95812 9.92258 10.1497 10.1313C10.3467 10.3459 10.6939 10.542 11.2191 10.7318L11.2194 10.7319C11.4749 10.8251 12.0166 11.0522 12.4716 11.4479C12.9275 11.8445 13.3032 12.4173 13.2042 13.1963M13.2042 13.1963C13.2042 13.1958 13.2042 13.1953 13.2043 13.1949L13.1296 13.1882L13.204 13.1977C13.204 13.1972 13.2041 13.1967 13.2042 13.1963Z" fill="#3A3A3A" stroke="#3A3A3A" stroke-width="0.15"/>
</g>
<g id="Group_7">
<path id="Vector_5" d="M0.925 11.184C0.925 16.8424 5.52572 21.4431 11.1841 21.4431C16.8424 21.4431 21.4431 16.8424 21.4431 11.184C21.4431 5.53257 16.8424 0.925 11.1841 0.925C5.52572 0.925 0.925 5.52572 0.925 11.184ZM1.75666 11.184C1.75666 5.99037 5.99023 1.76348 11.1841 1.76348C16.3779 1.76348 20.6114 5.99037 20.6114 11.184C20.6114 16.3846 16.3846 20.6114 11.1841 20.6114C5.98352 20.6114 1.75666 16.3778 1.75666 11.184Z" fill="#3A3A3A" stroke="#3A3A3A" stroke-width="0.15"/>
</g>
<g id="Group_8">
<path id="Vector_6" d="M10.7687 2.66328C10.7687 2.89556 10.9523 3.07911 11.1846 3.07911C11.4169 3.07911 11.6004 2.89556 11.6004 2.66328V1.34767C11.6004 1.11538 11.4169 0.931836 11.1846 0.931836C10.9523 0.931836 10.7687 1.11538 10.7687 1.34767V2.66328Z" fill="#3A3A3A" stroke="#3A3A3A" stroke-width="0.15"/>
</g>
<g id="Group_9">
<path id="Vector_7" d="M8.57648 3.06439L8.57648 3.06439L8.57658 3.06475C8.62636 3.24727 8.79227 3.37223 8.97613 3.37223C9.0195 3.37223 9.05432 3.36352 9.08112 3.35681L9.08294 3.35636L9.08294 3.35637L9.08425 3.35602C9.30146 3.29754 9.43391 3.07259 9.37593 2.84896L9.37593 2.84896L9.37578 2.84841L9.03495 1.5737L9.03492 1.57357C8.97636 1.35606 8.74413 1.22366 8.52719 1.28207C8.30997 1.34055 8.17752 1.56549 8.2355 1.78912L8.2355 1.78913L8.23565 1.78968L8.57648 3.06439Z" fill="#3A3A3A" stroke="#3A3A3A" stroke-width="0.15"/>
</g>
<g id="Group_10">
<path id="Vector_8" d="M6.62002 2.45542L6.62002 2.45542L6.61985 2.45513C6.50239 2.25378 6.25212 2.19794 6.05581 2.30428C5.85298 2.41414 5.7885 2.67327 5.90396 2.87139C5.90399 2.87144 5.90402 2.87149 5.90405 2.87154L6.5649 4.0161C6.64035 4.1499 6.78192 4.22436 6.92316 4.22436C6.98922 4.22436 7.06441 4.20803 7.13235 4.16586C7.33067 4.04948 7.39728 3.79974 7.28115 3.60047C7.28112 3.60042 7.28109 3.60038 7.28106 3.60033L6.62002 2.45542Z" fill="#3A3A3A" stroke="#3A3A3A" stroke-width="0.15"/>
</g>
<g id="Group_11">
<path id="Vector_9" d="M4.52478 3.93266L4.52479 3.93265L4.5234 3.93132C4.36072 3.77678 4.09481 3.76412 3.93339 3.93404C3.7771 4.09855 3.7752 4.36318 3.93473 4.52271L4.86729 5.45527C4.94451 5.54011 5.05371 5.5808 5.16022 5.5808C5.26817 5.5808 5.37603 5.53921 5.45865 5.45659L5.45867 5.45661L5.46 5.45521C5.61629 5.2907 5.61819 5.02607 5.45865 4.86654L4.52478 3.93266Z" fill="#3A3A3A" stroke="#3A3A3A" stroke-width="0.15"/>
</g>
<g id="Group_12">
<path id="Vector_10" d="M2.44827 6.62034L2.44856 6.6205L3.59269 7.2811C3.66058 7.32318 3.73568 7.33948 3.80167 7.33948C3.95053 7.33948 4.08482 7.26436 4.15987 7.13135C4.27591 6.93181 4.20885 6.68181 4.00988 6.56575L4.00959 6.56558L2.86469 5.90454C2.86463 5.90451 2.86458 5.90448 2.86453 5.90445C2.66493 5.78813 2.41471 5.85515 2.29858 6.05423C2.18214 6.25385 2.24914 6.50418 2.44827 6.62034Z" fill="#3A3A3A" stroke="#3A3A3A" stroke-width="0.15"/>
</g>
<g id="Group_13">
<path id="Vector_11" d="M2.84393 9.38179L2.84393 9.3818L2.84511 9.3821C2.87344 9.38918 2.91497 9.39797 2.95192 9.39797C3.14009 9.39797 3.30817 9.27527 3.35162 9.09012C3.41724 8.87141 3.28243 8.64034 3.05965 8.58242L1.78648 8.242C1.56395 8.17443 1.34292 8.32073 1.27833 8.53064C1.21079 8.75014 1.34579 8.98287 1.56948 9.04103L2.84393 9.38179Z" fill="#3A3A3A" stroke="#3A3A3A" stroke-width="0.15"/>
</g>
<g id="Group_14">
<path id="Vector_12" d="M1.34083 11.5999H2.66326C2.88775 11.5999 3.07909 11.4174 3.07909 11.1841C3.07909 10.9518 2.89555 10.7683 2.66326 10.7683H1.34083C1.10854 10.7683 0.925 10.9518 0.925 11.1841C0.925 11.4164 1.10854 11.5999 1.34083 11.5999Z" fill="#3A3A3A" stroke="#3A3A3A" stroke-width="0.15"/>
</g>
<g id="Group_15">
<path id="Vector_13" d="M1.27456 13.8409L1.27456 13.8409L1.27481 13.8418C1.32459 14.0243 1.4905 14.1493 1.67436 14.1493C1.67589 14.1493 1.67745 14.1493 1.67904 14.1493C1.70807 14.1493 1.74799 14.1494 1.78873 14.1314L3.05706 13.7923L3.05719 13.7922C3.2747 13.7337 3.4071 13.5015 3.34869 13.2845C3.29021 13.0673 3.06527 12.9348 2.84163 12.9928L2.84163 12.9928L2.84108 12.993L1.56637 13.3338L1.56625 13.3338C1.34903 13.3923 1.21659 13.6173 1.27456 13.8409Z" fill="#3A3A3A" stroke="#3A3A3A" stroke-width="0.15"/>
</g>
<g id="Group_16">
<path id="Vector_14" d="M4.0135 15.8024L4.01379 15.8022C4.21292 15.6861 4.27993 15.4357 4.16348 15.2361C4.04735 15.037 3.79713 14.97 3.59753 15.0863C3.59748 15.0864 3.59743 15.0864 3.59738 15.0864L2.45331 15.747C2.25134 15.8571 2.1872 16.1155 2.30219 16.3132C2.37766 16.447 2.51919 16.5214 2.66039 16.5214C2.72638 16.5214 2.80149 16.5051 2.86938 16.463L4.0135 15.8024Z" fill="#3A3A3A" stroke="#3A3A3A" stroke-width="0.15"/>
</g>
<g id="Group_17">
<path id="Vector_15" d="M3.93473 17.8454L3.93471 17.8454L3.93339 17.8468C3.7766 18.0118 3.77637 18.268 3.9327 18.4333C4.00996 18.5187 4.1195 18.5597 4.22634 18.5597C4.33311 18.5597 4.44136 18.5189 4.51796 18.4423L5.45865 17.5016L5.45867 17.5016L5.46 17.5002C5.61533 17.3367 5.62595 17.0788 5.45865 16.9115C5.29405 16.7469 5.02786 16.7447 4.86796 16.9122L3.93473 17.8454Z" fill="#3A3A3A" stroke="#3A3A3A" stroke-width="0.15"/>
</g>
<g id="Group_18">
<path id="Vector_16" d="M6.56526 18.3583L6.5651 18.3586L5.90405 19.5035C5.90402 19.5036 5.90399 19.5036 5.90396 19.5037C5.78783 19.7029 5.85444 19.9526 6.05276 20.069C6.1207 20.1112 6.19589 20.1275 6.26195 20.1275C6.40319 20.1275 6.54476 20.0531 6.62022 19.9193L7.28106 18.7747C7.28109 18.7747 7.28112 18.7746 7.28115 18.7746C7.39748 18.575 7.33045 18.3247 7.13137 18.2086C6.93175 18.0922 6.68143 18.1592 6.56526 18.3583Z" fill="#3A3A3A" stroke="#3A3A3A" stroke-width="0.15"/>
</g>
<g id="Group_19">
<path id="Vector_17" d="M8.5268 21.0931L8.52743 21.0933C8.55576 21.1003 8.59729 21.1091 8.63424 21.1091C8.81513 21.1091 8.99104 20.9867 9.03424 20.8L9.37438 19.5279C9.44091 19.3088 9.30604 19.0769 9.08285 19.0189C8.86764 18.9611 8.63416 19.0847 8.57535 19.3109L8.23493 20.584C8.16837 20.8032 8.30341 21.0352 8.5268 21.0931Z" fill="#3A3A3A" stroke="#3A3A3A" stroke-width="0.15"/>
</g>
<g id="Group_20">
<path id="Vector_18" d="M10.7687 21.0273C10.7687 21.2596 10.9523 21.4431 11.1846 21.4431C11.4169 21.4431 11.6004 21.2596 11.6004 21.0273V19.7048C11.6004 19.4726 11.4169 19.289 11.1846 19.289C10.9523 19.289 10.7687 19.4726 10.7687 19.7048V21.0273Z" fill="#3A3A3A" stroke="#3A3A3A" stroke-width="0.15"/>
</g>
<g id="Group_21">
<path id="Vector_19" d="M13.3343 20.8013L13.3343 20.8013L13.3344 20.8017C13.3842 20.9842 13.5501 21.1092 13.7339 21.1092L13.7357 21.1092C13.7627 21.1092 13.8005 21.1092 13.8462 21.0918C14.0609 21.0316 14.1914 20.8081 14.1337 20.5859L14.1337 20.5859L14.1336 20.5853L13.7928 19.3106L13.7927 19.3105C13.7342 19.093 13.5019 18.9606 13.285 19.019C13.0678 19.0775 12.9353 19.3024 12.9933 19.5261L12.9933 19.5261L12.9935 19.5266L13.3343 20.8013Z" fill="#3A3A3A" stroke="#3A3A3A" stroke-width="0.15"/>
</g>
<g id="Group_22">
<path id="Vector_20" d="M15.7997 18.3586L15.7997 18.3586L15.7995 18.3583C15.6836 18.1595 15.4339 18.0924 15.2345 18.208C15.0324 18.3182 14.9684 18.5768 15.0836 18.7746C15.0837 18.7746 15.0837 18.7747 15.0837 18.7747L15.7446 19.9193C15.82 20.0531 15.9616 20.1275 16.1029 20.1275C16.1686 20.1275 16.2433 20.1114 16.311 20.0697C16.5123 19.9592 16.5759 19.7011 16.4608 19.5037C16.4608 19.5036 16.4608 19.5036 16.4607 19.5035L15.7997 18.3586Z" fill="#3A3A3A" stroke="#3A3A3A" stroke-width="0.15"/>
</g>
<g id="Group_23">
<path id="Vector_21" d="M16.9086 17.5084L16.9086 17.5084L16.909 17.5088L17.8482 18.4344C17.9254 18.5191 18.0345 18.5597 18.1409 18.5597C18.2477 18.5597 18.3559 18.5189 18.4325 18.4423C18.5981 18.2767 18.5981 18.0179 18.4325 17.8522L17.4986 16.9184C17.333 16.7527 17.0742 16.7527 16.9086 16.9184C16.743 17.084 16.743 17.3428 16.9086 17.5084Z" fill="#3A3A3A" stroke="#3A3A3A" stroke-width="0.15"/>
</g>
<g id="Group_24">
<path id="Vector_22" d="M18.3506 15.8022L18.3509 15.8024L19.495 16.463C19.5622 16.5047 19.6304 16.5214 19.704 16.5214C19.8529 16.5214 19.9872 16.4462 20.0622 16.3132C20.1783 16.1137 20.1112 15.8637 19.9122 15.7476L19.9119 15.7475L18.767 15.0864C18.767 15.0864 18.7669 15.0864 18.7669 15.0863C18.5673 14.97 18.3171 15.037 18.2009 15.2361C18.0845 15.4357 18.1515 15.6861 18.3506 15.8022Z" fill="#3A3A3A" stroke="#3A3A3A" stroke-width="0.15"/>
</g>
<g id="Group_25">
<path id="Vector_23" d="M20.5861 14.1333L20.5861 14.1333L20.5873 14.1336C20.6156 14.1407 20.6572 14.1494 20.6941 14.1494C20.8776 14.1494 21.0432 14.025 21.0933 13.8431C21.1601 13.624 21.0251 13.392 20.8018 13.3339L19.5287 12.9935C19.31 12.9271 19.0786 13.0613 19.02 13.2837C18.9536 13.5028 19.0885 13.7345 19.3117 13.7925L20.5861 14.1333Z" fill="#3A3A3A" stroke="#3A3A3A" stroke-width="0.15"/>
</g>
<g id="Group_26">
<path id="Vector_24" d="M19.7041 11.5998H21.0265C21.251 11.5998 21.4424 11.4172 21.4424 11.184C21.4424 10.9517 21.2588 10.7681 21.0265 10.7681H19.7041C19.4718 10.7681 19.2883 10.9517 19.2883 11.184C19.2883 11.4163 19.4718 11.5998 19.7041 11.5998Z" fill="#3A3A3A" stroke="#3A3A3A" stroke-width="0.15"/>
</g>
<g id="Group_27">
<path id="Vector_25" d="M19.0128 9.0898L19.0128 9.0898L19.0131 9.09071C19.0629 9.27323 19.2288 9.39819 19.4126 9.39819C19.456 9.39819 19.4908 9.38948 19.5176 9.38277L19.5195 9.38232L19.5195 9.38233L19.5206 9.38201L20.7953 9.04118L20.7955 9.04114C21.013 8.98258 21.1454 8.75036 21.087 8.53341C21.0285 8.3162 20.8035 8.18375 20.5799 8.24173L20.5799 8.24172L20.5794 8.24187L19.3047 8.5827L19.3045 8.58274C19.0873 8.64122 18.9549 8.86616 19.0128 9.0898Z" fill="#3A3A3A" stroke="#3A3A3A" stroke-width="0.15"/>
</g>
<g id="Group_28">
<path id="Vector_26" d="M18.3587 6.56558L18.3587 6.56558L18.3584 6.56575C18.1595 6.68181 18.0924 6.93181 18.2084 7.13135C18.2839 7.26507 18.4254 7.33948 18.5666 7.33948C18.6326 7.33948 18.7077 7.32318 18.7756 7.2811L19.9197 6.6205L19.92 6.62034C20.1188 6.50437 20.1859 6.25471 20.0703 6.05525C19.9601 5.85325 19.7016 5.78919 19.5038 5.90445C19.5037 5.90448 19.5037 5.90451 19.5036 5.90454L18.3587 6.56558Z" fill="#3A3A3A" stroke="#3A3A3A" stroke-width="0.15"/>
</g>
<g id="Group_29">
<path id="Vector_27" d="M17.8517 3.93143L17.8516 3.93142L17.8503 3.93278L16.9164 4.86665C16.7522 5.03081 16.7496 5.29599 16.9157 5.45603C16.9929 5.54043 17.1018 5.58092 17.208 5.58092C17.318 5.58092 17.4172 5.53795 17.5039 5.45916L17.5039 5.45923L17.5065 5.4567L18.4403 4.52282C18.6052 4.35798 18.6072 4.09125 18.439 3.93143C18.2737 3.77442 18.0169 3.77442 17.8517 3.93143Z" fill="#3A3A3A" stroke="#3A3A3A" stroke-width="0.15"/>
</g>
<g id="Group_30">
<path id="Vector_28" d="M15.745 2.45499L15.7448 2.45528L15.0837 3.60018C15.0837 3.60023 15.0837 3.60028 15.0837 3.60033C14.9675 3.7996 15.0341 4.04933 15.2324 4.16571C15.2997 4.2075 15.368 4.22422 15.4416 4.22422C15.5829 4.22422 15.7244 4.14976 15.7999 4.01596L16.4607 2.8714C16.4608 2.87135 16.4608 2.8713 16.4608 2.87125C16.5772 2.67165 16.5101 2.42143 16.3111 2.3053C16.1114 2.18885 15.8611 2.25586 15.745 2.45499Z" fill="#3A3A3A" stroke="#3A3A3A" stroke-width="0.15"/>
</g>
<g id="Group_31">
<path id="Vector_29" d="M13.2807 3.35624L13.2813 3.3564C13.3097 3.36348 13.3512 3.37227 13.3881 3.37227C13.5768 3.37227 13.7452 3.24899 13.7881 3.06313L14.1283 1.791C14.1947 1.57234 14.0605 1.34097 13.838 1.28235C13.619 1.21597 13.3873 1.35085 13.3293 1.574L12.9888 2.84717C12.9223 3.06636 13.0573 3.29832 13.2807 3.35624Z" fill="#3A3A3A" stroke="#3A3A3A" stroke-width="0.15"/>
</g>
<g id="Group_32">
<path id="Vector_30" d="M15.5556 19.8071L15.4809 19.8008C15.4671 19.9666 15.4602 20.1391 15.4602 20.3047C15.4602 23.8021 18.3022 26.6442 21.7996 26.6442C25.2902 26.6442 28.1323 23.809 28.1323 20.3115C28.1323 16.814 25.2903 13.972 21.7928 13.972C21.3033 13.972 20.8205 14.0272 20.3447 14.1375C20.1178 14.1881 19.9866 14.4142 20.0359 14.6359C20.0864 14.863 20.3126 14.9943 20.5344 14.945L20.5344 14.945L20.5358 14.9447C20.9523 14.8439 21.3758 14.7968 21.7996 14.7968C24.8393 14.7968 27.3075 17.265 27.3075 20.3047C27.3075 23.3444 24.8393 25.8125 21.7996 25.8125C18.76 25.8125 16.2918 23.3376 16.2918 20.3047C16.2918 20.1638 16.2985 20.0161 16.312 19.8684L16.312 19.8684L16.3121 19.8669C16.3285 19.6364 16.1629 19.4354 15.929 19.4187C15.6985 19.4022 15.4975 19.5679 15.4808 19.8017L15.5556 19.8071ZM15.5556 19.8071C15.542 19.9707 15.5352 20.1411 15.5352 20.3047C15.5352 23.7607 18.3436 26.5692 21.7996 26.5692C25.2489 26.5692 28.0573 23.7675 28.0573 20.3115C28.0573 16.8554 25.2489 14.047 21.7928 14.047C21.3088 14.047 20.8317 14.1015 20.3613 14.2106M15.5556 19.8071L20.3613 14.2106M20.3613 14.2106C20.1773 14.2515 20.0682 14.4355 20.1091 14.6196C20.15 14.8036 20.3341 14.9127 20.5181 14.8718C20.9407 14.7696 21.3702 14.7218 21.7996 14.7218C24.8808 14.7218 27.3825 17.2235 27.3825 20.3047C27.3825 23.3858 24.8808 25.8875 21.7996 25.8875C18.7185 25.8875 16.2168 23.379 16.2168 20.3047C16.2168 20.1615 16.2236 20.0115 16.2373 19.8616L20.3613 14.2106Z" fill="#3A3A3A" stroke="#3A3A3A" stroke-width="0.15"/>
</g>
<g id="Group_33">
<path id="Vector_31" d="M21.4406 17.3601C21.4406 17.5924 21.6242 17.7759 21.8565 17.7759C22.0897 17.7759 22.2723 17.5846 22.2723 17.3601V16.3103C22.2723 16.078 22.0887 15.8945 21.8565 15.8945C21.6242 15.8945 21.4406 16.078 21.4406 16.3103V17.3601Z" fill="#3A3A3A" stroke="#3A3A3A" stroke-width="0.15"/>
</g>
<g id="Group_34">
<path id="Vector_32" d="M21.3156 24.2923C21.3156 24.5246 21.4992 24.7082 21.7315 24.7082C21.9628 24.7082 22.1473 24.5256 22.1473 24.2992V23.2494C22.1473 23.0171 21.9637 22.8336 21.7315 22.8336C21.4992 22.8336 21.3156 23.0171 21.3156 23.2494V24.2923Z" fill="#3A3A3A" stroke="#3A3A3A" stroke-width="0.15"/>
</g>
<g id="Group_35">
<path id="Vector_33" d="M21.5438 23.6653L21.5438 23.6652C21.1575 23.6475 20.737 23.5057 20.4133 23.1963C20.0881 22.8855 19.8669 22.4115 19.8704 21.7426M21.5438 23.6653L19.9454 21.7429M21.5438 23.6653H21.5473H21.5475H21.5477H21.5479H21.5481H21.5483H21.5485H21.5487H21.5489H21.5491H21.5493H21.5495H21.5497H21.5499H21.5501H21.5503H21.5505H21.5507H21.5509H21.5511H21.5513H21.5515H21.5517H21.5519H21.5521H21.5523H21.5525H21.5527H21.5529H21.5531H21.5533H21.5535H21.5537H21.5539H21.5541H21.5543H21.5545H21.5547H21.5549H21.555H21.5552H21.5554H21.5556H21.5558H21.556H21.5562H21.5564H21.5566H21.5568H21.557H21.5572H21.5574H21.5576H21.5578H21.558H21.5582H21.5584H21.5586H21.5588H21.559H21.5592H21.5594H21.5596H21.5598H21.56H21.5602H21.5604H21.5606H21.5608H21.561H21.5612H21.5614H21.5616H21.5618H21.562H21.5622H21.5624H21.5626H21.5628H21.563H21.5632H21.5634H21.5636H21.5638H21.564H21.5642H21.5644H21.5646H21.5648H21.565H21.5652H21.5654H21.5656H21.5658H21.566H21.5662H21.5664H21.5666H21.5668H21.567H21.5672H21.5674H21.5676H21.5678H21.568H21.5682H21.5684H21.5686H21.5688H21.569H21.5692H21.5694H21.5696H21.5698H21.57H21.5702H21.5704H21.5706H21.5708H21.571H21.5712H21.5714H21.5716H21.5718H21.572H21.5722H21.5724H21.5726H21.5728H21.573H21.5732H21.5734H21.5736H21.5738H21.574H21.5742H21.5744H21.5746H21.5748H21.575H21.5752H21.5754H21.5756H21.5758H21.576H21.5762H21.5764H21.5766H21.5768H21.577H21.5772H21.5774H21.5776H21.5778H21.578H21.5782H21.5784H21.5786H21.5788H21.579H21.5792H21.5794H21.5796H21.5798H21.58H21.5802H21.5804H21.5806H21.5808H21.581H21.5812H21.5814H21.5816H21.5818H21.582H21.5822H21.5824H21.5826H21.5828H21.583H21.5832H21.5834H21.5836H21.5838H21.584H21.5842H21.5844H21.5846H21.5848H21.585H21.5852H21.5854H21.5856H21.5858H21.586H21.5862H21.5864H21.5866H21.5868H21.587H21.5872H21.5874H21.5876H21.5878H21.588H21.5882H21.5884H21.5886H21.5888H21.589H21.5892H21.5894H21.5896H21.5898H21.59H21.5902H21.5904H21.5906H21.5908H21.591H21.5912H21.5914H21.5916H21.5918H21.592H21.5922H21.5924H21.5926H21.5928H21.593H21.5932H21.5934H21.5936H21.5938H21.594H21.5942H21.5944H21.5946H21.5948H21.595H21.5952H21.5954H21.5956H21.5958H21.596H21.5962H21.5964H21.5966H21.5968H21.597H21.5972H21.5974H21.5976H21.5978H21.598H21.5982H21.5984H21.5986H21.5988H21.599H21.5992H21.5994H21.5996H21.5998H21.6H21.6002H21.6004H21.6006H21.6008H21.601H21.6012H21.6014H21.6016H21.6018H21.602H21.6022H21.6024H21.6026H21.6028H21.603H21.6032H21.6034H21.6036H21.6038H21.604H21.6042H21.6044H21.6046H21.6048H21.605H21.6052H21.6054H21.6056H21.6058H21.606H21.6062H21.6064H21.6066H21.6068H21.607H21.6072H21.6074H21.6076H21.6078H21.608H21.6082H21.6084H21.6086H21.6088H21.609H21.6092H21.6094H21.6096H21.6098H21.61H21.6102H21.6104H21.6106H21.6108H21.611H21.6112H21.6114H21.6116H21.6118H21.612H21.6122H21.6124H21.6126H21.6128H21.613H21.6132H21.6134H21.6136H21.6138H21.614H21.6142H21.6144H21.6146H21.6148H21.615H21.6152H21.6154H21.6156H21.6158H21.616H21.6162H21.6164H21.6166H21.6168H21.617H21.6172H21.6174H21.6176H21.6178H21.618H21.6182H21.6184H21.6186H21.6188H21.619H21.6192H21.6194H21.6196H21.6198H21.62H21.6202H21.6204H21.6206H21.6208H21.621H21.6212H21.6214H21.6216H21.6218H21.622H21.6222H21.6224H21.6226H21.6228H21.6229H21.6231H21.6233H21.6235H21.6237H21.6239H21.6241H21.6243H21.6245H21.6247H21.6249H21.6251H21.6253H21.6255H21.6257H21.6259H21.6261H21.6263H21.6265H21.6267H21.6269H21.6271H21.6273H21.6275H21.6277H21.6279H21.6281H21.6283H21.6285H21.6287H21.6289H21.6291H21.6293H21.6295H21.6297H21.6299H21.6301H21.6303H21.6305H21.6307H21.6309H21.6311H21.6313H21.6315H21.6317H21.6319H21.6321H21.6323H21.6325H21.6327H21.6329H21.6331H21.6333H21.6335H21.6337H21.6339H21.6341H21.6343H21.6345H21.6347H21.6349H21.6351H21.6353H21.6355H21.6357H21.6359H21.6361H21.6363H21.6365H21.6367H21.6369H21.6371H21.6373H21.6375H21.6377H21.6379H21.6381H21.6383H21.6385H21.6387H21.6389H21.6391H21.6393H21.6395H21.6397H21.6399H21.6401H21.6403H21.6405H21.6407H21.6409H21.6411H21.6413H21.6415H21.6417H21.6419H21.6421H21.6423H21.6425H21.6427H21.6429H21.6431H21.6433H21.6435H21.6437H21.6439H21.6441H21.6443H21.6445H21.6447H21.6449H21.6451H21.6453H21.6455H21.6457H21.6459H21.6461H21.6463H21.6465H21.6467H21.6469H21.6471H21.6473H21.6475H21.6477H21.6479H21.6481H21.6483H21.6485H21.6487H21.6489H21.6491H21.6493H21.6495C22.1077 23.6653 22.5849 23.5175 22.9594 23.249C23.3341 22.9803 23.6095 22.5877 23.6532 22.0987L21.5438 23.6653ZM19.8704 21.7426L19.9454 21.7429M19.8704 21.7426C19.8704 21.7427 19.8704 21.7428 19.8704 21.7429H19.9454M19.8704 21.7426C19.8706 21.5173 20.0608 21.3271 20.2862 21.3271C20.5194 21.3271 20.702 21.5185 20.702 21.7429V21.7435C20.6987 22.211 20.8413 22.474 21.015 22.6234C21.1915 22.775 21.4125 22.8204 21.5842 22.8268L21.5848 22.8269C21.8626 22.8398 22.1666 22.7603 22.4064 22.6144C22.6457 22.4689 22.8102 22.2648 22.8356 22.0321M19.9454 21.7429C19.9454 21.5589 20.1021 21.4021 20.2862 21.4021C20.477 21.4021 20.627 21.5589 20.627 21.7429C20.6202 22.7109 21.2201 22.8881 21.5813 22.9018C22.1676 22.929 22.8561 22.5678 22.9106 22.0361M22.8356 22.0321V22.0321V22.0321V22.0322V22.0322V22.0322V22.0322V22.0323V22.0323V22.0323V22.0323V22.0324V22.0324V22.0324V22.0325V22.0325V22.0325V22.0325V22.0326V22.0326V22.0326V22.0326V22.0327V22.0327V22.0327V22.0327V22.0328V22.0328V22.0328V22.0329V22.0329V22.0329V22.0329V22.033V22.033V22.033V22.0331V22.0331V22.0331V22.0331V22.0332V22.0332V22.0332V22.0333V22.0333V22.0333V22.0333V22.0334V22.0334V22.0334V22.0335V22.0335V22.0335V22.0336V22.0336V22.0336V22.0336V22.0337V22.0337V22.0337V22.0338V22.0338V22.0338V22.0339V22.0339V22.0339V22.034V22.034V22.034V22.0341V22.0341V22.0341V22.0342V22.0342V22.0342V22.0342V22.0343V22.0343V22.0343V22.0344V22.0344V22.0344V22.0345V22.0345V22.0346V22.0346V22.0346V22.0347V22.0347V22.0347V22.0348V22.0348V22.0348V22.0349V22.0349V22.0349V22.035V22.035V22.035V22.0351V22.0351V22.0351V22.0352V22.0352V22.0353V22.0353V22.0353V22.0354V22.0354V22.0354V22.0355V22.0355V22.0356V22.0356V22.0356V22.0357V22.0357V22.0357V22.0358V22.0358V22.0359V22.0359V22.0359V22.036V22.036V22.0361H22.9106M22.8356 22.0321C22.8357 22.0309 22.8359 22.0296 22.836 22.0284L22.9106 22.0361M22.8356 22.0321V22.0321V22.0321V22.032V22.032V22.032V22.032V22.0319V22.0319V22.0319V22.0319V22.0318V22.0318V22.0318V22.0318V22.0317V22.0317V22.0317V22.0317V22.0317V22.0316V22.0316V22.0316V22.0316V22.0315V22.0315V22.0315V22.0315V22.0314V22.0314V22.0314V22.0314V22.0313V22.0313V22.0313V22.0313V22.0313V22.0312V22.0312V22.0312V22.0312V22.0311V22.0311V22.0311V22.0311V22.0311V22.031V22.031V22.031V22.031V22.0309V22.0309V22.0309V22.0309V22.0309V22.0308V22.0308V22.0308V22.0308V22.0307V22.0307V22.0307V22.0307V22.0307V22.0306V22.0306V22.0306V22.0306V22.0306V22.0305V22.0305V22.0305V22.0305V22.0304V22.0304V22.0304V22.0304V22.0304V22.0303V22.0303V22.0303V22.0303V22.0303V22.0302V22.0302V22.0302V22.0302V22.0302V22.0301V22.0301V22.0301V22.0301V22.0301V22.03V22.03V22.03V22.03V22.03V22.0299V22.0299V22.0299V22.0299V22.0298V22.0298V22.0298V22.0298V22.0298V22.0297V22.0297V22.0297V22.0297V22.0297V22.0296V22.0296V22.0296V22.0296V22.0296V22.0295V22.0295V22.0295V22.0295V22.0295V22.0294V22.0294V22.0294V22.0294V22.0294V22.0293V22.0293V22.0293V22.0293V22.0293V22.0292V22.0292V22.0292V22.0292V22.0292V22.0291V22.0291V22.0291V22.0291V22.0291V22.029V22.029V22.029V22.029V22.029V22.0289V22.0289V22.0289V22.0289V22.0289V22.0288V22.0288V22.0288V22.0288V22.0288V22.0287V22.0287V22.0287V22.0287V22.0287V22.0286V22.0286V22.0286V22.0286V22.0286V22.0285V22.0285V22.0285V22.0285V22.0285V22.0284V22.0284V22.0284V22.0284V22.0284V22.0283V22.0283V22.0283V22.0283V22.0283V22.0282V22.0282V22.0282V22.0282V22.0282V22.0281V22.0281V22.0281V22.0281V22.028V22.028V22.028V22.028V22.028V22.0279V22.0279V22.0279V22.0279V22.0279V22.0278V22.0278V22.0278V22.0278V22.0278V22.0277V22.0277V22.0277V22.0277V22.0276V22.0276V22.0276V22.0276V22.0276V22.0275V22.0275V22.0275V22.0275V22.0274V22.0274V22.0274V22.0274V22.0274V22.0273V22.0273V22.0273V22.0273V22.0272V22.0272V22.0272V22.0272V22.0271V22.0271V22.0271V22.0271V22.0271V22.027V22.027V22.027V22.027V22.0269V22.0269V22.0269V22.0269V22.0268V22.0268V22.0268V22.0268V22.0267V22.0267V22.0267V22.0267V22.0267V22.0266V22.0266V22.0266V22.0266V22.0265V22.0265V22.0265V22.0265V22.0264V22.0264V22.0264V22.0264V22.0263V22.0263V22.0263V22.0262V22.0262V22.0262V22.0262V22.0261V22.0261V22.0261V22.0261V22.026V22.026V22.026V22.026V22.0259V22.0259V22.0259V22.0259V22.0258V22.0258V22.0258V22.0257V22.0257V22.0257V22.0257V22.0256V22.0256V22.0256V22.0256V22.0255V22.0255V22.0255V22.0254V22.0254V22.0254V22.0254V22.0253V22.0253V22.0253V22.0252V22.0252V22.0252V22.0251V22.0251V22.0251V22.0251V22.025V22.025V22.025V22.0249V22.0249V22.0249V22.0248V22.0248V22.0248V22.0248V22.0247V22.0247V22.0247V22.0246V22.0246V22.0246V22.0245V22.0245V22.0245V22.0244V22.0244V22.0244V22.0243V22.0243V22.0243V22.0242V22.0242V22.0242V22.0241V22.0241V22.0241V22.024V22.024V22.024V22.0239V22.0239V22.0239V22.0238V22.0238V22.0238V22.0237V22.0237V22.0237V22.0236V22.0236V22.0236V22.0235V22.0235V22.0235V22.0234V22.0234V22.0233V22.0233V22.0233V22.0232V22.0232V22.0232V22.0231V22.0231V22.023V22.023V22.023V22.0229V22.0229V22.0229V22.0228V22.0228V22.0227V22.0227V22.0227V22.0226V22.0226V22.0225V22.0225V22.0225V22.0224V22.0125L22.8362 22.0126C22.8891 21.6143 22.6674 21.3036 22.3739 21.0697C22.0812 20.8363 21.7311 20.6915 21.5622 20.6272M22.9106 22.0361V22.0224C23.0265 21.1499 21.929 20.6864 21.5882 20.5569M21.5622 20.6272C21.5625 20.6273 21.5627 20.6274 21.5629 20.6275L21.5882 20.5569M21.5622 20.6272C21.562 20.6271 21.5618 20.6271 21.5615 20.627L21.5882 20.5569M21.5622 20.6272C21.3238 20.5421 20.8333 20.3645 20.4463 20.0345C20.2518 19.8687 20.0807 19.6622 19.9816 19.4068C19.8822 19.1505 19.8571 18.8498 19.9477 18.4999L20.0203 18.5187M21.5882 20.5569C21.111 20.3864 19.6727 19.8616 20.0203 18.5187M20.0203 18.5187L19.9477 18.5C20.2652 17.2655 21.3068 16.8309 22.1307 16.9516M20.0203 18.5187L22.1307 16.9516M22.1199 17.0258C22.8833 17.1349 23.6809 17.7689 23.64 18.8868C23.6331 19.0776 23.4764 19.2208 23.2855 19.214C23.0946 19.2072 22.9515 19.0504 22.9583 18.8595L22.1199 17.0258ZM22.1199 17.0258L22.1305 16.9516C22.1306 16.9516 22.1306 16.9516 22.1307 16.9516M22.1199 17.0258L22.1307 16.9516" fill="#3A3A3A" stroke="#3A3A3A" stroke-width="0.15"/>
</g>
<g id="Group_36">
<path id="Vector_34" d="M13.3628 20.8446L13.3629 20.8453C13.6399 25.2774 17.3494 28.7573 21.7952 28.7573C26.4572 28.7573 30.241 24.9667 30.241 20.3115C30.241 15.6562 26.4504 11.8657 21.7952 11.8657C21.5525 11.8657 21.3024 11.8792 21.0584 11.8995L21.0575 11.8996C20.827 11.916 20.626 11.7504 20.6093 11.5165C20.5929 11.287 20.7575 11.0852 20.9852 11.0683C20.9852 11.0683 20.9853 11.0683 20.9853 11.0683L20.9908 11.1431C21.2635 11.1226 21.5293 11.109 21.7952 11.109C26.8736 11.109 30.9976 15.2399 30.9976 20.3115C30.9976 25.3762 26.8668 29.5071 21.7952 29.5071C16.9486 29.5071 12.9131 25.7239 12.6064 20.8909L13.3628 20.8446ZM13.3628 20.8446C13.3464 20.6139 13.1482 20.438 12.9213 20.4548L13.3628 20.8446Z" fill="#3A3A3A" stroke="#3A3A3A" stroke-width="0.15"/>
</g>
</g>
</g>
</g>
</svg>
