<svg width="30" height="30" viewBox="0 0 30 30" fill="none" xmlns="http://www.w3.org/2000/svg">
<g id="Group 2612605">
<g id="Group">
<g id="Group_2">
<g id="Group 2612834">
<path id="Vector" d="M25.3685 22.3998L23.5352 24.0998L22.7018 23.2664C22.3685 22.9331 21.8352 22.9331 21.5352 23.2664C21.2018 23.5998 21.2018 24.1331 21.5352 24.4331L22.9352 25.8331C23.1018 25.9998 23.3018 26.0664 23.5352 26.0664C23.7352 26.0664 23.9352 25.9998 24.1018 25.8331L26.5352 23.5664C26.8685 23.2664 26.9018 22.7331 26.5685 22.3998C26.2352 22.0998 25.7018 22.0664 25.3685 22.3998Z" fill="currentColor"/>
<path id="Vector_2" d="M23.7667 17.8C22.6333 17.8 21.5667 18.1333 20.6667 18.6667C19.7667 18.3 18.9 18 18.2667 17.8667C18.1667 17.8333 18.1 17.7667 18.1 17.6667C18.1 17.6 18.1667 17.5 18.2 17.4667C19.6333 16.5333 22.0333 14.0667 22.0333 8.06667C22.0333 6.13333 21.3667 4.2 20.2333 2.73333C19.2667 1.5 17.4333 0 14.3333 0C11.1667 0 9.33333 1.5 8.36667 2.76667C7.26667 4.2 6.63333 6.13333 6.63333 8.1C6.63333 14.1 9.03333 16.5667 10.4333 17.4667C10.4667 17.5 10.5333 17.6667 10.5667 17.7667C10.5667 17.8 10.5 17.8667 10.4 17.8667C9 18.1667 6.43333 19.2333 4.3 20.6333C1.46667 22.4667 0 24.4667 0 26.4667C0 29.4 5.46667 30 14.3 30C16.6 30 19.5333 29.9667 22.0333 29.7333C22.6 29.9 23.1667 30 23.7667 30C27.1333 30 29.8667 27.2667 29.8667 23.9C29.8667 20.5333 27.1333 17.8 23.7667 17.8ZM14.3 28.3333C11.4667 28.3333 7.9 28.2667 5.23333 27.9C2.6 27.5 1.66667 26.9 1.66667 26.4667C1.66667 25.1 2.93333 23.5 5.23333 22C7.2 20.7333 9.53333 19.7667 10.8 19.4667C11.7333 19.2667 12.3667 18.4333 12.2667 17.5333C12.2 17.0667 11.9333 16.4 11.4 16.0667C10.2667 15.3333 8.33333 13.3 8.33333 8.06667C8.33333 5.83333 9.6 1.63333 14.3667 1.63333C18.8 1.63333 20.4 5.46667 20.4 8.06667C20.4 13.2667 18.4667 15.3 17.3333 16.0667C16.8333 16.4 16.4667 17.0333 16.4667 17.6667C16.4667 18.5333 17.0667 19.3 17.9333 19.5C18.3 19.5667 18.7333 19.7 19.2333 19.9C18.3 20.9667 17.7 22.3667 17.7 23.9333C17.7 25.6333 18.4 27.1667 19.5333 28.2667C17.7 28.3333 15.8667 28.3333 14.3 28.3333ZM23.7667 28.3333C21.3333 28.3333 19.3333 26.3333 19.3333 23.9C19.3333 21.4667 21.3333 19.4667 23.7667 19.4667C26.2 19.4667 28.2 21.4667 28.2 23.9C28.2 26.3333 26.2333 28.3333 23.7667 28.3333Z" fill="currentColor"/>
</g>
</g>
</g>
</g>
</svg>
