<svg width="15" height="15" viewBox="0 0 15 15" fill="none" xmlns="http://www.w3.org/2000/svg">
<g id="Group 2612728">
<g id="Layer 2">
<path id="Vector" d="M3.55009 3.74999C3.55009 3.00832 3.77002 2.28329 4.18207 1.66661C4.59413 1.04993 5.1798 0.569281 5.86502 0.285453C6.55024 0.00162481 7.30424 -0.0726375 8.03167 0.0720567C8.75909 0.216751 9.42728 0.573903 9.95172 1.09835C10.4762 1.62279 10.8333 2.29098 10.978 3.01841C11.1227 3.74583 11.0484 4.49983 10.7646 5.18505C10.4808 5.87028 10.0001 6.45594 9.38346 6.868C8.76678 7.28005 8.04176 7.49999 7.30008 7.49999C6.30552 7.49999 5.35169 7.1049 4.64843 6.40164C3.94517 5.69838 3.55009 4.74455 3.55009 3.74999ZM13.5679 13.0553C13.4885 12.7312 13.3828 12.4141 13.2519 12.1071C12.2983 9.92677 10.0161 8.57141 7.30008 8.57141C4.21437 8.57141 1.70188 10.35 1.04831 13.0018C0.988847 13.2388 0.984215 13.4862 1.03476 13.7253C1.08531 13.9643 1.1897 14.1887 1.34001 14.3814C1.49031 14.5741 1.68256 14.7299 1.90215 14.8371C2.12174 14.9443 2.36288 15 2.60723 15H11.9929C12.2384 15.0015 12.4809 14.9467 12.7019 14.8399C12.9229 14.7331 13.1166 14.5771 13.2679 14.3839C13.4145 14.1992 13.5176 13.9839 13.5695 13.7538C13.6215 13.5238 13.6209 13.2851 13.5679 13.0553Z" fill="currentColor"/>
</g>
</g>
</svg>
